<svg xmlns="http://www.w3.org/2000/svg" width="46" height="46" viewBox="0 0 46 46" fill="none">
  <path fill-rule="evenodd" clip-rule="evenodd" d="M17.3071 35.1256C17.7588 35.9923 18.8291 36.329 19.6958 35.8773C20.5625 35.4256 20.8995 34.3555 20.4478 33.4888C19.996 32.622 18.9257 32.285 18.059 32.7367C17.1923 33.1884 16.8554 34.2588 17.3071 35.1256ZM25.0538 12.3173L5.95201 13.5981C5.11729 13.6977 4.53092 14.4423 4.65233 15.2578C4.76748 16.0766 5.54385 16.6623 6.3787 16.5626L18.4644 15.7514L6.47315 22.0009C5.08508 22.7243 4.54672 24.4347 5.27021 25.8229L14.1092 42.783C14.8325 44.1709 16.5431 44.7095 17.9311 43.9861L40.5444 32.2009C41.9325 31.4774 42.4711 29.7667 41.7477 28.3787L37.1645 19.5846L38.2949 18.9955C39.0612 18.5961 39.3559 17.6592 38.9567 16.8931L37.1236 13.3758C36.7241 12.6093 35.7876 12.3147 35.0213 12.7141L33.8909 13.3032L32.9087 11.4187C32.1852 10.0305 30.4746 9.49218 29.0864 10.2156L25.0538 12.3173ZM10.1203 24.0939L28.7131 14.404C29.4792 14.0047 30.4161 14.2992 30.8156 15.0657L31.9939 17.3267C32.3934 18.0932 32.0981 19.0298 31.332 19.4291L18.8948 25.9109L16.0284 25.0087L15.126 27.8751L12.7392 29.119C11.9727 29.5185 11.0363 29.2238 10.6368 28.4573L9.45848 26.1963C9.05896 25.4299 9.35376 24.4934 10.1203 24.0939ZM31.7011 24.4287C31.2494 23.562 31.5866 22.4916 32.4533 22.0399C33.32 21.5882 34.3905 21.925 34.8422 22.7917C35.294 23.6587 34.9569 24.729 34.0902 25.1807C33.2233 25.6324 32.153 25.2957 31.7011 24.4287ZM14.7945 36.4351C13.6193 34.1801 14.4946 31.3993 16.7495 30.2241C19.0044 29.0489 21.7851 29.9243 22.9604 32.1793C24.1356 34.4343 23.2603 37.215 21.0054 38.3901C18.7504 39.5653 15.9697 38.6901 14.7945 36.4351Z" fill="white"/>
</svg>
