<svg xmlns="http://www.w3.org/2000/svg" width="24" height="24" viewBox="0 0 24 24" fill="none">
  <path fill-rule="evenodd" clip-rule="evenodd" d="M4.49994 17.7959C4.49994 18.4858 5.06001 19.0458 5.7499 19.0458C6.4398 19.0458 6.99987 18.4858 6.99987 17.7959C6.99987 17.106 6.4398 16.5459 5.7499 16.5459C5.06001 16.5459 4.49994 17.106 4.49994 17.7959ZM16.79 6.04584L4.41497 0.615897C3.85996 0.405946 3.24997 0.680781 3.05995 1.23084C2.86491 1.78095 3.15983 2.40084 3.71495 2.61079L11.5449 6.04584H1.9999C0.895002 6.04584 0 6.9409 0 8.0459V21.546C0 22.6508 0.895057 23.5459 1.9999 23.5459H19.9999C21.1049 23.5459 22.0001 22.6508 22.0001 21.546V14.5459H22.8999C23.5099 14.5459 24 14.0556 24 13.4458V10.646C24 10.0359 23.5099 9.54594 22.8999 9.54594H22.0001V8.0459C22.0001 6.9409 21.1049 6.04584 19.9999 6.04584H16.79ZM3.60009 8.54582H18.3998C19.0097 8.54582 19.5001 9.03584 19.5001 9.64599V11.4457C19.5001 12.0558 19.0097 12.5458 18.3998 12.5458H8.4999L6.99992 11.0459L5.49994 12.5458H3.60009C2.99 12.5458 2.49993 12.0558 2.49993 11.4457V9.64599C2.49987 9.03589 2.98994 8.54582 3.60009 8.54582ZM16.9999 15.7958C16.9999 15.1059 17.5601 14.5459 18.25 14.5459C18.9399 14.5459 19.5001 15.1059 19.5001 15.7958C19.5001 16.4859 18.9399 17.0459 18.25 17.0459C17.56 17.0459 16.9999 16.4859 16.9999 15.7958ZM2.49987 17.7959C2.49987 16.001 3.955 14.5459 5.7499 14.5459C7.5448 14.5459 8.99988 16.001 8.99988 17.7959C8.99988 19.5909 7.5448 21.046 5.7499 21.046C3.955 21.046 2.49987 19.5909 2.49987 17.7959Z" fill="#404844"/>
</svg>
