<svg xmlns="http://www.w3.org/2000/svg" width="33" height="40" viewBox="0 0 33 40" fill="none">
  <path d="M13.9565 31.0632L15.1567 25.1184C15.5281 23.2791 14.0754 22.2752 13.0139 22.0505L10.9867 21.6011C9.95831 21.3834 8.92623 21.4613 8.00221 21.8264C6.85449 22.2799 5.34782 23.3652 4.68816 25.9597C4.64075 26.1467 4.59862 26.3311 4.56188 26.5131C4.16301 28.4886 4.4011 30.1616 5.27203 31.492C5.93681 32.5077 7.03357 33.2346 8.28088 33.4865L10.5592 33.9464C12.2276 34.2834 13.5294 33.1785 13.9565 31.0632ZM8.84195 25.001C8.87134 24.8554 8.95623 24.7212 9.08975 24.6326C9.35667 24.4553 9.71672 24.528 9.89385 24.795L12.0605 28.0579C12.2378 28.3247 12.1651 28.6849 11.8981 28.862C11.6313 29.0393 11.2712 28.9666 11.094 28.6996L8.9274 25.4367C8.83877 25.3034 8.81258 25.1465 8.84195 25.001ZM10.0017 30.9019L6.97477 26.3433C6.88613 26.2099 6.85994 26.053 6.8893 25.9076C6.91866 25.7622 7.00358 25.6278 7.1371 25.5393C7.40402 25.362 7.76399 25.4346 7.94121 25.7016L10.9682 30.2602C11.1455 30.5269 11.0728 30.8872 10.8058 31.0643C10.539 31.2415 10.1789 31.1688 10.0017 30.9019Z" fill="#F9DEC0"/>
  <path d="M12.5137 36.2718C13.3892 36.3659 14.2101 36.0301 14.7626 35.4249L26.1663 29.7261C26.4331 29.6075 27.505 29.0641 27.9842 27.8156C28.3697 26.8112 28.2598 25.6717 27.6569 24.4301C27.4052 23.9112 26.7804 23.6948 26.2616 23.9465C25.7428 24.1984 25.5264 24.823 25.7782 25.3418C26.114 26.0337 26.2026 26.6077 26.0411 27.0497C25.86 27.5448 25.3859 27.7854 25.3239 27.8149C25.2953 27.8258 25.289 27.8299 25.2579 27.8453L15.7176 32.6129L17.3596 24.4806C17.4183 24.1896 17.4034 23.8858 17.3165 23.6023L16.5242 21.015C16.4936 20.9151 16.4884 20.8082 16.509 20.7059L16.8209 19.1615C16.8415 19.0591 16.8877 18.9627 16.9547 18.8825L18.6887 16.8055C18.8789 16.5778 19.0106 16.3035 19.0693 16.0124L20.7232 7.82087L27.6664 15.9164C27.6839 15.9368 27.7023 15.9566 27.7213 15.9756C27.7251 15.9794 28.0978 16.3866 28.0803 16.9346C28.0648 17.4098 27.7602 17.9115 27.1746 18.4257C26.7411 18.8062 26.6983 19.466 27.0787 19.8994C27.4593 20.3326 28.1189 20.3756 28.5524 19.9951C29.5896 19.0846 30.1328 18.0774 30.1676 17.0015C30.2103 15.6647 29.433 14.7479 29.2333 14.5352L20.7524 4.64668C20.4166 3.98111 19.8178 3.45459 19.0469 3.22566C14.2856 1.81228 11.3692 1.75134 9.29457 3.02176C7.59612 4.0616 6.50088 6.02645 5.86231 9.18964C5.83779 9.31112 5.81386 9.43482 5.79062 9.55989C4.64628 15.731 8.7373 17.5589 10.5494 18.0585C10.8662 18.1458 11.0635 18.467 10.9983 18.7897C10.9332 19.1123 10.6269 19.3318 10.3009 19.2893C8.43696 19.0469 3.95708 19.1445 2.61749 25.276C1.88174 28.6378 2.10433 30.9877 3.31467 32.6676C4.74618 34.6548 7.4974 35.7328 12.5137 36.2718ZM4.25589 31.9893C3.2521 30.5961 3.09193 28.542 3.7509 25.5235C4.22021 23.375 5.67602 19.8575 10.151 20.4399C11.0785 20.5605 11.9502 19.9366 12.1354 19.0192C12.3206 18.1019 11.7594 17.1885 10.8576 16.9399C6.50718 15.7408 6.53036 11.934 6.93128 9.77152C7.49495 6.73831 8.43739 4.9071 9.90026 4.01136C11.6425 2.94441 14.3615 3.04527 18.7166 4.33816C19.5376 4.58185 20.0284 5.40051 19.8584 6.24244L17.9321 15.783C17.9114 15.8855 17.8651 15.9818 17.7982 16.0621L16.0643 18.1391C15.8739 18.3668 15.7423 18.6411 15.6836 18.9321L15.3717 20.4765C15.313 20.7673 15.3279 21.0711 15.4149 21.3549L16.2072 23.9424C16.2377 24.0421 16.243 24.1489 16.2223 24.2512L14.2693 33.9245C14.115 34.6885 13.4136 35.2018 12.6378 35.1183C8.04424 34.6245 5.45926 33.6595 4.25589 31.9893Z" fill="#F9DEC0"/>
  <path d="M17.405 13.5543L18.5824 7.72259C18.9483 5.91043 17.5174 4.92143 16.4718 4.70005L14.4832 4.25944C13.4722 4.04524 12.4576 4.12191 11.5493 4.48089C10.4209 4.92678 8.93972 5.9934 8.29157 8.54311C8.24493 8.72676 8.20359 8.90806 8.1675 9.08682C7.77568 11.0275 8.00984 12.6713 8.86592 13.9788C9.51946 14.9776 10.5978 15.6924 11.8245 15.9401L14.0592 16.3913C15.7026 16.7231 16.9847 15.636 17.405 13.5543ZM12.3165 7.23211C12.3459 7.08654 12.4308 6.95217 12.5643 6.86366C12.8312 6.68635 13.1913 6.75904 13.3684 7.02601L15.5619 10.3294C15.7392 10.5961 15.6665 10.9563 15.3995 11.1335C15.1327 11.3108 14.7726 11.2381 14.5954 10.9711L12.402 7.66776C12.3133 7.5344 12.2871 7.3776 12.3165 7.23211ZM13.5631 13.2638L10.5362 8.70521C10.4475 8.57193 10.4213 8.41505 10.4507 8.26956C10.4801 8.12407 10.565 7.9897 10.6985 7.90119C10.9654 7.72388 11.3254 7.79656 11.5026 8.06354L14.5296 12.622C14.7069 12.8889 14.6342 13.2492 14.3672 13.4262C14.1004 13.6034 13.7404 13.5307 13.5631 13.2638Z" fill="#F9DEC0"/>
  <path d="M23.6466 5.16848C23.5438 5.25601 23.4792 5.37185 23.4544 5.49485C23.4204 5.66333 23.4612 5.84527 23.5815 5.98633L23.927 6.39182C24.1349 6.63562 24.501 6.66474 24.7449 6.45691C24.9886 6.24932 25.018 5.88296 24.8101 5.63908L24.4646 5.23359C24.2566 4.98976 23.8905 4.96065 23.6466 5.16848Z" fill="#F9DEC0"/>
  <path d="M25.286 7.09025C25.1832 7.17794 25.1186 7.29379 25.0938 7.4167C25.0597 7.58519 25.1006 7.76704 25.2208 7.9081L28.2363 11.4472C28.4441 11.6912 28.8102 11.7203 29.0541 11.5125C29.2978 11.3048 29.3272 10.9386 29.1193 10.6947L26.1038 7.15559C25.896 6.91179 25.5299 6.8825 25.286 7.09025Z" fill="#F9DEC0"/>
  <path d="M17.8234 35.1916C17.6568 35.2747 17.5477 35.427 17.5135 35.5963C17.4888 35.7186 17.5032 35.8495 17.5631 35.9698C17.7062 36.2563 18.0545 36.3729 18.3412 36.23L22.5053 34.1523C22.7918 34.0094 22.9083 33.6609 22.7653 33.3741C22.6222 33.0875 22.2739 32.971 21.9872 33.1141L17.8234 35.1916Z" fill="#F9DEC0"/>
  <path d="M23.7378 32.2397C23.5713 32.3228 23.4624 32.475 23.4282 32.6444C23.4035 32.7665 23.4178 32.8976 23.4778 33.0178C23.6209 33.3045 23.9693 33.4209 24.2559 33.2779L24.7241 33.0442C25.0106 32.9011 25.1271 32.553 24.984 32.266C24.8409 31.9794 24.4925 31.863 24.2059 32.0061L23.7378 32.2397Z" fill="#F9DEC0"/>
</svg>
