<svg xmlns="http://www.w3.org/2000/svg" width="25" height="19" viewBox="0 0 25 19" fill="none">
  <path d="M21.0307 9.55835H16.7497C15.4252 9.55835 14.9335 10.7037 14.9263 11.4696L14.8986 12.935C14.8916 13.677 15.0897 14.3803 15.4714 14.9686C15.9455 15.6994 16.907 16.5903 18.7943 16.6842C18.9304 16.6909 19.0638 16.6943 19.1949 16.6943C20.6175 16.6943 21.7418 16.2959 22.5406 15.5074C23.1506 14.9055 23.5003 14.0451 23.5003 13.1469V11.5062C23.5004 10.3047 22.554 9.55835 21.0307 9.55835ZM17.5507 13.9441C17.4459 13.9441 17.3411 13.9041 17.2612 13.8241C17.1012 13.6642 17.1012 13.4049 17.2612 13.245L19.2161 11.2901C19.376 11.1301 19.6354 11.1301 19.7952 11.2901C19.9552 11.4499 19.9552 11.7092 19.7952 11.8691L17.8402 13.8241C17.7603 13.904 17.6555 13.9441 17.5507 13.9441ZM21.4716 12.3173L18.7403 15.0485C18.6604 15.1285 18.5555 15.1685 18.4508 15.1685C18.3461 15.1685 18.2412 15.1285 18.1613 15.0485C18.0013 14.8886 18.0013 14.6294 18.1613 14.4694L20.8926 11.7382C21.0524 11.5782 21.3118 11.5782 21.4716 11.7382C21.6315 11.8981 21.6315 12.1573 21.4716 12.3173Z" fill="#404844"/>
  <path d="M24.8339 9.82892C24.7768 9.20994 24.4297 8.68888 23.9338 8.39114L18.3975 1.2968C18.2782 1.12882 17.7525 0.463008 16.8217 0.305884C16.0728 0.179456 15.2998 0.414718 14.5249 1.0053C14.201 1.25197 14.1386 1.71449 14.3852 2.03832C14.632 2.36209 15.0944 2.42458 15.4182 2.17785C15.85 1.84886 16.2348 1.70733 16.5632 1.75738C16.9311 1.81349 17.1637 2.10791 17.1928 2.14667C17.2044 2.16493 17.2081 2.16875 17.2231 2.18811L21.8547 8.12318H15.9984C15.7888 8.12318 15.5807 8.17595 15.3967 8.27569L13.7172 9.18538C13.6523 9.2205 13.5791 9.239 13.5054 9.239H12.3933C12.3195 9.239 12.2464 9.2205 12.1815 9.18538L10.5022 8.27575C10.318 8.17596 10.1099 8.12318 9.90025 8.12318H4.00128L8.63276 2.18811C8.64441 2.17312 8.65557 2.15765 8.66606 2.14182C8.66813 2.13866 8.89787 1.82393 9.27946 1.7595C9.61045 1.70381 10.0001 1.84449 10.4378 2.17785C10.7615 2.42464 11.224 2.36209 11.4708 2.03832C11.7174 1.71449 11.655 1.25203 11.3311 1.0053C10.5562 0.41484 9.78347 0.179638 9.03418 0.305884C8.1032 0.463069 7.57747 1.129 7.4582 1.29686L1.80092 8.54644C1.3873 8.87173 1.10666 9.35967 1.05595 9.92502C0.743152 13.4169 1.10842 15.4434 2.27727 16.7013C3.23403 17.7313 4.74656 18.2146 7.02444 18.2145C7.11192 18.2145 7.20086 18.2138 7.29065 18.2124C11.7204 18.1421 12.4136 15.0561 12.5062 13.7325C12.5224 13.501 12.717 13.3197 12.9494 13.3197C13.1817 13.3197 13.3764 13.501 13.3925 13.7325C13.4852 15.056 14.1786 18.1421 18.6082 18.2124C21.0371 18.2518 22.632 17.7695 23.6253 16.6974C24.8002 15.4293 25.1617 13.3751 24.8339 9.82892ZM23.0244 16.1409C22.2006 17.0301 20.8017 17.4279 18.6212 17.3936C17.069 17.369 14.4318 16.8531 14.2096 13.6754C14.1635 13.0168 13.61 12.5008 12.9494 12.5008C12.2888 12.5008 11.7352 13.0168 11.6892 13.6754C11.4673 16.8531 8.82998 17.3689 7.27772 17.3936C5.10024 17.4273 3.70153 17.0311 2.87738 16.144C1.89574 15.0876 1.58568 13.1921 1.87184 9.99812C1.92577 9.39607 2.42366 8.94211 3.02995 8.94211H9.90037C9.97414 8.94211 10.0473 8.96067 10.1122 8.99579L11.7915 9.90536C11.9757 10.0052 12.1838 10.058 12.3934 10.058H13.5056C13.715 10.058 13.9231 10.0053 14.1073 9.90542L15.787 8.99573C15.8517 8.96067 15.9249 8.94211 15.9985 8.94211H22.9645C23.5147 8.94211 23.9678 9.35573 24.0185 9.90421C24.3185 13.1515 24.0119 15.0749 23.0244 16.1409Z" fill="#404844"/>
  <path d="M8.43343 9.61829H4.2339C2.92891 9.61829 2.44449 10.7465 2.43739 11.5009L2.41034 12.9384C2.40336 13.6679 2.59816 14.3592 2.97344 14.9375C3.4396 15.656 4.38453 16.5318 6.23927 16.6241C6.37285 16.6307 6.50408 16.634 6.63281 16.634C8.03031 16.634 9.13497 16.2423 9.92011 15.4673C10.5199 14.8756 10.8638 14.0296 10.8638 13.1463V11.537C10.8638 10.3535 9.93255 9.61829 8.43343 9.61829ZM4.76988 14.0223C4.66505 14.0223 4.56022 13.9823 4.48032 13.9023C4.32034 13.7424 4.32034 13.4831 4.48032 13.3233L6.45955 11.3441C6.61934 11.1841 6.87875 11.1841 7.0386 11.3441C7.19858 11.504 7.19858 11.7633 7.0386 11.9232L5.05938 13.9023C4.97948 13.9823 4.87465 14.0223 4.76988 14.0223ZM8.76916 12.3171L6.03786 15.0484C5.95802 15.1283 5.85313 15.1684 5.74836 15.1684C5.64359 15.1684 5.53876 15.1284 5.45886 15.0484C5.29889 14.8885 5.29889 14.6292 5.45886 14.4693L8.1901 11.7381C8.34996 11.5781 8.60943 11.5781 8.76922 11.7381C8.92908 11.8979 8.92907 12.1572 8.76916 12.3171Z" fill="#404844"/>
  <path d="M1.7582 6.46938C1.83312 6.52828 1.9223 6.5568 2.01087 6.5568C2.1322 6.5568 2.25238 6.50311 2.33319 6.40022L2.56548 6.10447C2.70513 5.9266 2.67413 5.66919 2.49626 5.52948C2.31857 5.38983 2.06098 5.4207 1.92127 5.59858L1.68898 5.89432C1.54933 6.07232 1.58033 6.32966 1.7582 6.46938Z" fill="#404844"/>
  <path d="M2.85572 5.0672C2.93077 5.12611 3.01995 5.15462 3.10846 5.15462C3.22979 5.15462 3.34991 5.10093 3.43072 4.99804L5.45823 2.41719C5.59801 2.23932 5.56701 1.98191 5.38919 1.8422C5.21138 1.70261 4.95392 1.73342 4.8142 1.9113L2.78669 4.49221C2.64703 4.67008 2.67791 4.92749 2.85572 5.0672Z" fill="#404844"/>
  <path d="M23.344 6.30674C23.4248 6.41035 23.5454 6.46459 23.6673 6.46459C23.7553 6.46459 23.8439 6.43638 23.9188 6.37814C24.0971 6.23909 24.1291 5.98181 23.9901 5.80339L21.9708 3.21241C21.8319 3.03411 21.5745 3.0022 21.396 3.14119C21.2177 3.28023 21.1858 3.53752 21.3248 3.71594L23.344 6.30674Z" fill="#404844"/>
  <path d="M20.4737 2.62596C20.5545 2.72958 20.6751 2.78369 20.797 2.78369C20.885 2.78369 20.9737 2.75549 21.0485 2.69719C21.2268 2.55814 21.2587 2.30079 21.1197 2.12244L20.8926 1.83118C20.7536 1.65294 20.4965 1.62091 20.3179 1.76002C20.1396 1.89906 20.1077 2.15641 20.2467 2.33477L20.4737 2.62596Z" fill="#404844"/>
</svg>
