<svg xmlns="http://www.w3.org/2000/svg" width="46" height="46" viewBox="0 0 46 46" fill="none">
  <g clip-path="url(#clip0_23561_69698)">
    <path d="M15.0865 11.4658C15.109 11.6188 15.1616 11.7659 15.2413 11.8984C15.321 12.031 15.4262 12.1464 15.5508 12.2381C15.6754 12.3297 15.8169 12.3957 15.9672 12.4322C16.1175 12.4687 16.2736 12.4751 16.4264 12.4509C17.6551 12.2616 18.9024 12.2234 20.1405 12.3371C24.3654 12.7371 27.8742 15.2632 29.7673 19.2682C31.6611 23.2744 31.3855 27.5901 29.0116 31.1093C28.314 32.1364 27.4938 33.0747 26.5691 33.9034C26.4536 34.0062 26.3596 34.1308 26.2925 34.2701C26.2254 34.4095 26.1865 34.5607 26.1782 34.7151C26.1698 34.8695 26.1921 35.024 26.2438 35.1698C26.2954 35.3155 26.3754 35.4496 26.4792 35.5643C26.6917 35.7946 26.9866 35.9317 27.2997 35.9457C27.6127 35.9597 27.9187 35.8494 28.1509 35.6389C29.2199 34.6799 30.1679 33.5941 30.974 32.4056C33.569 28.5603 34.0607 23.7523 32.368 19.3361L37.4327 16.9421C38.025 16.6621 38.2806 15.9616 38.0033 15.3751C37.7264 14.7892 37.0219 14.5418 36.4303 14.8214L31.3656 17.2154C29.0284 13.1062 25.002 10.4347 20.3845 9.99788C18.9531 9.86566 17.5109 9.90891 16.0899 10.1267C15.7799 10.1725 15.5005 10.3389 15.3126 10.5897C15.1246 10.8405 15.0434 11.1554 15.0865 11.4658ZM6.73278 14.8231C6.43336 15.1579 6.23762 15.5724 6.16933 16.0163C6.10103 16.4602 6.16313 16.9144 6.34807 17.3237L6.49986 17.6514C7.3927 19.5403 8.78236 20.9953 10.1411 22.2158C8.46083 24.6371 7.50718 26.6052 7.1623 28.3498C7.04479 28.7686 7.04768 29.2121 7.17064 29.6293C7.29361 30.0466 7.53167 30.4207 7.85752 30.7089C8.02329 30.8565 8.20942 30.9796 8.41019 31.0743C9.95782 31.9173 12.1369 32.4555 15.0489 32.7147C15.1442 34.5105 15.3933 36.471 16.2535 38.2907L16.4083 38.6099C16.6078 39.0101 16.919 39.3439 17.3041 39.5711C17.6892 39.7983 18.1319 39.9091 18.5786 39.8902C20.6664 39.8011 22.8829 39.1207 24.9882 37.9235C25.1231 37.8477 25.2417 37.7461 25.3373 37.6244C25.4329 37.5027 25.5036 37.3634 25.5454 37.2144C25.5871 37.0654 25.5991 36.9096 25.5806 36.756C25.5621 36.6024 25.5136 36.4539 25.4377 36.319C25.2809 36.0482 25.0232 35.8506 24.721 35.7695C24.4188 35.6884 24.0968 35.7305 23.8255 35.8864C22.059 36.8907 20.2273 37.4619 18.5263 37.5406L18.3936 37.2665C17.5583 35.4993 17.4313 33.4858 17.3734 31.5752C17.3551 30.9728 16.8818 30.4853 16.275 30.4478C13.1575 30.2528 10.9526 29.7777 9.53481 28.9956C9.50477 28.9784 9.47206 28.9822 9.44098 28.9694C9.45564 28.9226 9.46777 28.8753 9.47643 28.8273C9.7782 27.2418 10.8244 25.2408 12.6763 22.7103C12.851 22.4733 12.9298 22.1789 12.8968 21.8863C12.8638 21.5937 12.7214 21.3243 12.4983 21.1322C11.0916 19.928 9.51822 18.4885 8.64808 16.6477L8.51418 16.3562C9.59011 15.1621 11.091 14.1511 12.8585 13.4276C13.4646 13.1803 13.758 12.4933 13.5134 11.8929C13.2808 11.2932 12.58 11.0071 11.9735 11.2554C9.86231 12.1186 8.04956 13.3531 6.73214 14.8234L6.73278 14.8231ZM18.4099 29.6995C18.6869 30.2853 19.3907 30.5331 19.983 30.2531L21.0286 29.7589C21.6208 29.4789 21.8768 28.7775 21.5998 28.1916C21.3229 27.6058 20.6184 27.3583 20.0262 27.6383L18.9806 28.1325C18.3883 28.4125 18.133 29.1136 18.4099 29.6995ZM14.4978 21.4231C14.7747 22.009 15.4786 22.2568 16.0708 21.9768L17.1164 21.4826C17.7087 21.2026 17.9646 20.5012 17.6877 19.9153C17.4108 19.3294 16.7063 19.082 16.114 19.3619L15.0684 19.8562C14.4762 20.1361 14.2209 20.8373 14.4978 21.4231ZM20.0725 20.6516C20.0293 20.9587 20.1096 21.2704 20.2958 21.5183C20.482 21.7663 20.7589 21.9303 21.0659 21.9744C21.0744 21.9758 21.9625 22.1161 22.2924 22.814C22.6132 23.4927 22.1912 24.2092 22.161 24.258C22.078 24.3869 22.0213 24.5309 21.9941 24.6818C21.9669 24.8327 21.9697 24.9875 22.0025 25.1373C22.0352 25.2871 22.0972 25.429 22.1849 25.5548C22.2726 25.6806 22.3842 25.7878 22.5135 25.8703C22.7785 26.0383 23.099 26.095 23.4056 26.0283C23.7122 25.9615 23.9801 25.7766 24.1513 25.5137C24.5903 24.84 25.1458 23.3006 24.4367 21.8004C23.7315 20.3086 22.1904 19.7429 21.3917 19.6442C21.0838 19.6066 20.7734 19.6909 20.5269 19.8792C20.2803 20.0674 20.1173 20.3447 20.0725 20.6516ZM25.5144 7.04584C25.4401 7.18118 25.3935 7.32992 25.3773 7.48343C25.361 7.63694 25.3755 7.79214 25.4197 7.94003C25.464 8.08791 25.5372 8.22553 25.635 8.34488C25.7329 8.46423 25.8536 8.56294 25.9899 8.63527L34.6133 13.2081C34.891 13.354 35.215 13.3848 35.5153 13.2939C35.8156 13.203 36.068 12.9976 36.2182 12.7221C36.292 12.5866 36.3383 12.4378 36.3543 12.2843C36.3703 12.1308 36.3557 11.9756 36.3114 11.8278C36.2671 11.68 36.194 11.5424 36.0962 11.423C35.9984 11.3036 35.8779 11.2048 35.7416 11.1323L27.1199 6.55953C26.545 6.25474 25.827 6.47268 25.515 7.04553L25.5144 7.04584ZM37.5251 19.3698L35.5853 28.9365C35.5546 29.0878 35.5542 29.2438 35.5843 29.3953C35.6143 29.5468 35.6742 29.6908 35.7605 29.8189C35.8467 29.9471 35.9575 30.0568 36.0865 30.1417C36.2156 30.2266 36.3602 30.285 36.512 30.3135C36.8201 30.3724 37.1391 30.3077 37.4 30.1333C37.6608 29.959 37.8427 29.6891 37.9062 29.3818L39.8453 19.8171C39.8756 19.6658 39.8756 19.5101 39.8453 19.3588C39.8151 19.2076 39.7551 19.0638 39.669 18.9358C39.5829 18.8078 39.4723 18.6982 39.3435 18.6132C39.2148 18.5282 39.0705 18.4696 38.919 18.4407C38.611 18.3819 38.2922 18.4465 38.0314 18.6206C37.7707 18.7948 37.5888 19.0644 37.5251 19.3714L37.5251 19.3698Z" fill="#F9DEC0"/>
  </g>
  <defs>
    <clipPath id="clip0_23561_69698">
      <rect width="34" height="34" fill="white" transform="translate(14.5312 45.2695) rotate(-115.3)"/>
    </clipPath>
  </defs>
</svg>
