<svg xmlns="http://www.w3.org/2000/svg" width="24" height="24" viewBox="0 0 24 24" fill="none">
  <path d="M21.4061 10.5504C21.3017 10.5186 21.192 10.5078 21.0833 10.5186C20.9747 10.5295 20.8693 10.5618 20.7732 10.6137C20.6772 10.6656 20.5924 10.736 20.5237 10.8209C20.4551 10.9058 20.4039 11.0035 20.3733 11.1083C20.1234 11.9496 19.7715 12.7571 19.3255 13.5129C17.7957 16.0885 15.1252 17.5657 11.9982 17.5657C8.87023 17.5657 6.19918 16.088 4.66944 13.5114C4.22437 12.7564 3.87301 11.9499 3.62312 11.1098C3.59236 11.0051 3.54117 10.9075 3.4725 10.8226C3.40383 10.7378 3.31904 10.6674 3.22302 10.6155C3.12701 10.5635 3.02166 10.5312 2.91306 10.5202C2.80447 10.5092 2.69477 10.5198 2.59029 10.5514C2.37918 10.6175 2.20274 10.7644 2.09937 10.96C1.99601 11.1555 1.97409 11.384 2.03839 11.5957C2.32791 12.5672 2.73484 13.4998 3.25018 14.3728C4.9214 17.1888 7.84141 18.953 11.1703 19.2049V23.1593C11.1703 23.6217 11.5403 23.9961 11.9982 23.9961C12.4556 23.9961 12.8261 23.6212 12.8261 23.1593V19.2049C16.1535 18.953 19.073 17.1893 20.7447 14.3743C21.2609 13.5006 21.6684 12.5672 21.958 11.5947C22.0223 11.383 22.0004 11.1545 21.897 10.959C21.7937 10.7634 21.6172 10.6165 21.4061 10.5504ZM21.7836 4.20647C21.6602 3.9144 21.4548 3.66444 21.1921 3.48695C20.9294 3.30945 20.6208 3.21207 20.3038 3.20664L20.0489 3.20464C18.5741 3.20464 17.2263 3.65256 16.0375 4.15148C14.9992 2.34878 14.0309 1.14648 13.0215 0.400108C12.7897 0.198776 12.5058 0.0668501 12.2025 0.019457C11.8991 -0.0279361 11.5885 0.0111222 11.3063 0.132153C11.1621 0.193405 11.0274 0.275059 10.9064 0.374613C9.90156 1.10799 8.90073 2.33628 7.8569 4.11648C6.6821 3.63556 5.35583 3.20314 3.93507 3.20314L3.68461 3.20564C3.36905 3.21227 3.06216 3.31012 2.80099 3.48736C2.53983 3.66461 2.33556 3.91367 2.21286 4.20447C1.63995 5.56374 1.40549 7.18347 1.53447 8.88818C1.54214 8.99714 1.57121 9.10352 1.62002 9.20124C1.66882 9.29896 1.7364 9.38611 1.8189 9.4577C1.9014 9.52929 1.9972 9.58392 2.10083 9.61847C2.20445 9.65302 2.31387 9.66681 2.42282 9.65905C2.64292 9.6407 2.84677 9.53584 2.98968 9.36744C3.13258 9.19904 3.20289 8.98085 3.18519 8.7607C3.07721 7.33044 3.26518 5.98917 3.7281 4.87985L3.94306 4.87785C5.32283 4.87785 6.64611 5.40427 7.8829 5.94367C8.27283 6.11365 8.72676 5.95867 8.93372 5.58274C9.99854 3.65206 10.9669 2.38827 11.8937 1.71939C11.9137 1.70539 11.9212 1.68339 11.9387 1.66739C11.9642 1.69089 11.9907 1.71289 12.0187 1.73288C12.9395 2.40377 13.9009 3.67506 14.9572 5.62023C15.0558 5.80326 15.2198 5.94231 15.4165 6.00952C15.6132 6.07673 15.8281 6.06714 16.018 5.98267C17.2108 5.44826 18.6041 4.87835 20.0414 4.87835L20.2678 4.88085C20.7052 5.92768 20.8977 7.19046 20.8262 8.53674C20.8012 8.99816 21.1512 9.39259 21.6081 9.41759C22.061 9.45008 22.4549 9.08914 22.4794 8.62722C22.5654 7.01949 22.3245 5.49025 21.7836 4.20597V4.20647ZM8.76725 7.17097C8.30983 7.17097 7.93939 7.5454 7.93939 8.00783V8.82419C7.93939 9.28661 8.30983 9.66155 8.76725 9.66155C9.22467 9.66155 9.59511 9.28661 9.59511 8.82419V8.00783C9.59511 7.5454 9.22467 7.17097 8.76725 7.17097ZM15.2292 7.17097C14.7717 7.17097 14.4013 7.5454 14.4013 8.00783V8.82419C14.4013 9.28661 14.7717 9.66155 15.2292 9.66155C15.6866 9.66155 16.057 9.28661 16.057 8.82419V8.00783C16.057 7.5454 15.6866 7.17097 15.2292 7.17097ZM14.0399 10.9613C13.8569 10.8411 13.6338 10.7984 13.4194 10.8424C13.205 10.8864 13.0168 11.0137 12.8961 11.1963C12.8926 11.2013 12.5351 11.7257 11.9902 11.7257C11.4603 11.7257 11.1304 11.2403 11.1084 11.2063C11.0511 11.1144 10.9763 11.0348 10.8882 10.9719C10.8001 10.909 10.7005 10.8641 10.595 10.8398C10.4895 10.8156 10.3803 10.8123 10.2736 10.8303C10.1668 10.8484 10.0647 10.8873 9.97305 10.9448C9.78592 11.0633 9.65302 11.2507 9.60315 11.4665C9.55327 11.6823 9.59044 11.9091 9.70659 12.0976C10.004 12.5811 10.8189 13.3999 11.9902 13.3999C13.155 13.3999 13.9809 12.5871 14.2848 12.1071C14.4017 11.922 14.4415 11.6985 14.3957 11.4843C14.35 11.2702 14.2222 11.0825 14.0399 10.9613ZM21.0812 18.5386C21.0172 18.4504 20.9363 18.3757 20.8433 18.3191C20.7502 18.2624 20.6468 18.2248 20.5391 18.2084C20.4314 18.192 20.3215 18.1972 20.2158 18.2237C20.1101 18.2502 20.0107 18.2974 19.9234 18.3626L14.4038 22.4864C14.2269 22.6196 14.1095 22.8171 14.0769 23.0361C14.0444 23.2552 14.0993 23.4783 14.2298 23.6572C14.294 23.7452 14.375 23.8196 14.4682 23.8761C14.5613 23.9327 14.6647 23.9702 14.7724 23.9865C14.8801 24.0028 14.99 23.9976 15.0957 23.9712C15.2013 23.9448 15.3008 23.8977 15.3881 23.8327L20.9072 19.7099C21.2751 19.4349 21.3526 18.911 21.0812 18.5391V18.5386ZM9.59311 22.4859L4.07304 18.3621C3.98573 18.2968 3.88631 18.2495 3.78056 18.223C3.67481 18.1965 3.56485 18.1913 3.45706 18.2077C3.34928 18.224 3.24582 18.2617 3.15272 18.3184C3.05962 18.3751 2.97872 18.4498 2.91474 18.5381C2.7842 18.717 2.72927 18.94 2.76182 19.1591C2.79438 19.3782 2.91179 19.5756 3.08871 19.7089L8.60778 23.8317C8.69517 23.8966 8.79457 23.9436 8.90023 23.9699C9.00588 23.9962 9.11571 24.0014 9.22336 23.985C9.33101 23.9686 9.43435 23.9311 9.52742 23.8746C9.62048 23.8181 9.70143 23.7437 9.76558 23.6557C9.89602 23.4769 9.95094 23.254 9.91848 23.035C9.88603 22.8161 9.76881 22.6187 9.59211 22.4854L9.59311 22.4859Z" fill="#404844"/>
</svg>
