<svg xmlns="http://www.w3.org/2000/svg" width="29" height="34" viewBox="0 0 29 34" fill="none">
  <path d="M24.827 13.6581L24.8204 13.6537L24.8137 13.6581C23.0219 14.7492 21.2279 15.3014 19.4782 15.3014C17.968 15.3014 17.0522 14.8689 17.0433 14.8645L17.0078 14.8467L17.0278 14.88C19.2941 18.6344 21.5539 19.4238 23.0485 19.4238C24.0775 19.4238 24.7361 19.0446 24.745 19.0402L24.7472 19.038C25.7739 17.9137 26.233 16.8182 26.1088 15.7826C25.9513 14.4365 24.8381 13.667 24.827 13.6581Z" fill="white"/>
  <path d="M14.3915 13.25L14.3848 13.2567C13.9413 13.6558 14.1808 14.9531 14.1897 15.0085L14.1919 15.013C15.1876 16.2415 15.2341 17.3836 15.0989 18.122C14.9503 18.9248 14.5622 19.4415 14.5578 19.4459L14.5312 19.4792L14.5711 19.4637C15.1366 19.2353 15.6266 18.3017 16.0258 16.6895C16.323 15.492 16.456 14.3455 16.456 14.3344V14.3255L14.3959 13.2522L14.3915 13.25Z" fill="white"/>
  <path d="M21.9396 11.1875C21.5382 11.1875 20.7621 11.05 19.6333 10.7817L19.6289 10.7795L19.6244 10.7817C19.6156 10.7861 18.682 11.2674 17.429 11.2674C16.1118 11.2674 14.9431 10.7573 13.9541 9.75275L13.9297 9.72835L13.9341 9.76162C13.9363 9.78379 14.2002 12.0613 15.859 13.1146C16.9811 13.8264 18.4868 14.2855 19.6954 14.2855C20.3341 14.2855 20.8574 14.1547 21.2078 13.9063C22.0527 13.3075 23.3189 13.241 23.8245 13.241C23.9909 13.241 24.0907 13.2477 24.0929 13.2477L24.1084 13.2499L24.1062 13.2344C24.104 13.2144 23.8179 11.3028 22.3676 10.4025C21.7245 10.0033 21.2322 9.94124 20.6068 9.86141C19.7863 9.75718 18.7662 9.62856 16.868 8.72379C15.9166 8.2714 15.1715 8.04077 14.6504 8.04077C14.1825 8.04077 14.0184 8.22927 13.963 8.38893C13.8454 8.72157 14.0982 9.23162 14.5595 9.59973C14.9032 9.87471 16.1273 10.7751 17.4091 10.7751C17.9457 10.7751 18.4225 10.6154 18.8239 10.3027C18.8483 10.3027 18.9836 10.2983 19.1854 10.2983C19.9526 10.2983 21.7711 10.3626 22.1281 10.9591L22.1325 10.9635C22.1658 10.9879 22.2478 11.0633 22.2301 11.1143C22.2212 11.1454 22.1614 11.1853 21.9396 11.1875Z" fill="white"/>
  <path d="M27.786 6.35761C26.9566 5.71229 26.4998 5.35526 26.4732 5.16011C26.4155 4.72103 26.3446 4.45936 26.2647 4.38839C26.2403 4.36622 26.227 4.32852 26.2071 4.27973C26.1428 4.11563 26.0252 3.80961 25.2912 3.50136C24.9209 3.34613 24.5217 3.31287 24.2512 3.31287C23.7278 3.31287 23.2244 3.44149 23.1535 3.5945C23.1379 3.62776 23.1424 3.66324 23.169 3.69207C23.2399 3.77634 23.4085 3.89609 23.6214 4.04467C24.0272 4.32852 24.5794 4.71881 24.7368 5.09359C24.861 5.38631 25.0384 6.41748 25.0384 7.51297C25.0384 8.47984 24.8987 9.77491 24.2379 10.4468L24.2356 10.4491C24.1625 10.5976 24.1425 11.2518 24.5905 12.6755L24.5949 12.6866L24.606 12.6822C24.6215 12.6755 26.1649 12.0679 27.001 10.8682C27.4356 10.2428 27.8414 9.28038 28.0366 8.41553C28.1719 7.82565 28.316 6.77008 27.786 6.35761Z" fill="white"/>
  <path d="M23.361 5.8698C23.4076 6.54616 23.6559 7.3578 23.6582 7.36667L23.6604 7.37554H23.6692C23.6737 7.37554 23.7934 7.36667 23.911 7.23361C24.0329 7.09391 24.1704 6.79675 24.1327 6.16696C24.0795 5.29101 23.3898 4.85193 23.0195 4.85193C22.8731 4.85193 22.78 4.91624 22.76 5.02934L22.7578 5.04042L22.7689 5.04264C22.7733 5.04042 23.3144 5.20231 23.361 5.8698Z" fill="white"/>
  <path d="M15.3275 7.70367L15.3164 7.71919L15.3341 7.72363C15.414 7.74137 23.2398 9.55979 23.4439 10.1474L23.4483 10.1585L23.4594 10.1541C23.4638 10.1519 23.843 10.01 23.965 9.53539C24.1047 9.00096 23.9317 7.97643 22.324 6.12475C22.3439 5.98504 22.6145 4.0624 22.1554 3.96261C22.131 3.95817 22.0978 3.95374 22.0556 3.95374C21.6232 3.95374 20.4368 4.20654 19.1506 4.77202C18.0041 5.27985 16.4052 6.19793 15.3275 7.70367Z" fill="white"/>
  <path d="M13.3655 9.4203C13.3678 9.43582 13.37 9.44247 13.37 9.44247L13.3944 9.43804L13.3899 9.41586C13.3611 9.2185 13.166 7.45995 15.3636 6.00965C17.6965 4.46843 21.5462 3.19776 21.8855 3.19776H21.8899C21.9565 3.19776 22.0075 3.14232 22.0252 3.04696C22.0807 2.76533 21.8256 1.79846 20.0094 1.06666C19.3508 0.802766 18.8895 0.558831 18.5214 0.363684C18.1067 0.144143 17.834 0 17.5856 0C17.3572 0 17.1487 0.121967 16.8605 0.421341C16.7429 0.545526 16.581 0.705192 16.3925 0.889251C15.1773 2.08453 12.9154 4.30655 13.0107 6.00522C13.1127 7.84359 13.3412 9.26285 13.3655 9.4203Z" fill="white"/>
  <path d="M11.1258 13.1524C11.21 13.1524 11.2877 13.1413 11.3586 13.1169C11.8154 12.9639 12.2767 12.924 12.6493 12.8929C13.0994 12.8552 13.4254 12.8264 13.5185 12.629C13.6028 12.4494 13.4742 12.1367 13.1039 11.62C13.0129 11.4936 12.5384 10.2784 12.2656 8.67065C12.0283 7.27357 11.9041 5.29549 12.667 3.81636L12.6714 3.80971L12.667 3.80305C12.596 3.71657 10.9328 1.66309 10.1434 1.66309C9.99481 1.66309 9.88393 1.73627 9.8174 1.88263C9.67991 2.18422 9.71539 2.41706 9.75531 2.68539C9.84845 3.31075 9.97485 4.16896 7.82379 6.61939C7.16295 7.37115 7.13191 8.51986 7.73731 9.85262C8.50459 11.5491 10.1523 13.1524 11.1258 13.1524Z" fill="white"/>
  <path d="M11.3043 22.5859C11.0515 22.5859 10.7921 22.6148 10.5326 22.6702L10.5171 22.6724L10.5237 22.6857C10.5415 22.7234 12.3665 26.449 11.8033 27.3072C11.6813 27.03 10.4927 24.3933 9.69658 24.0606L10.231 23.8766L10.2399 23.8721L10.2377 23.861C10.2377 23.8566 10.129 23.4087 9.35729 23.4087C9.20871 23.4087 9.04461 23.4242 8.8672 23.4575C7.74067 23.6637 5.79141 24.5108 5.51199 24.6328C5.6761 24.3556 6.89355 22.3021 8.3882 20.1133C9.86511 17.9534 11.9186 15.2147 13.329 14.4385L13.3401 14.4319L12.7147 13.5071L12.7058 13.4938L12.6947 13.5049C12.4419 13.7843 6.6851 20.1599 6.41899 21.455L6.07748 19.0666C6.12183 19.009 6.60526 18.3725 6.90685 17.4611C7.19736 16.5852 7.37033 15.2679 6.55426 13.9795C5.74041 12.6933 4.25684 11.8972 3.1547 11.4559C1.96386 10.9791 0.950423 10.8017 0.939335 10.7995L0.917159 10.795L0.92603 10.815C0.930466 10.8261 1.43386 12.0458 0.418203 13.8731C-0.0474895 14.7091 -0.016443 15.8955 0.502472 17.042C0.781887 17.6607 1.18105 18.2173 1.66005 18.6564C2.17453 19.1265 2.77106 19.4481 3.38533 19.5811C4.01512 19.7186 4.47195 19.7851 4.78241 19.7851C5.08622 19.7851 5.26806 19.7208 5.34346 19.59C5.49204 19.3305 5.20818 18.816 4.7935 18.1175C4.01512 16.8158 4.06835 15.6005 4.08165 15.4121C4.16814 15.5008 4.54956 15.9265 4.90881 16.7315C5.28137 17.572 5.70049 19.009 5.58517 21.0869C5.45655 23.3577 4.19697 25.6174 2.9773 27.8039C2.01265 29.5336 1.10122 31.1658 0.71536 32.7935L0.713142 32.8001L1.79532 33.9843L1.80863 33.9998L1.81528 33.9799C1.82193 33.9555 2.55817 31.5073 3.73349 29.0901C4.42316 27.6709 5.12835 26.5421 5.82911 25.7305C6.70284 24.7193 7.56991 24.207 8.40594 24.207C8.44364 24.207 8.47912 24.2092 8.5146 24.2092C8.40594 24.3733 7.59431 25.6506 7.94912 27.1763C8.24184 28.4315 9.22866 29.5137 10.8852 30.3963C10.9029 30.4029 12.7347 31.0859 12.677 31.5605L12.6748 31.5827L12.6947 31.5716C12.7014 31.5694 13.278 31.2523 13.8501 30.5825C14.3779 29.9638 15.0121 28.9105 15.0276 27.3959C15.0432 25.8768 14.542 24.4931 13.6527 23.5949C13.0008 22.9341 12.1891 22.5859 11.3043 22.5859Z" fill="white"/>
</svg>
