<svg xmlns="http://www.w3.org/2000/svg" width="20" height="24" viewBox="0 0 20 24" fill="none">
  <path d="M17.6444 9.64095L17.6397 9.63782L17.635 9.64095C16.3702 10.4111 15.1039 10.8009 13.8688 10.8009C12.8028 10.8009 12.1563 10.4956 12.15 10.4925L12.125 10.48L12.1391 10.5035C13.7389 13.1536 15.334 13.7109 16.389 13.7109C17.1153 13.7109 17.5803 13.4432 17.5865 13.4401L17.5881 13.4385C18.3128 12.6449 18.6369 11.8716 18.5492 11.1406C18.4381 10.1904 17.6523 9.64721 17.6444 9.64095Z" fill="#404844"/>
  <path d="M10.2756 9.35303L10.2709 9.35772C9.95786 9.63949 10.1269 10.5552 10.1332 10.5944L10.1347 10.5975C10.8376 11.4647 10.8705 12.2708 10.775 12.7921C10.6701 13.3588 10.3962 13.7235 10.393 13.7266L10.3742 13.7501L10.4024 13.7391C10.8016 13.5779 11.1475 12.9189 11.4293 11.7809C11.6391 10.9356 11.733 10.1263 11.733 10.1185V10.1122L10.2788 9.35459L10.2756 9.35303Z" fill="#404844"/>
  <path d="M15.6033 7.89714C15.3199 7.89714 14.7721 7.80009 13.9753 7.61068L13.9722 7.60912L13.969 7.61068C13.9628 7.61381 13.3038 7.95349 12.4193 7.95349C11.4895 7.95349 10.6646 7.59346 9.96644 6.88436L9.94922 6.86714L9.95235 6.89062C9.95392 6.90627 10.1402 8.51389 11.3111 9.25743C12.1031 9.75991 13.166 10.0839 14.0191 10.0839C14.47 10.0839 14.8394 9.99158 15.0867 9.81626C15.6831 9.39362 16.5769 9.34666 16.9338 9.34666C17.0512 9.34666 17.1217 9.35135 17.1232 9.35135L17.1342 9.35292L17.1326 9.34196C17.1311 9.32787 16.9291 7.97854 15.9054 7.343C15.4514 7.06124 15.1039 7.01741 14.6625 6.96106C14.0833 6.88749 13.3633 6.7967 12.0233 6.15803C11.3518 5.8387 10.8258 5.6759 10.458 5.6759C10.1277 5.6759 10.0118 5.80896 9.9727 5.92166C9.88974 6.15647 10.0682 6.5165 10.3938 6.77635C10.6364 6.97045 11.5005 7.60599 12.4053 7.60599C12.7841 7.60599 13.1206 7.49328 13.404 7.27256C13.4212 7.27256 13.5167 7.26943 13.6591 7.26943C14.2007 7.26943 15.4843 7.31483 15.7363 7.73591L15.7395 7.73904C15.7629 7.75626 15.8209 7.80948 15.8083 7.84548C15.8021 7.8674 15.7598 7.89558 15.6033 7.89714Z" fill="#404844"/>
  <path d="M19.7295 4.48773C19.144 4.03221 18.8215 3.78019 18.8028 3.64244C18.7621 3.3325 18.712 3.14779 18.6556 3.0977C18.6384 3.08204 18.629 3.05543 18.6149 3.021C18.5695 2.90516 18.4866 2.68914 17.9684 2.47156C17.707 2.36198 17.4253 2.3385 17.2343 2.3385C16.8649 2.3385 16.5095 2.42929 16.4594 2.5373C16.4485 2.56078 16.4516 2.58583 16.4704 2.60618C16.5205 2.66566 16.6394 2.75019 16.7897 2.85507C17.0762 3.05543 17.466 3.33094 17.5771 3.59548C17.6648 3.80211 17.79 4.53 17.79 5.30328C17.79 5.98577 17.6914 6.89994 17.2249 7.37424L17.2233 7.37581C17.1717 7.48069 17.1576 7.94247 17.4738 8.94742L17.4769 8.95525L17.4847 8.95212C17.4957 8.94742 18.5852 8.51852 19.1753 7.67166C19.4821 7.23023 19.7686 6.55087 19.9063 5.94038C20.0018 5.524 20.1036 4.77889 19.7295 4.48773Z" fill="#404844"/>
  <path d="M16.6055 4.14342C16.6383 4.62086 16.8137 5.19378 16.8152 5.20004L16.8168 5.2063H16.823C16.8262 5.2063 16.9107 5.20004 16.9937 5.10612C17.0798 5.0075 17.1768 4.79774 17.1502 4.35318C17.1126 3.73487 16.6258 3.42493 16.3644 3.42493C16.2611 3.42493 16.1953 3.47032 16.1813 3.55016L16.1797 3.55798L16.1875 3.55955C16.1906 3.55798 16.5726 3.67225 16.6055 4.14342Z" fill="#404844"/>
  <path d="M10.9375 5.43791L10.9297 5.44886L10.9422 5.45199C10.9986 5.46452 16.5227 6.74811 16.6667 7.16293L16.6698 7.17075L16.6777 7.16762C16.6808 7.16606 16.9485 7.06587 17.0346 6.73089C17.1332 6.35364 17.0111 5.63045 15.8762 4.32338C15.8903 4.22476 16.0813 2.8676 15.7572 2.79716C15.74 2.79402 15.7165 2.79089 15.6868 2.79089C15.3816 2.79089 14.5441 2.96934 13.6362 3.36851C12.8269 3.72698 11.6983 4.37503 10.9375 5.43791Z" fill="#404844"/>
  <path d="M9.5533 6.64962C9.55487 6.66058 9.55643 6.66528 9.55643 6.66528L9.57365 6.66214L9.57052 6.64649C9.55017 6.50717 9.41242 5.26585 10.9637 4.24211C12.6104 3.15419 15.3279 2.25724 15.5674 2.25724H15.5705C15.6175 2.25724 15.6535 2.21811 15.666 2.1508C15.7051 1.952 15.5251 1.2695 14.2431 0.752935C13.7782 0.566658 13.4526 0.394469 13.1927 0.256718C12.9 0.101748 12.7075 0 12.5322 0C12.3709 0 12.2238 0.0860944 12.0203 0.297417C11.9373 0.385077 11.8231 0.497783 11.69 0.627707C10.8322 1.47143 9.23553 3.03992 9.30284 4.23898C9.37485 5.53666 9.53608 6.53848 9.5533 6.64962Z" fill="#404844"/>
  <path d="M7.97068 9.28405C8.03016 9.28405 8.08495 9.27622 8.13504 9.259C8.4575 9.15099 8.7831 9.12282 9.04607 9.1009C9.36384 9.07429 9.59395 9.05394 9.65969 8.91462C9.71918 8.78783 9.62839 8.56711 9.36697 8.20239C9.30279 8.11316 8.96781 7.25535 8.77527 6.12047C8.60777 5.13429 8.52012 3.738 9.0586 2.69391L9.06173 2.68921L9.0586 2.68452C9.00851 2.62347 7.83449 1.17395 7.27723 1.17395C7.17235 1.17395 7.09408 1.22561 7.04712 1.32892C6.95007 1.54181 6.97511 1.70617 7.00329 1.89558C7.06903 2.33701 7.15826 2.9428 5.63986 4.67251C5.17339 5.20317 5.15148 6.01402 5.57882 6.9548C6.12043 8.1523 7.28349 9.28405 7.97068 9.28405Z" fill="#404844"/>
  <path d="M8.09579 15.943C7.91734 15.943 7.7342 15.9633 7.55105 16.0025L7.54009 16.004L7.54479 16.0134C7.55731 16.04 8.8456 18.6698 8.448 19.2756C8.3619 19.0799 7.52287 17.2187 6.96091 16.9839L7.33816 16.854L7.34442 16.8509L7.34286 16.8431C7.34286 16.8399 7.26615 16.5237 6.72141 16.5237C6.61653 16.5237 6.5007 16.5347 6.37547 16.5582C5.58027 16.7037 4.20432 17.3017 4.00709 17.3878C4.12292 17.1921 4.9823 15.7426 6.03735 14.1976C7.07988 12.673 8.52939 10.7397 9.52496 10.1919L9.53279 10.1872L9.09136 9.53442L9.0851 9.52503L9.07727 9.53286C8.89882 9.73009 4.83516 14.2305 4.64732 15.1446L4.40625 13.4588C4.43756 13.4181 4.77881 12.9688 4.9917 12.3254C5.19676 11.7071 5.31885 10.7773 4.7428 9.86784C4.16832 8.95994 3.1211 8.39798 2.34312 8.08647C1.50252 7.74992 0.787155 7.62469 0.779329 7.62313L0.763675 7.62L0.769937 7.63408C0.773068 7.64191 1.1284 8.50285 0.411471 9.79271C0.0827463 10.3828 0.104662 11.2203 0.470954 12.0296C0.668189 12.4663 0.949952 12.8592 1.28807 13.1692C1.65123 13.501 2.07231 13.728 2.50591 13.8219C2.95047 13.919 3.27294 13.9659 3.49209 13.9659C3.70654 13.9659 3.8349 13.9205 3.88812 13.8282C3.993 13.645 3.79263 13.2819 3.49991 12.7888C2.95047 11.8699 2.98804 11.0121 2.99744 10.8791C3.05848 10.9417 3.32772 11.2422 3.58131 11.8104C3.84429 12.4037 4.14014 13.4181 4.05874 14.8848C3.96795 16.4877 3.07883 18.0828 2.21789 19.6263C1.53696 20.8472 0.8936 21.9993 0.621228 23.1483L0.619663 23.153L1.38356 23.9889L1.39295 23.9999L1.39764 23.9858C1.40234 23.9685 1.92204 22.2404 2.75167 20.5342C3.2385 19.5323 3.73628 18.7356 4.23093 18.1627C4.84768 17.4489 5.45974 17.0873 6.04987 17.0873C6.07649 17.0873 6.10153 17.0888 6.12658 17.0888C6.04987 17.2047 5.47696 18.1063 5.72741 19.1833C5.93404 20.0693 6.63062 20.8331 7.79994 21.4562C7.81246 21.4609 9.10544 21.943 9.06474 22.278L9.06318 22.2936L9.07727 22.2858C9.08196 22.2842 9.48896 22.0604 9.89282 21.5876C10.2654 21.1509 10.7131 20.4074 10.724 19.3382C10.735 18.266 10.3812 17.2892 9.7535 16.6552C9.29329 16.1887 8.72037 15.943 8.09579 15.943Z" fill="#404844"/>
</svg>
