<svg xmlns="http://www.w3.org/2000/svg" width="34" height="34" viewBox="0 0 34 34" fill="none">
  <path d="M29.288 5.2627C25.9764 8.2717 24.082 12.52 24.082 17.0001C24.082 21.4796 25.9764 25.7284 29.2874 28.7374C32.2041 25.6865 33.9987 21.5544 33.9987 17.0001C33.9987 12.4458 32.2041 8.31363 29.288 5.2627Z" fill="white"/>
  <path d="M9.91667 17.0001C9.91667 12.52 8.0223 8.2717 4.7107 5.2627C1.79463 8.31363 0 12.4458 0 17.0001C0 21.5544 1.79463 25.6865 4.71127 28.7374C8.0223 25.7284 9.91667 21.4796 9.91667 17.0001Z" fill="white"/>
  <path d="M21.8176 17C21.8176 11.9493 23.9227 7.1553 27.6112 3.72583C24.7025 1.3974 21.0169 0 17.0009 0C12.9849 0 9.29932 1.3974 6.39062 3.72583C10.0791 7.1553 12.1842 11.9493 12.1842 17C12.1842 22.0507 10.0791 26.8441 6.39062 30.2742C9.29932 32.602 12.9849 34 17.0009 34C21.0169 34 24.7025 32.602 27.6112 30.2742C23.9227 26.8441 21.8176 22.0507 21.8176 17Z" fill="white"/>
</svg>
