<svg xmlns="http://www.w3.org/2000/svg" width="24" height="24" viewBox="0 0 24 24" fill="none">
  <path d="M20.6748 3.71484C18.3372 5.83884 17 8.83764 17 12C17 15.162 18.3372 18.1612 20.6744 20.2852C22.7332 18.1316 24 15.2148 24 12C24 8.78524 22.7332 5.86844 20.6748 3.71484Z" fill="#404844"/>
  <path d="M7 12C7 8.83764 5.6628 5.83884 3.3252 3.71484C1.2668 5.86844 0 8.78524 0 12C0 15.2148 1.2668 18.1316 3.3256 20.2852C5.6628 18.1612 7 15.162 7 12Z" fill="#404844"/>
  <path d="M15.4013 12C15.4013 8.4348 16.8873 5.0508 19.4909 2.63C17.4377 0.9864 14.8361 0 12.0013 0C9.16652 0 6.56492 0.9864 4.51172 2.63C7.11532 5.0508 8.60132 8.4348 8.60132 12C8.60132 15.5652 7.11532 18.9488 4.51172 21.37C6.56492 23.0132 9.16652 24 12.0013 24C14.8361 24 17.4377 23.0132 19.4909 21.37C16.8873 18.9488 15.4013 15.5652 15.4013 12Z" fill="#404844"/>
</svg>
