<svg xmlns="http://www.w3.org/2000/svg" width="34" height="34" viewBox="0 0 34 34" fill="none">
  <path fill-rule="evenodd" clip-rule="evenodd" d="M16.8306 5.9504C16.8306 4.42039 16.1506 3.06038 15.3006 1.87038C14.6206 2.55038 13.7706 3.91039 13.9406 5.9504C13.9406 7.99042 14.6206 9.35042 15.3006 10.0304C16.1506 8.84042 16.8306 7.48041 16.8306 5.9504ZM4.9304 5.9504C4.9304 4.42039 5.61041 3.06038 6.46043 1.87038C7.14044 2.55038 7.99046 3.91039 7.82045 5.9504C7.82045 7.99042 7.14044 9.35042 6.46043 10.0304C5.61041 8.84042 4.9304 7.48041 4.9304 5.9504ZM7.48045 10.8804C8.33046 9.86043 9.18048 8.33042 9.18048 5.9504C9.18048 3.57039 8.16046 2.04038 7.48045 1.02037C8.50047 0.340368 9.52049 0.000366211 10.8805 0.000366211C12.2405 0.000366211 13.2606 0.340368 14.2806 1.02037C13.4306 2.04038 12.5805 3.57039 12.5805 5.9504C12.5805 8.50042 13.4306 10.0304 14.2806 10.8804C13.2606 11.5604 12.2405 11.9004 10.8805 11.9004C9.52049 11.9004 8.50047 11.5604 7.48045 10.8804ZM3.57007 33.4903L8.16016 28.9003L4.9301 25.6703L0.51001 30.4303C-0.170003 31.1103 -0.170003 32.1303 0.51001 32.8103L1.19002 33.4903C1.87004 34.1703 2.89006 34.1703 3.57007 33.4903ZM15.9391 24.9237C13.571 24.9453 10.2068 25.3252 8.67162 26.8604L6.97159 25.1603C8.56364 23.701 8.91325 20.0674 8.90923 17.6531C8.6787 16.2724 8.72149 14.7819 9.01129 13.2604C9.6913 13.4304 10.3713 13.6005 11.0513 13.6005C11.3913 13.6005 11.9013 13.6004 12.4114 13.4304C11.7313 15.9805 12.0714 18.5305 13.6014 20.2305C14.9614 21.5905 16.8314 21.9305 18.0215 21.9305C20.9115 21.9305 24.1416 20.4005 26.5216 18.0205C28.5617 15.8105 29.9217 13.2604 30.2617 10.7104C30.6017 8.33042 30.0917 6.46041 28.7317 5.1004C27.3716 3.74039 25.5016 3.40039 24.3116 3.40039C22.4416 3.40039 20.4015 4.08039 18.5315 5.2704C18.5315 3.91039 18.0215 2.89038 17.3415 1.87038C19.7215 0.68037 22.1015 0.000366211 24.3116 0.000366211C27.0316 0.000366211 29.4117 0.850371 31.1117 2.72038C35.3618 6.97041 34.5118 14.7905 29.0717 20.2305C25.8416 23.4605 21.7615 25.1605 18.1915 25.1605C17.4221 25.1605 16.6682 25.0831 15.9391 24.9237Z" fill="#F8F4EA"/>
</svg>
