<svg xmlns="http://www.w3.org/2000/svg" width="24" height="24" viewBox="0 0 24 24" fill="none">
  <path fill-rule="evenodd" clip-rule="evenodd" d="M11.8817 4.20008C11.8817 3.12006 11.4017 2.16004 10.8017 1.32003C10.3217 1.80003 9.72166 2.76005 9.84166 4.20008C9.84166 5.64011 10.3217 6.60013 10.8017 7.08014C11.4017 6.24012 11.8817 5.2801 11.8817 4.20008ZM3.48153 4.20008C3.48153 3.12006 3.96154 2.16004 4.56156 1.32003C5.04156 1.80003 5.64158 2.76005 5.52157 4.20008C5.52157 5.64011 5.04156 6.60013 4.56156 7.08014C3.96154 6.24012 3.48153 5.2801 3.48153 4.20008ZM5.28157 7.68015C5.88158 6.96014 6.48159 5.88011 6.48159 4.20008C6.48159 2.52005 5.76158 1.44003 5.28157 0.720014C6.00158 0.240005 6.7216 0 7.68162 0C8.64164 0 9.36165 0.240005 10.0817 0.720014C9.48165 1.44003 8.88164 2.52005 8.88164 4.20008C8.88164 6.00012 9.48165 7.08014 10.0817 7.68015C9.36165 8.16016 8.64164 8.40016 7.68162 8.40016C6.7216 8.40016 6.00158 8.16016 5.28157 7.68015ZM2.52005 23.6403L5.76011 20.4002L3.48007 18.1202L0.360007 21.4802C-0.120002 21.9603 -0.120002 22.6803 0.360007 23.1603L0.840016 23.6403C1.32003 24.1203 2.04004 24.1203 2.52005 23.6403ZM11.2499 17.5932C9.57832 17.6084 7.20344 17.8766 6.11977 18.9603L4.91974 17.7602C6.04371 16.7299 6.2904 14.1644 6.28749 12.4602C6.1249 11.4858 6.15515 10.4339 6.35966 9.36018C6.83967 9.48019 7.31968 9.60019 7.79969 9.60019C8.03969 9.60019 8.3997 9.60019 8.7597 9.48019C8.27969 11.2802 8.5197 13.0803 9.59972 14.2803C10.5597 15.2403 11.8798 15.4803 12.7198 15.4803C14.7598 15.4803 17.0399 14.4003 18.7199 12.7203C20.1599 11.1602 21.1199 9.36018 21.36 7.56015C21.6 5.88012 21.2399 4.56009 20.2799 3.60007C19.3199 2.64005 17.9999 2.40005 17.1599 2.40005C15.8398 2.40005 14.3998 2.88006 13.0798 3.72007C13.0798 2.76005 12.7198 2.04004 12.2398 1.32003C13.9198 0.480009 15.5998 0 17.1599 0C19.0799 0 20.7599 0.600012 21.96 1.92004C24.96 4.9201 24.36 10.4402 20.5199 14.2803C18.2399 16.5603 15.3598 17.7603 12.8398 17.7603C12.2967 17.7603 11.7646 17.7057 11.2499 17.5932Z" fill="#404844"/>
</svg>
