<svg xmlns="http://www.w3.org/2000/svg" width="34" height="30" viewBox="0 0 34 30" fill="none">
  <path d="M32.5468 12.0658C32.0885 12.021 31.6404 11.9031 31.2195 11.7165C31.0767 11.6222 30.604 11.2528 31.0101 10.6865C31.5678 9.72412 31.2462 8.17689 29.4232 7.80636C29.079 6.66023 28.5333 5.58464 27.8116 4.63006C26.8262 3.33791 25.5284 2.31871 23.9544 1.60082C22.0888 0.749987 19.8187 0.318604 17.2071 0.318604C14.5955 0.318604 12.3253 0.749986 10.4598 1.60084C8.88577 2.31873 7.588 3.33793 6.60264 4.63008C5.89427 5.56658 5.35537 6.6199 5.01037 7.74231C2.79385 7.9342 2.37519 9.65046 2.97632 10.6865C3.44972 11.3457 2.72819 11.7408 2.72749 11.7408C2.32182 11.9132 1.89224 12.0228 1.45354 12.0658C-0.565075 12.2658 -0.799279 15.8961 2.80925 16.6216V18.5846C2.80925 19.3165 3.35474 20.0083 4.32372 20.6203C4.3258 21.784 4.37709 24.0408 5.94631 26.0647C7.92654 28.6175 11.6451 29.9115 17.0002 29.9115C22.3552 29.9115 26.0738 28.6175 28.0533 26.0647C29.583 24.0928 29.671 21.9005 29.6759 20.7125C30.7384 20.0783 31.3408 19.354 31.3408 18.5846V16.589C34.7919 15.7942 34.5369 12.263 32.5468 12.0658ZM17.2071 1.21966C28.6519 1.21966 28.9823 9.68243 28.9823 10.6475C28.9823 11.4492 27.761 12.3162 25.7155 12.9665C23.4493 13.687 20.4276 14.0838 17.2071 14.0838C13.9865 14.0838 10.9649 13.687 8.69868 12.9665C6.65311 12.3162 5.43186 11.4492 5.43186 10.6475C5.43186 9.68243 5.76228 1.21966 17.2071 1.21966ZM24.6771 18.2169C24.3719 18.6858 24.1 19.1755 23.8634 19.6825C23.7865 19.8392 23.7144 19.9916 23.6458 20.1358C23.5751 20.2841 23.5099 20.4214 23.451 20.542L22.5299 22.4141C22.4744 22.5305 22.3891 22.6302 22.2828 22.7031C22.1764 22.776 22.0527 22.8195 21.9241 22.8293C21.7957 22.841 21.6664 22.8191 21.549 22.7658C21.4316 22.7124 21.3301 22.6294 21.2545 22.525L20.5614 21.5754C20.3805 21.3266 20.1649 20.9766 19.9376 20.6057C19.8565 20.4734 19.774 20.3398 19.6901 20.2051C19.2012 19.4185 18.667 18.6186 18.0656 18.1191C18.7067 18.0073 19.3146 17.7533 19.8447 17.3758C20.0798 17.2088 20.362 17.1208 20.6504 17.1245C20.9388 17.1282 21.2186 17.2235 21.4493 17.3966C21.9601 17.7716 22.7995 18.1369 24.1566 18.2103C24.3395 18.22 24.5125 18.2217 24.6771 18.2169ZM3.77688 16.7377C4.34939 16.7617 4.9229 16.7333 5.49023 16.6529C5.7238 16.6194 5.96204 16.6467 6.18201 16.7321C6.40198 16.8174 6.59627 16.9579 6.74616 17.1402C7.17105 17.6648 8.05893 18.3053 9.84371 18.2103C11.2085 18.1369 12.0485 17.7674 12.5587 17.3911C12.7897 17.2155 13.0704 17.1174 13.3605 17.1108C13.6507 17.1042 13.9355 17.1894 14.1743 17.3543C14.3938 17.5091 14.6269 17.6435 14.8707 17.7559L14.8681 17.7633L14.9631 17.7974C15.1533 17.8802 15.3488 17.9504 15.5483 18.0075L17.0667 18.5527C17.5858 18.7392 18.157 19.4919 18.656 20.2578C18.1376 20.2786 17.6106 20.289 17.075 20.289C13.0653 20.289 9.45972 19.7082 6.96311 18.7842C6.58051 18.6421 6.22494 18.4927 5.8964 18.3358C4.90529 17.8609 4.1758 17.3204 3.77688 16.7377ZM16.1431 23.1108L15.6174 23.4181C14.7015 23.8014 14.0277 24.5513 13.4361 25.3053L12.5474 26.4356C12.4708 26.5329 12.3715 26.6099 12.2581 26.6597C12.1448 26.7096 12.0209 26.7308 11.8974 26.7215C11.774 26.7122 11.6547 26.6726 11.5501 26.6063C11.4455 26.54 11.3588 26.449 11.2977 26.3414L10.191 24.3893C10.1236 24.2705 10.0463 24.1259 9.96444 23.9728C9.66953 23.4212 9.31915 22.767 8.91809 22.3057C10.9913 22.7659 13.4664 23.0559 16.1431 23.1108ZM27.3415 25.5123C25.5414 27.8336 22.062 29.0105 17.0002 29.0105C11.9383 29.0105 8.45886 27.8336 6.65883 25.5123C5.46736 23.9764 5.26566 22.2443 5.2317 21.1145C5.56743 21.273 5.93461 21.4242 6.32902 21.5677L8.01366 22.6789C8.40912 22.9749 8.86652 23.8304 9.16982 24.3977C9.25438 24.5558 9.33424 24.7052 9.4071 24.8338L10.5141 26.7862C10.6482 27.0228 10.8386 27.2226 11.0684 27.3681C11.2982 27.5136 11.5603 27.6002 11.8316 27.6202C11.8731 27.6233 11.9144 27.6248 11.9556 27.6248C12.2061 27.6249 12.4533 27.568 12.6786 27.4584C12.9039 27.3489 13.1013 27.1895 13.2559 26.9923L14.1447 25.8618C14.6665 25.1967 15.251 24.5399 15.9878 24.2399C16.0077 24.2319 16.0269 24.2224 16.0453 24.2116L17.9259 23.1123C18.8002 23.0959 19.6537 23.0545 20.4789 22.99L20.5267 23.0559C20.6786 23.266 20.8783 23.437 21.1094 23.5548C21.3404 23.6725 21.5961 23.7336 21.8554 23.7331C21.9039 23.7331 21.9531 23.731 22.0024 23.7268C22.2854 23.7034 22.5575 23.6066 22.7918 23.4461C23.0261 23.2855 23.2146 23.0667 23.3387 22.8112L23.4191 22.6483C25.5636 22.3094 27.4017 21.8034 28.7658 21.1845C28.7256 22.315 28.5087 24.0076 27.3415 25.5123ZM28.1684 18.376C27.8398 18.5299 27.4843 18.6763 27.1017 18.8154C26.4122 19.0625 25.7095 19.2705 24.9967 19.4385C25.2739 18.9208 25.5803 18.4314 25.8714 18.1923L26.2214 17.9048C26.6227 17.738 26.9771 17.4755 27.2535 17.1402C27.4035 16.958 27.5979 16.8175 27.818 16.7321C28.0381 16.6468 28.2764 16.6195 28.5101 16.6529C29.1289 16.7418 29.7551 16.7673 30.379 16.7292C29.9703 17.3319 29.2079 17.8896 28.1684 18.376Z" fill="#F8F4EA"/>
  <path d="M12.6644 6.29502C12.9494 6.45961 13.2629 6.5785 13.4938 6.5785C13.6295 6.5785 13.7367 6.53738 13.7927 6.44032C13.9441 6.17806 13.5553 5.79706 13.1028 5.5358C12.6502 5.27454 12.1258 5.12824 11.9744 5.39051C11.9232 5.47918 11.9062 5.63422 12.1163 5.8692C12.2762 6.03822 12.4611 6.18181 12.6644 6.29502Z" fill="#F8F4EA"/>
  <path d="M23.1878 7.41264C23.3875 7.53213 23.6043 7.62041 23.8307 7.67441C23.8923 7.68801 23.9552 7.69522 24.0182 7.69594C24.1938 7.69594 24.2769 7.62594 24.3161 7.55793C24.3673 7.46926 24.3843 7.31422 24.1743 7.07924C23.848 6.745 23.4359 6.50709 22.9833 6.3916C22.6747 6.32703 22.549 6.41939 22.4979 6.5081C22.4467 6.5968 22.4297 6.75184 22.6397 6.98678C22.7996 7.15583 22.9845 7.29944 23.1878 7.41264Z" fill="#F8F4EA"/>
  <path d="M19.0552 6.2347C19.2977 6.2347 19.6298 5.96625 19.8938 5.64569C20.226 5.24237 20.4567 4.7492 20.2229 4.55667C19.9891 4.36413 19.5493 4.68497 19.2171 5.08829C18.8849 5.49163 18.6544 5.98481 18.888 6.17734C18.9351 6.21575 18.9944 6.23609 19.0552 6.2347Z" fill="#F8F4EA"/>
  <path d="M16.6465 8.50359C16.5949 8.593 16.5779 8.74936 16.7901 8.98681C17.1209 9.32551 17.5385 9.56662 17.9971 9.68369C18.0595 9.69742 18.1231 9.70473 18.187 9.70548C18.3642 9.70548 18.4479 9.63492 18.4874 9.56645C18.539 9.47704 18.556 9.32065 18.3438 9.0832C18.1817 8.91191 17.9944 8.76638 17.7883 8.65166C17.3301 8.38715 16.7994 8.23869 16.6465 8.50359Z" fill="#F8F4EA"/>
  <path d="M11.248 9.70547C11.3119 9.7047 11.3755 9.69739 11.4379 9.68368C11.6673 9.62891 11.887 9.53943 12.0894 9.41834C12.5476 9.15385 12.9414 8.76841 12.7885 8.50358C12.6357 8.23875 12.1049 8.38706 11.6467 8.65164C11.1885 8.91623 10.7947 9.30158 10.9476 9.56644C10.9871 9.63494 11.0709 9.70547 11.248 9.70547Z" fill="#F8F4EA"/>
  <path d="M15.3504 3.99419C15.5841 3.99419 15.9018 3.87359 16.1906 3.70683C16.6488 3.44227 17.0427 3.05682 16.8898 2.79203C16.8382 2.70262 16.7112 2.60992 16.3995 2.6748C15.9408 2.79187 15.5232 3.03297 15.1925 3.37167C14.9802 3.60912 14.9972 3.76551 15.0488 3.85489C15.1054 3.95277 15.2134 3.99419 15.3504 3.99419Z" fill="#F8F4EA"/>
</svg>
