<svg xmlns="http://www.w3.org/2000/svg" width="24" height="22" viewBox="0 0 24 22" fill="none">
  <path d="M22.9742 8.92864C22.6507 8.89702 22.3344 8.81377 22.0373 8.68205C21.9365 8.61551 21.6028 8.35474 21.8895 7.95501C22.2831 7.27566 22.0562 6.1835 20.7693 5.92195C20.5264 5.11292 20.1411 4.35368 19.6317 3.67986C18.9361 2.76775 18.0201 2.04831 16.909 1.54157C15.5921 0.94098 13.9897 0.636475 12.1462 0.636475C10.3027 0.636475 8.70024 0.94098 7.38342 1.54158C6.27231 2.04833 5.35624 2.76776 4.66069 3.67987C4.16066 4.34093 3.78026 5.08445 3.53673 5.87674C1.97213 6.01219 1.67661 7.22367 2.10093 7.95501C2.4351 8.4203 1.92578 8.69917 1.92529 8.69917C1.63893 8.82089 1.3357 8.89826 1.02603 8.92864C-0.398876 9.06982 -0.564197 11.6323 1.983 12.1444V13.5301C1.983 14.0468 2.36805 14.5351 3.05204 14.9671C3.0535 15.7886 3.08971 17.3816 4.19739 18.8102C5.59521 20.6122 8.22009 21.5256 12.0001 21.5256C15.7801 21.5256 18.405 20.6122 19.8023 18.8102C20.8821 17.4183 20.9443 15.8707 20.9477 15.0322C21.6977 14.5845 22.1229 14.0732 22.1229 13.5301V12.1214C24.559 11.5604 24.379 9.06783 22.9742 8.92864ZM12.1462 1.27251C20.2249 1.27251 20.4581 7.24623 20.4581 7.92743C20.4581 8.4934 19.596 9.10535 18.1521 9.56442C16.5525 10.073 14.4195 10.3531 12.1462 10.3531C9.87284 10.3531 7.7399 10.073 6.14025 9.56442C4.69631 9.10535 3.83425 8.4934 3.83425 7.92743C3.83425 7.24623 4.06749 1.27251 12.1462 1.27251ZM17.4191 13.2706C17.2037 13.6015 17.0118 13.9473 16.8448 14.3051C16.7905 14.4157 16.7396 14.5233 16.6911 14.6251C16.6412 14.7298 16.5952 14.8267 16.5536 14.9118L15.9034 16.2333C15.8643 16.3155 15.8041 16.3858 15.729 16.4373C15.6539 16.4887 15.5666 16.5195 15.4758 16.5264C15.3852 16.5346 15.2939 16.5192 15.2111 16.4815C15.1282 16.4439 15.0566 16.3853 15.0032 16.3116L14.5139 15.6413C14.3862 15.4656 14.2341 15.2186 14.0736 14.9568C14.0163 14.8634 13.9581 14.7691 13.8989 14.674C13.5538 14.1187 13.1767 13.5541 12.7522 13.2015C13.2047 13.1226 13.6338 12.9433 14.008 12.6769C14.174 12.5589 14.3732 12.4968 14.5767 12.4995C14.7803 12.5021 14.9778 12.5694 15.1407 12.6915C15.5013 12.9562 16.0937 13.2141 17.0517 13.2659C17.1808 13.2728 17.303 13.2739 17.4191 13.2706ZM2.66603 12.2264C3.07016 12.2434 3.47498 12.2233 3.87546 12.1666C4.04033 12.143 4.2085 12.1622 4.36377 12.2224C4.51904 12.2827 4.65619 12.3819 4.762 12.5105C5.06191 12.8809 5.68866 13.333 6.9485 13.2659C7.91185 13.2141 8.50484 12.9533 8.86493 12.6876C9.02804 12.5637 9.22615 12.4944 9.43096 12.4898C9.63577 12.4851 9.83682 12.5453 10.0054 12.6617C10.1603 12.7709 10.3249 12.8658 10.497 12.9452L10.4951 12.9504L10.5622 12.9744C10.6965 13.0329 10.8344 13.0825 10.9753 13.1228L12.0471 13.5076C12.4135 13.6392 12.8167 14.1706 13.1689 14.7112C12.803 14.7259 12.431 14.7332 12.0529 14.7332C9.22258 14.7332 6.67745 14.3232 4.91514 13.671C4.64506 13.5707 4.39407 13.4652 4.16217 13.3545C3.46256 13.0192 2.94762 12.6378 2.66603 12.2264ZM11.3952 16.7251L11.024 16.942C10.3776 17.2126 9.90191 17.7419 9.48429 18.2741L8.85698 19.072C8.80292 19.1407 8.7328 19.195 8.65279 19.2302C8.57278 19.2654 8.48534 19.2804 8.39818 19.2738C8.31102 19.2672 8.22682 19.2393 8.153 19.1925C8.07917 19.1457 8.01799 19.0815 7.97484 19.0055L7.19362 17.6276C7.14608 17.5437 7.09152 17.4417 7.03372 17.3336C6.82555 16.9442 6.57822 16.4824 6.29512 16.1568C7.7586 16.4816 9.5057 16.6863 11.3952 16.7251ZM19.2999 18.4203C18.0293 20.0588 15.5732 20.8896 12.0001 20.8896C8.42704 20.8896 5.97096 20.0588 4.70035 18.4203C3.85931 17.3361 3.71694 16.1134 3.69297 15.3159C3.92995 15.4278 4.18914 15.5345 4.46755 15.6358L5.6567 16.4202C5.93585 16.6291 6.25872 17.233 6.47282 17.6335C6.53251 17.7451 6.58888 17.8505 6.64031 17.9413L7.42169 19.3195C7.51638 19.4865 7.65078 19.6276 7.81299 19.7302C7.97521 19.8329 8.16023 19.894 8.3517 19.9082C8.38099 19.9103 8.41016 19.9114 8.43923 19.9114C8.61607 19.9115 8.7906 19.8713 8.94962 19.794C9.10864 19.7167 9.24798 19.6041 9.35708 19.465L9.98448 18.667C10.3528 18.1975 10.7654 17.7339 11.2855 17.5221C11.2995 17.5164 11.3131 17.5098 11.3261 17.5021L12.6536 16.7261C13.2707 16.7146 13.8732 16.6854 14.4557 16.6398L14.4894 16.6863C14.5967 16.8347 14.7376 16.9554 14.9007 17.0385C15.0638 17.1216 15.2443 17.1647 15.4273 17.1643C15.4616 17.1643 15.4963 17.1629 15.5311 17.1599C15.7309 17.1434 15.9229 17.0751 16.0884 16.9617C16.2537 16.8484 16.3868 16.694 16.4744 16.5136L16.5311 16.3986C18.0449 16.1594 19.3424 15.8022 20.3053 15.3653C20.2769 16.1633 20.1238 17.3581 19.2999 18.4203ZM19.8836 13.3829C19.6516 13.4915 19.4007 13.5949 19.1306 13.693C18.6439 13.8674 18.1479 14.0143 17.6447 14.1329C17.8404 13.7674 18.0567 13.422 18.2621 13.2532L18.5093 13.0503C18.7925 12.9325 19.0426 12.7472 19.2377 12.5105C19.3437 12.3819 19.4809 12.2827 19.6362 12.2225C19.7916 12.1623 19.9598 12.143 20.1248 12.1666C20.5615 12.2293 21.0036 12.2473 21.444 12.2204C21.1555 12.6459 20.6174 13.0395 19.8836 13.3829Z" fill="#404844"/>
  <path d="M8.94003 4.85516C9.14121 4.97134 9.36247 5.05527 9.52548 5.05527C9.62127 5.05527 9.69695 5.02624 9.73651 4.95773C9.84337 4.77261 9.56891 4.50366 9.24947 4.31924C8.93004 4.13483 8.55985 4.03156 8.453 4.21668C8.41685 4.27928 8.40486 4.38872 8.55312 4.55458C8.66603 4.67389 8.79651 4.77526 8.94003 4.85516Z" fill="#404844"/>
  <path d="M16.3697 5.64406C16.5107 5.72841 16.6637 5.79073 16.8235 5.82885C16.867 5.83844 16.9114 5.84354 16.9559 5.84404C17.0798 5.84404 17.1385 5.79463 17.1662 5.74662C17.2023 5.68403 17.2143 5.57459 17.066 5.40872C16.8357 5.17279 16.5448 5.00485 16.2253 4.92333C16.0075 4.87775 15.9188 4.94295 15.8827 5.00556C15.8466 5.06818 15.8345 5.17762 15.9828 5.34346C16.0957 5.46279 16.2262 5.56416 16.3697 5.64406Z" fill="#404844"/>
  <path d="M13.4507 4.81266C13.6219 4.81266 13.8563 4.62317 14.0427 4.39688C14.2772 4.11219 14.44 3.76407 14.275 3.62816C14.11 3.49226 13.7995 3.71873 13.565 4.00342C13.3305 4.28814 13.1678 4.63626 13.3327 4.77217C13.366 4.79928 13.4078 4.81364 13.4507 4.81266Z" fill="#404844"/>
  <path d="M11.75 6.41415C11.7136 6.47726 11.7016 6.58764 11.8514 6.75525C12.0849 6.99433 12.3796 7.16452 12.7034 7.24716C12.7474 7.25685 12.7923 7.26201 12.8374 7.26254C12.9625 7.26254 13.0216 7.21273 13.0495 7.16441C13.0859 7.10129 13.0979 6.99089 12.9481 6.82328C12.8337 6.70237 12.7014 6.59965 12.556 6.51867C12.2326 6.33195 11.8579 6.22716 11.75 6.41415Z" fill="#404844"/>
  <path d="M7.93888 7.26253C7.98396 7.26199 8.02887 7.25683 8.0729 7.24715C8.23483 7.20849 8.38991 7.14533 8.53278 7.05986C8.85618 6.87315 9.1342 6.60108 9.02629 6.41414C8.91838 6.2272 8.54374 6.33189 8.2203 6.51866C7.89686 6.70542 7.61888 6.97743 7.72678 7.1644C7.75469 7.21275 7.8138 7.26253 7.93888 7.26253Z" fill="#404844"/>
  <path d="M10.8379 3.2311C11.0028 3.2311 11.2271 3.14596 11.431 3.02825C11.7544 2.8415 12.0324 2.56942 11.9245 2.38251C11.8881 2.31939 11.7985 2.25396 11.5784 2.29976C11.2546 2.3824 10.9598 2.55259 10.7264 2.79167C10.5766 2.95928 10.5886 3.06967 10.625 3.13276C10.6649 3.20185 10.7412 3.2311 10.8379 3.2311Z" fill="#404844"/>
</svg>
