<svg xmlns="http://www.w3.org/2000/svg" width="44" height="43" viewBox="0 0 44 43" fill="none">
  <path d="M10.2882 26.762C13.1728 27.8753 16.1023 28.2487 18.5372 27.8117C18.6421 27.7931 18.7452 27.7728 18.8464 27.7507C18.8796 27.7433 18.9124 27.7352 18.9455 27.7279C19.0133 27.7124 19.0814 27.6977 19.1477 27.6812C19.1869 27.6716 19.2254 27.6606 19.2642 27.6502C19.323 27.6349 19.3818 27.6196 19.4398 27.6029C19.4815 27.5911 19.521 27.5786 19.562 27.5654C19.6157 27.5491 19.6699 27.5336 19.7229 27.5158C19.7645 27.5023 19.804 27.488 19.8453 27.4737C19.8958 27.4564 19.9471 27.4387 19.9972 27.4207C20.0381 27.4057 20.0776 27.3896 20.1174 27.3743C20.1661 27.3552 20.2145 27.3372 20.2617 27.3171C20.3012 27.3011 20.3399 27.2836 20.3786 27.2661C20.4248 27.2457 20.4714 27.2259 20.5165 27.2051C20.5552 27.1877 20.5925 27.1691 20.6297 27.1506C20.6737 27.1295 20.7178 27.1083 20.7611 27.0858C20.771 27.0806 20.7813 27.0761 20.7912 27.071C20.8416 27.0447 20.8905 27.0174 20.9398 26.9908C20.9483 26.9864 20.9576 26.9816 20.9657 26.9764C21.0341 26.938 21.1007 26.8979 21.1663 26.8574C21.1854 26.8457 21.2042 26.8332 21.2233 26.8214C21.27 26.7916 21.3164 26.7612 21.3624 26.73C21.3836 26.7153 21.4045 26.7017 21.4257 26.687C21.4721 26.6548 21.5181 26.6218 21.5633 26.5874C21.5788 26.5757 21.5955 26.5643 21.6106 26.5519C21.6693 26.5069 21.7272 26.4604 21.7833 26.414C21.7953 26.4042 21.8077 26.3932 21.8193 26.3827C21.8638 26.3451 21.9068 26.3064 21.9491 26.2681C21.9667 26.2517 21.9836 26.2357 22.0012 26.2193C22.0386 26.1836 22.0748 26.1475 22.1111 26.1115C22.1269 26.0951 22.1424 26.0798 22.1575 26.0638C22.2054 26.0136 22.2521 25.9631 22.2974 25.9115C22.2985 25.9101 22.3002 25.9083 22.3013 25.9068L23.3053 28.048C23.2589 28.2878 23.2552 28.5198 23.252 28.7299C23.25 28.8492 23.2487 28.9626 23.2394 29.0659C23.2087 29.4157 23.1481 29.7667 23.0593 30.1089C22.8822 30.7922 22.5991 31.4333 22.2177 32.0137C21.9284 32.4541 21.6618 32.7095 21.3808 32.8162C21.1031 32.9221 20.7653 32.8798 20.5219 32.7089C20.2872 32.5443 20.1281 32.2546 20.1062 31.9529C20.0847 31.6501 20.197 31.3236 20.4083 31.08C20.5027 30.9703 20.6024 30.8967 20.689 30.8723C20.7399 30.8575 20.7859 30.866 20.7956 30.8727C20.8207 30.8948 20.853 30.9845 20.8687 31.283C20.8847 31.5923 21.1481 31.8295 21.4574 31.8135C21.766 31.798 22.0039 31.5342 21.9879 31.2249C21.9731 30.9367 21.9451 30.4017 21.5476 30.0423C21.247 29.7703 20.7999 29.6758 20.3807 29.796C20.0801 29.8823 19.804 30.0676 19.5625 30.3469C19.1552 30.8172 18.9462 31.4323 18.9899 32.0339C19.0368 32.6727 19.3685 33.2676 19.8792 33.6259C20.4267 34.01 21.1548 34.1016 21.7803 33.8631C21.8578 33.8335 21.9324 33.8001 22.0041 33.7627C22.5511 33.4776 22.918 32.9886 23.1546 32.6289C23.6041 31.9453 23.9368 31.1918 24.1445 30.3888C24.176 30.2659 24.2037 30.1423 24.2299 30.0177L24.5721 30.747C24.5199 31.0521 24.4556 31.3581 24.3816 31.6592C23.5148 35.1778 21.3216 37.7907 19.593 37.3652C18.8179 37.1746 18.19 36.3352 17.8691 35.0615C17.5132 33.6463 17.5597 31.8797 18.0017 30.0875C18.0754 29.7874 17.8921 29.4842 17.5916 29.4098C17.2912 29.3354 16.9883 29.5194 16.9139 29.8198C16.4294 31.7867 16.3825 33.7447 16.7828 35.3352C17.2138 37.0487 18.1168 38.1562 19.3253 38.453C20.0272 38.6259 20.7541 38.5024 21.458 38.1356C23.1148 37.2721 24.6437 35.0569 25.4073 32.1677C25.7129 32.4911 26.0821 32.7355 26.4874 32.8725C27.0449 33.0611 27.6208 33.0253 28.1083 32.7712C28.5958 32.5172 28.9543 32.066 29.1191 31.5009C29.2386 31.0913 29.2501 30.6477 29.1601 30.2119C31.9657 31.2409 34.6572 31.2566 36.314 30.3931C37.0179 30.0263 37.5352 29.5004 37.7959 28.8268C38.2438 27.6658 37.8535 26.292 36.6959 24.9572C35.6218 23.7187 33.9896 22.6349 32.1002 21.9061C31.4742 21.664 30.8439 21.4709 30.2163 21.3261C31.6367 19.6213 32.7479 17.3179 33.3865 14.724C33.4602 14.4239 33.2769 14.1206 32.9764 14.0462C32.676 13.9718 32.3724 14.1562 32.2987 14.4563C31.6175 17.2213 30.317 19.7136 28.7319 21.2931C28.6552 21.3692 28.5788 21.4424 28.5016 21.5142C28.4755 21.5386 28.4487 21.5616 28.4223 21.5853C28.3711 21.6309 28.3204 21.6772 28.2692 21.721C28.2382 21.748 28.2067 21.7725 28.1753 21.7988C28.1287 21.8375 28.0829 21.8759 28.0359 21.9121C28.0027 21.9384 27.9694 21.963 27.9359 21.9886C27.8913 22.0226 27.8464 22.0559 27.8012 22.0885C27.7669 22.1127 27.7326 22.1369 27.6986 22.16C27.654 22.1905 27.6101 22.2206 27.5655 22.2492C27.5312 22.2717 27.4965 22.2934 27.4618 22.315C27.4175 22.3426 27.3736 22.3691 27.3293 22.3949C27.2945 22.4148 27.2598 22.4348 27.2247 22.454C27.1807 22.4787 27.1367 22.5016 27.0927 22.5245C27.058 22.5426 27.0235 22.5597 26.9891 22.5767C26.9444 22.5982 26.9004 22.6194 26.8563 22.6387C26.8226 22.6536 26.7885 22.6696 26.7543 22.6837C26.7092 22.7027 26.6644 22.7207 26.62 22.7375C26.5869 22.7503 26.5538 22.763 26.5211 22.7746C26.4756 22.7911 26.4289 22.8055 26.3834 22.8202C26.3517 22.8304 26.32 22.8406 26.288 22.8501C26.2402 22.8642 26.1928 22.8753 26.1447 22.8869C26.1151 22.8942 26.0859 22.9022 26.0567 22.9084C26.0046 22.9193 25.9525 22.9284 25.9004 22.9375C25.8765 22.9418 25.8512 22.9469 25.8269 22.9505C25.7573 22.9607 25.6891 22.9682 25.6197 22.9737C25.6129 22.9745 25.6061 22.9754 25.5994 22.9762C25.5239 22.9821 25.4485 22.9845 25.3744 22.9843C25.3525 22.9839 25.331 22.9825 25.3099 22.9818C25.2623 22.9804 25.2147 22.9791 25.1677 22.9756L24.3221 21.5071C24.328 21.4941 24.3342 21.48 24.3397 21.4663C24.3663 21.3929 24.5256 21.2846 24.654 21.1969C24.735 21.1412 24.8189 21.0839 24.9019 21.0181C25.2617 20.7304 25.6035 20.4115 25.9174 20.0702C26.5507 19.381 27.0688 18.6057 27.4581 17.7668L27.4771 17.7253C27.6028 17.454 27.7447 17.1464 27.9098 17.0874C28.0101 17.0514 28.1786 17.1323 28.2568 17.253C28.3616 17.4159 28.3808 17.6639 28.3081 17.9175C28.2218 18.2178 28.0234 18.507 27.8407 18.7502C27.6548 18.9978 27.7051 19.3488 27.9526 19.5346C28.1306 19.6684 28.3631 19.6798 28.5483 19.5833C28.6199 19.546 28.6849 19.4923 28.737 19.4227C28.981 19.0979 29.2485 18.7023 29.3851 18.2269C29.5484 17.659 29.4808 17.0825 29.1982 16.646C28.837 16.0862 28.1215 15.8231 27.5327 16.0334C26.9258 16.2504 26.6568 16.8318 26.4606 17.2553L26.442 17.2957C26.1018 18.0297 25.6476 18.7076 25.0926 19.3117C24.8174 19.6113 24.5183 19.8908 24.2029 20.1427C24.1524 20.1825 24.0894 20.2262 24.0222 20.272C23.9338 20.3326 23.8333 20.4012 23.7337 20.4837L23.5472 20.1605C23.5822 20.1134 23.6103 20.0617 23.6301 20.0027C24.1105 18.5631 24.2499 17.0179 24.3428 15.6829C24.3554 15.4976 24.3677 15.3117 24.3799 15.1257C24.4584 13.9362 24.5401 12.7062 24.7958 11.5453C25.121 10.0675 25.6961 8.89076 26.5043 8.04726C26.8275 7.71007 27.1289 7.49708 27.426 7.39546C27.7377 7.28895 28.0631 7.31426 28.2749 7.46102C28.507 7.62246 28.6538 7.94567 28.7771 8.27214C29.1107 9.15123 29.3198 10.0718 29.4003 11.0088C29.4363 11.4294 29.4488 11.9571 29.2224 12.3105C29.0338 12.6047 28.6462 12.7787 28.3014 12.7229C27.9565 12.6671 27.6428 12.3804 27.5566 12.0418C27.4907 11.782 27.5815 11.3918 27.7516 11.2058C27.8328 11.1174 27.8999 11.1077 27.9756 11.1197C28.2814 11.1697 28.5685 10.9623 28.6188 10.6572C28.6688 10.3515 28.4614 10.0644 28.1564 10.014C27.6892 9.93811 27.2523 10.0918 26.9258 10.4487C26.5044 10.9093 26.3129 11.6948 26.4715 12.3177C26.6692 13.0935 27.3329 13.7004 28.1231 13.8282C28.9133 13.9559 29.7349 13.5882 30.1666 12.9138C30.5743 12.2764 30.5682 11.5099 30.5171 10.9131C30.428 9.87315 30.1951 8.85137 29.8251 7.87483C29.6465 7.40399 29.3993 6.87776 28.9144 6.54126C28.4082 6.18972 27.7165 6.11258 27.0643 6.33612C26.5932 6.49684 26.1456 6.80319 25.6957 7.27313C24.7429 8.26687 24.0721 9.62342 23.7017 11.3052C23.4276 12.5488 23.3438 13.8215 23.2621 15.0532C23.2498 15.2374 23.2379 15.4223 23.2249 15.6068C23.1514 16.6674 23.0545 17.7781 22.7948 18.8536L21.1901 16.0654C21.1919 16.0618 21.1932 16.0575 21.1957 16.0535C21.2164 16.012 21.2351 15.9698 21.2537 15.9276C21.263 15.9074 21.2723 15.8872 21.2806 15.8667C21.3064 15.8036 21.3303 15.7388 21.3521 15.6733C21.3548 15.6647 21.3572 15.6571 21.3599 15.6485C21.3776 15.5941 21.3925 15.5395 21.4073 15.4848C21.4117 15.4672 21.4153 15.45 21.4189 15.4328C21.428 15.3947 21.4367 15.3577 21.4439 15.3196C21.4485 15.2973 21.451 15.2744 21.4549 15.2525C21.4605 15.2198 21.4656 15.1865 21.4701 15.1535C21.4732 15.1284 21.4753 15.1029 21.4785 15.0778C21.4815 15.0473 21.4846 15.0169 21.4866 14.9861C21.4887 14.9588 21.4889 14.9316 21.4902 14.9048C21.4916 14.8761 21.4929 14.8475 21.4931 14.8185C21.4937 14.7902 21.4925 14.7619 21.4924 14.734C21.4916 14.7065 21.4915 14.6786 21.4896 14.6507C21.4884 14.6224 21.4861 14.5938 21.4838 14.5652C21.4819 14.5374 21.479 14.5091 21.4756 14.482C21.4723 14.4548 21.4686 14.427 21.4653 14.3998C21.4629 14.3849 21.4623 14.3698 21.4599 14.3548C21.5443 13.5403 21.6882 12.7137 21.8892 11.8961C22.5426 9.24397 23.7276 6.90034 25.2266 5.29618C26.6459 3.77783 28.1595 3.12254 29.4899 3.45057C31.5175 3.94942 32.8235 6.66494 32.8173 10.3684C32.8172 10.678 33.0673 10.9293 33.3768 10.9295C33.6857 10.93 33.9377 10.6796 33.9379 10.37C33.9455 6.13254 32.3044 2.98888 29.7583 2.36239C28.0171 1.93353 26.1175 2.70338 24.4093 4.53115C22.7815 6.27274 21.5 8.79301 20.8021 11.6281C20.714 11.9871 20.6363 12.347 20.5683 12.7082C20.0588 12.2482 19.3978 11.9909 18.7191 11.9801C18.252 10.7203 18.7846 9.27522 20.0072 8.63806C20.2818 8.49494 20.3881 8.15711 20.245 7.88251C20.1019 7.60791 19.7641 7.50156 19.4895 7.64467C17.8192 8.51518 17.0597 10.453 17.6082 12.191C17.5303 12.2234 17.4529 12.2584 17.377 12.2979C17.3003 12.3379 17.2274 12.3813 17.1562 12.4265C16.0461 10.9821 14.0223 10.494 12.352 11.3645C12.0774 11.5076 11.9711 11.8454 12.1142 12.12C12.2573 12.3946 12.5951 12.501 12.8697 12.3579C14.0923 11.7207 15.5819 12.1119 16.347 13.2164C15.9849 13.7525 15.8158 14.4027 15.8743 15.0517C15.5736 14.9178 15.269 14.7905 14.961 14.6722C12.2374 13.6203 9.43754 13.2272 7.07757 13.5638C4.60087 13.9171 2.88172 15.0332 2.23591 16.7061C1.58939 18.3793 2.11333 20.3611 3.70927 22.2876C5.22633 24.1199 7.5646 25.7101 10.2882 26.762ZM28.042 31.188C27.9862 31.3786 27.8627 31.6351 27.5881 31.7782C27.3135 31.9214 27.0314 31.8753 26.8432 31.8119C26.4433 31.6765 26.0814 31.3319 25.874 30.8905L25.6583 30.4299C25.6579 30.4292 25.6576 30.4285 25.6572 30.4278L24.2742 27.4799L19.5752 17.4611C19.6136 17.4483 19.6513 17.434 19.689 17.4198C19.6936 17.4183 19.6979 17.4161 19.7025 17.4146C19.7413 17.3989 19.78 17.3832 19.818 17.3661C19.8347 17.3583 19.8507 17.3509 19.8674 17.3431C19.8933 17.3305 19.9185 17.3182 19.9444 17.3056C19.9551 17.3001 19.9654 17.2956 19.976 17.2901C19.9838 17.286 19.9912 17.2812 19.9991 17.2772C20.0335 17.2583 20.0678 17.2395 20.1015 17.2192C20.1182 17.2097 20.1345 17.1994 20.1511 17.1898C20.1858 17.1681 20.2212 17.146 20.2552 17.1229C20.2694 17.1137 20.2839 17.1035 20.2977 17.0936C20.3298 17.0705 20.362 17.0474 20.3928 17.0232C20.4023 17.0156 20.4122 17.0086 20.4217 17.0009C20.4249 16.9984 20.4281 16.9958 20.4313 16.9933L26.53 27.5873L27.5868 29.423C27.5872 29.4237 27.5872 29.4237 27.5876 29.4245L27.8419 29.8657C28.0856 30.2883 28.1601 30.7827 28.042 31.188ZM35.8479 25.6915C36.7077 26.6835 37.0368 27.6786 36.7494 28.4239C36.1074 30.0849 32.7093 30.386 29.3287 29.081C29.0394 28.9692 28.7517 28.8466 28.4718 28.7146L28.07 28.0163C28.1864 28.0666 28.3046 28.1151 28.4235 28.1596C29.2007 28.4493 30.0086 28.6076 30.8267 28.6314C31.2575 28.6442 31.868 28.6229 32.4151 28.3377C32.4868 28.3004 32.5569 28.2584 32.6256 28.2118C33.1786 27.8361 33.5213 27.1865 33.5201 26.5176C33.5189 25.8938 33.2209 25.2804 32.7245 24.8768C32.2565 24.4964 31.6321 24.3147 31.0137 24.3798C30.6458 24.4182 30.3357 24.5383 30.0928 24.7353C29.7542 25.0101 29.5755 25.4307 29.6263 25.8329C29.6932 26.3646 30.1167 26.6943 30.3434 26.8712C30.5878 27.0614 30.9396 27.0179 31.1291 26.7739C31.3193 26.5295 31.2758 26.1777 31.0318 25.9882C30.7961 25.8043 30.7411 25.7265 30.7377 25.6957C30.7382 25.6811 30.7575 25.6385 30.7988 25.6052C30.868 25.5493 30.9862 25.5094 31.1298 25.4941C31.4506 25.4604 31.7821 25.5547 32.0184 25.7465C32.2531 25.9373 32.3994 26.2336 32.4 26.5203C32.4007 26.8177 32.2421 27.1178 31.9959 27.2858C31.7471 27.4542 31.3855 27.5272 30.8588 27.5121C30.1645 27.4923 29.4761 27.3575 28.8153 27.1109C28.484 26.9876 28.1615 26.8363 27.8572 26.661C27.7672 26.6095 27.6735 26.5456 27.5746 26.4789C27.4005 26.3612 27.2083 26.2313 26.9851 26.132L25.8051 24.0825C25.8076 24.0821 25.8108 24.0814 25.8137 24.0817C25.878 24.0752 25.9426 24.0659 26.0072 24.0566C26.029 24.0534 26.0511 24.0491 26.0736 24.0455C26.12 24.0375 26.1664 24.0296 26.2128 24.0199C26.2381 24.0148 26.2623 24.0094 26.2876 24.0043C26.3322 23.9946 26.3771 23.9838 26.422 23.973C26.4459 23.9669 26.4709 23.9611 26.4948 23.955C26.5446 23.9416 26.5956 23.9268 26.6458 23.9124C26.6636 23.9067 26.6817 23.9018 26.6999 23.8968C26.7683 23.8756 26.8359 23.853 26.9035 23.8286C26.9188 23.8233 26.9344 23.817 26.9504 23.8114C27.0034 23.7919 27.0561 23.7716 27.109 23.7504C27.1328 23.7407 27.1567 23.731 27.1808 23.7202C27.2259 23.7012 27.2707 23.6814 27.3162 23.6613C27.341 23.6502 27.3666 23.6387 27.3911 23.6268C27.4369 23.6056 27.4827 23.5827 27.5289 23.5604C27.5519 23.5493 27.5746 23.5375 27.5977 23.5264C27.6062 23.5219 27.6158 23.5178 27.6243 23.5134C27.6478 23.5012 27.6711 23.4872 27.6953 23.4746C27.7417 23.4495 27.7882 23.4244 27.835 23.3982C27.8676 23.3794 27.8998 23.3599 27.9324 23.3411C27.9771 23.3142 28.0221 23.288 28.0667 23.2594C28.1 23.2384 28.1326 23.2178 28.1655 23.1962C28.2094 23.1679 28.2536 23.1385 28.2975 23.1084C28.3308 23.0857 28.364 23.0629 28.3969 23.0395C28.4404 23.0087 28.4843 22.9768 28.5281 22.9449C28.5606 22.9208 28.5932 22.8966 28.6264 22.872C28.6709 22.838 28.7151 22.8033 28.7592 22.7685C28.7914 22.7437 28.8224 22.7184 28.8542 22.6929C28.8997 22.6556 28.9449 22.6176 28.9904 22.5786C29.0204 22.553 29.0501 22.5285 29.0797 22.5023C29.1287 22.4596 29.1777 22.4151 29.2264 22.3699C29.2521 22.3465 29.2775 22.3243 29.3028 22.3002C29.3071 22.2962 29.3113 22.2922 29.3159 22.2889C30.103 22.4228 30.9023 22.6459 31.6966 22.9529C33.417 23.6155 34.8913 24.5885 35.8479 25.6915ZM17.8911 13.2878C18.7205 12.8555 19.747 13.1786 20.1797 14.0088C20.257 14.1571 20.3115 14.3136 20.3418 14.4774C20.3955 14.7571 20.3761 15.0487 20.2865 15.3201C20.2841 15.3276 20.2814 15.3363 20.279 15.3438C20.2296 15.4878 20.1627 15.6228 20.0775 15.7466C19.919 15.9808 19.7113 16.1657 19.4594 16.297C19.431 16.3118 19.4029 16.3255 19.3745 16.3385C19.1746 16.4292 18.9628 16.48 18.7432 16.488C18.622 16.4925 18.5034 16.4849 18.3882 16.4646C17.9668 16.3919 17.5922 16.1666 17.3332 15.8306C17.2718 15.7508 17.2166 15.6658 17.1704 15.5771C16.7378 14.7469 17.0616 13.7201 17.8911 13.2878ZM3.27656 17.1066C3.55778 16.3772 4.13651 15.7823 4.96315 15.3515C5.58543 15.0272 6.34813 14.7957 7.23142 14.6693C9.40464 14.3586 12.0052 14.7294 14.553 15.7141C15.2331 15.9768 15.8963 16.2781 16.5243 16.6122C16.5247 16.6129 16.5247 16.6129 16.5257 16.6133C16.5356 16.6253 16.5462 16.6369 16.5567 16.6485C16.5746 16.669 16.5925 16.6894 16.6107 16.7088C16.6228 16.7215 16.6348 16.7342 16.6468 16.7469C16.6643 16.7648 16.681 16.7832 16.6992 16.8007C16.7123 16.8138 16.7258 16.8257 16.7389 16.8387C16.7563 16.8549 16.7734 16.8721 16.7916 16.8879C16.8054 16.9006 16.8196 16.9122 16.8334 16.9248C16.8512 16.9399 16.8693 16.9557 16.8871 16.9708C16.9016 16.9831 16.9165 16.9943 16.9307 17.0059C16.9492 17.0206 16.9673 17.0346 16.9865 17.0489C17.0014 17.0601 17.0169 17.071 17.0318 17.0822C17.0506 17.0958 17.0702 17.1091 17.089 17.1227C17.1046 17.1336 17.1205 17.1433 17.1361 17.1542C17.1552 17.1667 17.1755 17.1796 17.1954 17.1918C17.2113 17.2016 17.2272 17.2113 17.2438 17.2207C17.2644 17.2325 17.2839 17.244 17.3045 17.2558C17.3208 17.2645 17.3374 17.2739 17.3537 17.2826C17.3746 17.2933 17.3955 17.304 17.4165 17.3148C17.4334 17.3231 17.4497 17.3318 17.4663 17.3394C17.4879 17.3497 17.5092 17.3594 17.5312 17.3687C17.5478 17.3763 17.5651 17.3835 17.5817 17.3911C17.6037 17.4004 17.6264 17.4093 17.649 17.4183C17.666 17.4248 17.6829 17.4313 17.6998 17.4378C17.7232 17.4464 17.7463 17.4542 17.7704 17.4624C17.787 17.4682 17.8035 17.474 17.8204 17.4787C17.8452 17.4865 17.8704 17.4933 17.8952 17.5011C17.9111 17.5055 17.9272 17.5106 17.9431 17.515C17.9711 17.522 17.9991 17.529 18.0268 17.5354C18.0401 17.5384 18.0537 17.5421 18.067 17.5451C18.1087 17.554 18.1511 17.5626 18.1934 17.5694C18.2541 17.5802 18.3161 17.5885 18.3782 17.595C18.3857 17.5956 18.3936 17.5969 18.4015 17.5982L19.737 20.4463C18.7059 20.0435 17.7407 19.4864 16.8286 18.9394C16.6709 18.8447 16.5126 18.7486 16.3546 18.6532C15.2988 18.0142 14.2069 17.3544 13.0302 16.8659C11.4395 16.2062 9.94326 15.979 8.58292 16.1908C7.94041 16.2911 7.43293 16.4825 7.03094 16.7759C6.47447 17.1832 6.14115 17.7936 6.13933 18.4099C6.13814 18.9998 6.42719 19.5042 6.71082 19.9203C7.29898 20.7822 8.00346 21.5592 8.80489 22.2278C9.26477 22.6116 9.88958 23.0557 10.6456 23.0866C11.4457 23.119 12.217 22.6565 12.5656 21.9353C12.9136 21.2144 12.7962 20.3227 12.2732 19.7156C11.8538 19.2295 11.0998 18.9358 10.481 19.0174C10.0018 19.0813 9.62446 19.351 9.41974 19.7771C9.28557 20.0563 9.40284 20.3904 9.6821 20.5246C9.96098 20.6581 10.2954 20.5415 10.4296 20.2622C10.4628 20.1926 10.5092 20.1432 10.6285 20.1279C10.8781 20.0944 11.2503 20.2442 11.4255 20.447C11.6536 20.7116 11.7097 21.1326 11.5572 21.4476C11.4046 21.7626 11.0411 21.9809 10.6916 21.9664C10.2722 21.9495 9.84679 21.637 9.52266 21.3665C8.80071 20.7638 8.16661 20.0648 7.63643 19.2881C7.44049 19.0004 7.25893 18.6953 7.25918 18.4119C7.26022 18.1542 7.42515 17.8734 7.69172 17.6785C7.94521 17.4931 8.29311 17.3678 8.75394 17.2963C9.90833 17.117 11.2023 17.3196 12.5999 17.8996C13.698 18.355 14.7534 18.9932 15.7733 19.6103C15.9324 19.706 16.0911 19.8029 16.2509 19.8982C17.3984 20.5869 18.7448 21.3577 20.2001 21.7885C20.2587 21.8058 20.3182 21.8126 20.3769 21.8109L20.535 22.149C20.4103 22.1833 20.2965 22.2264 20.1962 22.2642C20.1201 22.293 20.0483 22.3196 19.9867 22.3382C19.5996 22.4524 19.1991 22.5375 18.796 22.5915C17.9829 22.7004 17.167 22.6844 16.3705 22.5428L16.3267 22.5349C15.8669 22.4525 15.2372 22.3403 14.7103 22.7142C14.2013 23.076 14.0065 23.8136 14.2584 24.4303C14.4551 24.9116 14.8882 25.2976 15.4472 25.489C15.9152 25.6494 16.3927 25.6567 16.7987 25.6427C16.8849 25.6402 16.9661 25.6177 17.0385 25.58C17.2237 25.4835 17.3474 25.2864 17.3397 25.0639C17.3292 24.7545 17.0696 24.5127 16.7609 24.5228C16.4569 24.5333 16.1061 24.5303 15.8106 24.4289C15.5611 24.3433 15.3688 24.1855 15.2953 24.0063C15.2411 23.873 15.2717 23.6893 15.3583 23.627C15.5005 23.5258 15.8347 23.5854 16.129 23.6377L16.1739 23.6459C17.0839 23.8077 18.0168 23.8268 18.9445 23.7024C19.4041 23.6407 19.8613 23.5432 20.3032 23.413C20.4047 23.3826 20.5 23.3474 20.5918 23.3122C20.7372 23.2572 20.9175 23.1894 20.9926 23.2089C21.0074 23.2129 21.0214 23.2155 21.0361 23.2178L21.7554 24.7521C21.7314 24.7926 21.7052 24.8324 21.6787 24.8715C21.6665 24.8896 21.6553 24.9081 21.6431 24.9262C21.6001 24.9874 21.5553 25.0468 21.5076 25.106C21.5034 25.1117 21.4982 25.1172 21.4929 25.1227C21.449 25.1753 21.4037 25.2269 21.357 25.2774C21.3401 25.2952 21.3214 25.3131 21.3035 25.3306C21.2669 25.3677 21.2296 25.4052 21.1908 25.4416C21.169 25.462 21.1457 25.4814 21.1228 25.5014C21.0857 25.5343 21.049 25.566 21.0106 25.5978C20.9851 25.6183 20.9586 25.6384 20.9321 25.6585C20.8943 25.6881 20.8555 25.7174 20.8151 25.7457C20.7868 25.7658 20.7575 25.7856 20.7288 25.8051C20.6888 25.8322 20.6478 25.8591 20.6063 25.8852C20.5759 25.9046 20.544 25.9231 20.5124 25.9422C20.4706 25.9676 20.4274 25.992 20.3834 26.0167C20.3504 26.0348 20.3175 26.0529 20.2834 26.0706C20.2387 26.0939 20.1929 26.1169 20.1471 26.1398C20.1127 26.1569 20.0772 26.1736 20.0417 26.1903C19.9945 26.2122 19.9458 26.233 19.8971 26.2539C19.8609 26.2692 19.8239 26.2848 19.7869 26.3005C19.7361 26.3206 19.6849 26.3401 19.6337 26.3596C19.596 26.3738 19.559 26.3877 19.5202 26.4016C19.4662 26.4207 19.4113 26.4385 19.3565 26.4562C19.3181 26.469 19.2804 26.4815 19.2412 26.4929C19.1828 26.5107 19.1229 26.5274 19.0627 26.5435C19.025 26.5541 18.9883 26.5651 18.9502 26.5751C18.8835 26.5926 18.8144 26.6088 18.7456 26.6239C18.7124 26.6313 18.6807 26.6397 18.6475 26.6471C18.5463 26.6692 18.4432 26.6895 18.3386 26.7088C18.3369 26.7088 18.3354 26.7096 18.3344 26.7092C16.1311 27.1041 13.3442 26.7429 10.6865 25.7171C8.13835 24.7335 5.96309 23.2604 4.56259 21.5704C3.24196 19.9696 2.78339 18.385 3.27656 17.1066Z" fill="#F8F4EA"/>
  <path d="M33.2614 13.2312C33.2979 13.2284 33.3339 13.2214 33.3691 13.2111C33.4044 13.2008 33.4389 13.1874 33.4715 13.1704C33.5042 13.1534 33.535 13.1328 33.5636 13.1098C33.5915 13.0871 33.6179 13.0616 33.6417 13.0329C33.6652 13.0054 33.6855 12.975 33.7032 12.9432C33.7213 12.9103 33.7361 12.8764 33.747 12.8419C33.7908 12.7008 33.7774 12.5454 33.7094 12.4148C33.6413 12.2843 33.5212 12.1836 33.3809 12.1394C33.3463 12.1285 33.3097 12.1206 33.2728 12.1172C33.2373 12.1132 33.2 12.1127 33.1636 12.1155C33.1268 12.1193 33.0907 12.1264 33.0562 12.1363C32.9853 12.1561 32.9186 12.1908 32.8618 12.2376C32.8332 12.2606 32.8068 12.2861 32.7833 12.3137C32.7601 12.342 32.7392 12.3728 32.7214 12.4046C32.7037 12.4364 32.6893 12.471 32.6784 12.5055C32.6675 12.54 32.6595 12.5767 32.6559 12.6129C32.6522 12.6491 32.6517 12.6863 32.6552 12.7224C32.658 12.7589 32.665 12.7949 32.6753 12.8302C32.6855 12.8654 32.699 12.8999 32.716 12.9325C32.784 13.0631 32.9038 13.1631 33.0445 13.208C33.079 13.2188 33.1153 13.2261 33.1519 13.2305C33.1881 13.2342 33.2253 13.2346 33.2614 13.2312Z" fill="#404844"/>
</svg>
