<svg xmlns="http://www.w3.org/2000/svg" width="24" height="21" viewBox="0 0 24 21" fill="none">
  <path d="M2.80908 9.84917C4.2516 11.4871 5.96352 12.6766 7.63026 13.1973C7.70199 13.2199 7.77315 13.2408 7.84376 13.26C7.86691 13.2662 7.89007 13.2719 7.91323 13.2781C7.96067 13.2905 8.00811 13.3035 8.05499 13.3148C8.08267 13.3216 8.11034 13.3272 8.13802 13.3334C8.17981 13.343 8.22161 13.3527 8.2634 13.3611C8.29334 13.3673 8.32215 13.3724 8.35208 13.3775C8.39105 13.3848 8.43002 13.3928 8.46899 13.399C8.49949 13.404 8.52886 13.408 8.55936 13.4125C8.59664 13.4182 8.63448 13.4238 8.67176 13.4289C8.70226 13.4329 8.73219 13.4357 8.76213 13.4391C8.79884 13.443 8.83499 13.4475 8.87114 13.4504C8.90107 13.4532 8.931 13.4549 8.96094 13.4566C8.99652 13.4588 9.0321 13.4617 9.06712 13.4634C9.09706 13.465 9.12643 13.4656 9.1558 13.4662C9.19025 13.4673 9.2247 13.4684 9.25916 13.4684C9.26706 13.4684 9.27497 13.469 9.28288 13.469C9.32298 13.469 9.36252 13.4679 9.40205 13.4673C9.40883 13.4673 9.41617 13.4673 9.42295 13.4667C9.4783 13.465 9.53309 13.4617 9.58731 13.4577C9.60312 13.4566 9.61894 13.4549 9.63475 13.4538C9.67372 13.4504 9.7127 13.4464 9.75167 13.4419C9.76974 13.4396 9.78725 13.4379 9.80532 13.4357C9.84486 13.4306 9.8844 13.4249 9.92393 13.4182C9.93749 13.4159 9.95161 13.4142 9.96516 13.4114C10.0166 13.4024 10.068 13.3922 10.1182 13.3815C10.129 13.3792 10.1403 13.3764 10.151 13.3735C10.1911 13.3645 10.2306 13.3543 10.2696 13.3442C10.286 13.3397 10.3018 13.3351 10.3182 13.3306C10.3532 13.3205 10.3876 13.3097 10.4221 13.299C10.4373 13.2939 10.452 13.2894 10.4667 13.2843C10.513 13.2685 10.5588 13.2521 10.604 13.2346C10.6051 13.234 10.6068 13.2335 10.6079 13.2329L10.5379 14.9008C10.4306 15.0358 10.3526 15.1798 10.282 15.3103C10.2419 15.3843 10.2041 15.4549 10.1645 15.5164C10.0312 15.7254 9.87875 15.9253 9.71157 16.1106C9.37776 16.4805 8.99144 16.7895 8.56332 17.0284C8.23855 17.2097 7.98835 17.2826 7.77767 17.2577C7.56926 17.2334 7.37158 17.0967 7.275 16.9104C7.1818 16.7307 7.17672 16.4975 7.26144 16.3015C7.34673 16.1049 7.52351 15.9372 7.73531 15.8536C7.8302 15.8158 7.91662 15.8022 7.97874 15.8152C8.01546 15.8225 8.04144 15.8429 8.04539 15.8502C8.05386 15.8722 8.04483 15.9389 7.95728 16.1309C7.86635 16.3297 7.95389 16.5641 8.1527 16.6551C8.35095 16.746 8.58591 16.6585 8.67684 16.4596C8.76156 16.2744 8.91858 15.9304 8.78698 15.5757C8.68757 15.3074 8.43849 15.1024 8.13689 15.0409C7.92057 14.9968 7.6873 15.0228 7.445 15.1188C7.03665 15.2803 6.70511 15.5972 6.53623 15.988C6.35719 16.4032 6.37074 16.8838 6.57351 17.2747C6.79096 17.6937 7.21682 17.9886 7.68617 18.0434C7.74435 18.0501 7.80196 18.0535 7.859 18.0535C8.29447 18.0535 8.68362 17.8671 8.94908 17.7192C9.45345 17.4379 9.90755 17.0747 10.2995 16.6398C10.3594 16.5732 10.417 16.5048 10.4741 16.4354L10.4503 17.0035C10.3182 17.1775 10.1781 17.3481 10.0335 17.5124C8.34304 19.4322 6.11771 20.3523 5.17449 19.522C4.75145 19.1498 4.63227 18.4195 4.8469 17.5175C5.08581 16.5156 5.69128 15.4249 6.55261 14.4472C6.69664 14.2834 6.68082 14.0338 6.51703 13.8892C6.35323 13.7446 6.10359 13.761 5.959 13.9248C5.01408 14.9979 4.34592 16.2083 4.07764 17.3345C3.78846 18.5477 3.99235 19.5356 4.65204 20.1156C5.03498 20.4528 5.53031 20.6127 6.0906 20.6127C7.40942 20.6127 9.08915 19.7248 10.5096 18.1654C10.5955 18.4675 10.7469 18.7409 10.9558 18.9589C11.2433 19.2588 11.6155 19.4243 12.0035 19.4243C12.3916 19.4243 12.7632 19.2588 13.0507 18.9589C13.2591 18.7415 13.411 18.4675 13.4969 18.1654C14.9174 19.7248 16.5971 20.6127 17.9159 20.6127C18.4762 20.6127 18.9715 20.4522 19.3545 20.1156C20.0136 19.535 20.2175 18.5477 19.9283 17.3345C19.66 16.2089 18.9919 14.9979 18.047 13.9254C17.7341 13.5695 17.4025 13.2431 17.0569 12.9477C18.5022 12.3439 19.9492 11.2646 21.1952 9.84917C21.3392 9.68537 21.3234 9.43573 21.1596 9.29114C20.9958 9.14655 20.7456 9.16293 20.6016 9.32672C19.2731 10.8353 17.6459 11.9711 16.1385 12.4427C16.0656 12.4653 15.9939 12.4862 15.9222 12.506C15.8979 12.5128 15.8736 12.5184 15.8493 12.5246C15.8024 12.5365 15.7555 12.5489 15.7092 12.5597C15.681 12.5664 15.6533 12.5715 15.6251 12.5777C15.5833 12.5868 15.542 12.5958 15.5008 12.6032C15.4714 12.6088 15.4426 12.6133 15.4133 12.6184C15.3743 12.6252 15.3353 12.6314 15.2964 12.637C15.267 12.641 15.2376 12.6449 15.2088 12.6483C15.171 12.6529 15.1337 12.6574 15.0964 12.6608C15.0676 12.6636 15.0388 12.6658 15.01 12.6681C14.9733 12.6709 14.9371 12.6732 14.901 12.6749C14.8728 12.676 14.8445 12.6771 14.8163 12.6777C14.7807 12.6788 14.7457 12.6788 14.7107 12.6788C14.683 12.6788 14.6559 12.6783 14.6288 12.6777C14.5937 12.6766 14.5593 12.6754 14.5254 12.6732C14.4994 12.6715 14.4729 12.6704 14.4469 12.6681C14.4124 12.6653 14.3785 12.6619 14.3452 12.6579C14.3204 12.6551 14.2955 12.6523 14.2712 12.6489C14.2373 12.6444 14.2035 12.6382 14.1701 12.6325C14.147 12.6286 14.1238 12.6246 14.1007 12.6201C14.0662 12.6133 14.0329 12.6048 13.999 12.5964C13.9781 12.5913 13.9572 12.5868 13.9369 12.5811C13.9007 12.571 13.8651 12.5597 13.8296 12.5484C13.8132 12.5433 13.7957 12.5382 13.7793 12.5326C13.7324 12.5162 13.6872 12.4987 13.642 12.4795C13.6375 12.4778 13.633 12.4761 13.6285 12.4744C13.5793 12.4535 13.5313 12.4303 13.485 12.406C13.4715 12.3987 13.4585 12.3908 13.4455 12.3834C13.4161 12.3671 13.3868 12.3507 13.3585 12.3332L13.3082 11.1381C13.3162 11.1318 13.3246 11.1251 13.3325 11.1183C13.3732 11.081 13.5082 11.0652 13.6172 11.0522C13.6861 11.0437 13.7573 11.0353 13.8307 11.0211C14.1498 10.9584 14.4678 10.8703 14.7756 10.7591C15.3969 10.5343 15.9741 10.218 16.4915 9.8198L16.5169 9.80003C16.6841 9.67125 16.8733 9.52497 16.9959 9.54191C17.0704 9.55208 17.1495 9.6577 17.1591 9.7588C17.1715 9.89491 17.1026 10.0564 16.9744 10.1914C16.8225 10.3513 16.6039 10.4676 16.4102 10.5603C16.213 10.6546 16.13 10.8907 16.2243 11.0878C16.2921 11.2295 16.4339 11.3126 16.5813 11.3126C16.6383 11.3126 16.6965 11.3001 16.7519 11.2736C17.0105 11.1499 17.3071 10.9895 17.5477 10.7365C17.8352 10.4343 17.9809 10.0514 17.9464 9.68594C17.9029 9.21771 17.5409 8.81953 17.1037 8.75909C16.653 8.69696 16.2949 8.97315 16.034 9.17422L16.0091 9.19343C15.5567 9.54191 15.0512 9.8181 14.5068 10.0152C14.2368 10.1129 13.9583 10.1903 13.6788 10.2451C13.6341 10.2536 13.5805 10.2603 13.5234 10.2671C13.4483 10.2762 13.363 10.2863 13.2738 10.3055L13.2625 10.0423C13.2998 10.0243 13.3342 10.0011 13.3659 9.9706C14.1362 9.22618 14.7276 8.30442 15.2212 7.49901C15.2896 7.38718 15.3579 7.27478 15.4263 7.16239C15.8634 6.44339 16.3158 5.70011 16.8547 5.0568C17.5403 4.23783 18.2842 3.68884 19.0653 3.42451C19.3776 3.31889 19.6358 3.28387 19.8549 3.3172C20.0848 3.35221 20.2802 3.47421 20.3649 3.63518C20.4575 3.81197 20.444 4.06217 20.4146 4.30673C20.3367 4.96586 20.1672 5.6103 19.9119 6.22312C19.7973 6.49818 19.6329 6.83254 19.3759 6.97996C19.1619 7.10252 18.8625 7.08501 18.6649 6.9376C18.4672 6.79018 18.3644 6.50834 18.4209 6.2683C18.4643 6.08418 18.6485 5.86955 18.8157 5.80855C18.8953 5.77975 18.9405 5.79556 18.984 5.82775C19.1591 5.95879 19.4064 5.92264 19.5375 5.74812C19.6685 5.57303 19.6324 5.32564 19.4578 5.19461C19.1901 4.99467 18.8665 4.94835 18.5457 5.06527C18.1317 5.21607 17.7555 5.64532 17.6516 6.087C17.5223 6.63712 17.7397 7.23355 18.1927 7.57131C18.6456 7.90906 19.2799 7.9469 19.7702 7.66563C20.2333 7.39961 20.4796 6.91783 20.6422 6.52755C20.9258 5.84752 21.1133 5.13192 21.2003 4.39993C21.2421 4.04692 21.259 3.63688 21.0653 3.26806C20.8631 2.88286 20.4553 2.60893 19.9741 2.53607C19.6267 2.48298 19.2466 2.52873 18.8117 2.67614C17.8911 2.98735 17.0286 3.61767 16.2481 4.5496C15.6708 5.23866 15.2032 6.00793 14.7502 6.75234C14.6824 6.86361 14.6146 6.97544 14.5463 7.0867C14.1543 7.72663 13.7313 8.39027 13.2179 8.9788L13.123 6.70998C13.1252 6.70829 13.1275 6.70603 13.1303 6.70433C13.1569 6.68513 13.1823 6.66479 13.2077 6.64446C13.2201 6.63486 13.2326 6.62526 13.2444 6.61509C13.2811 6.58403 13.3173 6.55127 13.3523 6.51738C13.3568 6.51286 13.3608 6.50891 13.3653 6.50439C13.3941 6.47615 13.4212 6.44678 13.4483 6.41741C13.4568 6.40781 13.4647 6.39821 13.4726 6.38861C13.4907 6.36771 13.5082 6.34737 13.5251 6.32591C13.5353 6.31349 13.5443 6.29993 13.5539 6.28751C13.5681 6.26887 13.5822 6.24966 13.5957 6.23046C13.6059 6.21578 13.6155 6.20053 13.6257 6.18584C13.6375 6.16777 13.6494 6.14969 13.6607 6.13105C13.6708 6.11468 13.6799 6.09773 13.6895 6.08135C13.6997 6.06384 13.7098 6.04633 13.7194 6.02826C13.729 6.01075 13.7375 5.99268 13.7465 5.97517C13.755 5.95766 13.764 5.94015 13.7719 5.92208C13.7804 5.904 13.7883 5.88536 13.7962 5.86673C13.8041 5.84865 13.8115 5.83001 13.8183 5.81194C13.825 5.79387 13.8318 5.77523 13.8386 5.75715C13.842 5.74699 13.8465 5.73739 13.8499 5.72722C14.1684 5.24488 14.5282 4.77439 14.9208 4.3282C16.195 2.88117 17.7013 1.80069 19.163 1.28559C20.5468 0.798166 21.708 0.881757 22.4338 1.52112C23.5403 2.49484 23.4719 4.62077 22.2598 6.93703C22.1587 7.13076 22.2333 7.36967 22.427 7.47077C22.6202 7.57187 22.8597 7.49732 22.9608 7.30359C24.3479 4.65352 24.3462 2.15031 22.9568 0.927506C22.0068 0.0910302 20.5666 -0.0467819 18.9009 0.540051C17.3138 1.09921 15.6895 2.25875 14.3277 3.80575C14.1554 4.00174 13.9894 4.20168 13.829 4.40558C13.6601 3.95147 13.3303 3.57475 12.9089 3.34657C13.0275 2.4056 13.8324 1.67474 14.8055 1.67474C15.0241 1.67474 15.2009 1.49796 15.2009 1.27938C15.2009 1.0608 15.0241 0.884017 14.8055 0.884017C13.476 0.884017 12.3684 1.84927 12.1447 3.11613C12.0854 3.11104 12.0256 3.10765 11.9651 3.10765C11.9041 3.10765 11.8443 3.11104 11.785 3.11613C11.5613 1.84983 10.4537 0.884017 9.12417 0.884017C8.90559 0.884017 8.7288 1.0608 8.7288 1.27938C8.7288 1.49796 8.90559 1.67474 9.12417 1.67474C10.0973 1.67474 10.9022 2.4056 11.0208 3.34657C10.6192 3.56402 10.3012 3.91589 10.1261 4.34119C9.98154 4.15932 9.83243 3.98028 9.67824 3.80575C8.3165 2.25875 6.69212 1.09921 5.10502 0.540051C3.43941 -0.0467819 1.99915 0.0910302 1.04915 0.927506C0.0985852 1.76398 -0.219965 3.17543 0.150547 4.90204C0.502421 6.54393 1.44734 8.30217 2.80908 9.84917ZM12.4785 18.4116C12.3814 18.5127 12.2204 18.633 12.0018 18.633C11.7833 18.633 11.6217 18.5121 11.5246 18.411C11.3184 18.1959 11.2043 17.8621 11.2185 17.5181L11.2337 17.1594C11.2337 17.1589 11.2337 17.1583 11.2337 17.1577L11.3297 14.8612L11.6568 7.05677C11.685 7.06129 11.7132 7.06468 11.7415 7.06807C11.7449 7.06863 11.7483 7.06863 11.7516 7.0692C11.781 7.07202 11.8104 7.07484 11.8398 7.07654C11.8527 7.0771 11.8652 7.07767 11.8782 7.07823C11.8985 7.0788 11.9183 7.07936 11.9386 7.07993C11.9471 7.07993 11.955 7.08049 11.9634 7.08049C11.9697 7.08049 11.9759 7.07993 11.9821 7.07993C12.0098 7.07936 12.0374 7.0788 12.0651 7.0771C12.0787 7.07654 12.0922 7.07541 12.1058 7.07484C12.1346 7.07258 12.1639 7.07032 12.1928 7.06694C12.2046 7.06581 12.217 7.06411 12.2289 7.06242C12.2566 7.05846 12.2843 7.05451 12.3114 7.04943C12.3198 7.04773 12.3283 7.0466 12.3368 7.04491C12.3396 7.04434 12.3424 7.04378 12.3452 7.04321L12.7067 15.6644L12.7694 17.1583C12.7694 17.1589 12.7694 17.1589 12.7694 17.1594L12.7847 17.5187C12.7994 17.8626 12.6847 18.1964 12.4785 18.4116ZM19.1579 17.5175C19.3726 18.419 19.2539 19.1492 18.8309 19.522C17.8871 20.3523 15.6618 19.4322 13.9713 17.5124C13.8267 17.3481 13.6867 17.1775 13.5545 17.0035L13.5308 16.4354C13.5873 16.5048 13.6454 16.5737 13.7053 16.6404C14.0973 17.0753 14.5514 17.4379 15.0558 17.7197C15.3212 17.8683 15.7104 18.0541 16.1458 18.0541C16.2029 18.0541 16.2605 18.0507 16.3187 18.0439C16.7874 17.9891 17.2139 17.6943 17.4313 17.2752C17.6341 16.8844 17.6476 16.4032 17.4686 15.9886C17.2997 15.5977 16.9682 15.2803 16.5598 15.1194C16.317 15.0233 16.0837 14.9974 15.8674 15.0414C15.5658 15.103 15.3167 15.308 15.2173 15.5763C15.0857 15.931 15.2433 16.2755 15.3274 16.4602C15.4184 16.659 15.6527 16.7466 15.851 16.6556C16.0498 16.5647 16.1374 16.3303 16.0464 16.1321C15.9589 15.94 15.9498 15.8734 15.9577 15.853C15.9628 15.844 15.9888 15.8237 16.0255 15.8163C16.0871 15.8039 16.1741 15.8175 16.2689 15.8547C16.4808 15.9383 16.6575 16.1055 16.7428 16.3026C16.8275 16.4986 16.8225 16.7319 16.7293 16.9115C16.6327 17.0979 16.4356 17.234 16.2266 17.2588C16.0159 17.2831 15.7657 17.2108 15.4409 17.0295C15.0128 16.7906 14.6259 16.4817 14.2927 16.1117C14.1255 15.9265 13.973 15.7265 13.8397 15.5175C13.8002 15.456 13.7623 15.3854 13.7222 15.3114C13.6516 15.1809 13.5737 15.0369 13.4664 14.9019L13.3964 13.234C13.398 13.2346 13.4003 13.2352 13.402 13.2363C13.4444 13.2532 13.4879 13.2685 13.5313 13.2837C13.546 13.2888 13.5613 13.2933 13.5765 13.2984C13.6082 13.3086 13.6398 13.3188 13.672 13.3278C13.6895 13.3329 13.7064 13.3374 13.7239 13.3425C13.755 13.351 13.7866 13.3589 13.8183 13.3668C13.8352 13.3707 13.8527 13.3752 13.8697 13.3792C13.9052 13.3871 13.942 13.3944 13.9781 13.4018C13.9911 13.404 14.0041 13.4069 14.0171 13.4097C14.0668 13.4187 14.1165 13.4266 14.1667 13.4334C14.178 13.4351 14.1899 13.4362 14.2018 13.4379C14.2413 13.443 14.2808 13.4475 14.3209 13.4515C14.339 13.4532 14.3571 13.4549 14.3757 13.456C14.4102 13.4588 14.4446 13.4611 14.4796 13.4634C14.4989 13.4645 14.5186 13.4656 14.5378 13.4662C14.5734 13.4679 14.6096 13.4684 14.6457 13.4696C14.6638 13.4701 14.6818 13.4701 14.6999 13.4707C14.7067 13.4707 14.714 13.4713 14.7208 13.4713C14.7395 13.4713 14.7587 13.4701 14.7779 13.4701C14.8151 13.4696 14.8524 13.469 14.8903 13.4679C14.9168 13.4667 14.9434 13.465 14.9699 13.4639C15.0066 13.4617 15.0433 13.46 15.0806 13.4566C15.1083 13.4543 15.1354 13.4521 15.1631 13.4492C15.1998 13.4458 15.2371 13.4419 15.2743 13.4374C15.3026 13.434 15.3308 13.4306 15.3591 13.4266C15.3963 13.4216 15.4342 13.4159 15.472 13.4103C15.5003 13.4057 15.5285 13.4012 15.5573 13.3967C15.5963 13.3899 15.6352 13.3826 15.6742 13.3752C15.7025 13.3702 15.7301 13.3645 15.7584 13.3589C15.799 13.3504 15.8397 13.3414 15.8809 13.3318C15.908 13.3255 15.9346 13.3199 15.9617 13.3131C16.0063 13.3024 16.0515 13.2905 16.0967 13.2781C16.1204 13.2719 16.1436 13.2662 16.1673 13.2595C16.1712 13.2583 16.1752 13.2572 16.1791 13.2566C16.6282 13.5972 17.0557 13.9977 17.4528 14.4489C18.3135 15.4249 18.919 16.515 19.1579 17.5175ZM11.964 3.89499C12.6243 3.89499 13.1614 4.43212 13.1614 5.09294C13.1614 5.21099 13.1444 5.32677 13.11 5.43917C13.0524 5.63177 12.9451 5.80799 12.8005 5.94862C12.7965 5.95258 12.792 5.9571 12.7881 5.96105C12.7101 6.03504 12.6243 6.09773 12.5305 6.14743C12.3549 6.24232 12.1645 6.29033 11.964 6.29033C11.9414 6.29033 11.9194 6.28976 11.8974 6.28863C11.7426 6.28016 11.5935 6.24289 11.4534 6.17624C11.376 6.13953 11.3043 6.09604 11.2388 6.04577C10.9988 5.86277 10.8378 5.59957 10.7853 5.30474C10.7728 5.23471 10.7661 5.16354 10.7661 5.09294C10.7661 4.43212 11.3038 3.89499 11.964 3.89499ZM1.5699 1.51773C1.9839 1.15286 2.54024 0.969302 3.19823 0.969302C3.69357 0.969302 4.24651 1.07323 4.84069 1.2822C6.3024 1.79674 7.8093 2.87721 9.08294 4.32481C9.42295 4.71114 9.73981 5.1161 10.0239 5.5301C10.0239 5.53067 10.0239 5.53067 10.0245 5.53123C10.0267 5.54196 10.0296 5.55269 10.0324 5.56343C10.0369 5.58206 10.0414 5.6007 10.0465 5.61878C10.0499 5.63064 10.0533 5.6425 10.0567 5.65436C10.0617 5.6713 10.0663 5.68825 10.0719 5.70519C10.0759 5.71762 10.0804 5.72948 10.0843 5.7419C10.09 5.75772 10.0951 5.7741 10.1013 5.78991C10.1058 5.80234 10.1109 5.8142 10.1154 5.82662C10.1216 5.84187 10.1278 5.85769 10.134 5.87294C10.1391 5.88536 10.1448 5.89722 10.1499 5.90909C10.1566 5.92434 10.1634 5.93902 10.1708 5.95427C10.1764 5.96613 10.1826 5.97799 10.1883 5.98985C10.1956 6.00454 10.2035 6.01922 10.2109 6.03391C10.2171 6.04577 10.2238 6.05706 10.2301 6.06893C10.238 6.08305 10.2464 6.09773 10.2549 6.11185C10.2617 6.12315 10.2685 6.13444 10.2758 6.14574C10.2848 6.15986 10.2933 6.17341 10.3024 6.18753C10.3097 6.19827 10.317 6.20956 10.3244 6.22029C10.334 6.23385 10.3436 6.2474 10.3532 6.26096C10.3611 6.27169 10.3684 6.28242 10.3763 6.29259C10.3865 6.30614 10.3967 6.31913 10.4074 6.33212C10.4153 6.34229 10.4238 6.35246 10.4317 6.36263C10.4424 6.37562 10.4537 6.38861 10.465 6.4016C10.4735 6.4112 10.482 6.4208 10.4904 6.4304C10.5023 6.44339 10.5142 6.45582 10.5266 6.46881C10.5351 6.47784 10.5435 6.48688 10.5526 6.49535C10.5655 6.50834 10.5791 6.52077 10.5921 6.53376C10.6006 6.54167 10.609 6.55014 10.6175 6.55805C10.6328 6.5716 10.648 6.58516 10.6633 6.59815C10.6706 6.60436 10.6779 6.61114 10.6853 6.61735C10.7084 6.63656 10.7322 6.65576 10.7565 6.67383C10.7909 6.70038 10.8271 6.72579 10.8638 6.75008C10.8683 6.7529 10.8728 6.75629 10.8773 6.75968L10.7841 8.97824C10.2702 8.38971 9.84768 7.72606 9.45514 7.08614C9.38737 6.97544 9.31959 6.86361 9.25181 6.75234C8.79941 6.00793 8.33118 5.23866 7.75395 4.54904C6.97339 3.61711 6.11093 2.98679 5.1903 2.67558C4.7554 2.52873 4.37529 2.48298 4.02793 2.53551C3.54672 2.60893 3.13893 2.8823 2.93673 3.26749C2.74357 3.63631 2.75995 4.04636 2.80174 4.39936C2.88872 5.13078 3.07624 5.84696 3.35977 6.52698C3.52243 6.91726 3.76869 7.39904 4.23183 7.66506C4.72208 7.94634 5.35579 7.9085 5.80933 7.57074C6.2623 7.23299 6.47975 6.63655 6.35041 6.08587C6.24649 5.64476 5.87033 5.21494 5.45632 5.06414C5.13552 4.94779 4.81132 4.99354 4.54416 5.19348C4.36907 5.32451 4.33349 5.5719 4.46453 5.74699C4.59556 5.92151 4.84295 5.95766 5.01804 5.82662C5.06153 5.79387 5.10671 5.77805 5.18635 5.80742C5.35353 5.86786 5.53766 6.08305 5.58115 6.26717C5.63763 6.50722 5.5354 6.78905 5.33715 6.93647C5.1389 7.08388 4.84012 7.10195 4.62606 6.97883C4.36908 6.83141 4.20472 6.49705 4.09006 6.22199C3.83477 5.60917 3.66589 4.96473 3.58738 4.3056C3.55858 4.06161 3.54446 3.8114 3.63709 3.63405C3.72181 3.47308 3.91667 3.35108 4.14711 3.31607C4.36625 3.28274 4.62493 3.31776 4.9367 3.42338C5.71783 3.68771 6.46168 4.2367 7.14735 5.05567C7.68617 5.69898 8.13858 6.44283 8.57574 7.16182C8.64408 7.27365 8.71186 7.38605 8.78077 7.49788C9.27441 8.30329 9.86576 9.22506 10.6362 9.96947C10.6672 9.9994 10.7022 10.0231 10.7395 10.0412L10.7282 10.3044C10.639 10.2852 10.5537 10.275 10.4786 10.266C10.4215 10.2592 10.3679 10.2524 10.3232 10.244C10.0437 10.1892 9.76522 10.1118 9.49524 10.0141C8.95077 9.81697 8.44527 9.54078 7.99286 9.1923L7.96801 9.17309C7.70707 8.97146 7.34955 8.69583 6.89771 8.75796C6.46111 8.8184 6.09851 9.21658 6.05502 9.68481C6.02113 10.0502 6.16628 10.4332 6.45377 10.7353C6.69438 10.9884 6.9909 11.1488 7.24958 11.2725C7.30437 11.299 7.36254 11.3114 7.42015 11.3114C7.56757 11.3114 7.70933 11.2284 7.77711 11.0867C7.87143 10.8895 7.78784 10.6534 7.59129 10.5591C7.39756 10.4665 7.17898 10.3501 7.02705 10.1903C6.89884 10.0553 6.82993 9.89378 6.84236 9.75767C6.85196 9.65657 6.93103 9.55151 7.00558 9.54078C7.12758 9.52384 7.31736 9.67012 7.48454 9.7989L7.50996 9.81867C8.02675 10.2169 8.60455 10.5331 9.22583 10.7579C9.53365 10.8692 9.85164 10.9573 10.1708 11.02C10.2442 11.0341 10.3153 11.0432 10.3842 11.0511C10.4933 11.0641 10.6282 11.0804 10.6689 11.1172C10.6768 11.1245 10.6847 11.1307 10.6932 11.1369L10.6429 12.332C10.6147 12.3496 10.5853 12.3659 10.5559 12.3818C10.5424 12.3891 10.5294 12.397 10.5158 12.4043C10.469 12.4286 10.4215 12.4512 10.3724 12.4727C10.3679 12.4749 10.3628 12.4766 10.3577 12.4783C10.3131 12.497 10.2679 12.5145 10.2221 12.5309C10.2058 12.5365 10.1883 12.5416 10.1713 12.5467C10.1363 12.558 10.1007 12.5693 10.0646 12.5794C10.0442 12.5851 10.0233 12.5896 10.0024 12.5947C9.96855 12.6032 9.93523 12.6111 9.90077 12.6184C9.87818 12.6229 9.85503 12.6269 9.83187 12.6308C9.79854 12.637 9.76466 12.6427 9.7302 12.6472C9.70592 12.6506 9.68107 12.6534 9.65678 12.6562C9.62289 12.6602 9.58844 12.6636 9.55398 12.6664C9.52857 12.6687 9.50259 12.6698 9.47661 12.6715C9.44215 12.6738 9.40714 12.6749 9.37155 12.676C9.34501 12.6766 9.31846 12.6771 9.29135 12.6771C9.25577 12.6771 9.21962 12.6766 9.18347 12.676C9.15636 12.6754 9.12869 12.6743 9.10101 12.6732C9.0643 12.6715 9.02702 12.6687 8.98974 12.6658C8.96207 12.6636 8.93383 12.6613 8.90559 12.6591C8.86718 12.6551 8.82877 12.6506 8.79037 12.6461C8.76213 12.6427 8.73445 12.6393 8.70565 12.6353C8.66555 12.6297 8.62544 12.6229 8.58534 12.6161C8.5571 12.6116 8.52943 12.6071 8.50119 12.6015C8.45883 12.5936 8.4159 12.5845 8.37298 12.5749C8.34587 12.5693 8.31932 12.5642 8.29221 12.558C8.24477 12.5472 8.19619 12.5348 8.14818 12.5218C8.12503 12.5156 8.10244 12.5105 8.07928 12.5043C8.00868 12.4851 7.93751 12.4642 7.86578 12.4422C7.86465 12.4416 7.86352 12.4416 7.86296 12.4411C6.35493 11.9694 4.72829 10.8342 3.39931 9.32503C2.12511 7.878 1.24401 6.24627 0.918682 4.73147C0.614252 3.29856 0.844128 2.15709 1.5699 1.51773Z" fill="#404844"/>
  <path d="M21.6034 8.87328C21.6271 8.88345 21.6519 8.89079 21.6774 8.89588C21.7028 8.90096 21.7288 8.90378 21.7547 8.90378C21.7807 8.90378 21.8067 8.90096 21.8321 8.89588C21.857 8.89079 21.8818 8.88345 21.9061 8.87328C21.9298 8.86368 21.9524 8.85126 21.9739 8.83714C21.9959 8.82245 22.0162 8.80607 22.0343 8.788C22.1077 8.71401 22.1501 8.61234 22.1501 8.50842C22.1501 8.4045 22.1077 8.30227 22.0343 8.22884C22.0162 8.21077 21.9959 8.19382 21.9739 8.1797C21.953 8.16558 21.9298 8.15316 21.9061 8.14299C21.8818 8.13339 21.857 8.12605 21.8321 8.12096C21.7813 8.11023 21.7282 8.11023 21.6774 8.12096C21.6519 8.12605 21.6271 8.13339 21.6034 8.14299C21.5796 8.15316 21.5565 8.16558 21.535 8.1797C21.5136 8.19382 21.4932 8.21077 21.4752 8.22884C21.4571 8.24692 21.4401 8.26725 21.426 8.28871C21.4119 8.31017 21.3995 8.33333 21.3899 8.35705C21.3797 8.38077 21.3724 8.40563 21.3673 8.43104C21.3622 8.45646 21.3594 8.48244 21.3594 8.50842C21.3594 8.61234 21.4017 8.71401 21.4752 8.788C21.4932 8.80607 21.5136 8.82245 21.535 8.83714C21.5565 8.85126 21.5796 8.86368 21.6034 8.87328Z" fill="#404844"/>
</svg>
