<svg xmlns="http://www.w3.org/2000/svg" width="41" height="41" viewBox="0 0 41 41" fill="none">
  <path d="M22.847 15.2521L16.4927 16.0557L15.2245 22.3372L20.7833 25.4662L25.4878 21.1304L22.847 15.2521ZM36.7021 23.3337C38.5486 14.1881 32.5951 5.22239 23.3909 3.36405C14.1868 1.50571 5.22108 7.45921 3.36274 16.6633C1.5044 25.8674 7.46973 34.7746 16.6153 36.6211C25.7608 38.4676 34.8319 32.5964 36.7021 23.3337ZM10.8301 30.3111L12.2983 23.5687L6.22337 20.2644C6.20745 19.2836 6.28611 18.2901 6.48719 17.2942C6.68827 16.2982 6.99937 15.3523 7.39372 14.4584L14.2712 13.7713L15.54 6.98385C17.3863 6.34518 19.3814 6.08002 21.42 6.2877L24.2036 12.6264L31.0438 11.7312C32.2371 13.3169 33.0943 15.1477 33.5222 17.1121L28.3584 21.71L31.3301 27.9526C30.1736 29.597 28.6738 30.952 26.9581 31.9503L21.0047 28.47L15.981 33.2297C14.031 32.5765 12.2811 31.6135 10.8301 30.3111Z" fill="#62E0D4"/>
</svg>
