<svg xmlns="http://www.w3.org/2000/svg" width="25" height="24" viewBox="0 0 25 24" fill="none">
  <path d="M8.31328 10.7156L9.75702 15H14.2805L15.6689 10.7166L12.0117 8.06719L8.31328 10.7156ZM11.9695 0C5.38359 0 0.0117188 5.37188 0.0117188 12C0.0117188 18.6281 5.38359 24 12.0117 24C18.6398 24 23.9695 18.6281 23.9695 12.0422C23.9695 5.45625 18.6398 0 11.9695 0ZM20.4117 16.9266L15.5414 16.8526L14.1037 21.5176C13.4273 21.6656 12.7289 21.75 12.0117 21.75C11.2945 21.75 10.5966 21.6669 9.92296 21.5189L8.48671 16.8563L3.61312 16.9266C2.91328 15.7383 2.45109 14.3948 2.31 12.9553L6.30703 10.1437L4.73203 5.53594C5.66249 4.48875 6.80953 3.63984 8.1089 3.06938L12.0117 6L15.9159 3.07172C17.2153 3.64219 18.3623 4.49062 19.2928 5.53828L17.7164 10.1437L21.7116 12.9548C21.532 14.3953 21.1102 15.7406 20.4117 16.9266Z" fill="#404844"/>
</svg>
