<svg xmlns="http://www.w3.org/2000/svg" width="46" height="46" viewBox="0 0 46 46" fill="none">
  <path fill-rule="evenodd" clip-rule="evenodd" d="M7.26632 29.9001C9.85441 35.3753 13.4286 40.4005 16.323 41.4688C18.7244 42.3551 21.8472 41.5528 23.7473 40.8818C23.7473 40.8818 23.9385 40.8227 24.0156 40.7863C24.7263 40.4503 25.0239 39.6047 24.6909 38.9002C24.6516 38.8169 22.9458 35.8547 21.9143 34.0703C21.8867 34.0286 21.859 33.9866 21.8251 33.9479C21.4791 33.2653 20.652 32.9745 19.9541 33.3044L17.4279 34.4909C16.6466 34.8602 15.7192 34.5227 15.3498 33.7413L9.42905 21.2156C9.05965 20.4341 9.38743 19.5032 10.1688 19.1338L12.689 17.9348C13.387 17.6049 13.6873 16.7813 13.3795 16.0807C13.3713 16.0302 13.3563 15.9822 13.3414 15.9339C12.6171 14.0041 11.411 10.8058 11.3718 10.7228C11.0389 10.0186 10.1963 9.71142 9.48562 10.0474C9.40858 10.0838 9.24157 10.194 9.24157 10.194C7.517 11.2365 4.91462 13.1397 4.07527 15.558C3.06381 18.4732 4.67823 24.4248 7.26632 29.9001ZM23.9166 22.0296C24.5856 23.4449 26.2737 24.0494 27.689 23.3804C29.1043 22.7114 29.7086 21.0233 29.0396 19.6081C28.3706 18.1928 26.6826 17.5883 25.2674 18.2573C23.8521 18.9263 23.2476 20.6144 23.9166 22.0296ZM19.0611 26.6752L17.4601 27.432C16.5764 27.8497 16.1983 28.906 16.6159 29.7896C17.0336 30.6732 18.09 31.0515 18.9736 30.6338L20.5746 29.8771L33.8864 34.1543C34.7507 34.4741 35.7393 34.4613 36.6361 34.0374L39.2041 32.8235C40.6194 32.1545 41.2237 30.4664 40.5547 29.0512L40.252 28.4107L41.8532 27.6539C42.7368 27.2362 43.1149 26.1798 42.6972 25.2962C42.2795 24.4126 41.2233 24.0343 40.3396 24.452L38.7385 25.2088L30.8681 8.55846L32.4692 7.80161C33.3528 7.38394 33.731 6.32781 33.3132 5.44385C32.8955 4.56025 31.8393 4.18207 30.9557 4.59974L29.3546 5.35659L29.0518 4.71616C28.3828 3.30088 26.6949 2.69643 25.2796 3.36542L22.7116 4.57928C21.8147 5.00322 21.1773 5.759 20.8759 6.62986L15.7313 19.6308L14.1303 20.3876C13.2466 20.8053 12.8685 21.8618 13.2862 22.7454C13.7039 23.629 14.7602 24.0072 15.6438 23.5895L17.2448 22.8328L19.0611 26.6752ZM21.355 23.2405C20.0171 20.4099 21.226 17.0335 24.0565 15.6956C26.887 14.3576 30.2635 15.5665 31.6015 18.3971C32.9394 21.2276 31.7304 24.6039 28.8998 25.9419C26.0692 27.2799 22.693 26.071 21.355 23.2405Z" fill="#62E0D4"/>
</svg>
