<svg xmlns="http://www.w3.org/2000/svg" width="25" height="24" viewBox="0 0 25 24" fill="none">
  <path fill-rule="evenodd" clip-rule="evenodd" d="M12.0116 0C7.73674 0 3.45155 0.765069 1.8967 2.28998C0.606679 3.55508 0.176652 5.79002 0.0316956 7.20508C0.0316956 7.20508 0.0117188 7.34492 0.0117188 7.40507C0.0117188 7.95997 0.461612 8.40502 1.01167 8.40502C1.07666 8.40502 3.48165 8.20999 4.9316 8.09002C4.96649 8.08495 5.00166 8.08 5.03655 8.07004C5.57659 8.05513 6.01168 7.61503 6.01168 7.07009L6.01652 5.10002C6.01652 4.49003 6.51171 3.99996 7.12175 3.99996H16.9015C17.5116 3.99996 18.0069 4.48998 18.0069 5.10002L18.0118 7.07009C18.0118 7.61503 18.4468 8.05513 18.9868 8.07004C19.0214 8.08006 19.0566 8.08495 19.0919 8.09002C20.542 8.20993 22.9469 8.40502 23.0117 8.40502C23.5615 8.40502 24.0117 7.95997 24.0117 7.40507C24.0117 7.34492 23.9917 7.20508 23.9917 7.20508C23.8467 5.79002 23.4171 3.55513 22.1271 2.28998C20.5717 0.765069 16.2865 0 12.0116 0ZM12.0116 13.0001C10.9066 13.0001 10.0116 13.895 10.0116 15C10.0116 16.105 10.9066 16.9999 12.0116 16.9999C13.1166 16.9999 14.0116 16.105 14.0116 15C14.0116 13.895 13.1166 13.0001 12.0116 13.0001ZM10.5117 8.49996V7.24999C10.5117 6.56004 9.95159 6.00003 9.2617 6.00003C8.57181 6.00003 8.01174 6.5601 8.01174 7.24999V8.49996L1.26647 15.705C0.801661 16.1601 0.511582 16.7949 0.511582 17.4951V19.5001C0.511582 20.6051 1.40664 21.5 2.51159 21.5H3.01162V22.7501C3.01162 23.44 3.57174 24 4.26163 24C4.95152 24 5.51159 23.44 5.51159 22.7501V21.5H18.5117V22.7501C18.5117 23.44 19.0716 24 19.7617 24C20.4516 24 21.0116 23.44 21.0116 22.7501V21.5H21.5116C22.6166 21.5 23.5116 20.6051 23.5116 19.5001V17.4951C23.5116 16.7949 23.2216 16.1601 22.7567 15.705L16.0117 8.49996V7.24999C16.0117 6.56004 15.4515 6.00003 14.7616 6.00003C14.0717 6.00003 13.5117 6.5601 13.5117 7.24999V8.49996H10.5117ZM12.0116 11.0001C14.2216 11.0001 16.0117 12.7901 16.0117 15C16.0117 17.21 14.2217 19.0001 12.0116 19.0001C9.80163 19.0001 8.01168 17.2101 8.01168 15C8.01168 12.79 9.80163 11.0001 12.0116 11.0001Z" fill="#404844"/>
</svg>
