<svg xmlns="http://www.w3.org/2000/svg" width="48" height="48" viewBox="0 0 48 48" fill="none">
  <path fill-rule="evenodd" clip-rule="evenodd" d="M16.0244 11.5194C16.5344 10.9264 16.4674 10.0325 15.8747 9.52276C15.282 9.01299 14.3881 9.0804 13.8782 9.67333C13.3682 10.2663 13.4352 11.1602 14.0279 11.6699C14.6206 12.1797 15.5145 12.1123 16.0244 11.5194ZM10.4847 17.9609C10.9947 17.368 10.9276 16.474 10.3349 15.9643C9.74226 15.4545 8.84837 15.5219 8.33839 16.1148C7.82841 16.7078 7.89545 17.6017 8.48813 18.1115C9.08081 18.6212 9.97469 18.5538 10.4847 17.9609ZM43.9627 22.4741L44.8861 21.4005C45.131 21.1158 45.479 20.94 45.8534 20.9117C46.2278 20.8835 46.5981 21.0051 46.8827 21.2499C47.1673 21.4947 47.343 21.8426 47.3711 22.2171C47.3991 22.5915 47.2773 22.9618 47.0324 23.2466L26.7175 46.8655C26.4726 47.1503 26.1247 47.3261 25.7502 47.3543C25.3758 47.3826 25.0056 47.2609 24.7209 47.0161C24.4363 46.7713 24.2607 46.4234 24.2326 46.049C24.2045 45.6745 24.3263 45.3042 24.5712 45.0195L25.4946 43.9459L20.1182 39.3216C19.0765 38.4232 18.3193 37.2407 17.9392 35.9186C17.559 34.5964 17.5724 33.192 17.9777 31.877L17.5227 31.4857C16.5096 30.6095 15.7664 29.4633 15.3798 28.1807C14.9932 26.8981 14.979 25.5319 15.339 24.2412L10.7844 21.9543C10.4997 21.7095 10.3241 21.3616 10.296 20.9872C10.2679 20.6128 10.3897 20.2425 10.6346 19.9577L12.4814 17.8105C12.7263 17.5258 13.0743 17.35 13.4487 17.3217C13.8231 17.2935 14.1934 17.4152 14.478 17.66L17.0049 21.2342L19.7289 18.0671L16.8849 14.4274C16.6849 14.1693 16.5804 13.8499 16.589 13.5233C16.5977 13.1968 16.7189 12.8833 16.9322 12.6358L17.2647 12.2493C17.4774 12.0014 17.7693 11.8346 18.0909 11.7773C18.4124 11.7199 18.7439 11.7755 19.029 11.9346L24.3378 14.9336C25.4051 14.6959 26.5129 14.7096 27.5738 14.9737C28.6347 15.2378 29.6195 15.7451 30.4504 16.4554L30.9054 16.8468C32.1449 16.2494 33.5316 16.0261 34.8957 16.2042C36.2598 16.3824 37.5423 16.9542 38.5863 17.8498L43.9627 22.4741ZM22.6139 19.0543L18.9203 23.3487C18.1856 24.2029 17.8201 25.3138 17.9044 26.4371C17.9886 27.5604 18.5156 28.6041 19.3695 29.3385L28.6036 18.6026C27.7497 17.8682 26.639 17.5032 25.5157 17.5879C24.3924 17.6726 23.3486 18.2001 22.6139 19.0543ZM30.7498 20.4487L21.5158 31.1845C20.7811 32.0387 20.4156 33.1497 20.4999 34.273C20.5841 35.3963 21.1111 36.44 21.965 37.1744L23.0177 38.0799C23.7684 37.0052 23.6892 35.8557 23.3501 35.564C23.0655 35.3192 22.8898 34.9713 22.8617 34.5969C22.8336 34.2224 22.9555 33.8521 23.2004 33.5674C23.4453 33.2826 23.7932 33.1068 24.1676 33.0786C24.542 33.0503 24.9123 33.172 25.1969 33.4168C25.5253 33.6993 26.8804 33.6302 27.886 32.4611C28.8722 31.3145 28.798 29.9768 28.4288 29.6593C28.1442 29.4145 27.9685 29.0666 27.9405 28.6921C27.9124 28.3177 28.0342 27.9474 28.2791 27.6626C28.524 27.3779 28.8719 27.2021 29.2464 27.1738C29.6208 27.1456 29.991 27.2673 30.2756 27.5121C30.604 27.7945 31.9592 27.7255 32.9647 26.5563C33.9509 25.4097 33.8767 24.072 33.5076 23.7545C33.2229 23.5097 33.0473 23.1618 33.0192 22.7874C32.9911 22.413 33.1129 22.0426 33.3578 21.7579C33.6027 21.4732 33.9507 21.2973 34.3251 21.2691C34.6995 21.2409 35.0698 21.3625 35.3544 21.6073C35.6549 21.8658 36.8195 21.8141 37.7912 20.9015L36.7395 19.9969C35.8856 19.2625 34.7749 18.8976 33.6516 18.9823C32.5284 19.067 31.4845 19.5945 30.7498 20.4487ZM26.4198 36.3364C26.4089 37.6384 25.9665 38.9001 25.1619 39.9241L27.3414 41.7987L42.1159 24.6213L39.9353 22.7457C39.0436 23.6945 37.8627 24.321 36.5773 24.527C36.555 25.9486 36.0369 27.318 35.1126 28.3986C34.1882 29.4793 32.9156 30.2033 31.5146 30.4455C31.4846 31.867 30.9591 33.2336 30.0289 34.3092C29.0986 35.3848 27.8221 36.1018 26.4198 36.3364Z" fill="#62E0D4"/>
</svg>
