<svg xmlns="http://www.w3.org/2000/svg" width="24" height="24" viewBox="0 0 24 24" fill="none">
  <path fill-rule="evenodd" clip-rule="evenodd" d="M9.00396 2.0025C9.55578 2.0025 10.0031 1.55534 10.0031 1.00375C10.0031 0.452159 9.55578 0.00500488 9.00396 0.00500488C8.45214 0.00500488 8.0048 0.452159 8.0048 1.00375C8.0048 1.55534 8.45214 2.0025 9.00396 2.0025ZM14.9993 2.0025C15.5511 2.0025 15.9985 1.55534 15.9985 1.00375C15.9985 0.452159 15.5511 0.00500488 14.9993 0.00500488C14.4475 0.00500488 14.0001 0.452159 14.0001 1.00375C14.0001 1.55534 14.4475 2.0025 14.9993 2.0025ZM21.9933 21.9874H22.9924C23.2574 21.9874 23.5116 22.0926 23.699 22.2799C23.8863 22.4672 23.9916 22.7212 23.9916 22.9861C23.9916 23.251 23.8863 23.505 23.699 23.6923C23.5116 23.8796 23.2574 23.9849 22.9924 23.9849H1.01088C0.745887 23.9849 0.491746 23.8796 0.304367 23.6923C0.116987 23.505 0.0117188 23.251 0.0117188 22.9861C0.0117188 22.7212 0.116987 22.4672 0.304367 22.2799C0.491746 22.0926 0.745887 21.9874 1.01088 21.9874H2.01004V16.9837C2.01132 16.0131 2.29551 15.064 2.82786 14.2523C3.3602 13.4406 4.11764 12.8016 5.00753 12.4134V11.9899C5.0101 11.0448 5.2813 10.1199 5.78953 9.32298C6.29776 8.52603 7.02209 7.88986 7.87812 7.48858L7.00585 3.99996C7.00585 3.73507 7.11112 3.48104 7.2985 3.29374C7.48588 3.10644 7.74002 3.00121 8.00502 3.00121H10.0033C10.2683 3.00121 10.5225 3.10644 10.7099 3.29374C10.8972 3.48104 11.0025 3.73507 11.0025 3.99996L10.2531 6.9962H13.2007L13.8391 3.80021C13.8852 3.57445 14.008 3.37157 14.1866 3.22595C14.3653 3.08033 14.5888 3.00093 14.8193 3.00121H15.179C15.4095 3.00093 15.633 3.08033 15.8117 3.22595C15.9903 3.37157 16.1131 3.57445 16.1592 3.80021L16.9975 8.01991C17.6157 8.48145 18.1181 9.0804 18.4649 9.76941C18.8117 10.4584 18.9935 11.2186 18.9958 11.9899V12.4134C19.8857 12.8016 20.6431 13.4406 21.1755 14.2523C21.7078 15.064 21.992 16.0131 21.9933 16.9837V21.9874ZM14 8.99369H10.0033C9.20836 8.99369 8.44594 9.30936 7.8838 9.87127C7.32166 10.4332 7.00585 11.1953 7.00585 11.9899H16.9975C16.9975 11.1953 16.6817 10.4332 16.1195 9.87127C15.5574 9.30936 14.795 8.99369 14 8.99369ZM16.9975 13.9874H7.00585C6.21087 13.9874 5.44845 14.3031 4.88631 14.865C4.32417 15.4269 4.00837 16.189 4.00837 16.9837V17.9634C4.9286 17.8705 5.50711 17.2993 5.50711 16.9837C5.50711 16.7188 5.61238 16.4647 5.79976 16.2774C5.98714 16.0901 6.24128 15.9849 6.50627 15.9849C6.77127 15.9849 7.02541 16.0901 7.21279 16.2774C7.40017 16.4647 7.50543 16.7188 7.50543 16.9837C7.50543 17.2893 8.16588 17.9824 9.25397 17.9824C10.3211 17.9824 11.0025 17.3272 11.0025 16.9837C11.0025 16.7188 11.1078 16.4647 11.2951 16.2774C11.4825 16.0901 11.7367 15.9849 12.0017 15.9849C12.2667 15.9849 12.5208 16.0901 12.7082 16.2774C12.8956 16.4647 13.0008 16.7188 13.0008 16.9837C13.0008 17.2893 13.6613 17.9824 14.7494 17.9824C15.8165 17.9824 16.4979 17.3272 16.4979 16.9837C16.4979 16.7188 16.6032 16.4647 16.7905 16.2774C16.9779 16.0901 17.2321 15.9849 17.4971 15.9849C17.7621 15.9849 18.0162 16.0901 18.2036 16.2774C18.391 16.4647 18.4962 16.7188 18.4962 16.9837C18.4962 17.2633 19.0597 17.8626 19.995 17.9624V16.9837C19.995 16.189 19.6792 15.4269 19.117 14.865C18.5549 14.3031 17.7925 13.9874 16.9975 13.9874ZM6.50627 18.9811C5.80479 19.5743 4.92629 19.9182 4.00837 19.9589V21.9874H19.995V19.9579C19.0772 19.9175 18.1987 19.574 17.4971 18.9811C16.7263 19.6233 15.7554 19.9763 14.7521 19.979C13.7487 19.9818 12.7759 19.6341 12.0017 18.9961C11.2275 19.6341 10.2546 19.9818 9.25127 19.979C8.2479 19.9763 7.27699 19.6233 6.50627 18.9811Z" fill="#404844"/>
</svg>
