<svg width="28" height="27" viewBox="0 0 28 27" fill="none" xmlns="http://www.w3.org/2000/svg">
  <g clip-path="url(#clip0)">
  <!-- 移除了filter属性 -->
  <rect x="2" y="0.000488281" width="23" height="23" rx="6" fill="#29ACFF"/>
  <mask id="mask0" style="mask-type:alpha" maskUnits="userSpaceOnUse" x="2" y="0" width="23" height="24">
    <rect x="2" y="0.000488281" width="23" height="23" rx="6" fill="url(#paint0_linear)"/>
  </mask>
  <g mask="url(#mask0)">
    <rect x="2.18594" y="0.186426" width="22.6281" height="22.6281" rx="5.81406" stroke="url(#paint1_linear)" stroke-width="0.371875"/>
    <rect x="2.74375" y="0.744238" width="21.5125" height="21.5125" rx="5.25625" stroke="url(#paint2_linear)" stroke-width="1.4875"/>
  </g>
  <path d="M17.5686 20.0005H9.56285V18.2408L14.8613 11.8014C15.3834 11.1632 15.5962 10.6605 15.5962 9.96432C15.5962 8.72672 14.8613 7.87587 13.5851 7.87587C12.5408 7.87587 11.5546 8.456 11.5546 10.003H9.58219C9.58219 7.66316 11.2452 6.11616 13.5851 6.11616C15.9442 6.11616 17.5686 7.60515 17.5686 9.98366C17.5686 11.2019 17.1238 11.9174 16.273 12.9616L11.9607 18.2408H17.5686V20.0005Z" fill="white"/>
  </g>
  <defs>
  <linearGradient id="paint0_linear" x1="2" y1="0.719238" x2="25" y2="0.719238" gradientUnits="userSpaceOnUse">
    <stop stop-color="white"/>
    <stop offset="0.76881" stop-color="white"/>
    <stop offset="1" stop-color="white" stop-opacity="0"/>
  </linearGradient>
  <linearGradient id="paint1_linear" x1="13.5" y1="0.000488281" x2="13.5" y2="23.0005" gradientUnits="userSpaceOnUse">
    <stop stop-color="#4EBAFF" stop-opacity="0"/>
    <stop offset="0.541667" stop-color="#4EBAFF"/>
    <stop offset="1" stop-color="#00FF5B" stop-opacity="0"/>
    <stop offset="1" stop-color="#4EBAFF" stop-opacity="0"/>
  </linearGradient>
  <linearGradient id="paint2_linear" x1="13.5" y1="0.000488281" x2="13.5" y2="23.0005" gradientUnits="userSpaceOnUse">
    <stop stop-color="#CCEBFF"/>
    <stop offset="0.151042" stop-color="#97D7FF"/>
    <stop offset="1" stop-color="#97D7FF" stop-opacity="0"/>
  </linearGradient>
  <clipPath id="clip0">
    <rect width="28" height="27" fill="white" transform="translate(0 0.000488281)"/>
  </clipPath>
  </defs>
  </svg>