<svg width="28" height="27" viewBox="0 0 28 27" fill="none" xmlns="http://www.w3.org/2000/svg">
  <g clip-path="url(#clip0)">
    <!-- 移除了filter属性 -->
    <rect x="2" y="0.000488281" width="23" height="23" rx="6" fill="#515151"/>
    <mask id="mask0" style="mask-type:alpha" maskUnits="userSpaceOnUse" x="2" y="0" width="23" height="24">
      <rect x="2" y="0.000488281" width="23" height="23" rx="6" fill="url(#paint0_linear)"/>
    </mask>
    <g mask="url(#mask0)">
      <rect x="2.18594" y="0.186426" width="22.6281" height="22.6281" rx="5.81406" stroke="url(#paint1_linear)" stroke-width="0.371875"/>
      <!-- 移除了内部g元素的filter属性 -->
      <rect x="2.74375" y="0.744238" width="21.5125" height="21.5125" rx="5.25625" stroke="url(#paint2_linear)" stroke-width="1.4875"/>
    </g>
    <!-- 移除了外部g元素的filter属性 -->
    <path d="M17.5879 16.133C17.5879 18.7822 15.6735 20.1359 13.3723 20.1359C11.1679 20.1359 9.23412 18.9563 9.15677 16.2684H11.1292C11.2065 17.738 12.2314 18.3568 13.3723 18.3568C14.6486 18.3568 15.6155 17.5253 15.6155 16.075C15.6155 14.6827 14.8613 13.8125 13.3143 13.8125H12.9856V12.0914H13.3143C14.7453 12.0914 15.4028 11.2599 15.4028 10.003C15.4028 8.6107 14.4939 7.87587 13.3723 7.87587C12.1734 7.87587 11.3999 8.63004 11.3032 9.8483H9.3308C9.44683 7.50846 11.1679 6.09682 13.3723 6.09682C15.7122 6.09682 17.3752 7.66316 17.3752 9.94499C17.3752 11.4146 16.7177 12.3622 15.6542 12.8843C16.8338 13.4064 17.5879 14.4313 17.5879 16.133Z" fill="white"/>
  </g>
  <defs>
    <linearGradient id="paint0_linear" x1="2" y1="0.000488281" x2="25" y2="0.000488281" gradientUnits="userSpaceOnUse">
      <stop stop-color="white"/>
      <stop offset="0.849578" stop-color="white"/>
      <stop offset="1" stop-color="white" stop-opacity="0"/>
    </linearGradient>
    <linearGradient id="paint1_linear" x1="13.5" y1="0.000488281" x2="13.5" y2="23.0005" gradientUnits="userSpaceOnUse">
      <stop stop-color="#999999" stop-opacity="0"/>
      <stop offset="0.541667" stop-color="#757575"/>
      <stop offset="1" stop-color="#999999" stop-opacity="0"/>
    </linearGradient>
    <linearGradient id="paint2_linear" x1="13.5" y1="0.000488281" x2="13.5" y2="23.0005" gradientUnits="userSpaceOnUse">
      <stop stop-color="#C0C0C0"/>
      <stop offset="0.151042" stop-color="#8A8A8A"/>
      <stop offset="1" stop-color="#8A8A8A" stop-opacity="0"/>
    </linearGradient>
    <clipPath id="clip0">
      <rect width="28" height="27" fill="white" transform="translate(0 0.000488281)"/>
    </clipPath>
  </defs>
  </svg>