<svg width="28" height="27" viewBox="0 0 28 27" fill="none" xmlns="http://www.w3.org/2000/svg">
  <g clip-path="url(#clip0)">
    <rect x="2" y="0.000976562" width="23" height="23" rx="6" fill="#FF8400"/>
    <mask id="mask0" style="mask-type:alpha" maskUnits="userSpaceOnUse" x="2" y="0" width="23" height="24">
      <rect x="2" y="0.000488281" width="23" height="23" rx="6" fill="url(#paint0_linear)"/>
    </mask>
    <g mask="url(#mask0)">
      <rect x="2.18594" y="0.186426" width="22.6281" height="22.6281" rx="5.81406" stroke="url(#paint1_linear)" stroke-width="0.371875"/>
      <rect x="2.74375" y="0.744238" width="21.5125" height="21.5125" rx="5.25625" stroke="url(#paint2_linear)" stroke-width="1.4875"/>
    </g>
    <path d="M17.9747 17.9314H16.505V20.0005H14.5906V17.9314H9.0214V16.0943L13.8751 6.23219H16.0022L11.1679 16.0943H14.5906V12.8843H16.505V16.0943H17.9747V17.9314Z" fill="white"/>
  </g>
  <defs>
    <linearGradient id="paint0_linear" x1="2" y1="0.000488281" x2="25" y2="0.000488281" gradientUnits="userSpaceOnUse">
      <stop stop-color="white"/>
      <stop offset="0.884284" stop-color="white"/>
      <stop offset="1" stop-color="white" stop-opacity="0"/>
    </linearGradient>
    <linearGradient id="paint1_linear" x1="13.5" y1="0.000488281" x2="13.5" y2="23.0005" gradientUnits="userSpaceOnUse">
      <stop stop-color="#FFA545" stop-opacity="0"/>
      <stop offset="0.541667" stop-color="#FFA545"/>
      <stop offset="1" stop-color="#FFA545" stop-opacity="0"/>
    </linearGradient>
    <linearGradient id="paint2_linear" x1="13.5" y1="0.000488281" x2="13.5" y2="23.0005" gradientUnits="userSpaceOnUse">
      <stop stop-color="#FFDDB9"/>
      <stop offset="0.151042" stop-color="#FFC586"/>
      <stop offset="1" stop-color="#FF9524" stop-opacity="0"/>
    </linearGradient>
    <clipPath id="clip0">
      <rect width="28" height="27" fill="white" transform="translate(0 0.000488281)"/>
    </clipPath>
  </defs>
  </svg>