<svg width="28" height="27" viewBox="0 0 28 27" fill="none" xmlns="http://www.w3.org/2000/svg">
  <g clip-path="url(#clip0)">
    <rect x="2" y="0.000488281" width="23" height="23" rx="6" fill="#00CDD5"/>
    <mask id="mask0" style="mask-type:alpha" maskUnits="userSpaceOnUse" x="2" y="0" width="23" height="24">
      <rect x="2" y="0.000488281" width="23" height="23" rx="6" fill="url(#paint0_linear)"/>
    </mask>
    <g mask="url(#mask0)">
      <rect x="2.18594" y="0.186426" width="22.6281" height="22.6281" rx="5.81406" stroke="url(#paint1_linear)" stroke-width="0.371875"/>
      <rect x="2.74375" y="0.744238" width="21.5125" height="21.5125" rx="5.25625" stroke="url(#paint2_linear)" stroke-width="1.4875"/>
    </g>
    <path d="M17.6073 15.3982C17.6073 16.8678 17.4526 18.0474 16.447 19.053C15.8282 19.6718 14.8807 20.1359 13.5464 20.1359C12.2314 20.1359 11.2065 19.6718 10.6071 19.0723C9.87225 18.3375 9.6402 17.4286 9.56285 16.4424H11.5353C11.69 17.6607 12.3088 18.3568 13.5464 18.3568C14.1265 18.3568 14.6293 18.1634 14.9774 17.8154C15.5575 17.2352 15.6348 16.3264 15.6348 15.3982C15.6348 13.7545 15.2094 12.5169 13.6237 12.5169C12.5022 12.5169 11.8834 13.0777 11.6706 13.7545H9.87225V6.23219H17.2979V7.9919H11.6513V11.6273C12.1154 11.1439 12.9276 10.8345 13.9331 10.8345C15.016 10.8345 15.8475 11.1632 16.4083 11.724C17.4526 12.7683 17.6073 14.1026 17.6073 15.3982Z" fill="white"/>
  </g>
  <defs>
    <linearGradient id="paint0_linear" x1="2" y1="0.719238" x2="25" y2="0.719238" gradientUnits="userSpaceOnUse">
      <stop stop-color="white"/>
      <stop offset="0.76881" stop-color="white"/>
      <stop offset="1" stop-color="white" stop-opacity="0"/>
    </linearGradient>
    <linearGradient id="paint1_linear" x1="13.5" y1="0.000488281" x2="13.5" y2="23.0005" gradientUnits="userSpaceOnUse">
      <stop stop-color="#0AF7FF" stop-opacity="0"/>
      <stop offset="0.541667" stop-color="#1CDBE1"/>
      <stop offset="1" stop-color="#00FF5B" stop-opacity="0"/>
      <stop offset="1" stop-color="#0AF7FF" stop-opacity="0"/>
    </linearGradient>
    <linearGradient id="paint2_linear" x1="13.5" y1="0.000488281" x2="13.5" y2="23.0005" gradientUnits="userSpaceOnUse">
      <stop stop-color="#A0FFC2"/>
      <stop offset="0.151042" stop-color="#0AF7FF"/>
      <stop offset="1" stop-color="#0AF7FF" stop-opacity="0"/>
    </linearGradient>
    <clipPath id="clip0">
      <rect width="28" height="27" fill="white" transform="translate(0 0.000488281)"/>
    </clipPath>
  </defs>
  </svg>