<svg width="28" height="27" viewBox="0 0 28 27" fill="none" xmlns="http://www.w3.org/2000/svg">
  <g clip-path="url(#clip0_104_29083)">
  <g>
  <rect x="2" y="0.000488281" width="23" height="23" rx="6" fill="#4636DC"/>
  </g>
  <mask id="mask0_104_29083" style="mask-type:alpha" maskUnits="userSpaceOnUse" x="2" y="0" width="23" height="24">
  <rect x="2" y="0.000488281" width="23" height="23" rx="6" fill="url(#paint0_linear_104_29083)"/>
  </mask>
  <g mask="url(#mask0_104_29083)">
  <rect x="2.18594" y="0.186426" width="22.6281" height="22.6281" rx="5.81406" stroke="url(#paint1_linear_104_29083)" stroke-width="0.371875"/>
  <rect x="2.74375" y="0.744238" width="21.5125" height="21.5125" rx="5.25625" stroke="url(#paint2_linear_104_29083)" stroke-width="1.4875"/>
  </g>
  <g>
  <path d="M15.9172 5.16775H16.2005V7.02786H16.0399C15.2279 7.02786 14.526 7.15375 13.9343 7.40554C13.3489 7.65733 12.8674 8.00354 12.4897 8.44418C12.112 8.88481 11.8287 9.40098 11.6399 9.99269C11.4574 10.5781 11.3661 11.2013 11.3661 11.8622V14.0245C11.3661 14.5721 11.4259 15.0568 11.5455 15.4786C11.6651 15.894 11.8319 16.2434 12.0459 16.5266C12.2662 16.8036 12.518 17.0145 12.8013 17.1593C13.0845 17.3041 13.3898 17.3764 13.7172 17.3764C14.0571 17.3764 14.3655 17.3072 14.6425 17.1687C14.9195 17.0239 15.1555 16.8256 15.3507 16.5739C15.5458 16.3221 15.6937 16.0231 15.7944 15.6769C15.8952 15.3306 15.9455 14.953 15.9455 14.5438C15.9455 14.1535 15.8952 13.7884 15.7944 13.4485C15.7 13.1023 15.5584 12.8002 15.3695 12.5421C15.1807 12.2777 14.9446 12.0731 14.6614 11.9283C14.3844 11.7773 14.0634 11.7017 13.6983 11.7017C13.2451 11.7017 12.8328 11.8087 12.4614 12.0227C12.0963 12.2368 11.8004 12.5169 11.5738 12.8631C11.3535 13.203 11.2339 13.565 11.215 13.9489L10.3463 13.6657C10.3967 13.0803 10.5257 12.5547 10.7335 12.0888C10.9475 11.623 11.2276 11.2265 11.5738 10.8991C11.92 10.5718 12.3197 10.3232 12.773 10.1532C13.2325 9.97695 13.7361 9.88882 14.2837 9.88882C14.9509 9.88882 15.5301 10.0147 16.0211 10.2665C16.512 10.5183 16.9181 10.8614 17.2391 11.2957C17.5664 11.7237 17.8088 12.2147 17.9661 12.7687C18.1298 13.3163 18.2116 13.8891 18.2116 14.4871C18.2116 15.1481 18.1109 15.765 17.9095 16.3378C17.708 16.9043 17.4122 17.4016 17.0219 17.8297C16.6379 18.2577 16.169 18.5913 15.615 18.8305C15.0674 19.0697 14.4442 19.1893 13.7455 19.1893C13.009 19.1893 12.3512 19.0477 11.7721 18.7644C11.1993 18.4812 10.7114 18.0909 10.3086 17.5936C9.91199 17.0963 9.60984 16.5235 9.40211 15.8751C9.19438 15.2268 9.09052 14.5407 9.09052 13.8168V12.8725C9.09052 11.8276 9.22271 10.8425 9.48709 9.91715C9.75147 8.98553 10.1575 8.16406 10.7051 7.45275C11.2591 6.74144 11.9672 6.18436 12.8296 5.78149C13.692 5.37233 14.7212 5.16775 15.9172 5.16775Z" fill="white"/>
  </g>
  </g>
  <defs>
  <linearGradient id="paint0_linear_104_29083" x1="2" y1="0.719238" x2="25" y2="0.719238" gradientUnits="userSpaceOnUse">
  <stop stop-color="white"/>
  <stop offset="0.796713" stop-color="white" stop-opacity="0.94"/>
  <stop offset="1" stop-color="white" stop-opacity="0"/>
  </linearGradient>
  <linearGradient id="paint1_linear_104_29083" x1="13.5" y1="0.000488281" x2="13.5" y2="23.0005" gradientUnits="userSpaceOnUse">
  <stop stop-color="#5645F5" stop-opacity="0"/>
  <stop offset="0.541667" stop-color="#5645F5"/>
  <stop offset="1" stop-color="#5645F5" stop-opacity="0"/>
  </linearGradient>
  <linearGradient id="paint2_linear_104_29083" x1="13.5" y1="0.000488281" x2="13.5" y2="23.0005" gradientUnits="userSpaceOnUse">
  <stop stop-color="#CBABFF"/>
  <stop offset="0.151042" stop-color="#9858FF"/>
  <stop offset="1" stop-color="#9858FF" stop-opacity="0"/>
  </linearGradient>
  <clipPath id="clip0_104_29083">
  <rect width="28" height="27" fill="white" transform="translate(0 0.000488281)"/>
  </clipPath>
  </defs>
  </svg>