<svg width="28" height="27" viewBox="0 0 28 27" fill="none" xmlns="http://www.w3.org/2000/svg">
  <g clip-path="url(#clip0_104_29076)">
  <g>
  <rect x="2" y="0.000488281" width="23" height="23" rx="6" fill="#E71515"/>
  </g>
  <mask id="mask0_104_29076" style="mask-type:alpha" maskUnits="userSpaceOnUse" x="2" y="0" width="23" height="24">
  <rect x="2" y="0.000488281" width="23" height="23" rx="6" fill="url(#paint0_linear_104_29076)"/>
  </mask>
  <g mask="url(#mask0_104_29076)">
  <rect x="2.18594" y="0.186426" width="22.6281" height="22.6281" rx="5.81406" stroke="url(#paint1_linear_104_29076)" stroke-width="0.371875"/>
  <rect x="2.74375" y="0.744238" width="21.5125" height="21.5125" rx="5.25625" stroke="url(#paint2_linear_104_29076)" stroke-width="1.4875"/>
  </g>
  <g>
  <path d="M17.7426 16.1137C17.7426 18.6082 15.8475 20.1165 13.4884 20.1165C11.1292 20.1165 9.25345 18.6082 9.25345 16.1137C9.25345 14.47 10.1817 13.4644 11.1485 12.8843C10.259 12.3428 9.4855 11.376 9.4855 9.92565C9.4855 7.62449 11.2452 6.11616 13.4884 6.11616C15.7315 6.11616 17.5106 7.62449 17.5106 9.92565C17.5106 11.376 16.7371 12.3428 15.8475 12.8843C16.8144 13.4644 17.7426 14.47 17.7426 16.1137ZM15.5381 9.98366C15.5381 8.78474 14.6873 7.87587 13.4884 7.87587C12.2894 7.87587 11.4579 8.78474 11.4579 9.98366C11.4579 11.2019 12.2894 12.0721 13.4884 12.0721C14.6873 12.0721 15.5381 11.2019 15.5381 9.98366ZM15.7509 16.075C15.7509 14.7987 14.7646 13.7738 13.4884 13.7738C12.2121 13.7738 11.2259 14.7987 11.2259 16.075C11.2259 17.3513 12.2121 18.3568 13.4884 18.3568C14.7646 18.3568 15.7509 17.3513 15.7509 16.075Z" fill="white"/>
  </g>
  </g>
  <defs>
  <linearGradient id="paint0_linear_104_29076" x1="2" y1="0.000488281" x2="25" y2="0.000488281" gradientUnits="userSpaceOnUse">
  <stop stop-color="white"/>
  <stop offset="0.823203" stop-color="white"/>
  <stop offset="1" stop-color="white" stop-opacity="0"/>
  </linearGradient>
  <linearGradient id="paint1_linear_104_29076" x1="13.5" y1="0.000488281" x2="13.5" y2="23.0005" gradientUnits="userSpaceOnUse">
  <stop stop-color="#FF1616" stop-opacity="0"/>
  <stop offset="0.541667" stop-color="#FF1616"/>
  <stop offset="1" stop-color="#FF1616" stop-opacity="0"/>
  </linearGradient>
  <linearGradient id="paint2_linear_104_29076" x1="13.5" y1="0.000488281" x2="13.5" y2="23.0005" gradientUnits="userSpaceOnUse">
  <stop stop-color="#FF7070"/>
  <stop offset="0.141118" stop-color="#FF8282"/>
  <stop offset="1" stop-color="#FF1616" stop-opacity="0"/>
  </linearGradient>
  <clipPath id="clip0_104_29076">
  <rect width="28" height="27" fill="white" transform="translate(0 0.000488281)"/>
  </clipPath>
  </defs>
  </svg>