<svg width="29" height="28" viewBox="0 0 29 28" fill="none" xmlns="http://www.w3.org/2000/svg">
  <g clip-path="url(#clip0_104_29104)">
  <g>
  <rect x="2" y="0.000488281" width="23" height="23" rx="6" fill="#00BC43"/>
  </g>
  <mask id="mask0_104_29104" style="mask-type:alpha" maskUnits="userSpaceOnUse" x="2" y="0" width="23" height="24">
  <rect x="2" y="0.000488281" width="23" height="23" rx="6" fill="url(#paint0_linear_104_29104)"/>
  </mask>
  <g mask="url(#mask0_104_29104)">
  <g>
  <rect x="2.18594" y="0.186426" width="22.6281" height="22.6281" rx="5.81406" stroke="url(#paint1_linear_104_29104)" stroke-width="0.371875" shape-rendering="crispEdges"/>
  </g>
  <g>
  <rect x="2.74375" y="0.744238" width="21.5125" height="21.5125" rx="5.25625" stroke="url(#paint2_linear_104_29104)" stroke-width="1.4875"/>
  </g>
  </g>
  <g>
  <path d="M10.2977 20.0005H8.32532V8.37865L5.63741 10.7378V8.55269L8.32532 6.23219H10.2977V20.0005ZM21.3836 16.1717C21.3836 18.6275 19.5852 20.1165 17.4 20.1165C15.2149 20.1165 13.4358 18.6275 13.4358 16.1717V10.061C13.4358 7.60515 15.2149 6.11616 17.4 6.11616C19.5852 6.11616 21.3836 7.60515 21.3836 10.061V16.1717ZM19.4111 16.1137V10.119C19.4111 8.78474 18.657 7.87587 17.4 7.87587C16.1431 7.87587 15.4083 8.78474 15.4083 10.119V16.1137C15.4083 17.4479 16.1431 18.3568 17.4 18.3568C18.657 18.3568 19.4111 17.4479 19.4111 16.1137Z" fill="white"/>
  </g>
  </g>
  <defs>
  <linearGradient id="paint0_linear_104_29104" x1="2" y1="0.719238" x2="25" y2="0.719238" gradientUnits="userSpaceOnUse">
  <stop stop-color="white"/>
  <stop offset="0.813708" stop-color="white"/>
  <stop offset="1" stop-color="white" stop-opacity="0"/>
  </linearGradient>
  <linearGradient id="paint1_linear_104_29104" x1="13.5" y1="0.000488281" x2="13.5" y2="23.0005" gradientUnits="userSpaceOnUse">
  <stop stop-color="#00FF5B" stop-opacity="0"/>
  <stop offset="0.541667" stop-color="#00FF5B"/>
  <stop offset="1" stop-color="#00FF5B" stop-opacity="0"/>
  </linearGradient>
  <linearGradient id="paint2_linear_104_29104" x1="13.5" y1="0.000488281" x2="13.5" y2="23.0005" gradientUnits="userSpaceOnUse">
  <stop stop-color="#A0FFC2"/>
  <stop offset="0.151042" stop-color="#00FF5B"/>
  <stop offset="1" stop-color="#00FF5B" stop-opacity="0"/>
  </linearGradient>
  <clipPath id="clip0_104_29104">
  <rect width="29" height="28.0003" fill="white" transform="translate(0 0.000488281)"/>
  </clipPath>
  </defs>
  </svg>