<svg xmlns="http://www.w3.org/2000/svg" width="114" height="114" viewBox="0 0 114 114" fill="none">
  <path fill-rule="evenodd" clip-rule="evenodd" d="M75.5658 108.079C75.0505 107.435 74.1911 107.157 73.4071 107.412C68.241 109.092 62.7265 110 57 110C27.7289 110 4 86.2711 4 57C4 27.7289 27.7289 4 57 4C86.2711 4 110 27.7289 110 57C110 63.0566 108.984 68.8758 107.113 74.2967C106.844 75.0762 107.107 75.9404 107.742 76.4671C108.775 77.3241 110.404 77.0142 110.845 75.7469C112.889 69.8757 114 63.5676 114 57C114 25.5198 88.4802 0 57 0C25.5198 0 0 25.5198 0 57C0 88.4802 25.5198 114 57 114C63.2124 114 69.1927 113.006 74.7905 111.169C76.0657 110.75 76.4046 109.126 75.5658 108.079Z" fill="#07C160"/>
  <path d="M88.3496 37.0498L49.5621 76.9498L26.5996 53.3288" stroke="#07C160" stroke-width="10" stroke-linecap="round" stroke-linejoin="round"/>
  <path d="M104.64 90.9422L101.19 94.1204C99.9068 95.302 98.0885 95.6847 96.4549 95.2754L99.335 92.629C99.3778 92.5949 99.4243 92.5689 99.4645 92.5319L102.915 89.3537C103.868 88.4756 103.868 87.053 102.915 86.1749C101.963 85.2974 100.418 85.2974 99.4645 86.1749L96.0138 89.3537C96.0138 89.3537 96.0138 89.3537 96.0138 89.3543L96.0113 89.352L93.0269 92.0937C92.5971 90.5977 93.015 88.9375 94.2885 87.764L97.7391 84.5858C99.6454 82.8308 102.735 82.8308 104.64 84.5858C106.546 86.3408 106.546 89.1872 104.64 90.9422ZM90.4496 99.286L90.4458 99.2826C90.2208 99.4918 89.9086 99.6225 89.563 99.6225C88.8782 99.6225 88.3234 99.1126 88.3234 98.4837C88.3234 98.1542 88.4779 97.8594 88.7217 97.6513L96.923 90.1156C97.1498 89.8925 97.4703 89.7502 97.829 89.7502C98.5139 89.7502 99.0687 90.2601 99.0687 90.8891C99.0687 91.2001 98.9317 91.4821 98.7118 91.6879L98.7155 91.6914L90.4496 99.286ZM87.8924 96.8073L84.4417 99.9855C83.4892 100.863 83.4892 102.286 84.4417 103.164C85.3942 104.041 86.9392 104.041 87.8924 103.164L91.343 99.9855C91.3669 99.9624 91.3832 99.9364 91.4071 99.9133L94.3262 97.2304C94.7622 98.7311 94.3456 100.397 93.0683 101.575L89.6177 104.753C87.7114 106.508 84.622 106.508 82.7163 104.753C80.8107 102.997 80.8107 100.152 82.7163 98.3958L86.167 95.2176C87.4462 94.0395 89.257 93.6563 90.8868 94.0597L87.9168 96.7888C87.9087 96.7957 87.8999 96.8003 87.8924 96.8073Z" fill="#07C160"/>
</svg>