<svg width="34" height="34" viewBox="0 0 34 34" fill="none" xmlns="http://www.w3.org/2000/svg">
<rect x="0.566667" y="0.566667" width="32.8667" height="32.8667" rx="16.4333" stroke="#07C160" stroke-width="1.13333"/>
<path d="M9.5625 13.0703C10.8464 11.1224 11.776 9.79427 12.3516 9.08594C12.75 8.55469 13.2591 8.46615 13.8789 8.82031C14.3659 9.13021 14.388 9.63932 13.9453 10.3477C13.0156 11.543 12.3516 12.4284 11.9531 13.0039C11.8203 13.1367 11.776 13.2253 11.8203 13.2695C11.8203 13.3138 11.9089 13.3359 12.0859 13.3359H13.0156C13.237 13.0703 13.5247 12.7161 13.8789 12.2734C14.2331 11.875 14.6979 11.8529 15.2734 12.207C15.6719 12.4727 15.694 12.8932 15.3398 13.4688C14.5872 14.487 13.6354 15.7044 12.4844 17.1211C12.4401 17.2096 12.418 17.276 12.418 17.3203C12.418 17.3646 12.4844 17.3646 12.6172 17.3203C13.4583 17.099 14.1224 16.9661 14.6094 16.9219C15.1849 16.8776 15.4948 17.1211 15.5391 17.6523C15.6719 18.2279 15.3841 18.6042 14.6758 18.7812C14.1888 18.9583 13.6354 19.0911 13.0156 19.1797C12.3958 19.3125 11.776 19.3789 11.1562 19.3789C10.2708 19.4674 9.78385 19.2904 9.69531 18.8477C9.5625 18.4935 9.67318 18.0065 10.0273 17.3867C10.2487 17.0326 10.6471 16.5013 11.2227 15.793C11.444 15.5273 11.6654 15.2396 11.8867 14.9297C11.444 15.0182 11.0013 15.0404 10.5586 14.9961C9.85026 15.0846 9.42969 14.8854 9.29688 14.3984C9.11979 14.0885 9.20833 13.6458 9.5625 13.0703ZM19.125 10.6133C18.9479 10.5247 18.7708 10.3034 18.5938 9.94922C18.2839 9.55078 18.3724 9.17448 18.8594 8.82031C19.3464 8.42188 19.9661 8.62109 20.7188 9.41797C21.0729 9.86068 21.0729 10.2591 20.7188 10.6133H23.9062C24.349 10.6576 24.5924 10.9674 24.6367 11.543C24.5924 12.1628 24.349 12.4727 23.9062 12.4727H19.8555C19.7227 12.6497 19.5898 12.8047 19.457 12.9375C18.793 13.6458 18.2839 14.2435 17.9297 14.7305C17.7969 14.8633 17.7526 14.974 17.7969 15.0625C17.8411 15.1068 17.9518 15.1289 18.1289 15.1289C19.5013 15.1289 20.6081 15.0846 21.4492 14.9961C21.3607 14.9076 21.25 14.7526 21.1172 14.5312C21.0286 14.3984 20.9844 14.2878 20.9844 14.1992C20.8073 13.7122 20.8958 13.3581 21.25 13.1367C21.7812 12.8268 22.2461 12.8932 22.6445 13.3359C23.2643 14.2656 23.8398 15.1953 24.3711 16.125C24.681 16.7891 24.5482 17.2539 23.9727 17.5195C23.3971 17.9622 22.8659 17.6523 22.3789 16.5898C21.9362 16.6784 21.6263 16.7005 21.4492 16.6562V22.0352C21.4492 22.2565 21.5599 22.3672 21.7812 22.3672H22.2461C22.6003 22.4115 22.7995 22.0573 22.8438 21.3047C22.888 21.0833 22.9102 20.6406 22.9102 19.9766C22.8659 19.401 23.1758 19.1133 23.8398 19.1133C24.4154 19.1133 24.7031 19.401 24.7031 19.9766C24.9245 22.9427 24.0833 24.293 22.1797 24.0273H21.5156C20.2318 24.0273 19.612 23.5182 19.6562 22.5V16.7227H18.793V17.918C18.793 20.5299 17.9076 22.5664 16.1367 24.0273C15.4284 24.4701 14.8529 24.5143 14.4102 24.1602C14.056 23.5404 14.1445 23.0534 14.6758 22.6992C16.2253 21.8581 16.9779 20.3086 16.9336 18.0508V16.7227H16.6016C15.4062 16.6341 15.0521 16.0365 15.5391 14.9297C16.026 14.1328 16.668 13.3138 17.4648 12.4727H16.0039C15.5169 12.4727 15.2513 12.1628 15.207 11.543C15.2513 10.9674 15.5169 10.6576 16.0039 10.6133H19.125ZM9.42969 23.2305C9.20833 22.7435 9.38542 22.3451 9.96094 22.0352C11.2448 21.5482 12.6615 20.862 14.2109 19.9766C14.7865 19.7109 15.2292 19.8216 15.5391 20.3086C15.849 20.8841 15.6719 21.3711 15.0078 21.7695C13.7682 22.4336 12.3958 23.0534 10.8906 23.6289C10.138 23.9388 9.65104 23.806 9.42969 23.2305Z" fill="#07C160"/>
</svg>
