<svg width="35" height="34" viewBox="0 0 35 34" fill="none" xmlns="http://www.w3.org/2000/svg">
<rect x="1.23341" y="0.566667" width="32.8667" height="32.8667" rx="16.4333" stroke="#07C160" stroke-width="1.13333"/>
<path d="M10.6941 11.1445C10.1628 11.1445 9.89722 10.8346 9.89722 10.2148C9.89722 9.63932 10.1628 9.32943 10.6941 9.28516H24.573C25.06 9.32943 25.3256 9.63932 25.3699 10.2148C25.3256 10.8346 25.06 11.1445 24.573 11.1445H20.5222V12.7383H23.5105C24.3959 12.694 24.8165 13.1589 24.7722 14.1328V22.5C24.8165 23.6953 24.1967 24.2487 22.9128 24.1602C22.2045 24.2487 21.5626 24.138 20.9871 23.8281C20.4558 23.5625 20.2345 23.1862 20.323 22.6992C20.4558 22.3451 20.81 22.2122 21.3855 22.3008C22.5808 22.5221 23.1121 22.3451 22.9792 21.7695V14.9961C22.935 14.7747 22.8243 14.6419 22.6472 14.5977H20.5222L20.4558 15.9258C21.2084 17.2539 21.9389 18.5599 22.6472 19.8438C22.9128 20.5078 22.8686 21.0169 22.5144 21.3711C22.0274 21.681 21.629 21.5482 21.3191 20.9727C20.5665 19.5117 20.1459 18.7591 20.0574 18.7148C19.6147 20.3971 19.172 21.6367 18.7292 22.4336C18.4636 22.7878 18.0873 22.8984 17.6003 22.7656C17.0691 22.5885 16.892 22.2565 17.0691 21.7695C17.1134 21.681 17.1576 21.5703 17.2019 21.4375C17.3347 21.1276 17.4454 20.862 17.5339 20.6406C17.0912 20.7292 16.7371 20.5078 16.4714 19.9766C16.3829 19.9323 16.2944 19.7773 16.2058 19.5117C15.9845 19.069 15.8295 18.7812 15.741 18.6484C15.2983 20.3307 14.8998 21.526 14.5457 22.2344C14.1915 22.6328 13.7488 22.7214 13.2175 22.5C12.7748 22.2786 12.6863 21.9023 12.9519 21.3711C13.8373 19.7331 14.3686 17.4753 14.5457 14.5977H12.6863C12.4649 14.6419 12.3542 14.7305 12.3542 14.8633V23.5625C12.31 24.0495 12.0001 24.3151 11.4246 24.3594C10.849 24.3151 10.5613 24.0495 10.5613 23.5625V14.0664C10.5613 13.181 10.9597 12.7383 11.7566 12.7383H14.6121V11.1445H10.6941ZM16.3386 11.1445V12.7383H18.7957V11.1445H16.3386ZM18.7292 14.5977H16.2058C16.1615 15.2174 16.1173 15.793 16.073 16.3242C16.9141 17.3867 17.5782 18.3828 18.0652 19.3125C18.4636 17.7188 18.685 16.1471 18.7292 14.5977Z" fill="#07C160"/>
</svg>
