<svg width="34" height="34" viewBox="0 0 34 34" fill="none" xmlns="http://www.w3.org/2000/svg">
<rect x="0.566667" y="0.566667" width="32.8667" height="32.8667" rx="16.4333" stroke="#07C160" stroke-width="1.13333"/>
<path d="M10.2266 12.0078H12.8164V9.68359C12.8164 9.10807 13.1042 8.77604 13.6797 8.6875C14.2552 8.73177 14.5651 9.04167 14.6094 9.61719V12.0078H17.1992C17.6862 12.0521 17.9076 12.362 17.8633 12.9375C17.7747 13.4688 17.487 13.7344 17 13.7344H14.6094V14.9297C14.9193 14.1328 15.4505 13.9557 16.2031 14.3984C17.0885 14.9297 17.5312 15.306 17.5312 15.5273C18.2839 13.7122 18.7708 11.7201 18.9922 9.55078C19.0365 9.01953 19.3242 8.73177 19.8555 8.6875C20.3867 8.77604 20.6745 9.08594 20.7188 9.61719C20.7188 10.0156 20.6966 10.3698 20.6523 10.6797H24.1719C24.7031 10.724 25.013 11.0339 25.1016 11.6094C25.1016 12.2292 24.8581 12.5391 24.3711 12.5391H24.1055C23.9284 15.7708 23.3307 18.3607 22.3125 20.3086C22.5781 20.6628 23.0208 21.1055 23.6406 21.6367C24.1276 22.1237 24.4596 22.4115 24.6367 22.5C24.8581 22.9427 24.8359 23.319 24.5703 23.6289C24.3047 23.9388 23.9505 24.0052 23.5078 23.8281C22.7552 23.3854 21.9805 22.7435 21.1836 21.9023C20.0326 22.9206 18.9922 23.6953 18.0625 24.2266C17.5755 24.4479 17.1549 24.4258 16.8008 24.1602C16.4909 23.8503 16.4466 23.474 16.668 23.0312C16.4023 23.1198 16.0924 23.0977 15.7383 22.9648C15.3398 22.7435 14.8971 22.5885 14.4102 22.5C13.3477 23.0312 11.9974 23.5182 10.3594 23.9609C9.82812 24.0495 9.49609 23.8503 9.36328 23.3633C9.27474 22.832 9.49609 22.5443 10.0273 22.5C10.8242 22.3229 11.6211 22.0573 12.418 21.7031C12.1523 21.6146 11.8867 21.526 11.6211 21.4375C11.3997 21.349 11.2005 21.2604 11.0234 21.1719C10.3151 20.9505 10.0938 20.5742 10.3594 20.043C10.5365 19.7331 10.7357 19.4453 10.957 19.1797H9.89453C9.36328 19.1797 9.09766 18.8919 9.09766 18.3164C9.14193 17.7409 9.42969 17.431 9.96094 17.3867H11.8867C11.931 17.3424 11.9753 17.276 12.0195 17.1875C12.2852 16.6562 12.5951 16.3685 12.9492 16.3242C12.8607 16.3242 12.8164 16.2578 12.8164 16.125V15.2617C12.0195 16.0143 11.2448 16.612 10.4922 17.0547C10.0495 17.276 9.67318 17.2318 9.36328 16.9219C9.09766 16.4792 9.16406 16.1029 9.5625 15.793C10.4479 15.2174 11.2669 14.5312 12.0195 13.7344H10.1602C9.67318 13.7344 9.40755 13.4466 9.36328 12.8711C9.45182 12.3398 9.73958 12.0521 10.2266 12.0078ZM10.8906 11.543C10.625 11.2773 10.293 10.7682 9.89453 10.0156C9.67318 9.66146 9.78385 9.32943 10.2266 9.01953C10.6693 8.79818 11.0234 8.86458 11.2891 9.21875C11.4219 9.52865 11.6432 9.92708 11.9531 10.4141C12.0859 10.5911 12.1745 10.7018 12.2188 10.7461C12.3958 11.1445 12.2852 11.4766 11.8867 11.7422C11.4883 11.9635 11.1562 11.8971 10.8906 11.543ZM15.4062 10.8789C15.5391 10.3919 15.8047 9.83854 16.2031 9.21875C16.4245 8.86458 16.7565 8.75391 17.1992 8.88672C17.6419 9.10807 17.7969 9.41797 17.6641 9.81641C17.5312 10.1706 17.2656 10.7018 16.8672 11.4102C16.6016 11.7643 16.2474 11.875 15.8047 11.7422C15.4062 11.6094 15.2734 11.3216 15.4062 10.8789ZM21.1172 18.3828C21.8255 16.6562 22.2018 14.7083 22.2461 12.5391H20.2539C20.1654 13.1589 20.0547 13.7122 19.9219 14.1992C19.9219 14.5091 19.9661 14.7969 20.0547 15.0625C20.3203 16.3021 20.6745 17.4089 21.1172 18.3828ZM15.3398 19.5117C15.4284 19.3346 15.3398 19.224 15.0742 19.1797H12.8828C12.5729 19.6224 12.4401 19.8216 12.4844 19.7773C12.3073 19.7773 12.9492 20.043 14.4102 20.5742C14.8086 20.2643 15.1185 19.9102 15.3398 19.5117ZM16.0039 21.1719C16.0924 21.2161 16.181 21.2604 16.2695 21.3047C16.3581 21.349 16.4688 21.3932 16.6016 21.4375C17.2214 21.7031 17.4206 22.0794 17.1992 22.5664C17.9076 22.3008 18.8372 21.5703 19.9883 20.375C19.457 19.4453 18.9922 18.3164 18.5938 16.9883C18.0182 17.3424 17.5755 17.2539 17.2656 16.7227C17.0443 16.8997 16.7565 16.8776 16.4023 16.6562C16.2253 16.612 15.9596 16.457 15.6055 16.1914C15.4284 16.1029 15.3177 16.0143 15.2734 15.9258C14.8307 15.5716 14.6094 15.3281 14.6094 15.1953V15.9258C14.5651 16.4128 14.2995 16.6341 13.8125 16.5898C14.0781 16.7669 14.0781 17.0547 13.8125 17.4531H15.9375C17.3099 17.5859 17.7083 18.2943 17.1328 19.5781C16.8229 20.1979 16.4466 20.7292 16.0039 21.1719Z" fill="#07C160"/>
</svg>
