<svg width="34" height="34" viewBox="0 0 34 34" fill="none" xmlns="http://www.w3.org/2000/svg">
<rect x="0.566667" y="0.566667" width="32.8667" height="32.8667" rx="16.4333" stroke="#07C160" stroke-width="1.13333"/>
<path d="M20.918 14.2656C19.9883 13.1146 19.1914 11.8307 18.5273 10.4141C18.0404 9.30729 18.306 8.70964 19.3242 8.62109C19.6784 8.62109 20.099 9.0638 20.5859 9.94922C20.6302 9.99349 20.6745 10.0378 20.7188 10.082C21.6042 11.7643 22.7331 13.181 24.1055 14.332C24.2383 14.4648 24.349 14.5534 24.4375 14.5977C24.6146 14.819 24.7917 15.0404 24.9688 15.2617C25.2344 16.1029 24.9688 16.612 24.1719 16.7891C23.7292 16.7891 23.2201 16.5013 22.6445 15.9258C22.6003 15.8815 22.5781 15.8372 22.5781 15.793C22.6224 18.5378 22.556 20.5078 22.3789 21.7031C22.2018 22.7214 21.8477 23.3854 21.3164 23.6953C19.9883 24.2708 18.4609 24.293 16.7344 23.7617C16.026 23.4961 15.694 23.0977 15.7383 22.5664C15.9596 21.9909 16.4023 21.7474 17.0664 21.8359C17.332 21.9245 17.7747 22.013 18.3945 22.1016C18.9258 22.1901 19.2799 22.2122 19.457 22.168C19.9883 22.2122 20.276 21.9245 20.3203 21.3047C20.4531 20.7734 20.5195 19.2682 20.5195 16.7891C20.4753 16.5234 20.3424 16.3685 20.1211 16.3242H16.668C15.7826 20.1315 14.0781 22.6549 11.5547 23.8945C10.6693 24.4701 10.0052 24.4922 9.5625 23.9609C9.29688 23.474 9.34115 23.0534 9.69531 22.6992C9.91667 22.5664 10.2487 22.3672 10.6914 22.1016C12.6393 21.0391 13.9453 19.1133 14.6094 16.3242H12.5508C12.1523 16.3685 11.8867 16.2578 11.7539 15.9922C11.6654 16.0807 11.5547 16.1914 11.4219 16.3242C11.0234 16.7227 10.6914 16.944 10.4258 16.9883C9.85026 17.1654 9.45182 17.0768 9.23047 16.7227C8.92057 16.2357 8.94271 15.7708 9.29688 15.3281C9.38542 15.2396 9.54036 15.0846 9.76172 14.8633C11.3997 13.4023 12.5065 11.6979 13.082 9.75C13.2591 9.21875 13.6576 9.01953 14.2773 9.15234C14.8971 9.3737 15.1628 9.75 15.0742 10.2812C14.7643 11.6094 14.1224 12.9375 13.1484 14.2656H20.918Z" fill="#07C160"/>
</svg>
