<svg width="35" height="34" viewBox="0 0 35 34" fill="none" xmlns="http://www.w3.org/2000/svg">
<rect x="1.23341" y="0.566667" width="32.8667" height="32.8667" rx="16.4333" stroke="#07C160" stroke-width="1.13333"/>
<path d="M11.0261 10.4805C10.8933 9.86068 11.491 9.50651 12.8191 9.41797C13.8373 9.32943 14.8998 9.13021 16.0066 8.82031C17.0248 8.64323 17.5118 8.97526 17.4675 9.81641C17.6889 9.50651 18.0873 9.32943 18.6628 9.28516H22.1824C23.2449 9.24089 23.754 9.63932 23.7097 10.4805V12.6719C23.6654 13.026 23.7983 13.181 24.1082 13.1367H24.6394C25.2592 13.181 25.6134 13.4909 25.7019 14.0664C25.7019 14.7305 25.392 15.0625 24.7722 15.0625C24.241 15.0625 23.7319 15.0625 23.2449 15.0625C22.2709 15.0625 21.7839 14.6641 21.7839 13.8672V11.543C21.7839 11.2773 21.6954 11.1445 21.5183 11.1445H19.5925C19.3712 11.1003 19.2826 11.2552 19.3269 11.6094C19.2826 12.9818 18.9727 14.1328 18.3972 15.0625C18.1759 15.3281 17.9102 15.4831 17.6003 15.5273H23.9753C24.5951 15.5716 24.8608 15.9922 24.7722 16.7891C24.4623 18.6042 23.6433 20.1094 22.3152 21.3047C23.1121 21.8359 24.0639 22.2565 25.1707 22.5664C25.6576 22.7878 25.7904 23.2305 25.5691 23.8945C25.2592 24.4701 24.8386 24.6693 24.3074 24.4922C23.1121 24.0495 21.8503 23.3854 20.5222 22.5C19.2826 23.2969 17.9545 23.9167 16.5378 24.3594C15.8738 24.5365 15.4089 24.3372 15.1433 23.7617C14.9662 23.1419 15.1876 22.7214 15.8074 22.5C17.224 22.2344 18.3308 21.8138 19.1277 21.2383C18.5079 20.6628 17.9324 19.9544 17.4011 19.1133C16.9584 18.4049 17.0691 17.8294 17.7332 17.3867C17.1576 17.3867 16.8035 17.1654 16.6707 16.7227C16.6264 16.1914 16.8477 15.8151 17.3347 15.5938C16.405 15.4609 16.1837 14.9518 16.6707 14.0664C17.1134 13.4466 17.3569 12.362 17.4011 10.8125V10.1484C17.2683 10.4141 17.047 10.5911 16.7371 10.6797C15.8074 10.9896 14.7449 11.1888 13.5496 11.2773C13.0183 11.3216 12.797 11.5208 12.8855 11.875V12.5391H15.8738C16.3608 12.5833 16.6264 12.8932 16.6707 13.4688C16.6264 14.0443 16.3608 14.332 15.8738 14.332H12.8855V15.7266H15.8738C16.3165 15.7708 16.56 16.0807 16.6042 16.6562C16.5157 17.2318 16.2501 17.5195 15.8074 17.5195H12.8855V19.3125C13.7709 19.224 14.8777 19.0247 16.2058 18.7148C16.6928 18.6706 17.0248 18.9141 17.2019 19.4453C17.2462 20.0208 17.047 20.375 16.6042 20.5078C15.0548 20.9062 13.8152 21.1719 12.8855 21.3047V23.3633C12.8412 23.8503 12.5313 24.1159 11.9558 24.1602C11.336 24.1602 11.0261 23.9388 11.0261 23.4961V21.6367C10.849 21.681 10.672 21.7253 10.4949 21.7695C10.0522 21.8138 9.7644 21.5482 9.63159 20.9727C9.58732 20.3529 9.78654 19.9766 10.2292 19.8438C10.672 19.7109 10.9376 19.6445 11.0261 19.6445V10.4805ZM20.7878 20.2422C21.1863 19.7995 21.6069 19.224 22.0496 18.5156C22.4923 17.8073 22.4923 17.431 22.0496 17.3867H18.198C18.3751 17.431 18.6186 17.6302 18.9285 17.9844C18.9285 18.0729 18.9727 18.1615 19.0613 18.25C19.5925 18.9583 20.1681 19.6224 20.7878 20.2422Z" fill="#07C160"/>
</svg>
