<svg width="35" height="34" viewBox="0 0 35 34" fill="none" xmlns="http://www.w3.org/2000/svg">
<rect x="0.899919" y="0.566667" width="32.8667" height="32.8667" rx="16.4333" stroke="#07C160" stroke-width="1.13333"/>
<path d="M11.9543 10.0156H16.4036L16.3372 9.81641C16.2043 9.28516 16.4921 8.90885 17.2004 8.6875C17.8645 8.59896 18.3293 8.82031 18.595 9.35156L18.7942 10.0156H23.2434C24.3502 10.0156 24.9036 10.4805 24.9036 11.4102C24.9036 12.6497 24.7708 13.4688 24.5051 13.8672C24.2838 14.3542 23.9296 14.5534 23.4426 14.4648C22.9114 14.332 22.69 14 22.7786 13.4688C22.9114 13.026 22.9778 12.6497 22.9778 12.3398C22.9778 12.0742 22.8671 11.9414 22.6458 11.9414H12.22C12.0872 11.9857 12.0208 12.0521 12.0208 12.1406V13.668C11.9765 14.332 11.6444 14.6862 11.0247 14.7305C10.4049 14.6862 10.095 14.332 10.095 13.668V11.8086C10.0064 10.569 10.6262 9.97135 11.9543 10.0156ZM13.3489 14.5312C12.7734 14.5312 12.4635 14.2214 12.4192 13.6016C12.4635 13.026 12.7734 12.7161 13.3489 12.6719H21.2512C21.7382 12.7161 22.0038 13.026 22.0481 13.6016C22.0038 14.2214 21.7382 14.5312 21.2512 14.5312H18.8606C18.7278 14.5755 18.5728 14.6641 18.3958 14.7969C18.1744 14.974 18.0194 15.0625 17.9309 15.0625C18.0637 15.2839 18.1744 15.4609 18.2629 15.5938C18.6614 16.0807 18.9049 16.4349 18.9934 16.6562C20.4986 16.2578 21.8046 15.7487 22.9114 15.1289C23.4426 14.9076 23.8411 15.0846 24.1067 15.6602C24.2838 16.2357 24.1067 16.6562 23.5754 16.9219C22.9999 17.2318 22.4687 17.4531 21.9817 17.5859C22.5129 19.9323 23.5312 21.5703 25.0364 22.5C25.4791 22.8099 25.5012 23.2305 25.1028 23.7617C24.7043 24.2044 24.2616 24.2487 23.7747 23.8945C22.0924 22.6549 20.9192 20.7734 20.2551 18.25C20.1223 18.2943 19.9452 18.3385 19.7239 18.3828C20.0338 19.5339 20.1887 20.7292 20.1887 21.9688C20.233 23.9167 18.8163 24.6914 15.9387 24.293C15.2747 24.2044 14.9426 23.8503 14.9426 23.2305C15.0754 22.6549 15.4739 22.3893 16.1379 22.4336C17.8202 22.6107 18.5728 22.2122 18.3958 21.2383C18.3515 21.1497 18.3293 20.9727 18.3293 20.707C18.2851 20.4414 18.2629 20.2643 18.2629 20.1758C16.0494 21.8138 13.7473 22.987 11.3567 23.6953C10.7369 23.8281 10.3163 23.651 10.095 23.1641C9.96216 22.6771 10.2056 22.3229 10.8254 22.1016C13.3046 21.3932 15.6288 20.1315 17.7981 18.3164C17.6653 18.0065 17.5325 17.763 17.3997 17.5859C15.4517 19.0911 13.4153 20.1979 11.2903 20.9062C10.8033 21.0833 10.4491 20.9284 10.2278 20.4414C10.095 19.8659 10.2499 19.4674 10.6926 19.2461C12.5963 18.582 14.5221 17.5638 16.47 16.1914C16.3814 16.1471 16.315 16.0586 16.2708 15.9258C14.7213 16.7227 13.1497 17.3646 11.5559 17.8516C10.9804 18.0286 10.6041 17.8737 10.427 17.3867C10.2942 16.8112 10.4934 16.4128 11.0247 16.1914C12.4856 15.8372 13.9465 15.2839 15.4075 14.5312H13.3489Z" fill="#07C160"/>
</svg>
