<svg width="34" height="34" viewBox="0 0 34 34" fill="none" xmlns="http://www.w3.org/2000/svg">
<rect x="0.566667" y="0.566667" width="32.8667" height="32.8667" rx="16.4333" stroke="#07C160" stroke-width="1.13333"/>
<path d="M10.0273 11.2109C9.54036 11.2109 9.27474 10.901 9.23047 10.2812C9.27474 9.70573 9.54036 9.39583 10.0273 9.35156H14.6758C15.1628 9.39583 15.4062 9.70573 15.4062 10.2812C15.362 10.901 15.0964 11.2109 14.6094 11.2109H13.082C12.9935 11.4766 12.9271 11.7422 12.8828 12.0078C12.7057 12.7161 12.5729 13.2253 12.4844 13.5352H14.1445C14.5872 13.5794 14.8529 13.8672 14.9414 14.3984V22.5C14.9414 23.1641 14.5651 23.4961 13.8125 23.4961H11.2227C10.5586 23.4076 10.2044 23.0755 10.1602 22.5V17.7188C9.54036 17.8073 9.20833 17.5195 9.16406 16.8555C9.11979 16.6341 9.20833 16.3464 9.42969 15.9922C9.51823 15.8594 9.58464 15.7487 9.62891 15.6602C10.3372 14.2878 10.8242 12.8047 11.0898 11.2109H10.0273ZM12.2188 15.3945C12.0859 15.3945 12.0195 15.4609 12.0195 15.5938V21.6367C12.0195 21.7695 12.0859 21.8359 12.2188 21.8359H12.9492C13.0378 21.8359 13.1042 21.7695 13.1484 21.6367V15.5938C13.1042 15.5052 13.0378 15.4388 12.9492 15.3945H12.2188ZM16.5352 11.0117C16.0039 11.0117 15.7161 10.7018 15.6719 10.082C15.7161 9.50651 16.0039 9.19661 16.5352 9.15234H22.4453C23.375 9.10807 23.7956 9.61719 23.707 10.6797L23.3086 15.8594H23.7734C24.4375 15.8594 24.7695 16.3242 24.7695 17.2539C24.7253 18.4049 24.681 19.5339 24.6367 20.6406C24.6367 23.6953 23.1315 24.8242 20.1211 24.0273C19.5013 23.806 19.2357 23.3854 19.3242 22.7656C19.457 22.3229 19.8555 22.1458 20.5195 22.2344C21.9805 22.5885 22.7109 22.168 22.7109 20.9727C22.7552 20.1315 22.8216 19.2461 22.9102 18.3164C22.9102 17.918 22.7552 17.7188 22.4453 17.7188H17C16.2474 17.8073 15.9375 17.4531 16.0703 16.6562L16.5352 12.4062C16.6237 11.875 16.9557 11.6094 17.5312 11.6094C18.151 11.6979 18.4609 12.0078 18.4609 12.5391L18.1289 15.8594H21.3164L21.7812 11.3438C21.7812 11.1667 21.6484 11.056 21.3828 11.0117H16.5352ZM16.1367 21.7031C15.5169 21.7031 15.1849 21.3932 15.1406 20.7734C15.2292 20.1536 15.5833 19.8216 16.2031 19.7773H21.0508C21.6263 19.8216 21.9362 20.1536 21.9805 20.7734C21.8919 21.3932 21.5599 21.7031 20.9844 21.7031H16.1367Z" fill="#07C160"/>
</svg>
