<svg width="34" height="34" viewBox="0 0 34 34" fill="none" xmlns="http://www.w3.org/2000/svg">
<rect x="0.566667" y="0.566667" width="32.8667" height="32.8667" rx="16.4333" stroke="#07C160" stroke-width="1.13333"/>
<path d="M14.543 10.2812H16.6016L17.0664 9.41797C17.3763 8.84245 17.7969 8.66536 18.3281 8.88672C18.8594 9.19661 19.0143 9.66146 18.793 10.2812H23.3086C23.8398 10.3255 24.1276 10.6354 24.1719 11.2109C24.1276 11.7865 23.8398 12.0742 23.3086 12.0742H17.9961L16.8672 14.3984C16.7344 14.5755 16.7565 14.6641 16.9336 14.6641H18.5273V14.0664C18.5273 13.4023 18.8372 13.0482 19.457 13.0039C20.0326 13.0482 20.3424 13.4023 20.3867 14.0664V14.6641H23.3086C23.7513 14.7083 23.9948 15.0182 24.0391 15.5938C23.9948 16.1693 23.7513 16.457 23.3086 16.457H20.3867V17.8516H23.707C24.1497 17.8958 24.3932 18.2057 24.4375 18.7812C24.3932 19.3568 24.1497 19.6445 23.707 19.6445H20.3867V20.7734C20.3424 21.3932 20.0326 21.7253 19.457 21.7695C18.8372 21.7253 18.5273 21.3932 18.5273 20.7734V19.6445H14.543C14.056 19.6445 13.7904 19.3568 13.7461 18.7812C13.7904 18.2057 14.056 17.8958 14.543 17.8516H18.5273V16.457H15.207C14.5872 16.5013 14.2331 16.3685 14.1445 16.0586C14.056 15.7487 14.1888 15.2617 14.543 14.5977L15.9375 12.0742H14.543C14.0117 12.0742 13.7461 11.7865 13.7461 11.2109C13.7461 10.6354 14.0117 10.3255 14.543 10.2812ZM12.2852 12.1406C11.5768 11.6536 10.8685 11.1224 10.1602 10.5469C9.76172 10.237 9.67318 9.83854 9.89453 9.35156C10.2044 8.90885 10.6029 8.79818 11.0898 9.01953C11.931 9.59505 12.6615 10.1484 13.2812 10.6797C13.5911 11.0339 13.6133 11.4544 13.3477 11.9414C12.9935 12.3841 12.6393 12.4505 12.2852 12.1406ZM10.0938 16.1914C9.5625 16.1914 9.29688 15.8815 9.29688 15.2617C9.29688 14.6862 9.5625 14.3763 10.0938 14.332H12.2188C12.7943 14.4206 13.1042 14.7083 13.1484 15.1953V19.7773C13.4141 21.1055 14.9193 21.8138 17.6641 21.9023H24.0391C24.6146 21.9466 24.9245 22.2344 24.9688 22.7656C24.9245 23.3854 24.6146 23.7174 24.0391 23.7617H17.1328C14.9635 23.7174 13.3034 23.1198 12.1523 21.9688C11.9753 22.1016 11.7982 22.2565 11.6211 22.4336C11.0013 22.8763 10.6029 23.2083 10.4258 23.4297C9.98307 23.7396 9.58464 23.6732 9.23047 23.2305C8.83203 22.7435 8.8099 22.3008 9.16406 21.9023C10.0495 21.1055 10.7578 20.4193 11.2891 19.8438V16.5234C11.2448 16.3464 11.1562 16.2357 11.0234 16.1914H10.0938Z" fill="#07C160"/>
</svg>
