<svg width="35" height="34" viewBox="0 0 35 34" fill="none" xmlns="http://www.w3.org/2000/svg">
<rect x="1.23341" y="0.566667" width="32.8667" height="32.8667" rx="16.4333" stroke="#07C160" stroke-width="1.13333"/>
<path d="M9.89722 22.7656C10.6056 20.9505 10.9597 18.2721 10.9597 14.7305V10.4141C10.9154 9.61719 11.336 9.21875 12.2214 9.21875H23.9089C24.4845 9.26302 24.7944 9.57292 24.8386 10.1484V12.2734C24.8386 12.9375 24.5287 13.2474 23.9089 13.2031H12.8855V14.8633C12.8855 18.7148 12.5092 21.5482 11.7566 23.3633C11.491 23.8503 11.0483 24.0273 10.4285 23.8945C9.85295 23.6732 9.67586 23.2969 9.89722 22.7656ZM12.8855 11.1445V11.6094H22.7136C22.8464 11.6536 22.9128 11.5651 22.9128 11.3438V11.0781C22.9128 10.901 22.8243 10.8125 22.6472 10.8125H13.2175C13.0404 10.8568 12.9298 10.9674 12.8855 11.1445ZM13.8816 13.9336C15.7852 13.9779 17.5339 13.9557 19.1277 13.8672C20.7214 13.8229 22.2266 13.7122 23.6433 13.5352C24.1746 13.5352 24.4623 13.7786 24.5066 14.2656C24.4623 14.7083 24.1746 14.9518 23.6433 14.9961C23.0235 15.0846 22.1381 15.151 20.9871 15.1953C20.4115 15.1953 19.991 15.1953 19.7253 15.1953V15.6602H23.0457C23.5326 15.7044 23.7983 16.0143 23.8425 16.5898V17.9844C23.8425 18.6927 23.5769 19.0247 23.0457 18.9805H19.6589V19.5117H23.7097C24.5951 19.4674 25.0157 19.7995 24.9714 20.5078V22.8984C24.9272 23.8281 24.1967 24.3151 22.78 24.3594C20.7436 24.4479 20.0131 23.9388 20.5886 22.832C19.4376 22.9648 17.9102 23.0977 16.0066 23.2305C15.254 22.7435 15.254 22.2786 16.0066 21.8359C16.5821 21.8802 17.1798 21.8581 17.7996 21.7695V20.8398H15.3425C15.0769 20.8841 14.9441 20.9948 14.9441 21.1719V23.6289C14.8998 24.0716 14.5899 24.3151 14.0144 24.3594C13.3946 24.3151 13.0847 24.0716 13.0847 23.6289V20.375C13.0404 19.7995 13.3503 19.5117 14.0144 19.5117H17.7996V18.9805H14.8113C14.0144 18.9805 13.616 18.6706 13.616 18.0508V16.457C13.6602 15.9701 14.0587 15.7044 14.8113 15.6602H17.7996V15.1953C17.4897 15.2839 16.1615 15.306 13.8152 15.2617C13.4167 15.2617 13.2175 15.0182 13.2175 14.5312C13.2618 14.1328 13.4832 13.9336 13.8816 13.9336ZM15.5417 16.9883C15.4089 17.0326 15.3425 17.0768 15.3425 17.1211V17.5195C15.2983 17.6523 15.3647 17.6966 15.5417 17.6523H17.7996V16.9883H15.5417ZM19.6589 16.9883V17.6523H21.9167C22.0496 17.6966 22.116 17.6302 22.116 17.4531V17.1875C22.116 17.0547 22.0496 16.9883 21.9167 16.9883H19.6589ZM19.6589 21.6367L20.655 21.5703C20.5222 21.4375 20.4115 21.2161 20.323 20.9062H19.6589V21.6367ZM22.448 22.3008C22.4037 22.4336 22.2709 22.5221 22.0496 22.5664C22.7136 22.7435 23.0678 22.6549 23.1121 22.3008V21.1055C23.1121 20.9727 23.0457 20.9062 22.9128 20.9062H21.8503C21.8946 21.0391 21.9389 21.1497 21.9832 21.2383C22.2931 21.681 22.448 22.0352 22.448 22.3008Z" fill="#07C160"/>
</svg>
