<svg width="35" height="34" viewBox="0 0 35 34" fill="none" xmlns="http://www.w3.org/2000/svg">
<rect x="0.899919" y="0.566667" width="32.8667" height="32.8667" rx="16.4333" stroke="#07C160" stroke-width="1.13333"/>
<path d="M12.0208 10.8125C12.0208 11.5651 11.9986 12.0521 11.9543 12.2734H12.4856V9.48438C12.4856 8.9974 12.7734 8.73177 13.3489 8.6875C13.9244 8.73177 14.2343 8.9974 14.2786 9.48438V12.2734H14.6106C15.5403 12.8932 15.5403 13.513 14.6106 14.1328H14.2786V16.457C14.8098 15.9258 15.2968 15.8594 15.7395 16.2578H21.3176V15.1289H16.0715C15.4517 15.1289 15.1197 14.819 15.0754 14.1992C15.1197 13.6237 15.4517 13.3138 16.0715 13.2695H18.7942V12.0742H16.2043C15.6288 12.0742 15.3411 11.7865 15.3411 11.2109C15.3853 10.6797 15.6952 10.3919 16.2708 10.3477H18.7942V9.55078C18.7942 9.0638 19.1041 8.79818 19.7239 8.75391C20.3437 8.79818 20.6757 9.0638 20.72 9.55078V10.3477H23.9075C24.3944 10.3919 24.6601 10.6797 24.7043 11.2109C24.6601 11.7865 24.3944 12.0742 23.9075 12.0742H20.72V13.2695H24.4387C24.9257 13.3138 25.1913 13.6237 25.2356 14.1992C25.1913 14.819 24.9257 15.1289 24.4387 15.1289H23.177V16.2578H24.3059C24.8372 16.3021 25.1249 16.6341 25.1692 17.2539C25.1249 17.8737 24.8372 18.1836 24.3059 18.1836H23.177V22.5664C23.1327 23.4076 22.6236 23.8945 21.6497 24.0273C20.6757 24.0716 19.7903 24.0052 18.9934 23.8281C18.3293 23.6068 18.0859 23.2083 18.2629 22.6328C18.3515 22.1458 18.7499 21.9688 19.4583 22.1016C19.8124 22.2344 20.2551 22.2786 20.7864 22.2344C21.0963 22.2344 21.2734 22.0573 21.3176 21.7031V18.1836H18.0637C18.4622 18.582 18.927 19.2018 19.4583 20.043C19.8124 20.7513 19.7239 21.2161 19.1926 21.4375C18.7056 21.7474 18.2851 21.6367 17.9309 21.1055C17.4439 20.5299 17.0455 19.9544 16.7356 19.3789C16.47 18.8477 16.5364 18.4492 16.9348 18.1836H16.2043C15.7616 18.1836 15.5403 18.0508 15.5403 17.7852C15.496 17.8294 15.4517 17.8737 15.4075 17.918C15.1418 18.2279 14.7655 18.5156 14.2786 18.7812V23.2969C14.2343 23.7396 13.9244 24.0052 13.3489 24.0938C12.7734 24.0495 12.4856 23.806 12.4856 23.3633V19.5117C11.9986 19.7331 11.5116 19.9323 11.0247 20.1094C10.2278 20.4193 9.78507 20.1979 9.69653 19.4453C9.60799 18.9583 9.82935 18.6042 10.3606 18.3828C10.5377 18.2943 10.8254 18.1836 11.2239 18.0508C11.6223 17.8737 12.0429 17.6523 12.4856 17.3867V14.1328H11.7551C11.6666 14.7083 11.578 15.1732 11.4895 15.5273C11.3124 16.1471 10.914 16.4349 10.2942 16.3906C9.71867 16.3464 9.51945 15.9922 9.69653 15.3281C10.1392 13.8229 10.3827 12.2734 10.427 10.6797C10.3827 10.0156 10.6484 9.68359 11.2239 9.68359C11.7994 9.63932 12.065 10.0156 12.0208 10.8125Z" fill="#07C160"/>
</svg>
