<svg width="34" height="34" viewBox="0 0 34 34" fill="none" xmlns="http://www.w3.org/2000/svg">
<rect x="0.566667" y="0.566667" width="32.8667" height="32.8667" rx="16.4333" stroke="#07C160" stroke-width="1.13333"/>
<path d="M10.625 11.6758C10.0052 11.6758 9.67318 11.3438 9.62891 10.6797C9.67318 10.0599 10.0052 9.72786 10.625 9.68359H23.375C23.9505 9.72786 24.2826 10.0599 24.3711 10.6797C24.2826 11.3438 23.9505 11.6758 23.375 11.6758H18.6602V15.1953H23.2422C23.8177 15.2396 24.1497 15.5938 24.2383 16.2578C24.1497 16.9219 23.8177 17.2539 23.2422 17.2539H18.6602V21.5703H23.707C24.3268 21.6146 24.681 21.9245 24.7695 22.5C24.7695 23.1641 24.4596 23.5182 23.8398 23.5625H10.293C9.71745 23.5182 9.40755 23.1641 9.36328 22.5C9.40755 21.9245 9.71745 21.6146 10.293 21.5703H11.6211V14.4648C11.6211 13.8008 11.9531 13.4245 12.6172 13.3359C13.2812 13.4245 13.6354 13.8008 13.6797 14.4648V21.5703H16.5352V11.6758H10.625Z" fill="#07C160"/>
</svg>
