<svg width="34" height="34" viewBox="0 0 34 34" fill="none" xmlns="http://www.w3.org/2000/svg">
<rect x="0.566667" y="0.566667" width="32.8667" height="32.8667" rx="16.4333" stroke="#07C160" stroke-width="1.13333"/>
<path d="M9.36328 22.8984C9.80599 21.4375 10.0716 20.0208 10.1602 18.6484C10.293 17.2318 10.3594 14.5755 10.3594 10.6797C10.3151 9.75 10.7578 9.28516 11.6875 9.28516H22.9766C23.7292 9.28516 24.1055 9.59505 24.1055 10.2148V12.4062C24.1055 13.2031 23.7292 13.5794 22.9766 13.5352H12.2852C12.2852 18.3164 11.9753 21.5482 11.3555 23.2305C11.1341 23.7617 10.7135 23.9831 10.0938 23.8945C9.47396 23.7617 9.23047 23.4297 9.36328 22.8984ZM12.2852 11.2773V11.8086H22.0469C22.224 11.8086 22.3125 11.7422 22.3125 11.6094V11.2109C22.2682 11.0781 22.1797 11.0117 22.0469 11.0117H12.6172C12.3958 11.056 12.2852 11.1445 12.2852 11.2773ZM22.3789 13.8672C22.9544 13.8229 23.3307 14.0443 23.5078 14.5312C23.6406 15.151 23.4414 15.5052 22.9102 15.5938C22.4674 15.6823 21.8034 15.7708 20.918 15.8594C20.0326 15.9036 18.9479 15.9479 17.6641 15.9922V16.7227L23.375 16.457C23.8177 16.457 24.0612 16.7227 24.1055 17.2539C24.1055 17.7409 23.8841 18.0065 23.4414 18.0508L17.6641 18.3828V19.1797L23.7734 18.8477C24.2161 18.8477 24.4375 19.1354 24.4375 19.7109C24.4375 20.1979 24.2161 20.4635 23.7734 20.5078L17.6641 20.8398V21.6367C17.6641 22.1237 17.9961 22.3672 18.6602 22.3672H20.1875C21.8255 22.4557 22.7109 22.168 22.8438 21.5039C23.5521 20.6628 24.1719 20.7292 24.7031 21.7031C24.526 23.1198 23.4857 23.8503 21.582 23.8945H17.9961C16.4023 23.9388 15.6719 23.2526 15.8047 21.8359V20.9062L13.2148 21.0391C12.6836 21.0833 12.3958 20.8398 12.3516 20.3086C12.3516 19.7773 12.6172 19.4674 13.1484 19.3789L15.8047 19.2461V18.4492L13.4141 18.582C12.9271 18.6263 12.6393 18.3828 12.5508 17.8516C12.5508 17.3203 12.7943 17.0104 13.2812 16.9219L15.8047 16.7891V16.0586H13.6797C13.1927 16.0586 12.9271 15.7708 12.8828 15.1953C12.9714 14.6641 13.2591 14.3763 13.7461 14.332C15.7826 14.3763 17.4206 14.3542 18.6602 14.2656C19.944 14.1771 21.1836 14.0443 22.3789 13.8672Z" fill="#07C160"/>
</svg>
