<svg width="35" height="34" viewBox="0 0 35 34" fill="none" xmlns="http://www.w3.org/2000/svg">
<rect x="1.23341" y="0.566667" width="32.8667" height="32.8667" rx="16.4333" stroke="#07C160" stroke-width="1.13333"/>
<path d="M17.1355 11.6758V9.15234C17.1355 8.75391 17.4454 8.55469 18.0652 8.55469C18.685 8.59896 19.017 8.82031 19.0613 9.21875V11.6758H23.9753C24.5066 11.7201 24.7944 12.0521 24.8386 12.6719C24.7944 13.2917 24.5066 13.6016 23.9753 13.6016H19.0613V16.5898H23.5769C24.0639 16.6341 24.3295 16.9661 24.3738 17.5859C24.3295 18.2057 24.0639 18.5156 23.5769 18.5156H19.0613V21.7695H24.4402C24.9272 21.8138 25.1928 22.1016 25.2371 22.6328C25.1928 23.2083 24.9272 23.5182 24.4402 23.5625H10.8269C10.2957 23.5182 10.03 23.1862 10.03 22.5664C10.0743 22.0794 10.3621 21.8138 10.8933 21.7695H17.1355V18.5156H12.4871C11.9558 18.5156 11.6902 18.1836 11.6902 17.5195C11.7345 16.944 12.0444 16.6341 12.6199 16.5898H17.1355V13.6016H13.4832C12.9962 14.487 12.5092 15.2839 12.0222 15.9922C11.4467 16.6562 10.8712 16.8333 10.2957 16.5234C9.85295 16.1693 9.87508 15.6159 10.3621 14.8633C11.5131 13.3138 12.31 11.543 12.7527 9.55078C12.8412 9.0638 13.1954 8.86458 13.8152 8.95312C14.3907 9.08594 14.6563 9.39583 14.6121 9.88281C14.5235 10.1042 14.435 10.4141 14.3464 10.8125C14.2579 11.2109 14.1915 11.4987 14.1472 11.6758H17.1355Z" fill="#07C160"/>
</svg>
