<svg width="35" height="34" viewBox="0 0 35 34" fill="none" xmlns="http://www.w3.org/2000/svg">
<rect x="0.899919" y="0.566667" width="32.8667" height="32.8667" rx="16.4333" stroke="#07C160" stroke-width="1.13333"/>
<path d="M12.6184 12.6055C12.3528 12.3841 12.1093 12.1406 11.8879 11.875C11.5338 11.4766 11.1575 11.0781 10.759 10.6797C10.3163 10.237 10.3163 9.77214 10.759 9.28516C11.2017 8.93099 11.7109 8.95312 12.2864 9.35156C12.4192 9.52865 12.6848 9.81641 13.0833 10.2148C13.4374 10.6133 13.703 10.8789 13.8801 11.0117C14.4999 11.7643 14.6549 12.2956 14.345 12.6055H16.2708V9.48438C16.2708 8.86458 16.6249 8.53255 17.3333 8.48828C17.9973 8.53255 18.3515 8.86458 18.3958 9.48438V12.6055H20.2551C20.2551 12.2956 20.3437 12.0299 20.5208 11.8086C21.3619 10.9232 22.1145 10.082 22.7786 9.28516C23.1327 8.88672 23.5754 8.82031 24.1067 9.08594C24.5494 9.39583 24.6822 9.81641 24.5051 10.3477C23.9296 11.2331 23.2877 11.9857 22.5793 12.6055H23.177C23.9739 12.6055 24.3723 13.2031 24.3723 14.3984V22.5C24.2838 24.1823 22.8007 24.6914 19.9231 24.0273C19.1705 23.7617 18.8385 23.2969 18.927 22.6328C19.1041 22.1016 19.5689 21.9245 20.3215 22.1016C21.871 22.5 22.5572 22.3008 22.3801 21.5039V20.3086H12.4192V23.4297C12.3749 24.0938 12.0208 24.4258 11.3567 24.4258C10.7369 24.293 10.427 23.8945 10.427 23.2305V14.332C10.427 13.181 10.914 12.6055 11.8879 12.6055H12.6184ZM12.6848 14.4648C12.5077 14.4648 12.4192 14.5755 12.4192 14.7969V15.5273H22.3801V14.7969C22.3359 14.6198 22.2252 14.5091 22.0481 14.4648H12.6848ZM22.3801 17.3867H12.4192V18.4492H22.3801V17.3867Z" fill="#07C160"/>
</svg>
