<svg width="34" height="34" viewBox="0 0 34 34" fill="none" xmlns="http://www.w3.org/2000/svg">
<rect x="0.566667" y="0.566667" width="32.8667" height="32.8667" rx="16.4333" stroke="#07C160" stroke-width="1.13333"/>
<path d="M9.76172 13.1367C11.1784 12.2513 12.5508 10.9674 13.8789 9.28516C14.3216 8.66536 14.8307 8.44401 15.4062 8.62109C15.7161 8.79818 15.9154 8.9974 16.0039 9.21875H20.5859C21.25 9.26302 21.6927 9.41797 21.9141 9.68359C22.1354 9.94922 22.0911 10.3255 21.7812 10.8125C21.4714 11.2552 21.0951 11.7865 20.6523 12.4062C20.5195 12.5833 20.4089 12.7604 20.3203 12.9375H22.1797C23.1979 12.8932 23.6849 13.3802 23.6406 14.3984V17.4531C23.7292 18.6042 23.1979 19.1133 22.0469 18.9805H12.4844V20.707C11.9974 21.8581 13.3255 22.3451 16.4688 22.168H18.5938C20.6302 22.2122 21.8255 22.1237 22.1797 21.9023C22.6667 21.7695 22.9102 21.2161 22.9102 20.2422C22.9102 19.7552 23.1979 19.4896 23.7734 19.4453C24.349 19.4896 24.6589 19.7552 24.7031 20.2422C24.7031 21.7474 24.4154 22.6992 23.8398 23.0977C23.2643 23.5846 22.0469 23.8281 20.1875 23.8281H15.8711C12.0195 23.9167 10.2487 23.0534 10.5586 21.2383V14.9297C10.0716 15.1953 9.65104 15.1068 9.29688 14.6641C8.98698 14.0885 9.14193 13.5794 9.76172 13.1367ZM17.7969 12.9375C18.0625 12.6719 18.306 12.362 18.5273 12.0078C18.793 11.6536 18.9258 11.4102 18.9258 11.2773C18.9258 11.1445 18.7708 11.0781 18.4609 11.0781H15.0078L13.1484 12.9375H17.7969ZM21.5156 17.1211C21.6484 17.1211 21.7148 17.0547 21.7148 16.9219V14.9961C21.6706 14.9076 21.6042 14.8411 21.5156 14.7969H17.9961V17.1211H21.5156ZM12.4844 14.9297V17.1211H16.1367V14.7969H12.6836C12.5508 14.7969 12.4844 14.8411 12.4844 14.9297Z" fill="#07C160"/>
</svg>
