<svg width="34" height="34" viewBox="0 0 34 34" fill="none" xmlns="http://www.w3.org/2000/svg">
<rect x="0.566667" y="0.566667" width="32.8667" height="32.8667" rx="16.4333" stroke="#07C160" stroke-width="1.13333"/>
<path d="M18.3281 10.3477V9.28516C18.9479 8.44401 19.5677 8.44401 20.1875 9.28516V10.3477H23.5742C24.4154 10.4362 24.7695 10.9896 24.6367 12.0078C24.5924 12.0964 24.5703 12.1628 24.5703 12.207C24.4375 13.2253 24.1719 13.8672 23.7734 14.1328C22.6667 14.5312 22.1797 14.2214 22.3125 13.2031C22.3125 13.1589 22.3346 13.0924 22.3789 13.0039C22.5117 12.8268 22.6003 12.6497 22.6445 12.4727C22.6888 12.2956 22.6224 12.207 22.4453 12.207H20.1875V14.5312H22.8438C23.9505 14.5755 24.1497 15.5716 23.4414 17.5195C22.9544 18.8477 22.2682 20.043 21.3828 21.1055C22.1797 21.681 23.1094 22.1458 24.1719 22.5C24.8359 22.6771 25.0573 23.0755 24.8359 23.6953C24.526 24.2266 24.0391 24.3815 23.375 24.1602C22.3568 23.7617 21.1836 23.2083 19.8555 22.5C18.3503 23.2969 17 23.8724 15.8047 24.2266C15.2292 24.3594 14.8307 24.1823 14.6094 23.6953C14.388 23.0755 14.543 22.6771 15.0742 22.5C16.2253 22.2344 17.2878 21.7695 18.2617 21.1055C17.0221 19.6888 16.2031 18.1172 15.8047 16.3906H15.6055C15.4284 19.6224 14.9193 22.1016 14.0781 23.8281C13.7682 24.3594 13.3034 24.5365 12.6836 24.3594C12.1523 24.138 12.0195 23.7396 12.2852 23.1641C13.3034 21.1276 13.8125 18.5378 13.8125 15.3945V11.4766C13.8568 10.8125 14.2331 10.4362 14.9414 10.3477H18.3281ZM12.0859 12.0742C11.9089 11.9857 11.7096 11.8529 11.4883 11.6758C10.8685 11.1888 10.3594 10.8125 9.96094 10.5469C9.42969 10.1927 9.34115 9.75 9.69531 9.21875C10.0495 8.82031 10.5365 8.75391 11.1562 9.01953C11.8646 9.46224 12.5951 9.99349 13.3477 10.6133C13.7461 11.0117 13.7682 11.4544 13.4141 11.9414C13.0156 12.3841 12.5729 12.4284 12.0859 12.0742ZM15.6719 12.4727V14.5312H18.3281V12.207H15.8711C15.7383 12.207 15.6719 12.2956 15.6719 12.4727ZM12.0859 16.5234C11.6432 16.2578 11.0234 15.8815 10.2266 15.3945C10.0052 15.2174 9.85026 15.0846 9.76172 14.9961C9.23047 14.6862 9.11979 14.2656 9.42969 13.7344C9.82812 13.2917 10.3151 13.181 10.8906 13.4023C11.776 13.9336 12.5286 14.4206 13.1484 14.8633C13.5026 15.2617 13.5247 15.7044 13.2148 16.1914C12.8607 16.6784 12.4844 16.7891 12.0859 16.5234ZM19.8555 20.043C20.4753 19.3346 21.0286 18.3607 21.5156 17.1211C21.6927 16.6784 21.6263 16.4349 21.3164 16.3906H17.7969C18.3281 17.9401 19.0143 19.1576 19.8555 20.043ZM9.36328 22.7656C10.0716 21.2604 10.6471 19.6667 11.0898 17.9844C11.2669 17.4531 11.6432 17.2096 12.2188 17.2539C12.7943 17.3867 13.0599 17.7188 13.0156 18.25C12.6615 20.2865 12.0195 22.0352 11.0898 23.4961C10.7357 23.9831 10.293 24.1159 9.76172 23.8945C9.23047 23.6289 9.09766 23.2526 9.36328 22.7656Z" fill="#07C160"/>
</svg>
