<svg xmlns="http://www.w3.org/2000/svg" width="22" height="22" viewBox="0 0 22 22" fill="none">
<path fill-rule="evenodd" clip-rule="evenodd" d="M17.0827 2H4.91602C3.81145 2 2.91602 2.89543 2.91602 4V18C2.91602 19.1046 3.81144 20 4.91601 20H6.33268C6.88497 20 7.33268 20.4477 7.33268 21C7.33268 21.5523 6.88497 22 6.33268 22H4.91601C2.70687 22 0.916016 20.2091 0.916016 18V4C0.916016 1.79086 2.70688 0 4.91602 0H17.0827C19.2918 0 21.0827 1.79086 21.0827 4V6.33333C21.0827 6.88562 20.635 7.33333 20.0827 7.33333C19.5304 7.33333 19.0827 6.88562 19.0827 6.33333V4C19.0827 2.89543 18.1873 2 17.0827 2ZM4.58268 5.5C4.07642 5.5 3.66602 5.91041 3.66602 6.41667C3.66602 6.92293 4.07642 7.33333 4.58268 7.33333H8.24935C8.75561 7.33333 9.16602 6.92293 9.16602 6.41667C9.16602 5.91041 8.75561 5.5 8.24935 5.5H4.58268ZM4.58268 14.6667C4.07642 14.6667 3.66602 15.0771 3.66602 15.5833C3.66602 16.0896 4.07642 16.5 4.58268 16.5H8.24935C8.75561 16.5 9.16602 16.0896 9.16602 15.5833C9.16602 15.0771 8.75561 14.6667 8.24935 14.6667H4.58268ZM3.66602 11C3.66602 10.4937 4.07642 10.0833 4.58268 10.0833H6.87435C7.38061 10.0833 7.79102 10.4937 7.79102 11C7.79102 11.5063 7.38061 11.9167 6.87435 11.9167H4.58268C4.07642 11.9167 3.66602 11.5063 3.66602 11ZM21.0827 9.16667C21.0827 9.67293 20.6723 10.0833 20.166 10.0833C19.6598 10.0833 19.2493 9.67293 19.2493 9.16667C19.2493 8.66041 19.6598 8.25 20.166 8.25C20.6723 8.25 21.0827 8.66041 21.0827 9.16667ZM21.9993 16C21.9993 19.3137 19.313 22 15.9993 22C12.6856 22 9.99927 19.3137 9.99927 16C9.99927 12.6863 12.6856 10 15.9993 10C19.313 10 21.9993 12.6863 21.9993 16ZM18.1316 17.2643C18.4727 17.2643 18.7492 17.5362 18.7492 17.8722C18.7492 18.2076 18.4727 18.4802 18.1316 18.4802H16.8963V19.2401C16.8963 19.6598 16.5507 20 16.1242 20C15.6978 20 15.3522 19.6598 15.3522 19.2401V18.4802H14.1169C13.7758 18.4802 13.4993 18.2076 13.4993 17.8722C13.4993 17.5361 13.7758 17.2643 14.1169 17.2643H15.3522V16.6563H14.1169C13.7758 16.6563 13.4993 16.3838 13.4993 16.0484C13.4993 15.7124 13.7758 15.4404 14.1169 15.4404H15.3522V15.3989L13.9815 14.05C13.7386 13.8107 13.7386 13.4231 13.9815 13.1841C14.2244 12.9451 14.6181 12.9451 14.8611 13.1841L16.1138 14.4169L17.3715 13.179C17.6144 12.9403 18.0081 12.9403 18.251 13.179C18.494 13.4183 18.494 13.806 18.251 14.0449L16.8963 15.3784V15.4404H18.1316C18.4727 15.4404 18.7493 15.7124 18.7493 16.0484C18.7493 16.3838 18.4727 16.6563 18.1316 16.6563H16.8963V17.2643L18.1316 17.2643Z" fill="#07C160"/>
</svg>