<svg width="23" height="23" viewBox="0 0 23 23" fill="none" xmlns="http://www.w3.org/2000/svg">
<path fill-rule="evenodd" clip-rule="evenodd" d="M22.8606 9.53764C22.4884 6.79919 21.0991 4.3014 18.9693 2.54115C16.8394 0.780901 14.1249 -0.112808 11.3659 0.0378102C10.8319 0.0610198 10.3004 0.124635 9.77602 0.228194C8.29689 0.541181 6.89742 1.15368 5.66378 2.02798L12.232 4.20029L11.7655 2.01322C13.8768 1.96218 15.9387 2.65557 17.5901 3.97198C19.2415 5.28839 20.3773 7.14395 20.7986 9.21378C21.1865 11.1958 20.9013 13.2415 20.0032 15.0314C19.8566 15.3236 19.8835 15.6735 20.0561 15.9513C20.4198 16.5368 21.3365 16.704 21.659 16.0947C21.7838 15.8586 21.9 15.6186 22.0069 15.3755C22.8082 13.5537 23.1098 11.5373 22.8606 9.53764ZM10.3538 21.8631C11.0375 21.9635 11.4429 21.1198 11.1818 20.4799C11.0588 20.1784 10.7932 19.9519 10.4721 19.8978C10.0309 19.8234 9.59504 19.7161 9.17103 19.5775C8.45778 19.3443 7.77479 19.0222 7.13859 18.6176C6.11769 17.9682 5.23824 17.1196 4.55284 16.1224C3.86744 15.1253 3.39017 14 3.14957 12.8141C2.88179 11.5566 2.89503 10.2554 3.18835 9.00352C3.23696 8.76269 3.19524 8.51241 3.07114 8.30042C2.94704 8.08842 2.74925 7.92955 2.5155 7.85411C2.38183 7.809 2.24012 7.7927 2.09969 7.80628C1.95926 7.81986 1.82329 7.86301 1.70072 7.9329C1.57815 8.00279 1.47175 8.09784 1.38851 8.21179C1.30528 8.32574 1.2471 8.45602 1.21779 8.59405C0.811268 10.4227 0.878353 12.3248 1.41269 14.12C1.94702 15.9153 2.9309 17.5443 4.27107 18.8525C5.61124 20.1608 7.26329 21.105 9.07064 21.5957C9.49388 21.7106 9.92236 21.7997 10.3538 21.8631Z" fill="#07C160"/>
<path d="M5.42383 5.23438H12.3848C12.7285 5.23438 12.8574 5.46354 12.7715 5.92188C12.6855 6.38021 12.571 6.73828 12.4277 6.99609H13.6309C14.0892 6.99609 14.3184 7.22526 14.3184 7.68359C14.3184 7.94141 14.2467 8.3138 14.1035 8.80078C14.1035 8.85807 14.1035 8.88672 14.1035 8.88672C13.903 10.6341 12.972 11.1784 11.3105 10.5195C11.0814 10.4622 10.9954 10.2474 11.0527 9.875C11.1673 9.53125 11.3392 9.35938 11.5684 9.35938C12.3704 9.67448 12.7715 9.5026 12.7715 8.84375C12.7715 8.78646 12.7858 8.67188 12.8145 8.5C12.8431 8.32812 12.8717 8.19922 12.9004 8.11328H11.2676C11.0384 8.51432 10.666 8.92969 10.1504 9.35938C10.666 9.67448 10.9382 9.94661 10.9668 10.1758C10.9954 10.5482 10.8236 10.7773 10.4512 10.8633C10.3079 10.8633 10.0501 10.7487 9.67773 10.5195C9.50586 10.4049 9.30534 10.276 9.07617 10.1328C8.15951 10.6198 7.31445 10.8776 6.54102 10.9062C6.25456 10.9349 6.06836 10.7917 5.98242 10.4766C5.95378 10.1042 6.06836 9.875 6.32617 9.78906C6.35482 9.78906 6.39779 9.78906 6.45508 9.78906C7.08529 9.70312 7.57227 9.58854 7.91602 9.44531C7.57227 9.35938 7.38607 9.17318 7.35742 8.88672C7.38607 8.54297 7.57227 8.35677 7.91602 8.32812C8.17383 8.32812 8.56055 8.47135 9.07617 8.75781C9.33398 8.64323 9.5918 8.42839 9.84961 8.11328H7.5293C6.75586 9.11589 6.06836 9.84635 5.4668 10.3047C5.15169 10.5625 4.85091 10.5482 4.56445 10.2617C4.27799 9.88932 4.26367 9.57422 4.52148 9.31641C4.55013 9.31641 4.60742 9.27344 4.69336 9.1875C5.95378 8.21354 6.71289 7.29688 6.9707 6.4375H5.4668C5.15169 6.4375 4.97982 6.2513 4.95117 5.87891C4.97982 5.47786 5.13737 5.26302 5.42383 5.23438ZM8.08789 6.95312H10.9238C11.153 6.63802 11.196 6.46615 11.0527 6.4375H8.30273C8.24544 6.60938 8.17383 6.78125 8.08789 6.95312ZM5.33789 13.3555V11.6797C5.30924 11.25 5.48112 11.0352 5.85352 11.0352H13.2871C13.6022 11.0638 13.7884 11.2643 13.8457 11.6367V13.3555H14.3184C14.5475 13.3841 14.6764 13.599 14.7051 14C14.7051 14.3438 14.5905 14.5299 14.3613 14.5586H4.86523C4.60742 14.5299 4.47852 14.3438 4.47852 14C4.47852 13.599 4.60742 13.3841 4.86523 13.3555H5.33789ZM11.2676 13.3555H12.4707V12.2812H11.2676V13.3555ZM6.54102 12.2812V13.3555H7.74414V12.2812H6.54102ZM8.99023 13.3555H10.0645V12.2812H8.99023V13.3555Z" fill="#07C160"/>
<path fill-rule="evenodd" clip-rule="evenodd" d="M14.5562 22.3901C16.653 23.0836 18.9152 21.9455 19.6089 19.8481C20.3025 17.7507 19.165 15.4882 17.0682 14.7947C14.9713 14.1012 12.7092 15.2393 12.0155 17.3368C11.3218 19.4342 12.4593 21.6966 14.5562 22.3901ZM14.3063 15.6093C14.2524 15.8219 14.3368 15.965 14.5593 16.0386L18.3866 17.3044C18.5795 17.3682 18.7251 17.3012 18.8235 17.1033C18.8576 16.9006 18.7806 16.76 18.5927 16.6814L14.7653 15.4155C14.5379 15.3568 14.3849 15.4214 14.3063 15.6093ZM13.4715 16.7897C13.4177 17.0023 13.4872 17.1405 13.68 17.2043L14.5701 17.4987L14.0306 18.1596C13.8729 18.3378 13.809 18.4813 13.8389 18.5899C13.854 18.6936 13.9752 18.7749 14.2027 18.8336L17.0287 19.7683C17.098 19.8076 17.1302 19.8594 17.1254 19.9237C16.8846 20.5023 16.6358 20.7821 16.3788 20.7629C15.8895 20.6999 15.2489 20.3975 14.4571 19.8558C14.2393 19.718 14.0516 19.7382 13.8939 19.9164C13.7905 20.0797 13.8354 20.2427 14.0285 20.4053C15.1122 21.1093 15.9975 21.4432 16.6842 21.407C17.109 21.3665 17.4982 20.8863 17.8518 19.9664C17.9942 19.5856 17.8998 19.3487 17.5685 19.2556L14.876 18.3651C14.7969 18.3554 14.7845 18.3184 14.8387 18.254L15.2599 17.7268L18.353 18.7498C18.531 18.8086 18.6667 18.7466 18.7602 18.5635C18.814 18.3509 18.7544 18.2078 18.5813 18.1341L13.8861 16.5812C13.6883 16.5323 13.5502 16.6018 13.4715 16.7897Z" fill="#07C160"/>
</svg>
