<svg xmlns="http://www.w3.org/2000/svg" width="22" height="22" viewBox="0 0 22 22" fill="none">
  <path fill-rule="evenodd" clip-rule="evenodd" d="M20.4393 4.64558L20.5284 4.40681C20.6731 4.01871 21.1051 3.82145 21.4932 3.9662C21.8813 4.11096 22.0786 4.54292 21.9338 4.93102L21.1962 6.90866C21.0514 7.29675 20.6195 7.49402 20.2314 7.34926L18.2537 6.61163C17.8656 6.46687 17.6684 6.03491 17.8131 5.64681C17.9579 5.25872 18.3898 5.06145 18.7779 5.20621L19.1002 5.3264C18.1246 3.64743 16.6494 2.29473 14.8782 1.47187C14.5265 1.30849 14.3253 0.921712 14.4257 0.547141C14.5404 0.119154 14.9984 -0.120676 15.4022 0.0616637C17.5261 1.02066 19.2909 2.63441 20.4393 4.64558ZM13.9318 6.0187C11.8106 6.15871 9.902 7.07685 8.48887 8.49032C8.49487 8.43299 8.49858 8.37372 8.5 8.3125C8.5 8.1875 8.46875 7.97917 8.40625 7.6875V7.46875H9.59375C9.78125 7.46875 9.875 7.3125 9.875 7C9.83333 6.72917 9.71875 6.58333 9.53125 6.5625H7.9375C7.8125 6.33333 7.73958 6.19792 7.71875 6.15625C7.69792 6.13542 7.69792 6.10417 7.71875 6.0625C8.34375 5.70833 8.80208 5.42708 9.09375 5.21875C9.51042 4.86458 9.51042 4.57292 9.09375 4.34375H5.65625C5.38542 4.36458 5.23958 4.52083 5.21875 4.8125C5.23958 5.10417 5.38542 5.25 5.65625 5.25H7.3125C7.35417 5.27083 7.36458 5.29167 7.34375 5.3125C7.28125 5.35417 7.20833 5.40625 7.125 5.46875C6.89583 5.61458 6.72917 5.70833 6.625 5.75C6.45833 5.875 6.42708 6.02083 6.53125 6.1875L6.84375 6.59375H5.125C4.85417 6.61458 4.69792 6.76042 4.65625 7.03125C4.65625 7.34375 4.79167 7.5 5.0625 7.5H7.375C7.4375 7.64583 7.47917 7.85417 7.5 8.125C7.52083 8.625 7.3125 8.85417 6.875 8.8125C6.6875 8.8125 6.47917 8.80208 6.25 8.78125C6.0625 8.76042 5.90625 8.72917 5.78125 8.6875C5.40625 8.58333 5.19792 8.6875 5.15625 9C5.03125 9.3125 5.22917 9.53125 5.75 9.65625C6.0625 9.71875 6.46875 9.75 6.96875 9.75C7.1687 9.7375 7.34907 9.70835 7.50987 9.66253C6.659 10.8897 6.12298 12.3518 6.0187 13.9318C2.61729 13.4546 0 10.5329 0 7C0 3.13401 3.13401 2.52981e-10 7 2.52981e-10C10.5329 2.52981e-10 13.4546 2.61729 13.9318 6.0187ZM2.75 2.96875H4.6875L4.75 2.84375C4.83333 2.69792 4.89583 2.58333 4.9375 2.5C5.02083 2.375 5.20833 2.34375 5.5 2.40625C5.77083 2.46875 5.88542 2.57292 5.84375 2.71875C5.79375 2.86875 5.76375 2.95208 5.75375 2.96875H9.4375C9.60417 2.98958 9.69792 3.14583 9.71875 3.4375C9.71875 3.75 9.63542 3.90625 9.46875 3.90625H5.375C5.0625 4.46875 4.69792 5 4.28125 5.5V9.4375C4.26042 9.6875 4.09375 9.82292 3.78125 9.84375C3.46875 9.84375 3.3125 9.71875 3.3125 9.46875V6.40625C3.14583 6.59375 2.98958 6.6875 2.84375 6.6875C2.48958 6.70833 2.32292 6.54167 2.34375 6.1875C2.34375 6.04167 2.46875 5.86458 2.71875 5.65625C2.82292 5.59375 2.90625 5.53125 2.96875 5.46875C3.40625 5.11458 3.84375 4.59375 4.28125 3.90625H2.71875C2.53125 3.90625 2.4375 3.75 2.4375 3.4375C2.45833 3.14583 2.5625 2.98958 2.75 2.96875ZM22 14.5C22 18.6421 18.6421 22 14.5 22C10.3579 22 7 18.6421 7 14.5C7 10.3579 10.3579 7 14.5 7C18.6421 7 22 10.3579 22 14.5ZM10.0938 10.1875H14.5078C14.7682 10.1875 14.9115 10.3438 14.9375 10.6562H17.4375C18.0885 10.6302 18.401 10.9427 18.375 11.5938C18.3229 12.7656 17.9062 14.263 17.125 16.0859C17.3333 16.5026 17.724 17.0625 18.2969 17.7656C18.401 17.9219 18.4792 18 18.5312 18C18.6615 18.5729 18.4922 18.8724 18.0234 18.8984C17.5807 18.8203 17.0599 18.2865 16.4609 17.2969C16.1484 17.7396 15.8099 18.1302 15.4453 18.4688C14.7422 19.0938 14.2995 19.0677 14.1172 18.3906C14.0911 18.7552 13.8958 18.9635 13.5312 19.0156C13.1406 19.0417 12.9323 18.8854 12.9062 18.5469V17.4141L9.97656 18.1172C9.63802 18.1693 9.42969 18.0781 9.35156 17.8438C9.27344 17.4792 9.39062 17.2318 9.70312 17.1016L10.3672 16.9062V11.3203H10.1328C9.82031 11.3203 9.65104 11.138 9.625 10.7734C9.625 10.4089 9.78125 10.2135 10.0938 10.1875ZM12.9062 11.3203H11.5781V12.2188H12.9062V11.3203ZM16.9297 11.8672H14.9766C14.638 11.8672 14.4818 11.6849 14.5078 11.3203H14.1172V18.0781C14.1432 18.026 14.2344 17.9479 14.3906 17.8438C15.1198 17.1406 15.5885 16.5677 15.7969 16.125C15.1979 14.7969 14.8203 13.6771 14.6641 12.7656C14.612 12.4271 14.7682 12.2448 15.1328 12.2188C15.4714 12.2188 15.7057 12.388 15.8359 12.7266C16.0443 13.5859 16.2526 14.237 16.4609 14.6797C16.7474 13.9245 16.9688 13.0521 17.125 12.0625C17.125 11.9323 17.0599 11.8672 16.9297 11.8672ZM11.5781 14.2891H12.9062V13.3516H11.5781V14.2891ZM11.5781 16.6328L12.9062 16.3203V15.4219H11.5781V16.6328ZM1.45306 17.5932L1.54212 17.3544C2.69052 19.3656 4.45533 20.9793 6.57922 21.9383C6.98305 22.1207 7.44106 21.8808 7.55574 21.4529C7.65611 21.0783 7.45496 20.6915 7.10328 20.5281C5.33202 19.7053 3.85682 18.3526 2.88128 16.6736L3.20352 16.7938C3.59162 16.9385 4.02358 16.7413 4.16834 16.3532C4.31309 15.9651 4.11582 15.5331 3.72773 15.3884L1.75009 14.6507C1.36199 14.506 0.930032 14.7032 0.785276 15.0913L0.0476394 17.069C-0.097116 17.4571 0.100151 17.889 0.488247 18.0338C0.876343 18.1786 1.3083 17.9813 1.45306 17.5932Z" fill="#07C160"/>
</svg>