<svg xmlns="http://www.w3.org/2000/svg" width="22" height="22" viewBox="0 0 22 22" fill="none">
  <g clip-path="url(#clip0_104_15340)">
    <path fill-rule="evenodd" clip-rule="evenodd" d="M0.604396 5.35113C-0.201465 5.81639 -0.201466 6.97955 0.604395 7.44481L7.85714 11.6322C8.663 12.0975 9.67033 11.5159 9.67033 10.5853V9.05266H14.8681H15.9973C18.1194 9.05266 20.1355 9.97994 21.5165 11.5911C22.385 7.683 19.4111 3.97574 15.4076 3.97574H14.2637H9.67033V2.21059C9.67033 1.28007 8.663 0.698487 7.85714 1.16375L0.604396 5.35113ZM21.3956 17.5894C22.2015 17.1241 22.2015 15.9609 21.3956 15.4957L14.1429 11.3083C13.337 10.843 12.3297 11.4246 12.3297 12.3551V13.8878H7.13187H6.00269C3.88064 13.8878 1.86453 12.9605 0.483517 11.3494C-0.384955 15.2575 2.58891 18.9647 6.59236 18.9647H7.73626H12.3297V20.7299C12.3297 21.6604 13.337 22.242 14.1429 21.7767L21.3956 17.5894Z" fill="#07C160"/>
  </g>
  <defs>
    <clipPath id="clip0_104_15340">
      <rect width="22" height="22" fill="white"/>
    </clipPath>
  </defs>
</svg>