<svg xmlns="http://www.w3.org/2000/svg" width="22" height="22" viewBox="0 0 22 22" fill="none">
  <path d="M13.2649 5.52089H7.86141C6.96028 5.52089 6.17471 4.48784 5.64168 3.53467C5.08096 2.53199 4.56851 1.12859 5.41079 0.34735C5.70601 0.0735328 6.16703 -0.0659215 6.87831 0.0304815C7.70207 0.140973 8.28639 0.448351 8.82841 0.73348C9.39409 1.03106 9.91371 1.3044 10.6114 1.3044C11.2162 1.3044 11.6383 1.03103 12.0917 0.737369C12.639 0.382854 13.232 -0.0012161 14.2473 0.0304815C14.9425 0.0515169 15.3927 0.177705 15.684 0.383381C16.6229 1.0464 16.0462 2.53228 15.485 3.53534C14.9517 4.48832 14.166 5.52089 13.2649 5.52089Z" fill="#07C160"/>
  <path fill-rule="evenodd" clip-rule="evenodd" d="M13.5608 6.62077H7.86121C1.55062 6.62077 0 18.7953 0 18.7953C0 20.395 1.32021 21.9997 2.94681 21.9997H18.4724C20.1004 21.9997 21.4217 20.395 21.4217 18.7953C21.4217 18.7953 19.8704 6.62077 13.5608 6.62077ZM10.7331 20.5346C14.1082 20.5346 16.8443 17.7985 16.8443 14.4234C16.8443 11.0483 14.1082 8.31217 10.7331 8.31217C7.35796 8.31217 4.62187 11.0483 4.62187 14.4234C4.62187 17.7985 7.35796 20.5346 10.7331 20.5346Z" fill="#07C160"/>
  <path d="M12.854 15.2643C13.1952 15.2643 13.4717 15.5362 13.4717 15.8722C13.4717 16.2076 13.1952 16.4802 12.854 16.4802H11.6188V17.2401C11.6188 17.6598 11.2732 18 10.8467 18C10.4203 18 10.0747 17.6598 10.0747 17.2401V16.4802H8.83938C8.49827 16.4802 8.22176 16.2076 8.22176 15.8722C8.22176 15.5361 8.49829 15.2643 8.83938 15.2643H10.0747V14.6563H8.83938C8.49827 14.6563 8.22176 14.3838 8.22176 14.0484C8.22176 13.7124 8.49829 13.4404 8.83938 13.4404H10.0747V13.3989L8.70397 12.05C8.46106 11.8107 8.46106 11.4231 8.70397 11.1841C8.94689 10.9451 9.34061 10.9451 9.58354 11.1841L10.8363 12.4169L12.094 11.179C12.3369 10.9403 12.7306 10.9403 12.9735 11.179C13.2165 11.4183 13.2165 11.806 12.9735 12.0449L11.6188 13.3784V13.4404H12.8541C13.1952 13.4404 13.4718 13.7124 13.4718 14.0484C13.4718 14.3838 13.1952 14.6563 12.8541 14.6563H11.6188V15.2643L12.854 15.2643Z" fill="#07C160"/>
</svg>