<svg width="109" height="109" viewBox="0 0 109 109" fill="none" xmlns="http://www.w3.org/2000/svg">
<rect x="0.5" y="0.5" width="108" height="108" rx="11.5" fill="#F4F4F4" stroke="#C0C0C0" stroke-dasharray="2 2"/>
<path fill-rule="evenodd" clip-rule="evenodd" d="M53.4878 25.8965C51.6149 25.8965 50.0966 27.4148 50.0966 29.2876V51.33H28.0542C26.1814 51.33 24.6631 52.8483 24.6631 54.7212C24.6631 56.594 26.1814 58.1123 28.0542 58.1123H50.0966V80.1548C50.0966 82.0277 51.6149 83.546 53.4878 83.546C55.3606 83.546 56.8789 82.0277 56.8789 80.1548V58.1123H78.9214C80.7943 58.1123 82.3126 56.594 82.3126 54.7212C82.3126 52.8483 80.7943 51.33 78.9214 51.33H56.8789V29.2876C56.8789 27.4148 55.3606 25.8965 53.4878 25.8965Z" fill="#C0C0C0"/>
</svg>
