<svg width="31" height="32" viewBox="0 0 31 32" fill="none" xmlns="http://www.w3.org/2000/svg">
<g clip-path="url(#clip0_2731_145794)">
<path fill-rule="evenodd" clip-rule="evenodd" d="M11.3799 2.8855C11.3772 1.8484 10.5371 1.01271 9.49998 1.01544C8.46287 1.01817 7.62718 1.85826 7.62991 2.89536L7.63484 4.77036L4.82235 4.77775C3.26962 4.78183 2.01317 6.0449 2.01725 7.59763L2.02465 10.4101L28.2746 10.3411L28.2672 7.52863C28.2631 5.9759 27 4.71945 25.4473 4.72353L22.6348 4.73092L22.6299 2.85593C22.6271 1.81882 21.787 0.98314 20.7499 0.985866C19.7128 0.988592 18.8771 1.82868 18.8799 2.86579L18.8848 4.74078L11.3848 4.7605L11.3799 2.8855ZM28.2795 12.2161L2.02957 12.2851L2.07147 28.2226C2.07555 29.7753 3.33863 31.0317 4.89135 31.0277L25.5163 30.9734C27.069 30.9694 28.3255 29.7063 28.3214 28.1536L28.2795 12.2161ZM12.0285 27.2192L14.9535 27.2192L19.5435 16.8242L19.5435 15.1442L11.4285 15.1442L11.4435 17.6792L16.3635 17.6792L12.0285 27.2192Z" fill="url(#paint0_linear_2731_145794)"/>
</g>
<defs>
<linearGradient id="paint0_linear_2731_145794" x1="15.125" y1="1.00065" x2="15.2038" y2="31.0005" gradientUnits="userSpaceOnUse">
<stop stop-color="#01DE6A"/>
<stop offset="1" stop-color="#03AE55"/>
</linearGradient>
<clipPath id="clip0_2731_145794">
<rect width="30" height="30" fill="white" transform="translate(0 1.03955) rotate(-0.15062)"/>
</clipPath>
</defs>
</svg>
