<svg width="31" height="32" viewBox="0 0 31 32" fill="none" xmlns="http://www.w3.org/2000/svg">
<g clip-path="url(#clip0_2731_145815)">
<path fill-rule="evenodd" clip-rule="evenodd" d="M11.3799 2.8855C11.3772 1.8484 10.5371 1.01271 9.49998 1.01544C8.46287 1.01817 7.62718 1.85826 7.62991 2.89536L7.63484 4.77036L4.82235 4.77775C3.26962 4.78183 2.01317 6.0449 2.01725 7.59763L2.02465 10.4101L28.2746 10.3411L28.2672 7.52863C28.2631 5.9759 27 4.71945 25.4473 4.72353L22.6348 4.73092L22.6299 2.85593C22.6271 1.81882 21.787 0.98314 20.7499 0.985866C19.7128 0.988592 18.8771 1.82868 18.8799 2.86579L18.8848 4.74078L11.3848 4.7605L11.3799 2.8855ZM28.2795 12.2161L2.02957 12.2851L2.07147 28.2226C2.07555 29.7753 3.33863 31.0317 4.89135 31.0277L25.5163 30.9734C27.069 30.9694 28.3255 29.7063 28.3214 28.1536L28.2795 12.2161ZM9.64312 27.2192L12.2681 27.2192L12.2681 15.1442L10.0631 15.1442L7.00312 16.7192L7.00312 19.4492L9.64313 18.0842L9.64312 27.2192ZM21.2632 19.7942C20.7032 19.4642 20.0382 19.2992 19.2682 19.2992C18.6582 19.2992 18.0932 19.4292 17.5732 19.6892L17.7682 17.5292L22.4482 17.5292L22.4482 15.1442L15.3082 15.1442L14.7832 22.2092L17.0332 22.6742C17.1932 22.3542 17.4182 22.1092 17.7082 21.9392C18.0082 21.7692 18.3382 21.6842 18.6982 21.6842C19.2382 21.6842 19.6582 21.8342 19.9582 22.1342C20.2582 22.4242 20.4082 22.8342 20.4082 23.3642C20.4082 23.8742 20.2532 24.2792 19.9432 24.5792C19.6332 24.8792 19.2182 25.0292 18.6982 25.0292C18.2982 25.0292 17.9382 24.9192 17.6182 24.6992C17.3082 24.4692 17.0832 24.1592 16.9432 23.7692L14.5282 24.5492C14.7882 25.4092 15.2982 26.1042 16.0582 26.6342C16.8182 27.1642 17.6982 27.4292 18.6982 27.4292C19.5782 27.4292 20.3432 27.2642 20.9932 26.9342C21.6432 26.5942 22.1432 26.1142 22.4932 25.4942C22.8432 24.8742 23.0182 24.1392 23.0182 23.2892C23.0182 22.4892 22.8682 21.7892 22.5682 21.1892C22.2682 20.5892 21.8332 20.1242 21.2632 19.7942Z" fill="url(#paint0_linear_2731_145815)"/>
</g>
<defs>
<linearGradient id="paint0_linear_2731_145815" x1="15.125" y1="1.00065" x2="15.2038" y2="31.0005" gradientUnits="userSpaceOnUse">
<stop stop-color="#01DE6A"/>
<stop offset="1" stop-color="#03AE55"/>
</linearGradient>
<clipPath id="clip0_2731_145815">
<rect width="30" height="30" fill="white" transform="translate(0 1.03955) rotate(-0.15062)"/>
</clipPath>
</defs>
</svg>
