<svg width="31" height="32" viewBox="0 0 31 32" fill="none" xmlns="http://www.w3.org/2000/svg">
<g clip-path="url(#clip0_2731_145773)">
<path fill-rule="evenodd" clip-rule="evenodd" d="M11.3799 2.8855C11.3772 1.8484 10.5371 1.01271 9.49998 1.01544C8.46287 1.01817 7.62718 1.85826 7.62991 2.89536L7.63484 4.77036L4.82235 4.77775C3.26962 4.78183 2.01317 6.0449 2.01725 7.59763L2.02465 10.4101L28.2746 10.3411L28.2672 7.52863C28.2631 5.9759 27 4.71945 25.4473 4.72353L22.6348 4.73092L22.6299 2.85593C22.6271 1.81882 21.787 0.98314 20.7499 0.985866C19.7128 0.988592 18.8771 1.82868 18.8799 2.86579L18.8848 4.74078L11.3848 4.7605L11.3799 2.8855ZM28.2795 12.2161L2.02957 12.2851L2.07147 28.2226C2.07555 29.7753 3.33863 31.0317 4.89135 31.0277L25.5163 30.9734C27.069 30.9694 28.3255 29.7063 28.3214 28.1536L28.2795 12.2161ZM17.5296 20.2142C17.0296 19.9042 16.4896 19.7542 15.9096 19.7642L15.8796 19.6892L18.6096 17.3342L18.6096 15.1442L11.3046 15.1442L11.3046 17.6042L15.1296 17.6042L12.3996 20.2892L13.8396 22.1342C14.0496 22.0042 14.2296 21.9142 14.3796 21.8642C14.5396 21.8042 14.7096 21.7742 14.8896 21.7742C15.3996 21.7742 15.8046 21.9242 16.1046 22.2242C16.4046 22.5142 16.5546 22.9092 16.5546 23.4092C16.5546 23.8992 16.4046 24.2942 16.1046 24.5942C15.8146 24.8842 15.4296 25.0292 14.9496 25.0292C14.0396 25.0292 13.4346 24.5642 13.1346 23.6342L10.7196 24.4742C11.0696 25.3842 11.6046 26.1042 12.3246 26.6342C13.0446 27.1642 13.9246 27.4292 14.9646 27.4292C15.7746 27.4292 16.4996 27.2592 17.1396 26.9192C17.7796 26.5792 18.2746 26.1042 18.6246 25.4942C18.9846 24.8842 19.1646 24.1892 19.1646 23.4092C19.1646 22.6992 19.0146 22.0692 18.7146 21.5192C18.4246 20.9592 18.0296 20.5242 17.5296 20.2142Z" fill="url(#paint0_linear_2731_145773)"/>
</g>
<defs>
<linearGradient id="paint0_linear_2731_145773" x1="15.125" y1="1.00065" x2="15.2038" y2="31.0005" gradientUnits="userSpaceOnUse">
<stop stop-color="#01DE6A"/>
<stop offset="1" stop-color="#03AE55"/>
</linearGradient>
<clipPath id="clip0_2731_145773">
<rect width="30" height="30" fill="white" transform="translate(0 1.03955) rotate(-0.15062)"/>
</clipPath>
</defs>
</svg>
