<svg width="31" height="32" viewBox="0 0 31 32" fill="none" xmlns="http://www.w3.org/2000/svg">
<g clip-path="url(#clip0_2731_146731)">
<path fill-rule="evenodd" clip-rule="evenodd" d="M11.3799 2.8855C11.3772 1.8484 10.5371 1.01271 9.49998 1.01544C8.46287 1.01817 7.62718 1.85826 7.62991 2.89536L7.63484 4.77036L4.82235 4.77775C3.26962 4.78183 2.01317 6.0449 2.01725 7.59763L2.02465 10.4101L28.2746 10.3411L28.2672 7.52863C28.2631 5.9759 27 4.71945 25.4473 4.72353L22.6348 4.73092L22.6299 2.85593C22.6271 1.81882 21.787 0.98314 20.7499 0.985866C19.7128 0.988592 18.8771 1.82868 18.8799 2.86579L18.8848 4.74078L11.3848 4.7605L11.3799 2.8855ZM28.2795 12.2161L2.02957 12.2851L2.07147 28.2226C2.07555 29.7753 3.33863 31.0317 4.89135 31.0277L25.5163 30.9734C27.069 30.9694 28.3255 29.7063 28.3214 28.1536L28.2795 12.2161ZM12.432 20.2142C11.932 19.9042 11.392 19.7542 10.812 19.7642L10.782 19.6892L13.512 17.3342L13.512 15.1442L6.20695 15.1442L6.20695 17.6042L10.032 17.6042L7.30195 20.2892L8.74195 22.1342C8.95195 22.0042 9.13195 21.9142 9.28195 21.8642C9.44195 21.8042 9.61195 21.7742 9.79195 21.7742C10.302 21.7742 10.707 21.9242 11.007 22.2242C11.307 22.5142 11.457 22.9092 11.457 23.4092C11.457 23.8992 11.307 24.2942 11.007 24.5942C10.717 24.8842 10.332 25.0292 9.85195 25.0292C8.94195 25.0292 8.33695 24.5642 8.03695 23.6342L5.62195 24.4742C5.97195 25.3842 6.50695 26.1042 7.22695 26.6342C7.94695 27.1642 8.82695 27.4292 9.86695 27.4292C10.677 27.4292 11.402 27.2592 12.042 26.9192C12.682 26.5792 13.177 26.1042 13.527 25.4942C13.887 24.8842 14.067 24.1892 14.067 23.4092C14.067 22.6992 13.917 22.0692 13.617 21.5192C13.327 20.9592 12.932 20.5242 12.432 20.2142ZM16.4927 25.8242C17.2627 26.8942 18.3577 27.4292 19.7777 27.4292C21.2077 27.4292 22.3027 26.8942 23.0627 25.8242C23.8327 24.7442 24.2177 23.1992 24.2177 21.1892C24.2177 19.1792 23.8327 17.6342 23.0627 16.5542C22.3027 15.4742 21.2077 14.9342 19.7777 14.9342C18.3577 14.9342 17.2627 15.4742 16.4927 16.5542C15.7227 17.6342 15.3377 19.1792 15.3377 21.1892C15.3377 23.1992 15.7227 24.7442 16.4927 25.8242ZM21.0677 23.9942C20.7677 24.6442 20.3377 24.9692 19.7777 24.9692C19.2177 24.9692 18.7827 24.6442 18.4727 23.9942C18.1727 23.3342 18.0227 22.3992 18.0227 21.1892C18.0227 19.9792 18.1727 19.0442 18.4727 18.3842C18.7827 17.7242 19.2177 17.3942 19.7777 17.3942C20.3377 17.3942 20.7677 17.7242 21.0677 18.3842C21.3777 19.0342 21.5327 19.9692 21.5327 21.1892C21.5327 22.3992 21.3777 23.3342 21.0677 23.9942Z" fill="url(#paint0_linear_2731_146731)"/>
</g>
<defs>
<linearGradient id="paint0_linear_2731_146731" x1="15.125" y1="1.00065" x2="15.2038" y2="31.0005" gradientUnits="userSpaceOnUse">
<stop stop-color="#01DE6A"/>
<stop offset="1" stop-color="#03AE55"/>
</linearGradient>
<clipPath id="clip0_2731_146731">
<rect width="30" height="30" fill="white" transform="translate(0 1.03955) rotate(-0.15062)"/>
</clipPath>
</defs>
</svg>
