<svg width="30" height="30" viewBox="0 0 30 30" fill="none" xmlns="http://www.w3.org/2000/svg">
<g filter="url(#filter0_d_2731_145677)">
<ellipse cx="15" cy="14.5933" rx="12" ry="11.4053" fill="url(#paint0_linear_2731_145677)"/>
<path d="M26.75 13.4053C26.75 19.5544 21.5015 24.5607 15 24.5607C8.49853 24.5607 3.25 19.5544 3.25 13.4053C3.25 7.25623 8.49853 2.25 15 2.25C21.5015 2.25 26.75 7.25623 26.75 13.4053Z" fill="url(#paint1_linear_2731_145677)" stroke="url(#paint2_linear_2731_145677)" stroke-width="0.5"/>
<path d="M23.2363 13C23.2363 17.2661 19.5572 20.75 14.9863 20.75C10.4155 20.75 6.73632 17.2661 6.73632 13C6.73632 8.73386 10.4155 5.25 14.9863 5.25C19.5572 5.25 23.2363 8.73386 23.2363 13Z" fill="url(#paint3_linear_2731_145677)" stroke="url(#paint4_linear_2731_145677)" stroke-width="0.5"/>
<g filter="url(#filter1_d_2731_145677)">
<path d="M14.9994 8L16.6452 10.7348L19.7547 11.4549L17.6624 13.8652L17.9383 17.0451L14.9994 15.8L12.0605 17.0451L12.3365 13.8652L10.2441 11.4549L13.3536 10.7348L14.9994 8Z" fill="url(#paint5_linear_2731_145677)"/>
</g>
</g>
<defs>
<filter id="filter0_d_2731_145677" x="0" y="0" width="30" height="29.9985" filterUnits="userSpaceOnUse" color-interpolation-filters="sRGB">
<feFlood flood-opacity="0" result="BackgroundImageFix"/>
<feColorMatrix in="SourceAlpha" type="matrix" values="0 0 0 0 0 0 0 0 0 0 0 0 0 0 0 0 0 0 127 0" result="hardAlpha"/>
<feOffset dy="1"/>
<feGaussianBlur stdDeviation="1.5"/>
<feComposite in2="hardAlpha" operator="out"/>
<feColorMatrix type="matrix" values="0 0 0 0 0 0 0 0 0 0 0 0 0 0 0 0 0 0 0.25 0"/>
<feBlend mode="normal" in2="BackgroundImageFix" result="effect1_dropShadow_2731_145677"/>
<feBlend mode="normal" in="SourceGraphic" in2="effect1_dropShadow_2731_145677" result="shape"/>
</filter>
<filter id="filter1_d_2731_145677" x="10.2441" y="8" width="9.50977" height="9.44492" filterUnits="userSpaceOnUse" color-interpolation-filters="sRGB">
<feFlood flood-opacity="0" result="BackgroundImageFix"/>
<feColorMatrix in="SourceAlpha" type="matrix" values="0 0 0 0 0 0 0 0 0 0 0 0 0 0 0 0 0 0 127 0" result="hardAlpha"/>
<feOffset dy="0.4"/>
<feComposite in2="hardAlpha" operator="out"/>
<feColorMatrix type="matrix" values="0 0 0 0 1 0 0 0 0 0.427451 0 0 0 0 0.00784314 0 0 0 0.5 0"/>
<feBlend mode="normal" in2="BackgroundImageFix" result="effect1_dropShadow_2731_145677"/>
<feBlend mode="normal" in="SourceGraphic" in2="effect1_dropShadow_2731_145677" result="shape"/>
</filter>
<linearGradient id="paint0_linear_2731_145677" x1="6.875" y1="25.167" x2="23.75" y2="25.167" gradientUnits="userSpaceOnUse">
<stop stop-color="#E68400"/>
<stop offset="0.537037" stop-color="#EEAE08"/>
<stop offset="1" stop-color="#E68400"/>
</linearGradient>
<linearGradient id="paint1_linear_2731_145677" x1="15" y1="2" x2="15" y2="24.8107" gradientUnits="userSpaceOnUse">
<stop stop-color="#F4F86F"/>
<stop offset="1" stop-color="#FFBE0B"/>
</linearGradient>
<linearGradient id="paint2_linear_2731_145677" x1="15" y1="2" x2="15" y2="24.8107" gradientUnits="userSpaceOnUse">
<stop stop-color="#FFF499"/>
<stop offset="1" stop-color="#FFEA60"/>
</linearGradient>
<linearGradient id="paint3_linear_2731_145677" x1="14.5" y1="5.47059" x2="14.5" y2="21.4706" gradientUnits="userSpaceOnUse">
<stop stop-color="#F9D344"/>
<stop offset="1" stop-color="#F79E0E"/>
</linearGradient>
<linearGradient id="paint4_linear_2731_145677" x1="14.5" y1="5.47059" x2="14.5" y2="21.4706" gradientUnits="userSpaceOnUse">
<stop stop-color="#FFF499"/>
<stop offset="1" stop-color="#FFEA60"/>
</linearGradient>
<linearGradient id="paint5_linear_2731_145677" x1="14.9994" y1="8" x2="14.9994" y2="18" gradientUnits="userSpaceOnUse">
<stop stop-color="#FFF5A1"/>
<stop offset="1" stop-color="#FEDE60"/>
</linearGradient>
</defs>
</svg>
