<svg width="45" height="44" viewBox="0 0 45 44" fill="none" xmlns="http://www.w3.org/2000/svg">
<g clip-path="url(#clip0_3627_163475)">
<path fill-rule="evenodd" clip-rule="evenodd" d="M6.0918 15.5267C6.12991 6.91798 13.261 0 22.0672 0C30.8586 0 38.0087 6.93703 38.0087 15.5553C37.9715 18.7704 36.9668 21.821 35.1755 24.3242C35.1773 24.3208 35.1149 24.4264 35.0829 24.4767L35.0049 24.5962C34.9366 24.6974 34.8611 24.7935 34.779 24.8838L24.6968 36.6765C24.3722 37.0563 23.9692 37.3614 23.5156 37.5709C23.062 37.7804 22.5684 37.8893 22.0687 37.8901C21.5691 37.891 21.0751 37.7837 20.6208 37.5757C20.1665 37.3677 19.7625 37.0639 19.4366 36.6851L9.27751 24.869L9.23767 24.8257C9.17358 24.7512 9.11641 24.6759 9.06271 24.5971L8.98302 24.4758L8.88601 24.3147L8.71884 24.0765C7.01165 21.5612 6.0918 18.618 6.0918 15.5267ZM25.0831 17.2186H28.924C29.541 17.2186 29.8973 17.9181 29.5367 18.4178L21.8766 28.8804C21.6463 29.1975 21.1423 28.9933 21.1944 28.6066L22.1764 21.5027C22.2024 21.3072 22.1416 21.1117 22.0156 20.9596C21.8853 20.8075 21.7028 20.7206 21.5073 20.7206H15.6329C15.394 20.7206 15.2332 20.4773 15.3288 20.2601L20.2429 8.65045C20.3602 8.36369 20.6339 8.18555 20.9381 8.18555H27.2903C27.8552 8.18555 28.2245 8.7808 27.9681 9.28481L24.4792 16.2193C24.4314 16.3149 24.4097 16.4192 24.4097 16.5278C24.4097 16.9058 24.7138 17.2186 25.0831 17.2186Z" fill="url(#paint0_linear_3627_163475)"/>
<path d="M36.1663 31.7869C36.5428 31.5672 36.9882 31.4975 37.4138 31.5918C37.8394 31.686 38.2139 31.9372 38.4624 32.2953L38.5352 32.4097L42.2597 38.7906C42.5579 39.3016 42.7203 39.8803 42.7315 40.4718C42.7427 41.0633 42.6022 41.6479 42.3234 42.1697C42.0447 42.6915 41.6369 43.1332 41.1391 43.4528C40.6412 43.7724 40.0698 43.9592 39.4793 43.9953L39.248 44.0014L5.44547 43.8169C4.85627 43.8137 4.27764 43.6602 3.76427 43.371C3.2509 43.0819 2.81976 42.6665 2.5116 42.1643C2.20345 41.6621 2.02846 41.0896 2.00319 40.501C1.97791 39.9123 2.10319 39.3269 2.36716 38.8001L2.47543 38.6001L6.02493 32.5474C6.25068 32.1598 6.61796 31.8749 7.0495 31.7526C7.48104 31.6303 7.94319 31.6801 8.33872 31.8917C8.73425 32.1032 9.03233 32.4598 9.17023 32.8867C9.30813 33.3135 9.27512 33.7771 9.07813 34.1801L9.01403 34.2996L5.46453 40.3523L39.2671 40.5368L35.5426 34.1558C35.3112 33.759 35.2469 33.2865 35.3639 32.8422C35.4808 32.398 35.7694 32.0184 36.1663 31.7869Z" fill="url(#paint1_linear_3627_163475)"/>
</g>
<defs>
<linearGradient id="paint0_linear_3627_163475" x1="22.0503" y1="0" x2="22.0503" y2="37.8901" gradientUnits="userSpaceOnUse">
<stop stop-color="#42BBFF"/>
<stop offset="1" stop-color="#1762F2"/>
</linearGradient>
<linearGradient id="paint1_linear_3627_163475" x1="22.3661" y1="31.5508" x2="22.3661" y2="44.0014" gradientUnits="userSpaceOnUse">
<stop stop-color="#42BBFF"/>
<stop offset="1" stop-color="#1762F2"/>
</linearGradient>
<clipPath id="clip0_3627_163475">
<rect width="44" height="44" fill="white" transform="translate(0.5)"/>
</clipPath>
</defs>
</svg>
