<svg width="24" height="24" viewBox="0 0 24 24" fill="none" xmlns="http://www.w3.org/2000/svg">
<path fill-rule="evenodd" clip-rule="evenodd" d="M9.5 9C13.6421 9 17.5 7.65685 17.5 6C17.5 4.34315 13.6421 3 9.5 3C5.35786 3 1.5 4.34315 1.5 6C1.5 7.65685 5.35786 9 9.5 9ZM1.5 10V7.5C1.5 7.5 2 10 9.5 10C17 10 17.5 7.5 17.5 7.5V10C17.5 10 17.206 10.735 15.8208 11.408C15.6583 11.4714 15.4992 11.5416 15.3439 11.6184C14.144 12.0991 12.3031 12.5 9.5 12.5C2.5 12.5 1.5 10 1.5 10ZM13.4185 13.1255C12.3766 13.3509 11.0874 13.5 9.5 13.5C1.5 13.5 1.5 11 1.5 11V13.5C1.5 13.5 2.5 16 9.5 16C10.4826 16 11.347 15.9507 12.107 15.866C12.3043 14.8344 12.7659 13.8965 13.4185 13.1255ZM12.0106 17.359C12.0622 18.2335 12.3011 19.0576 12.6877 19.7918C11.7954 19.9213 10.7422 20 9.5 20C2.5 20 1.5 17.5 1.5 17.5V15C1.5 15 3 17.5 9.5 17.5C10.4373 17.5 11.2707 17.448 12.0106 17.359ZM17.5 11.0205C17.4953 11.0209 17.4906 11.0213 17.4859 11.0217C17.4955 11.0075 17.5 11 17.5 11V11.0205Z" fill="#07C160"/>
<path fill-rule="evenodd" clip-rule="evenodd" d="M18 22C20.7614 22 23 19.7614 23 17C23 14.2386 20.7614 12 18 12C15.2386 12 13 14.2386 13 17C13 19.7614 15.2386 22 18 22ZM17.0494 14.695C15.9499 15.1045 15.3341 16.187 15.5134 17.2582H14.4501C14.2778 15.7813 15.1504 14.3208 16.6663 13.7561C17.7604 13.3484 19.0099 13.5339 19.9265 14.1012L20.3611 13.4286L21.2096 15.781L18.8356 15.7897L19.365 14.9703C18.7429 14.5365 17.8643 14.3913 17.0494 14.695ZM18.9509 19.2353C20.0504 18.8258 20.6659 17.7432 20.4868 16.672L21.5499 16.6723C21.7222 18.1491 20.8493 19.6094 19.3337 20.1743C18.2396 20.582 17.1152 20.4378 16.1988 19.8705L15.7459 20.5714L14.6655 18.1489L17.2185 18.2921C17.2185 18.2921 16.8611 18.8452 16.7401 19.0328C17.3753 19.4092 18.2013 19.5144 18.9509 19.2353Z" fill="#07C160"/>
</svg>
