<svg width="34" height="34" viewBox="0 0 34 34" fill="none" xmlns="http://www.w3.org/2000/svg">
<rect width="34" height="34" rx="8.5" fill="#0051EF"/>
<path d="M6.16121 7.23828H4.54883V8.85066H6.16121V7.23828Z" fill="white"/>
<path d="M7.9532 7.23828H6.34082V8.85066H7.9532V7.23828Z" fill="white"/>
<path d="M6.16121 9.02979H4.54883V10.6422H6.16121V9.02979Z" fill="white"/>
<path d="M7.9532 9.02979H6.34082V10.6422H7.9532V9.02979Z" fill="white"/>
<path d="M9.74422 9.02979H8.13184V10.6422H9.74422V9.02979Z" fill="white"/>
<path d="M9.74422 10.8213H8.13184V12.4337H9.74422V10.8213Z" fill="white"/>
<path d="M11.5362 14.4043H9.92383V16.0167H11.5362V14.4043Z" fill="white"/>
<path d="M11.5362 12.6128H9.92383V14.2252H11.5362V12.6128Z" fill="white"/>
<path d="M9.74422 12.6128H8.13184V14.2252H9.74422V12.6128Z" fill="white"/>
<path d="M11.5362 10.8213H9.92383V12.4337H11.5362V10.8213Z" fill="white"/>
<path d="M13.3272 16.1958H11.7148V17.8082H13.3272V16.1958Z" fill="white"/>
<path d="M13.3272 14.4043H11.7148V16.0167H13.3272V14.4043Z" fill="white"/>
<path d="M13.3272 12.6128H11.7148V14.2252H13.3272V12.6128Z" fill="white"/>
<path d="M15.1192 17.9873H13.5068V19.5997H15.1192V17.9873Z" fill="white"/>
<path d="M15.1192 16.1958H13.5068V17.8082H15.1192V16.1958Z" fill="white"/>
<path d="M15.1192 14.4043H13.5068V16.0167H15.1192V14.4043Z" fill="white"/>
<path d="M16.9112 19.7788H15.2988V21.3912H16.9112V19.7788Z" fill="white"/>
<path d="M16.9112 17.9873H15.2988V19.5997H16.9112V17.9873Z" fill="white"/>
<path d="M16.9112 16.1958H15.2988V17.8082H16.9112V16.1958Z" fill="white"/>
<path d="M18.7022 19.7788H17.0898V21.3912H18.7022V19.7788Z" fill="white"/>
<path d="M18.7022 17.9873H17.0898V19.5997H18.7022V17.9873Z" fill="white"/>
<path d="M18.7022 19.7788H17.0898V21.3912H18.7022V19.7788Z" fill="white"/>
<path d="M6.16121 10.8213H4.54883V12.4337H6.16121V10.8213Z" fill="white"/>
<path d="M7.9532 10.8213H6.34082V12.4337H7.9532V10.8213Z" fill="white"/>
<path d="M6.16121 12.6128H4.54883V14.2252H6.16121V12.6128Z" fill="white"/>
<path d="M7.9532 12.6128H6.34082V14.2252H7.9532V12.6128Z" fill="white"/>
<path d="M6.16121 14.4043H4.54883V16.0167H6.16121V14.4043Z" fill="white"/>
<path d="M7.9532 14.4043H6.34082V16.0167H7.9532V14.4043Z" fill="white"/>
<path d="M6.16121 16.1958H4.54883V17.8082H6.16121V16.1958Z" fill="white"/>
<path d="M7.9532 16.1958H6.34082V17.8082H7.9532V16.1958Z" fill="white"/>
<path d="M6.16121 17.9873H4.54883V19.5997H6.16121V17.9873Z" fill="white"/>
<path d="M7.9532 17.9873H6.34082V19.5997H7.9532V17.9873Z" fill="white"/>
<path d="M6.16121 19.7788H4.54883V21.3912H6.16121V19.7788Z" fill="white"/>
<path d="M7.9532 19.7788H6.34082V21.3912H7.9532V19.7788Z" fill="white"/>
<path d="M6.16121 21.5708H4.54883V23.1832H6.16121V21.5708Z" fill="white"/>
<path d="M7.9532 21.5708H6.34082V23.1832H7.9532V21.5708Z" fill="white"/>
<path d="M6.16121 23.3623H4.54883V24.9747H6.16121V23.3623Z" fill="white"/>
<path d="M6.16121 25.168H4.54883V26.7804H6.16121V25.168Z" fill="white"/>
<path d="M7.9532 23.3623H6.34082V24.9747H7.9532V23.3623Z" fill="white"/>
<path d="M7.9532 25.168H6.34082V26.7804H7.9532V25.168Z" fill="white"/>
<path d="M27.8388 8.85059H29.4512V7.2382H27.8388V8.85059Z" fill="white"/>
<path d="M26.0478 8.85059H27.6602V7.2382H26.0478V8.85059Z" fill="white"/>
<path d="M27.8388 10.6421H29.4512V9.02971H27.8388V10.6421Z" fill="white"/>
<path d="M26.0478 10.6421H27.6602V9.02971H26.0478V10.6421Z" fill="white"/>
<path d="M24.2568 10.6421H25.8691V9.02971H24.2568V10.6421Z" fill="white"/>
<path d="M24.2568 12.4336H25.8691V10.8212H24.2568V12.4336Z" fill="white"/>
<path d="M22.4638 16.0166H24.0762V14.4042H22.4638V16.0166Z" fill="white"/>
<path d="M22.4638 14.2251H24.0762V12.6127H22.4638V14.2251Z" fill="white"/>
<path d="M24.2568 14.2251H25.8691V12.6127H24.2568V14.2251Z" fill="white"/>
<path d="M22.4638 12.4336H24.0762V10.8212H22.4638V12.4336Z" fill="white"/>
<path d="M20.6728 17.8081H22.2852V16.1957H20.6728V17.8081Z" fill="white"/>
<path d="M20.6728 16.0166H22.2852V14.4042H20.6728V16.0166Z" fill="white"/>
<path d="M20.6728 14.2251H22.2852V12.6127H20.6728V14.2251Z" fill="white"/>
<path d="M18.8818 19.6001H20.4941V17.9877H18.8818V19.6001Z" fill="white"/>
<path d="M18.8818 17.8081H20.4941V16.1957H18.8818V17.8081Z" fill="white"/>
<path d="M18.8818 16.0166H20.4941V14.4042H18.8818V16.0166Z" fill="white"/>
<path d="M17.0888 21.3916H18.7012V19.7792H17.0888V21.3916Z" fill="white"/>
<path d="M17.0888 19.6001H18.7012V17.9877H17.0888V19.6001Z" fill="white"/>
<path d="M17.0888 17.8081H18.7012V16.1957H17.0888V17.8081Z" fill="white"/>
<path d="M17.0888 21.3916H18.7012V19.7792H17.0888V21.3916Z" fill="white"/>
<path d="M17.0888 19.6001H18.7012V17.9877H17.0888V19.6001Z" fill="white"/>
<path d="M15.2978 21.3916H16.9102V19.7792H15.2978V21.3916Z" fill="white"/>
<path d="M27.8388 12.4336H29.4512V10.8212H27.8388V12.4336Z" fill="white"/>
<path d="M26.0478 12.4336H27.6602V10.8212H26.0478V12.4336Z" fill="white"/>
<path d="M27.8388 14.2251H29.4512V12.6127H27.8388V14.2251Z" fill="white"/>
<path d="M26.0478 14.2251H27.6602V12.6127H26.0478V14.2251Z" fill="white"/>
<path d="M27.8388 16.0166H29.4512V14.4042H27.8388V16.0166Z" fill="white"/>
<path d="M26.0478 16.0166H27.6602V14.4042H26.0478V16.0166Z" fill="white"/>
<path d="M27.8388 17.8081H29.4512V16.1957H27.8388V17.8081Z" fill="white"/>
<path d="M26.0478 17.8081H27.6602V16.1957H26.0478V17.8081Z" fill="white"/>
<path d="M27.8388 19.6001H29.4512V17.9877H27.8388V19.6001Z" fill="white"/>
<path d="M26.0478 19.6001H27.6602V17.9877H26.0478V19.6001Z" fill="white"/>
<path d="M27.8388 21.3916H29.4512V19.7792H27.8388V21.3916Z" fill="white"/>
<path d="M26.0478 21.3916H27.6602V19.7792H26.0478V21.3916Z" fill="white"/>
<path d="M27.8388 23.1831H29.4512V21.5707H27.8388V23.1831Z" fill="white"/>
<path d="M26.0478 23.1831H27.6602V21.5707H26.0478V23.1831Z" fill="white"/>
<path d="M27.8388 24.9746H29.4512V23.3622H27.8388V24.9746Z" fill="white"/>
<path d="M27.8388 26.7803H29.4512V25.1679H27.8388V26.7803Z" fill="white"/>
<path d="M26.0478 24.9746H27.6602V23.3622H26.0478V24.9746Z" fill="white"/>
<path d="M26.0478 26.7803H27.6602V25.1679H26.0478V26.7803Z" fill="white"/>
<path d="M19.4958 22.5127L20.4822 24.5409L21.4686 22.5127H22.2798L20.8499 25.1975V26.7617H20.1116V25.1975L18.6816 22.5127H19.4958Z" fill="white"/>
<path d="M17.1151 23.0788L15.8456 26.7617H15.0781L16.6773 22.5127H17.1676L17.1151 23.0788ZM18.1773 26.7617L16.9049 23.0788L16.8495 22.5127H17.3427L18.9477 26.7617H18.1773ZM18.116 25.1858V25.7665H15.8048V25.1858H18.116Z" fill="white"/>
<path d="M13.7007 25.1771H12.5947V24.5963H13.7007C13.8933 24.5963 14.0489 24.5652 14.1676 24.5029C14.2863 24.4407 14.3729 24.3551 14.4273 24.2461C14.4838 24.1352 14.512 24.0088 14.512 23.8668C14.512 23.7325 14.4838 23.607 14.4273 23.4903C14.3729 23.3716 14.2863 23.2763 14.1676 23.2043C14.0489 23.1323 13.8933 23.0963 13.7007 23.0963H12.8194V26.7617H12.0869V22.5127H13.7007C14.0295 22.5127 14.3087 22.5711 14.5382 22.6878C14.7698 22.8026 14.9458 22.9621 15.0664 23.1664C15.1871 23.3687 15.2474 23.6002 15.2474 23.8609C15.2474 24.1352 15.1871 24.3706 15.0664 24.5671C14.9458 24.7636 14.7698 24.9144 14.5382 25.0195C14.3087 25.1245 14.0295 25.1771 13.7007 25.1771Z" fill="white"/>
</svg>
