<svg width="44" height="44" viewBox="0 0 44 44" fill="none" xmlns="http://www.w3.org/2000/svg">
<path fill-rule="evenodd" clip-rule="evenodd" d="M40.8796 9.29115L41.0577 8.81362C41.3473 8.03743 42.2112 7.6429 42.9874 7.93241C43.7636 8.22192 44.1581 9.08584 43.8686 9.86203L42.3933 13.8173C42.1038 14.5935 41.2399 14.988 40.4637 14.6985L36.5084 13.2233C35.7322 12.9337 35.3377 12.0698 35.6272 11.2936C35.9167 10.5174 36.7806 10.1229 37.5568 10.4124L38.2013 10.6528C36.2502 7.29487 33.2998 4.58945 29.7573 2.94373C29.0539 2.61697 28.6517 1.84342 28.8524 1.09428C29.0817 0.238308 29.9978 -0.241351 30.8054 0.123327C35.0532 2.04132 38.5828 5.26881 40.8796 9.29115ZM27.8635 12.0374C19.3802 12.5973 12.5973 19.3802 12.0374 27.8635C5.23458 26.9092 0 21.0659 0 14C0 6.26801 6.26801 5.05962e-10 14 5.05962e-10C21.0659 5.05962e-10 26.9092 5.23458 27.8635 12.0374ZM18 14.4452C18 13.4309 17.69 12.9594 17.18 12.5916C16.9371 12.4151 16.6264 12.2387 16.0064 11.9444C15.4213 11.6689 14.8368 11.4146 14.2382 11.1543L13.9235 11.0173L13.8447 10.9844C12.9299 10.603 12.2122 10.3038 12.0185 10.0315C11.952 9.92867 11.9077 9.76724 11.9077 9.50223L11.9077 9.47218C11.9073 8.99434 11.9068 8.47221 12.8828 8.47221C13.3478 8.47221 13.8792 8.5165 13.9899 8.88436C14.0349 9.03151 14.0349 9.07508 14.0349 9.3108V10.0758H17.6236C17.6249 10.0269 17.6265 9.97675 17.6281 9.92548C17.6526 9.14383 17.6852 8.10788 16.9364 7.48648C16.2057 6.85361 14.9871 6.78004 13.9013 6.72146V5H12.0627V6.72146C10.977 6.78004 9.80341 6.8979 9.04982 7.50148C8.29695 8.08935 8.20837 8.88436 8.20837 9.62009C8.20837 10.6794 8.51838 11.1351 9.04982 11.518C9.51554 11.8559 10.2684 12.1944 10.4013 12.2537C10.6388 12.3625 10.8763 12.4732 11.1149 12.5844C11.5219 12.7741 11.9321 12.9653 12.3513 13.1509C12.4564 13.1991 12.5576 13.245 12.6547 13.2891L12.6549 13.2892C13.4162 13.635 13.924 13.8656 14.1013 14.1659C14.2121 14.3573 14.2121 14.6516 14.2121 14.6959L14.2123 14.7462C14.2152 15.1113 14.2191 15.6081 12.9492 15.6081C12.1735 15.6081 11.9077 15.3724 11.8192 15.1366C11.7421 14.9707 11.7488 14.782 11.7519 14.6967C11.7524 14.684 11.7527 14.6736 11.7527 14.6659V13.9302H8.00908C7.9648 15.4309 8.05337 16.1081 8.9391 16.6817C9.78126 17.2117 10.8449 17.2995 11.2213 17.3295C11.487 17.3581 11.7749 17.3881 12.0627 17.4024V19.286H13.9013V17.4031C15.0314 17.3145 16.0507 17.2117 16.9143 16.6817C17.8893 16.0931 18 15.2695 18 14.4459V14.4452ZM44 29C44 37.2843 37.2843 44 29 44C20.7157 44 14 37.2843 14 29C14 20.7157 20.7157 14 29 14C37.2843 14 44 20.7157 44 29ZM27.4808 30.8304H24.9068C24.1784 30.8304 23.5905 30.2425 23.5905 29.514C23.5905 28.7856 24.1784 28.1977 24.9068 28.1977H27.0485L23.3657 25.0607C22.8105 24.5903 22.7451 23.7574 23.2187 23.2053C23.6891 22.65 24.522 22.5847 25.074 23.0583L28.8304 26.2562L32.9231 23.0191C33.498 22.5651 34.3211 22.6664 34.7719 23.2347C35.2226 23.8064 35.1279 24.6328 34.5563 25.0835L30.6153 28.1977H32.6677C33.3961 28.1977 33.984 28.7856 33.984 29.514C33.984 30.2425 33.3928 30.8304 32.6644 30.8304H30.1135V31.4739H32.6154C33.3438 31.4739 33.9318 32.0619 33.9318 32.7903C33.9318 33.5187 33.3406 34.1066 32.6122 34.1066H30.1135V35.418C30.1135 36.1432 29.5223 36.7344 28.7972 36.7344C28.0688 36.7344 27.4808 36.1464 27.4808 35.418V34.1066H24.8545C24.1261 34.1066 23.5382 33.5187 23.5382 32.7903C23.5382 32.0619 24.1261 31.4739 24.8545 31.4739H27.4808V30.8304ZM2.9071 35.1864L3.08521 34.7088C5.38202 38.7312 8.91164 41.9587 13.1594 43.8767C13.9671 44.2414 14.8831 43.7617 15.1125 42.9057C15.3132 42.1566 14.9109 41.383 14.2075 41.0563C10.665 39.4105 7.71462 36.7051 5.76354 33.3472L6.40802 33.5876C7.18421 33.8771 8.04814 33.4826 8.33765 32.7064C8.62716 31.9302 8.23263 31.0663 7.45643 30.7767L3.50116 29.3015C2.72496 29.012 1.86104 29.4065 1.57153 30.1827L0.0962553 34.138C-0.193255 34.9142 0.201278 35.7781 0.97747 36.0676C1.75366 36.3571 2.61759 35.9626 2.9071 35.1864Z" fill="url(#paint0_linear_3627_163472)"/>
<defs>
<linearGradient id="paint0_linear_3627_163472" x1="22" y1="0" x2="22" y2="44" gradientUnits="userSpaceOnUse">
<stop stop-color="#14E779"/>
<stop offset="1" stop-color="#00CE63"/>
</linearGradient>
</defs>
</svg>
