<svg width="44" height="44" viewBox="0 0 44 44" fill="none" xmlns="http://www.w3.org/2000/svg">
<g clip-path="url(#clip0_3627_163478)">
<path fill-rule="evenodd" clip-rule="evenodd" d="M31.764 4.39844C39.8001 4.39844 42.3321 13.4459 43.7632 26.0679C44.4235 32.7697 43.8732 38.3548 39.9103 38.2429C36.4006 38.2429 34.96 36.2695 33.4318 34.1761C32.4675 32.8551 31.4684 31.4865 29.8926 30.5357C28.3515 29.7538 24.9389 29.4189 22.0769 29.3071C19.2146 29.4189 15.8022 29.7538 14.2611 30.5357C12.6853 31.4865 11.6861 32.8551 10.7219 34.1761C9.1937 36.2695 7.75307 38.2429 4.24337 38.2429C0.170467 38.2429 -0.490083 32.6581 0.280496 25.9562C1.60138 13.4459 4.13334 4.39844 12.1694 4.39844C14.3135 4.39844 15.878 5.57458 17.4249 6.73751C18.8167 7.7838 20.1942 8.81939 21.9668 8.97812C23.6714 8.82086 25.0366 7.80284 26.4265 6.76649C27.9986 5.5942 29.6023 4.39844 31.764 4.39844ZM6.55469 19.1442C6.55469 22.2717 9.0867 24.9526 12.279 24.9526C15.3613 24.9526 18.0033 22.3834 18.0033 19.1442C18.0033 15.9051 15.4715 13.3359 12.279 13.3359C9.0867 13.3359 6.55469 16.0167 6.55469 19.1442ZM36.8106 20.2604C37.4275 20.2604 37.9276 19.7603 37.9276 19.1434C37.9276 18.5265 37.4275 18.0264 36.8106 18.0264H33.4144V14.6594C33.4144 14.0515 32.9215 13.5586 32.3135 13.5586C31.7055 13.5586 31.2127 14.0515 31.2127 14.6594V18.0264H27.8162C27.1993 18.0264 26.6992 18.5265 26.6992 19.1434C26.6992 19.7603 27.1993 20.2604 27.8162 20.2604H31.2127V23.7393C31.2127 24.3472 31.7055 24.8401 32.3135 24.8401C32.9215 24.8401 33.4144 24.3472 33.4144 23.7393V20.2604H36.8106ZM9.96715 21.4897C9.30681 20.8194 8.97656 20.0376 8.97656 19.144C8.97656 18.2505 9.30681 17.3567 9.96715 16.7984C10.6277 16.1281 11.3983 15.793 12.2789 15.793C13.1597 15.793 14.0403 16.24 14.5906 16.7984C15.2512 17.4686 15.5815 18.2505 15.5815 19.144C15.5815 20.0376 15.1411 20.9312 14.5906 21.4897C13.9303 22.1599 13.1597 22.495 12.2789 22.495C11.3983 22.495 10.5177 22.0483 9.96715 21.4897Z" fill="url(#paint0_linear_3627_163478)"/>
</g>
<defs>
<linearGradient id="paint0_linear_3627_163478" x1="22" y1="4.39844" x2="22" y2="38.2446" gradientUnits="userSpaceOnUse">
<stop stop-color="#FFD15C"/>
<stop offset="1" stop-color="#FF4A22"/>
</linearGradient>
<clipPath id="clip0_3627_163478">
<rect width="44" height="44" fill="white"/>
</clipPath>
</defs>
</svg>
