<svg width="40" height="40" viewBox="0 0 40 40" fill="none" xmlns="http://www.w3.org/2000/svg">
<path d="M18.6094 1.34526C19.3848 0.595192 20.6152 0.595191 21.3906 1.34526L24.2416 4.10333C24.685 4.53226 25.3015 4.73257 25.9123 4.64617L29.84 4.09063C30.9081 3.93955 31.9036 4.66281 32.09 5.72537L32.7754 9.63248C32.8819 10.2401 33.263 10.7645 33.8079 11.0537L37.312 12.9128C38.2649 13.4184 38.6452 14.5887 38.1714 15.5579L36.4294 19.1217C36.1584 19.6759 36.1584 20.3241 36.4294 20.8783L38.1714 24.4421C38.6452 25.4113 38.2649 26.5816 37.312 27.0872L33.8079 28.9463C33.263 29.2355 32.8819 29.7599 32.7754 30.3675L32.09 34.2746C31.9036 35.3372 30.9081 36.0605 29.84 35.9094L25.9123 35.3538C25.3015 35.2674 24.685 35.4677 24.2416 35.8967L21.3906 38.6547C20.6152 39.4048 19.3848 39.4048 18.6094 38.6547L15.7584 35.8967C15.315 35.4677 14.6985 35.2674 14.0877 35.3538L10.16 35.9094C9.09189 36.0605 8.09639 35.3372 7.91001 34.2746L7.22464 30.3675C7.11806 29.7599 6.73704 29.2355 6.1921 28.9463L2.688 27.0872C1.73505 26.5816 1.35481 25.4113 1.82857 24.4421L3.57064 20.8783C3.84156 20.3241 3.84156 19.6759 3.57065 19.1217L1.82857 15.5579C1.35481 14.5887 1.73505 13.4184 2.688 12.9128L6.1921 11.0537C6.73704 10.7645 7.11806 10.2401 7.22464 9.63248L7.91001 5.72537C8.09639 4.66281 9.09188 3.93955 10.16 4.09063L14.0877 4.64617C14.6985 4.73257 15.315 4.53226 15.7584 4.10333L18.6094 1.34526Z" fill="url(#paint0_linear_2731_145710)"/>
<path fill-rule="evenodd" clip-rule="evenodd" d="M20 30C25.5228 30 30 25.5228 30 20C30 14.4772 25.5228 10 20 10C14.4772 10 10 14.4772 10 20C10 25.5228 14.4772 30 20 30ZM14 20.8954L15.7111 19.09C16.2815 19.555 17.4222 20.5671 18.563 21.9623C18.5829 21.9867 18.6433 21.8544 18.7599 21.5993C19.2702 20.482 20.8572 17.0081 24.837 14.0018C24.8734 13.9744 24.8651 14.2591 24.8524 14.6949C24.8409 15.0907 24.8257 15.611 24.837 16.1355C24.858 17.1039 25 18.1051 25 18.1051C25 18.1051 22.7185 18.6796 18.8074 24.9988C18.7981 25.0138 18.6883 24.8907 18.4966 24.676C17.7928 23.8876 15.9853 21.8629 14 20.8954Z" fill="url(#paint1_linear_2731_145710)"/>
<defs>
<linearGradient id="paint0_linear_2731_145710" x1="20" y1="0" x2="20" y2="40" gradientUnits="userSpaceOnUse">
<stop stop-color="#F5F66C"/>
<stop offset="1" stop-color="#FFC212"/>
</linearGradient>
<linearGradient id="paint1_linear_2731_145710" x1="20" y1="10" x2="20" y2="30" gradientUnits="userSpaceOnUse">
<stop stop-color="#FAD243"/>
<stop offset="1" stop-color="#E68401"/>
</linearGradient>
</defs>
</svg>
