
<svg width="343" height="102" viewBox="0 0 343 102" fill="none" xmlns="http://www.w3.org/2000/svg">
<g filter="url(#filter0_d_22921_89848)">
<path d="M334.985 75.6351V34.2758H333.111V3.41218H250.062V3.72569H169.803V4.03912H113.129V5.72702C109.973 4.09623 106.343 3.62808 102.876 4.40461C99.409 5.18113 96.3258 7.15275 94.1665 9.97416V6.87402H63.9471V3.08496H38.2091V6.87402H8.63036V22.6124H8.3169V45.5189H8.63036V60.0724H8V82.6655H37.9094V88.9623L106.639 88.6454C107.032 88.666 107.421 88.6763 107.793 88.6763C110.003 88.7225 112.199 88.3157 114.245 87.4811C116.355 88.4582 118.654 88.9637 120.979 88.9623L200.66 90.2195H241.385H241.557C248.03 89.8923 252.611 86.2169 254.154 80.3818V89.2826H279.341C279.768 89.3136 280.188 89.3308 280.595 89.3308C285.262 89.3308 288.083 87.3364 289.63 85.6623C290.632 84.5693 291.413 83.2918 291.927 81.9008V88.9691H322.433C322.85 89.0036 323.259 89.0208 323.659 89.0208C327.765 89.0208 330.335 87.233 331.768 85.7346C334.058 83.3165 335.143 79.9236 334.985 75.6351Z" fill="url(#paint0_linear_22921_89848)"/>
</g>
<path d="M107.793 85.5914C107.421 85.5914 107.032 85.5811 106.639 85.5604L38.4235 85.8749L107.793 85.5914ZM107.793 85.5914C110.003 85.6375 112.199 85.2307 114.245 84.3961L107.793 85.5914ZM334.471 72.5502V72.5597L334.471 72.5691C334.626 76.7602 333.565 80.0038 331.395 82.2953C330.038 83.7145 327.595 85.4217 323.659 85.4217C323.274 85.4217 322.878 85.4051 322.475 85.3718L322.454 85.37H322.433H292.442V78.8159L291.445 78.6374C290.954 79.9653 290.209 81.1849 289.252 82.2284C287.785 83.8161 285.095 85.7317 280.595 85.7317C280.203 85.7317 279.795 85.7151 279.378 85.6848L279.36 85.6835H279.341H254.668V77.2968L253.657 77.1654C252.175 82.7683 247.799 86.2996 241.544 86.6204H241.385H200.663H200.66L120.987 85.3632V85.3631H120.979C118.728 85.3645 116.504 84.8753 114.461 83.9295L114.258 83.8355L114.051 83.92C112.069 84.7281 109.943 85.122 107.804 85.0773V85.0772H107.793C107.431 85.0772 107.05 85.0672 106.666 85.047L106.652 85.0462L106.637 85.0463L38.4235 85.3608V79.5806V79.0664H37.9094H8.51415V57.5016H8.63036H9.14451V56.9874V42.434V41.9198H8.83105V20.0416H9.14451V19.5274V4.30321H38.2091H38.7232V3.78906V0.514151H63.4329V3.78906V4.30321H63.9471H93.6523V6.8892V8.40699L94.5748 7.20168C96.6607 4.47614 99.6391 2.5715 102.988 1.82136C106.337 1.07123 109.844 1.52347 112.893 3.09885L113.643 3.48642V2.64206V1.46831H169.803H170.317V1.15488H250.062H250.576V0.841371H332.597V31.1909V31.705H333.111H334.471V72.5502Z" fill="url(#paint1_linear_22921_89848)" stroke="url(#paint2_linear_22921_89848)" stroke-width="1.0283"/>
<path d="M58.2069 12.0519V8.29785H46.3218V12.0519H16.9257V21.7469H46.3218V27.6877H16.6108V36.7564H50.8219L58.2069 27.6843V21.7469H88.2292V12.0519H58.2069Z" fill="#8404BF"/>
<path d="M327.477 73.6613V39.2585H325.615V8.60986H288.071V18.3048H315.281V39.5734H300.268C299.241 39.7822 298.704 39.2585 298.704 38.0095V21.1212H288.697V41.7601C288.07 47.1831 290.154 49.5786 294.95 48.9466H316.218V69.9004C316.218 70.9476 315.797 71.3616 314.966 71.1529H298.392V79.9101H322.159C325.912 80.3276 327.685 78.2447 327.477 73.6613Z" fill="#8404BF"/>
<path fill-rule="evenodd" clip-rule="evenodd" d="M177.046 34.2477V8.92389H247.727V27.0612C247.727 32.0644 245.225 34.4599 240.222 34.2477H177.046ZM233.347 24.8608C234.6 25.0696 235.222 24.5459 235.222 23.2969L235.216 18.2903H188.931V24.8608H233.347Z" fill="#8404BF"/>
<path d="M169.228 9.23589H120.754V18.9308H169.228V9.23589Z" fill="#8404BF"/>
<path d="M99.4866 41.4476H105.116V69.2696C104.904 70.9396 104.383 71.6685 103.552 71.4564H99.4866V79.5874H107.621C111.374 79.7927 113.668 78.855 114.503 76.7744C116.784 78.8596 119.18 79.9022 121.689 79.9022H168.915V70.8301H124.194C119.814 70.4195 116.895 68.4392 115.437 64.8893V32.379H99.4866V41.4476Z" fill="#8404BF"/>
<path d="M18.4889 38.0093V43.0124C18.4889 46.5578 20.9871 48.3304 25.9834 48.3304H47.8851V39.8846H33.187C31.3094 39.8846 30.4755 39.2595 30.6854 38.0093H18.4889Z" fill="#8404BF"/>
<path d="M87.9172 58.9625V49.8938H16.9251V58.9625H46.0098V64.9033H16.2988V73.6606H46.0098V79.9162H58.2063V73.6606H87.9172V64.9033H58.2063V58.9625H87.9172Z" fill="#8404BF"/>
<path d="M57.5807 48.331V39.8852H72.2959C73.5438 40.0973 74.0651 39.576 73.8598 38.3213H86.3677V41.1377C86.9951 46.5629 83.1383 48.9584 74.7974 48.3242L57.5807 48.331Z" fill="#8404BF"/>
<path d="M115.24 17.4633C115.24 22.005 111.559 25.6867 107.017 25.6867C102.475 25.6867 98.7937 22.005 98.7937 17.4633C98.7937 12.9217 102.475 9.23995 107.017 9.23995C111.559 9.23995 115.24 12.9217 115.24 17.4633Z" fill="#8404BF"/>
<path d="M168.916 47.0777H159.536V54.2642C159.556 54.3907 159.545 54.5201 159.507 54.642C159.468 54.764 159.401 54.8753 159.312 54.9672C159.223 55.0591 159.113 55.129 158.992 55.1715C158.872 55.214 158.743 55.2279 158.616 55.2121H136.485L132.583 63.6579H161.411C166.62 64.0754 169.121 61.8853 168.916 57.0874V47.0777Z" fill="#8404BF"/>
<path d="M121.068 39.8838V30.1889H169.227V39.8838H139.52L137.395 44.6166L137.391 44.6132L128.593 63.6539H120.442V57.7097L128.573 39.8838H121.068Z" fill="#8404BF"/>
<path d="M188.86 65.8404H234.905V70.5322C234.905 71.9923 234.279 72.6174 233.029 72.4075H207.705V81.1647H241.17C245.339 80.9571 247.528 78.6643 247.738 74.2862V55.8341H197.004L188.86 65.8404Z" fill="#8404BF"/>
<path d="M177.046 47.7048H184.866L177.046 58.0259V65.8421H184.195L196.628 50.5622L198.937 47.7048H247.727V38.3213H177.046V47.7048Z" fill="#8404BF"/>
<path d="M288.071 55.5241H313.717V65.219H288.071V55.5241Z" fill="#8404BF"/>
<path d="M285.576 27.062V73.035C285.984 78.2458 283.897 80.6447 279.313 80.2318H260.851V55.192L270.861 42.8929V70.8415H274.936C275.765 71.0536 276.185 70.53 276.185 69.281V36.4284H271.449L261.549 48.5907L261.528 48.6181H257.422V38.0095L260.238 36.1341L263.363 18.3048H256.796V8.60986H285.572V18.3048H274.622L273.058 27.062H285.576Z" fill="#8404BF"/>
<path d="M87.9174 36.7554H55.4858L62.8673 27.6867H87.9174V36.7554Z" fill="#8404BF"/>
<mask id="path-4-inside-1_22921_89848" fill="white">
<path d="M58.2069 8.94061V5.18652H46.3218V8.94061H16.9257V18.6355H46.3218V24.5764H16.6108V33.645H50.8219L58.2069 24.5729V18.6355H88.2292V8.94061H58.2069Z"/>
<path d="M327.477 70.55V36.1472H325.615V5.49853H288.071V15.1935H315.281V36.4621H300.268C299.241 36.6708 298.704 36.1472 298.704 34.8981V18.0099H288.697V38.6488C288.07 44.0717 290.154 46.4672 294.95 45.8353H316.218V66.7891C316.218 67.8362 315.797 68.2503 314.966 68.0415H298.392V76.7988H322.159C325.912 77.2163 327.685 75.1334 327.477 70.55Z"/>
<path fill-rule="evenodd" clip-rule="evenodd" d="M177.046 31.1364V5.81256H247.727V23.9499C247.727 28.9531 245.225 31.3486 240.222 31.1364H177.046ZM233.347 21.7495C234.6 21.9582 235.222 21.4346 235.222 20.1855L235.216 15.179H188.931V21.7495H233.347Z"/>
<path d="M169.228 6.12456H120.754V15.8195H169.228V6.12456Z"/>
<path d="M99.4866 38.3363H105.116V66.1583C104.904 67.8283 104.383 68.5572 103.552 68.345H99.4866V76.476H107.621C111.374 76.6814 113.668 75.7437 114.503 73.663C116.784 75.7483 119.18 76.7909 121.689 76.7909H168.915V67.7188H124.194C119.814 67.3081 116.895 65.3279 115.437 61.778V29.2676H99.4866V38.3363Z"/>
<path d="M18.4889 34.8979V39.9011C18.4889 43.4464 20.9871 45.2191 25.9834 45.2191H47.8851V36.7732H33.187C31.3094 36.7732 30.4755 36.1481 30.6854 34.8979H18.4889Z"/>
<path d="M87.9172 55.8512V46.7825H16.9251V55.8512H46.0098V61.792H16.2988V70.5492H46.0098V76.8049H58.2063V70.5492H87.9172V61.792H58.2063V55.8512H87.9172Z"/>
<path d="M57.5807 45.2197V36.7738H72.2959C73.5438 36.986 74.0651 36.4647 73.8598 35.2099H86.3677V38.0263C86.9951 43.4516 83.1383 45.8471 74.7974 45.2128L57.5807 45.2197Z"/>
<path d="M115.24 14.352C115.24 18.8937 111.559 22.5754 107.017 22.5754C102.475 22.5754 98.7937 18.8937 98.7937 14.352C98.7937 9.81036 102.475 6.12862 107.017 6.12862C111.559 6.12862 115.24 9.81036 115.24 14.352Z"/>
<path d="M168.916 43.9663H159.536V51.1528C159.556 51.2794 159.545 51.4087 159.507 51.5307C159.468 51.6527 159.401 51.764 159.312 51.8559C159.223 51.9477 159.113 52.0177 158.992 52.0602C158.872 52.1026 158.743 52.1165 158.616 52.1008H136.485L132.583 60.5466H161.411C166.62 60.9641 169.121 58.7739 168.916 53.9761V43.9663Z"/>
<path d="M121.068 36.7725V27.0775H169.227V36.7725H139.52L137.395 41.5053L137.391 41.5018L128.593 60.5426H120.442V54.5984L128.573 36.7725H121.068Z"/>
<path d="M188.86 62.7291H234.905V67.4208C234.905 68.881 234.279 69.5061 233.029 69.2962H207.705V78.0534H241.17C245.339 77.8458 247.528 75.553 247.738 71.1749V52.7227H197.004L188.86 62.7291Z"/>
<path d="M177.046 44.5934H184.866L177.046 54.9146V62.7308H184.195L196.628 47.4509L198.937 44.5934H247.727V35.2099H177.046V44.5934Z"/>
<path d="M288.071 52.4128H313.717V62.1077H288.071V52.4128Z"/>
<path d="M285.576 23.9507V69.9237C285.984 75.1345 283.897 77.5334 279.313 77.1205H260.851V52.0807L270.861 39.7815V67.7301H274.936C275.765 67.9423 276.185 67.4187 276.185 66.1696V33.3171H271.449L261.549 45.4794L261.528 45.5068H257.422V34.8981L260.238 33.0228L263.363 15.1935H256.796V5.49853H285.572V15.1935H274.622L273.058 23.9507H285.576Z"/>
<path d="M87.9174 33.6441H55.4858L62.8673 24.5754H87.9174V33.6441Z"/>
</mask>
<path d="M58.2069 8.94061V5.18652H46.3218V8.94061H16.9257V18.6355H46.3218V24.5764H16.6108V33.645H50.8219L58.2069 24.5729V18.6355H88.2292V8.94061H58.2069Z" fill="url(#paint3_linear_22921_89848)"/>
<path d="M327.477 70.55V36.1472H325.615V5.49853H288.071V15.1935H315.281V36.4621H300.268C299.241 36.6708 298.704 36.1472 298.704 34.8981V18.0099H288.697V38.6488C288.07 44.0717 290.154 46.4672 294.95 45.8353H316.218V66.7891C316.218 67.8362 315.797 68.2503 314.966 68.0415H298.392V76.7988H322.159C325.912 77.2163 327.685 75.1334 327.477 70.55Z" fill="url(#paint4_linear_22921_89848)"/>
<path fill-rule="evenodd" clip-rule="evenodd" d="M177.046 31.1364V5.81256H247.727V23.9499C247.727 28.9531 245.225 31.3486 240.222 31.1364H177.046ZM233.347 21.7495C234.6 21.9582 235.222 21.4346 235.222 20.1855L235.216 15.179H188.931V21.7495H233.347Z" fill="url(#paint5_linear_22921_89848)"/>
<path d="M169.228 6.12456H120.754V15.8195H169.228V6.12456Z" fill="url(#paint6_linear_22921_89848)"/>
<path d="M99.4866 38.3363H105.116V66.1583C104.904 67.8283 104.383 68.5572 103.552 68.345H99.4866V76.476H107.621C111.374 76.6814 113.668 75.7437 114.503 73.663C116.784 75.7483 119.18 76.7909 121.689 76.7909H168.915V67.7188H124.194C119.814 67.3081 116.895 65.3279 115.437 61.778V29.2676H99.4866V38.3363Z" fill="url(#paint7_linear_22921_89848)"/>
<path d="M18.4889 34.8979V39.9011C18.4889 43.4464 20.9871 45.2191 25.9834 45.2191H47.8851V36.7732H33.187C31.3094 36.7732 30.4755 36.1481 30.6854 34.8979H18.4889Z" fill="url(#paint8_linear_22921_89848)"/>
<path d="M87.9172 55.8512V46.7825H16.9251V55.8512H46.0098V61.792H16.2988V70.5492H46.0098V76.8049H58.2063V70.5492H87.9172V61.792H58.2063V55.8512H87.9172Z" fill="url(#paint9_linear_22921_89848)"/>
<path d="M57.5807 45.2197V36.7738H72.2959C73.5438 36.986 74.0651 36.4647 73.8598 35.2099H86.3677V38.0263C86.9951 43.4516 83.1383 45.8471 74.7974 45.2128L57.5807 45.2197Z" fill="url(#paint10_linear_22921_89848)"/>
<path d="M115.24 14.352C115.24 18.8937 111.559 22.5754 107.017 22.5754C102.475 22.5754 98.7937 18.8937 98.7937 14.352C98.7937 9.81036 102.475 6.12862 107.017 6.12862C111.559 6.12862 115.24 9.81036 115.24 14.352Z" fill="url(#paint11_linear_22921_89848)"/>
<path d="M168.916 43.9663H159.536V51.1528C159.556 51.2794 159.545 51.4087 159.507 51.5307C159.468 51.6527 159.401 51.764 159.312 51.8559C159.223 51.9477 159.113 52.0177 158.992 52.0602C158.872 52.1026 158.743 52.1165 158.616 52.1008H136.485L132.583 60.5466H161.411C166.62 60.9641 169.121 58.7739 168.916 53.9761V43.9663Z" fill="url(#paint12_linear_22921_89848)"/>
<path d="M121.068 36.7725V27.0775H169.227V36.7725H139.52L137.395 41.5053L137.391 41.5018L128.593 60.5426H120.442V54.5984L128.573 36.7725H121.068Z" fill="url(#paint13_linear_22921_89848)"/>
<path d="M188.86 62.7291H234.905V67.4208C234.905 68.881 234.279 69.5061 233.029 69.2962H207.705V78.0534H241.17C245.339 77.8458 247.528 75.553 247.738 71.1749V52.7227H197.004L188.86 62.7291Z" fill="url(#paint14_linear_22921_89848)"/>
<path d="M177.046 44.5934H184.866L177.046 54.9146V62.7308H184.195L196.628 47.4509L198.937 44.5934H247.727V35.2099H177.046V44.5934Z" fill="url(#paint15_linear_22921_89848)"/>
<path d="M288.071 52.4128H313.717V62.1077H288.071V52.4128Z" fill="url(#paint16_linear_22921_89848)"/>
<path d="M285.576 23.9507V69.9237C285.984 75.1345 283.897 77.5334 279.313 77.1205H260.851V52.0807L270.861 39.7815V67.7301H274.936C275.765 67.9423 276.185 67.4187 276.185 66.1696V33.3171H271.449L261.549 45.4794L261.528 45.5068H257.422V34.8981L260.238 33.0228L263.363 15.1935H256.796V5.49853H285.572V15.1935H274.622L273.058 23.9507H285.576Z" fill="url(#paint17_linear_22921_89848)"/>
<path d="M87.9174 33.6441H55.4858L62.8673 24.5754H87.9174V33.6441Z" fill="url(#paint18_linear_22921_89848)"/>
<path d="M58.2069 8.94061V5.18652H46.3218V8.94061H16.9257V18.6355H46.3218V24.5764H16.6108V33.645H50.8219L58.2069 24.5729V18.6355H88.2292V8.94061H58.2069Z" stroke="url(#paint19_linear_22921_89848)" stroke-width="2" mask="url(#path-4-inside-1_22921_89848)"/>
<path d="M327.477 70.55V36.1472H325.615V5.49853H288.071V15.1935H315.281V36.4621H300.268C299.241 36.6708 298.704 36.1472 298.704 34.8981V18.0099H288.697V38.6488C288.07 44.0717 290.154 46.4672 294.95 45.8353H316.218V66.7891C316.218 67.8362 315.797 68.2503 314.966 68.0415H298.392V76.7988H322.159C325.912 77.2163 327.685 75.1334 327.477 70.55Z" stroke="url(#paint20_linear_22921_89848)" stroke-width="2" mask="url(#path-4-inside-1_22921_89848)"/>
<path fill-rule="evenodd" clip-rule="evenodd" d="M177.046 31.1364V5.81256H247.727V23.9499C247.727 28.9531 245.225 31.3486 240.222 31.1364H177.046ZM233.347 21.7495C234.6 21.9582 235.222 21.4346 235.222 20.1855L235.216 15.179H188.931V21.7495H233.347Z" stroke="url(#paint21_linear_22921_89848)" stroke-width="2" mask="url(#path-4-inside-1_22921_89848)"/>
<path d="M169.228 6.12456H120.754V15.8195H169.228V6.12456Z" stroke="url(#paint22_linear_22921_89848)" stroke-width="2" mask="url(#path-4-inside-1_22921_89848)"/>
<path d="M99.4866 38.3363H105.116V66.1583C104.904 67.8283 104.383 68.5572 103.552 68.345H99.4866V76.476H107.621C111.374 76.6814 113.668 75.7437 114.503 73.663C116.784 75.7483 119.18 76.7909 121.689 76.7909H168.915V67.7188H124.194C119.814 67.3081 116.895 65.3279 115.437 61.778V29.2676H99.4866V38.3363Z" stroke="url(#paint23_linear_22921_89848)" stroke-width="2" mask="url(#path-4-inside-1_22921_89848)"/>
<path d="M18.4889 34.8979V39.9011C18.4889 43.4464 20.9871 45.2191 25.9834 45.2191H47.8851V36.7732H33.187C31.3094 36.7732 30.4755 36.1481 30.6854 34.8979H18.4889Z" stroke="url(#paint24_linear_22921_89848)" stroke-width="2" mask="url(#path-4-inside-1_22921_89848)"/>
<path d="M87.9172 55.8512V46.7825H16.9251V55.8512H46.0098V61.792H16.2988V70.5492H46.0098V76.8049H58.2063V70.5492H87.9172V61.792H58.2063V55.8512H87.9172Z" stroke="url(#paint25_linear_22921_89848)" stroke-width="2" mask="url(#path-4-inside-1_22921_89848)"/>
<path d="M57.5807 45.2197V36.7738H72.2959C73.5438 36.986 74.0651 36.4647 73.8598 35.2099H86.3677V38.0263C86.9951 43.4516 83.1383 45.8471 74.7974 45.2128L57.5807 45.2197Z" stroke="url(#paint26_linear_22921_89848)" stroke-width="2" mask="url(#path-4-inside-1_22921_89848)"/>
<path d="M115.24 14.352C115.24 18.8937 111.559 22.5754 107.017 22.5754C102.475 22.5754 98.7937 18.8937 98.7937 14.352C98.7937 9.81036 102.475 6.12862 107.017 6.12862C111.559 6.12862 115.24 9.81036 115.24 14.352Z" stroke="url(#paint27_linear_22921_89848)" stroke-width="2" mask="url(#path-4-inside-1_22921_89848)"/>
<path d="M168.916 43.9663H159.536V51.1528C159.556 51.2794 159.545 51.4087 159.507 51.5307C159.468 51.6527 159.401 51.764 159.312 51.8559C159.223 51.9477 159.113 52.0177 158.992 52.0602C158.872 52.1026 158.743 52.1165 158.616 52.1008H136.485L132.583 60.5466H161.411C166.62 60.9641 169.121 58.7739 168.916 53.9761V43.9663Z" stroke="url(#paint28_linear_22921_89848)" stroke-width="2" mask="url(#path-4-inside-1_22921_89848)"/>
<path d="M121.068 36.7725V27.0775H169.227V36.7725H139.52L137.395 41.5053L137.391 41.5018L128.593 60.5426H120.442V54.5984L128.573 36.7725H121.068Z" stroke="url(#paint29_linear_22921_89848)" stroke-width="2" mask="url(#path-4-inside-1_22921_89848)"/>
<path d="M188.86 62.7291H234.905V67.4208C234.905 68.881 234.279 69.5061 233.029 69.2962H207.705V78.0534H241.17C245.339 77.8458 247.528 75.553 247.738 71.1749V52.7227H197.004L188.86 62.7291Z" stroke="url(#paint30_linear_22921_89848)" stroke-width="2" mask="url(#path-4-inside-1_22921_89848)"/>
<path d="M177.046 44.5934H184.866L177.046 54.9146V62.7308H184.195L196.628 47.4509L198.937 44.5934H247.727V35.2099H177.046V44.5934Z" stroke="url(#paint31_linear_22921_89848)" stroke-width="2" mask="url(#path-4-inside-1_22921_89848)"/>
<path d="M288.071 52.4128H313.717V62.1077H288.071V52.4128Z" stroke="url(#paint32_linear_22921_89848)" stroke-width="2" mask="url(#path-4-inside-1_22921_89848)"/>
<path d="M285.576 23.9507V69.9237C285.984 75.1345 283.897 77.5334 279.313 77.1205H260.851V52.0807L270.861 39.7815V67.7301H274.936C275.765 67.9423 276.185 67.4187 276.185 66.1696V33.3171H271.449L261.549 45.4794L261.528 45.5068H257.422V34.8981L260.238 33.0228L263.363 15.1935H256.796V5.49853H285.572V15.1935H274.622L273.058 23.9507H285.576Z" stroke="url(#paint33_linear_22921_89848)" stroke-width="2" mask="url(#path-4-inside-1_22921_89848)"/>
<path d="M87.9174 33.6441H55.4858L62.8673 24.5754H87.9174V33.6441Z" stroke="url(#paint34_linear_22921_89848)" stroke-width="2" mask="url(#path-4-inside-1_22921_89848)"/>
<defs>
<filter id="filter0_d_22921_89848" x="0.80189" y="5.67436e-05" width="341.396" height="101.531" filterUnits="userSpaceOnUse" color-interpolation-filters="sRGB">
<feFlood flood-opacity="0" result="BackgroundImageFix"/>
<feColorMatrix in="SourceAlpha" type="matrix" values="0 0 0 0 0 0 0 0 0 0 0 0 0 0 0 0 0 0 127 0" result="hardAlpha"/>
<feOffset dy="4.11321"/>
<feGaussianBlur stdDeviation="3.59905"/>
<feComposite in2="hardAlpha" operator="out"/>
<feColorMatrix type="matrix" values="0 0 0 0 0 0 0 0 0 0 0 0 0 0 0 0 0 0 0.25 0"/>
<feBlend mode="normal" in2="BackgroundImageFix" result="effect1_dropShadow_22921_89848"/>
<feBlend mode="normal" in="SourceGraphic" in2="effect1_dropShadow_22921_89848" result="shape"/>
</filter>
<linearGradient id="paint0_linear_22921_89848" x1="171.5" y1="3.08496" x2="171.5" y2="90.2195" gradientUnits="userSpaceOnUse">
<stop stop-color="#EE0D8A"/>
<stop offset="1" stop-color="#EE0DBD"/>
</linearGradient>
<linearGradient id="paint1_linear_22921_89848" x1="171.5" y1="0" x2="171.5" y2="87.1345" gradientUnits="userSpaceOnUse">
<stop stop-color="#7D0EB0"/>
<stop offset="1" stop-color="#61038D"/>
</linearGradient>
<linearGradient id="paint2_linear_22921_89848" x1="171.5" y1="0" x2="171.5" y2="87.1345" gradientUnits="userSpaceOnUse">
<stop stop-color="#8F1EC5"/>
<stop offset="1" stop-color="#8F0592"/>
</linearGradient>
<linearGradient id="paint3_linear_22921_89848" x1="171.896" y1="5.18652" x2="171.896" y2="78.0534" gradientUnits="userSpaceOnUse">
<stop offset="0.166667" stop-color="#FFF1FA"/>
<stop offset="0.75" stop-color="#FFBBE8"/>
</linearGradient>
<linearGradient id="paint4_linear_22921_89848" x1="171.896" y1="5.18652" x2="171.896" y2="78.0534" gradientUnits="userSpaceOnUse">
<stop offset="0.166667" stop-color="#FFF1FA"/>
<stop offset="0.75" stop-color="#FFBBE8"/>
</linearGradient>
<linearGradient id="paint5_linear_22921_89848" x1="171.896" y1="5.18652" x2="171.896" y2="78.0534" gradientUnits="userSpaceOnUse">
<stop offset="0.166667" stop-color="#FFF1FA"/>
<stop offset="0.75" stop-color="#FFBBE8"/>
</linearGradient>
<linearGradient id="paint6_linear_22921_89848" x1="171.896" y1="5.18652" x2="171.896" y2="78.0534" gradientUnits="userSpaceOnUse">
<stop offset="0.166667" stop-color="#FFF1FA"/>
<stop offset="0.75" stop-color="#FFBBE8"/>
</linearGradient>
<linearGradient id="paint7_linear_22921_89848" x1="171.896" y1="5.18652" x2="171.896" y2="78.0534" gradientUnits="userSpaceOnUse">
<stop offset="0.166667" stop-color="#FFF1FA"/>
<stop offset="0.75" stop-color="#FFBBE8"/>
</linearGradient>
<linearGradient id="paint8_linear_22921_89848" x1="171.896" y1="5.18652" x2="171.896" y2="78.0534" gradientUnits="userSpaceOnUse">
<stop offset="0.166667" stop-color="#FFF1FA"/>
<stop offset="0.75" stop-color="#FFBBE8"/>
</linearGradient>
<linearGradient id="paint9_linear_22921_89848" x1="171.896" y1="5.18652" x2="171.896" y2="78.0534" gradientUnits="userSpaceOnUse">
<stop offset="0.166667" stop-color="#FFF1FA"/>
<stop offset="0.75" stop-color="#FFBBE8"/>
</linearGradient>
<linearGradient id="paint10_linear_22921_89848" x1="171.896" y1="5.18652" x2="171.896" y2="78.0534" gradientUnits="userSpaceOnUse">
<stop offset="0.166667" stop-color="#FFF1FA"/>
<stop offset="0.75" stop-color="#FFBBE8"/>
</linearGradient>
<linearGradient id="paint11_linear_22921_89848" x1="171.896" y1="5.18652" x2="171.896" y2="78.0534" gradientUnits="userSpaceOnUse">
<stop offset="0.166667" stop-color="#FFF1FA"/>
<stop offset="0.75" stop-color="#FFBBE8"/>
</linearGradient>
<linearGradient id="paint12_linear_22921_89848" x1="171.896" y1="5.18652" x2="171.896" y2="78.0534" gradientUnits="userSpaceOnUse">
<stop offset="0.166667" stop-color="#FFF1FA"/>
<stop offset="0.75" stop-color="#FFBBE8"/>
</linearGradient>
<linearGradient id="paint13_linear_22921_89848" x1="171.896" y1="5.18652" x2="171.896" y2="78.0534" gradientUnits="userSpaceOnUse">
<stop offset="0.166667" stop-color="#FFF1FA"/>
<stop offset="0.75" stop-color="#FFBBE8"/>
</linearGradient>
<linearGradient id="paint14_linear_22921_89848" x1="171.896" y1="5.18652" x2="171.896" y2="78.0534" gradientUnits="userSpaceOnUse">
<stop offset="0.166667" stop-color="#FFF1FA"/>
<stop offset="0.75" stop-color="#FFBBE8"/>
</linearGradient>
<linearGradient id="paint15_linear_22921_89848" x1="171.896" y1="5.18652" x2="171.896" y2="78.0534" gradientUnits="userSpaceOnUse">
<stop offset="0.166667" stop-color="#FFF1FA"/>
<stop offset="0.75" stop-color="#FFBBE8"/>
</linearGradient>
<linearGradient id="paint16_linear_22921_89848" x1="171.896" y1="5.18652" x2="171.896" y2="78.0534" gradientUnits="userSpaceOnUse">
<stop offset="0.166667" stop-color="#FFF1FA"/>
<stop offset="0.75" stop-color="#FFBBE8"/>
</linearGradient>
<linearGradient id="paint17_linear_22921_89848" x1="171.896" y1="5.18652" x2="171.896" y2="78.0534" gradientUnits="userSpaceOnUse">
<stop offset="0.166667" stop-color="#FFF1FA"/>
<stop offset="0.75" stop-color="#FFBBE8"/>
</linearGradient>
<linearGradient id="paint18_linear_22921_89848" x1="171.896" y1="5.18652" x2="171.896" y2="78.0534" gradientUnits="userSpaceOnUse">
<stop offset="0.166667" stop-color="#FFF1FA"/>
<stop offset="0.75" stop-color="#FFBBE8"/>
</linearGradient>
<linearGradient id="paint19_linear_22921_89848" x1="171.896" y1="5.18652" x2="171.896" y2="78.0534" gradientUnits="userSpaceOnUse">
<stop stop-color="white" stop-opacity="0"/>
<stop offset="0.479167" stop-color="white"/>
<stop offset="1" stop-color="white" stop-opacity="0"/>
</linearGradient>
<linearGradient id="paint20_linear_22921_89848" x1="171.896" y1="5.18652" x2="171.896" y2="78.0534" gradientUnits="userSpaceOnUse">
<stop stop-color="white" stop-opacity="0"/>
<stop offset="0.479167" stop-color="white"/>
<stop offset="1" stop-color="white" stop-opacity="0"/>
</linearGradient>
<linearGradient id="paint21_linear_22921_89848" x1="171.896" y1="5.18652" x2="171.896" y2="78.0534" gradientUnits="userSpaceOnUse">
<stop stop-color="white" stop-opacity="0"/>
<stop offset="0.479167" stop-color="white"/>
<stop offset="1" stop-color="white" stop-opacity="0"/>
</linearGradient>
<linearGradient id="paint22_linear_22921_89848" x1="171.896" y1="5.18652" x2="171.896" y2="78.0534" gradientUnits="userSpaceOnUse">
<stop stop-color="white" stop-opacity="0"/>
<stop offset="0.479167" stop-color="white"/>
<stop offset="1" stop-color="white" stop-opacity="0"/>
</linearGradient>
<linearGradient id="paint23_linear_22921_89848" x1="171.896" y1="5.18652" x2="171.896" y2="78.0534" gradientUnits="userSpaceOnUse">
<stop stop-color="white" stop-opacity="0"/>
<stop offset="0.479167" stop-color="white"/>
<stop offset="1" stop-color="white" stop-opacity="0"/>
</linearGradient>
<linearGradient id="paint24_linear_22921_89848" x1="171.896" y1="5.18652" x2="171.896" y2="78.0534" gradientUnits="userSpaceOnUse">
<stop stop-color="white" stop-opacity="0"/>
<stop offset="0.479167" stop-color="white"/>
<stop offset="1" stop-color="white" stop-opacity="0"/>
</linearGradient>
<linearGradient id="paint25_linear_22921_89848" x1="171.896" y1="5.18652" x2="171.896" y2="78.0534" gradientUnits="userSpaceOnUse">
<stop stop-color="white" stop-opacity="0"/>
<stop offset="0.479167" stop-color="white"/>
<stop offset="1" stop-color="white" stop-opacity="0"/>
</linearGradient>
<linearGradient id="paint26_linear_22921_89848" x1="171.896" y1="5.18652" x2="171.896" y2="78.0534" gradientUnits="userSpaceOnUse">
<stop stop-color="white" stop-opacity="0"/>
<stop offset="0.479167" stop-color="white"/>
<stop offset="1" stop-color="white" stop-opacity="0"/>
</linearGradient>
<linearGradient id="paint27_linear_22921_89848" x1="171.896" y1="5.18652" x2="171.896" y2="78.0534" gradientUnits="userSpaceOnUse">
<stop stop-color="white" stop-opacity="0"/>
<stop offset="0.479167" stop-color="white"/>
<stop offset="1" stop-color="white" stop-opacity="0"/>
</linearGradient>
<linearGradient id="paint28_linear_22921_89848" x1="171.896" y1="5.18652" x2="171.896" y2="78.0534" gradientUnits="userSpaceOnUse">
<stop stop-color="white" stop-opacity="0"/>
<stop offset="0.479167" stop-color="white"/>
<stop offset="1" stop-color="white" stop-opacity="0"/>
</linearGradient>
<linearGradient id="paint29_linear_22921_89848" x1="171.896" y1="5.18652" x2="171.896" y2="78.0534" gradientUnits="userSpaceOnUse">
<stop stop-color="white" stop-opacity="0"/>
<stop offset="0.479167" stop-color="white"/>
<stop offset="1" stop-color="white" stop-opacity="0"/>
</linearGradient>
<linearGradient id="paint30_linear_22921_89848" x1="171.896" y1="5.18652" x2="171.896" y2="78.0534" gradientUnits="userSpaceOnUse">
<stop stop-color="white" stop-opacity="0"/>
<stop offset="0.479167" stop-color="white"/>
<stop offset="1" stop-color="white" stop-opacity="0"/>
</linearGradient>
<linearGradient id="paint31_linear_22921_89848" x1="171.896" y1="5.18652" x2="171.896" y2="78.0534" gradientUnits="userSpaceOnUse">
<stop stop-color="white" stop-opacity="0"/>
<stop offset="0.479167" stop-color="white"/>
<stop offset="1" stop-color="white" stop-opacity="0"/>
</linearGradient>
<linearGradient id="paint32_linear_22921_89848" x1="171.896" y1="5.18652" x2="171.896" y2="78.0534" gradientUnits="userSpaceOnUse">
<stop stop-color="white" stop-opacity="0"/>
<stop offset="0.479167" stop-color="white"/>
<stop offset="1" stop-color="white" stop-opacity="0"/>
</linearGradient>
<linearGradient id="paint33_linear_22921_89848" x1="171.896" y1="5.18652" x2="171.896" y2="78.0534" gradientUnits="userSpaceOnUse">
<stop stop-color="white" stop-opacity="0"/>
<stop offset="0.479167" stop-color="white"/>
<stop offset="1" stop-color="white" stop-opacity="0"/>
</linearGradient>
<linearGradient id="paint34_linear_22921_89848" x1="171.896" y1="5.18652" x2="171.896" y2="78.0534" gradientUnits="userSpaceOnUse">
<stop stop-color="white" stop-opacity="0"/>
<stop offset="0.479167" stop-color="white"/>
<stop offset="1" stop-color="white" stop-opacity="0"/>
</linearGradient>
</defs>
</svg>
