
<svg width="327" height="83" viewBox="0 0 327 83" fill="none" xmlns="http://www.w3.org/2000/svg">
<rect x="5" y="5" width="317" height="72" rx="20" fill="white"/>
<path fill-rule="evenodd" clip-rule="evenodd" d="M20 0C8.9543 0 0 8.95431 0 20V62C0 73.0457 8.9543 82 20 82H307C318.046 82 327 73.0457 327 62V20C327 8.95431 318.046 0 307 0H20ZM22 9.63086C15.3726 9.63086 10 15.0034 10 21.6309V59.6309C10 66.2583 15.3726 71.6309 22 71.6309H305C311.627 71.6309 317 66.2583 317 59.6309V21.6309C317 15.0034 311.627 9.63086 305 9.63086H22Z" fill="url(#paint0_linear_22857_68118)"/>
<mask id="mask0_22857_68118" style="mask-type:alpha" maskUnits="userSpaceOnUse" x="0" y="0" width="327" height="83">
<rect y="0.369141" width="327" height="82" rx="20" fill="white"/>
</mask>
<g mask="url(#mask0_22857_68118)">
<g filter="url(#filter0_f_22857_68118)">
<rect x="0.5" y="0.869141" width="326" height="81" rx="19.5" stroke="url(#paint1_linear_22857_68118)"/>
</g>
<g filter="url(#filter1_f_22857_68118)">
<rect x="10.5" y="10.8691" width="306" height="61" rx="11.5" stroke="url(#paint2_linear_22857_68118)"/>
</g>
<g filter="url(#filter2_f_22857_68118)">
<rect x="0.25" y="0.619141" width="326.5" height="81.5" rx="19.75" stroke="url(#paint3_linear_22857_68118)" stroke-width="0.5"/>
</g>
</g>
<defs>
<filter id="filter0_f_22857_68118" x="-2" y="-1.63086" width="331" height="86" filterUnits="userSpaceOnUse" color-interpolation-filters="sRGB">
<feFlood flood-opacity="0" result="BackgroundImageFix"/>
<feBlend mode="normal" in="SourceGraphic" in2="BackgroundImageFix" result="shape"/>
<feGaussianBlur stdDeviation="1" result="effect1_foregroundBlur_22857_68118"/>
</filter>
<filter id="filter1_f_22857_68118" x="8" y="8.36914" width="311" height="66" filterUnits="userSpaceOnUse" color-interpolation-filters="sRGB">
<feFlood flood-opacity="0" result="BackgroundImageFix"/>
<feBlend mode="normal" in="SourceGraphic" in2="BackgroundImageFix" result="shape"/>
<feGaussianBlur stdDeviation="1" result="effect1_foregroundBlur_22857_68118"/>
</filter>
<filter id="filter2_f_22857_68118" x="-0.5" y="-0.130859" width="328" height="83" filterUnits="userSpaceOnUse" color-interpolation-filters="sRGB">
<feFlood flood-opacity="0" result="BackgroundImageFix"/>
<feBlend mode="normal" in="SourceGraphic" in2="BackgroundImageFix" result="shape"/>
<feGaussianBlur stdDeviation="0.25" result="effect1_foregroundBlur_22857_68118"/>
</filter>
<linearGradient id="paint0_linear_22857_68118" x1="173.5" y1="0" x2="173.5" y2="72" gradientUnits="userSpaceOnUse">
<stop stop-color="#9E22FF"/>
<stop offset="1" stop-color="#B300DF"/>
</linearGradient>
<linearGradient id="paint1_linear_22857_68118" x1="163.5" y1="0.369141" x2="163.5" y2="82.3691" gradientUnits="userSpaceOnUse">
<stop stop-color="#C4A9FF"/>
<stop offset="1" stop-color="#B933FF"/>
</linearGradient>
<linearGradient id="paint2_linear_22857_68118" x1="163.5" y1="10.3691" x2="163.5" y2="72.3691" gradientUnits="userSpaceOnUse">
<stop stop-color="#B288FF"/>
<stop offset="1" stop-color="#A00CEF"/>
</linearGradient>
<linearGradient id="paint3_linear_22857_68118" x1="163.5" y1="0.369141" x2="163.5" y2="82.3691" gradientUnits="userSpaceOnUse">
<stop stop-color="#F6E9FF"/>
<stop offset="1" stop-color="#CD6DFF"/>
</linearGradient>
</defs>
</svg>
