<svg xmlns="http://www.w3.org/2000/svg" width="24" height="24" viewBox="0 0 24 24" fill="none">
  <path fill-rule="evenodd" clip-rule="evenodd" d="M22 18V12C22 6.47715 17.5228 2 12 2C6.47715 2 2 6.47715 2 12V18H0V12C0 5.37258 5.37258 0 12 0C18.6274 0 24 5.37258 24 12V18H22Z" fill="#07C160"/>
  <path fill-rule="evenodd" clip-rule="evenodd" d="M12 4.99984C12 5.55213 12.4511 5.99111 12.9958 6.0821C15.8356 6.55645 18 9.02538 18 11.9998C18 12.5521 18.4477 12.9998 19 12.9998C19.5523 12.9998 20 12.5521 20 11.9998C20 7.91954 16.9453 4.5527 12.998 4.06149C12.45 3.99329 12 4.44756 12 4.99984Z" fill="#07C160"/>
  <rect y="15" width="8" height="9" rx="2" fill="#07C160"/>
  <rect x="15.9961" y="15" width="8" height="9" rx="2" fill="#07C160"/>
</svg>