<svg xmlns="http://www.w3.org/2000/svg" width="24" height="24" viewBox="0 0 24 24" fill="none">
  <path d="M18.223 11.8257C17.8902 11.8198 17.5638 11.9176 17.2891 12.1057C17.1899 11.7298 16.9709 11.3964 16.6652 11.1562C16.3595 10.9161 15.9838 10.7821 15.5951 10.7747C15.2462 10.7747 14.9052 10.8717 14.6082 11.0547C14.5308 10.7956 14.3949 10.5577 14.2109 10.3595C14.0269 10.1613 13.7998 10.008 13.5472 9.91158C13.2945 9.81512 13.0231 9.77804 12.7538 9.80322C12.4845 9.82839 12.2247 9.91514 11.9943 10.0568V5.88993C12.0035 5.64888 11.9647 5.40841 11.8802 5.18247C11.7957 4.95653 11.6672 4.74964 11.502 4.57381C11.3369 4.39797 11.1385 4.2567 10.9183 4.15819C10.6981 4.05969 10.4605 4.00592 10.2194 4C9.72516 4.0079 9.25418 4.21114 8.9094 4.56529C8.56462 4.91944 8.37408 5.39569 8.37943 5.88993V15.4726L7.24547 14.3296C6.8951 13.9956 6.4296 13.8092 5.94552 13.8092C5.46144 13.8092 4.99594 13.9956 4.64557 14.3296C4.26095 14.6867 4.03043 15.1795 4.0028 15.7036C3.97518 16.2277 4.15263 16.7419 4.49758 17.1375L9.65938 22.4613C9.76237 22.5653 9.87937 22.6553 10.0064 22.7283C11.2199 23.6888 12.7627 24.1331 14.3012 23.9652C19.516 23.9652 19.997 21.0643 19.997 17.4975V13.7176C20.0098 13.4758 19.9736 13.2339 19.8904 13.0064C19.8073 12.779 19.679 12.5707 19.5133 12.3941C19.3476 12.2176 19.1478 12.0763 18.9261 11.979C18.7043 11.8817 18.4652 11.8302 18.223 11.8277V11.8257Z" fill="#07C160"/>
  <path fill-rule="evenodd" clip-rule="evenodd" d="M12.9839 5C12.6601 5 12.4262 4.68724 12.4262 4.36348C12.4262 3.05817 11.368 2 10.0627 2C8.75739 2 7.69922 3.05817 7.69922 4.36348C7.69922 4.68724 7.46529 5 7.14154 5H6.38406C6.01725 5 5.69922 4.73028 5.69922 4.36348C5.69922 1.9536 7.65282 0 10.0627 0C12.4726 0 14.4262 1.9536 14.4262 4.36348C14.4262 4.73028 14.1081 5 13.7413 5H12.9839Z" fill="#07C160"/>
</svg>