<svg xmlns="http://www.w3.org/2000/svg" width="24" height="24" viewBox="0 0 24 24" fill="none">
  <path fill-rule="evenodd" clip-rule="evenodd" d="M14 1.5C14 0.671573 13.3284 0 12.5 0H5C2.79086 0 1 1.79086 1 4V20C1 22.2091 2.79086 24 5 24H12.5C13.3284 24 14 23.3284 14 22.5C14 21.6716 13.3284 21 12.5 21H5C4.44772 21 4 20.5523 4 20V4C4 3.44772 4.44772 3 5 3H12.5C13.3284 3 14 2.32843 14 1.5ZM22.8764 11.6892C23.4295 12.0883 23.4295 12.9118 22.8764 13.3109L16.5852 17.8512C15.9238 18.3285 15 17.856 15 17.0403V14H8.5C7.67157 14 7 13.3284 7 12.5C7 11.6716 7.67157 11 8.5 11H15V7.95978C15 7.14417 15.9238 6.6716 16.5852 7.1489L22.8764 11.6892Z" fill="#A0ABA5"/>
</svg>