<svg width="24" height="24" viewBox="0 0 24 24" fill="none" xmlns="http://www.w3.org/2000/svg">
<path d="M17.5266 6.19669C17.5266 9.07413 15.05 11.4934 11.9145 11.4934C8.77892 11.4934 6.30234 9.07413 6.30234 6.19669C6.30234 3.31925 8.77892 0.9 11.9145 0.9C15.05 0.9 17.5266 3.31925 17.5266 6.19669Z" stroke="#07C160" stroke-width="1.8"/>
<mask id="path-2-inside-1_104_33765" fill="white">
<path fill-rule="evenodd" clip-rule="evenodd" d="M15.0948 13.752C13.2508 14.777 12 16.7457 12 19.0002C12 21.0844 13.069 22.9242 14.6872 24.0002H4.4451C2.54764 24.0002 1 22.5309 1 20.722C1 16.8789 4.28609 13.752 8.3248 13.752H15.0948Z"/>
</mask>
<path d="M15.0948 13.752L15.9694 15.3252L22.0373 11.952H15.0948V13.752ZM14.6872 24.0002V25.8002H20.6455L15.6838 22.5013L14.6872 24.0002ZM14.2202 12.1787C11.8303 13.5073 10.2 16.0638 10.2 19.0002H13.8C13.8 17.4276 14.6714 16.0468 15.9694 15.3252L14.2202 12.1787ZM10.2 19.0002C10.2 21.7144 11.5938 24.105 13.6906 25.4991L15.6838 22.5013C14.5441 21.7435 13.8 20.4543 13.8 19.0002H10.2ZM4.4451 25.8002H14.6872V22.2002H4.4451V25.8002ZM-0.8 20.722C-0.8 23.6093 1.64002 25.8002 4.4451 25.8002V22.2002C3.45527 22.2002 2.8 21.4524 2.8 20.722H-0.8ZM8.3248 11.952C3.37724 11.952 -0.8 15.8016 -0.8 20.722H2.8C2.8 17.9562 5.19494 15.552 8.3248 15.552V11.952ZM15.0948 11.952H8.3248V15.552H15.0948V11.952Z" fill="#07C160" mask="url(#path-2-inside-1_104_33765)"/>
<rect x="15" y="16" width="8" height="1.8" rx="0.9" fill="#07C160"/>
<rect x="15" y="20" width="6" height="1.8" rx="0.9" fill="#07C160"/>
</svg>
