<svg xmlns="http://www.w3.org/2000/svg" width="24" height="24" viewBox="0 0 24 24" fill="none">
  <path fill-rule="evenodd" clip-rule="evenodd" d="M22.8414 14.7645C22.1238 8.43638 20.8544 3.90039 16.8255 3.90039C14.7835 3.90039 13.7348 6.02841 11.9136 6.19644C10.0371 6.02841 9.04369 3.90039 7.00158 3.90039C2.97267 3.90039 1.70325 8.43638 1.04102 14.7085C0.654684 18.0685 0.985855 20.8685 3.02783 20.8685C5.89774 20.8685 6.00818 18.2366 8.05026 17.0045C8.82293 16.6125 10.5338 16.4446 11.9688 16.3885C13.4037 16.4446 15.1146 16.6125 15.8873 17.0045C17.9293 18.2366 18.0398 20.8685 20.9097 20.8685C22.8965 20.9246 23.1724 18.1245 22.8414 14.7645Z" stroke="#07C160" stroke-width="1.8"/>
  <path fill-rule="evenodd" clip-rule="evenodd" d="M7.75 14C6.2164 14 5 12.7307 5 11.25C5 9.76923 6.2164 8.5 7.75 8.5C9.28373 8.5 10.5 9.71637 10.5 11.25C10.5 12.7836 9.23077 14 7.75 14Z" stroke="#07C160" stroke-width="1.2"/>
  <path fill-rule="evenodd" clip-rule="evenodd" d="M15.75 14C14.2164 14 13 12.7307 13 11.25C13 9.76923 14.2164 8.5 15.75 8.5C17.2837 8.5 18.5 9.71637 18.5 11.25C18.5 12.7836 17.2308 14 15.75 14Z" stroke="#07C160" stroke-width="1.2"/>
  <path d="M16.3008 10.5L15.3008 11.5" stroke="#07C160" stroke-linecap="round"/>
</svg>