<svg xmlns="http://www.w3.org/2000/svg" width="24" height="24" viewBox="0 0 24 24" fill="none">
  <path fill-rule="evenodd" clip-rule="evenodd" d="M23.0983 11.9929C22.3058 12.0005 18.4202 9.75646 18.2975 9.63948C18.0023 9.35808 18.1139 9.00779 18.415 8.95988C18.7162 8.91196 20.4071 8.71092 20.4071 8.71092C19.3679 5.93323 17.0489 3.71486 14.0053 2.99584C9.14751 1.84783 4.12387 5.10425 3.01359 10.0742L3.01112 10.087C2.99454 10.1768 2.91227 10.6223 2.53458 10.6072C2.26218 10.5963 1.36982 10.2415 1.0472 10.0902C1.00046 10.0682 0.95806 10.0498 0.919865 10.0332C0.657017 9.91906 0.593517 9.89148 0.691045 9.406C1.95455 3.08782 8.42517 -1.17029 14.6357 0.286631C19.7898 1.49551 23.3702 5.96789 23.7636 11.0636C23.8295 11.7465 23.4818 11.9892 23.0983 11.9929ZM5.7187 14.6813C6.12395 14.9405 6.02629 15.4609 5.58095 15.5072C5.13561 15.5536 3.74101 15.6764 3.74101 15.6764C4.84659 18.2674 7.08729 20.3103 9.98454 20.9945C14.8423 22.142 19.8101 19.0432 20.9207 14.0733L20.9327 14.0206C20.945 13.9674 20.9513 13.9405 20.9825 13.7684C21.0223 13.5495 21.0866 13.2164 21.5143 13.3646C21.9419 13.5129 22.985 13.8195 23.31 13.9064C23.6177 13.9887 23.6012 14.1079 23.564 14.3768L23.5576 14.4233C23.5454 14.514 23.527 14.5971 23.5077 14.6842L23.5069 14.6877C22.0529 21.1497 15.7236 25.1809 9.3703 23.6901C4.22229 22.4826 0.643938 18.0202 0.24357 12.9321C0.189267 12.0577 0.806972 11.8793 1.43841 12.2133C1.93516 12.4761 5.31346 14.4222 5.7187 14.6813ZM16.8001 14.5092C16.8001 13.8947 16.2944 13.3975 15.6707 13.3975L13.412 13.3975V12.2858H15.6708C16.2945 12.2858 16.8002 11.7876 16.8002 11.1742C16.8002 10.5597 16.2945 10.0625 15.6708 10.0625H13.412V9.94901L15.8892 7.5107C16.3334 7.07376 16.3334 6.3648 15.8892 5.92732C15.445 5.49089 14.725 5.49089 14.2808 5.92732L11.9811 8.19083L9.69032 5.93658C9.24611 5.49961 8.52615 5.49958 8.08196 5.93658C7.63777 6.37358 7.63777 7.08244 8.08196 7.51996L10.5884 9.98648V10.0625H8.32956C7.70585 10.0625 7.2002 10.5598 7.2002 11.1742C7.2002 11.7876 7.70582 12.2858 8.32956 12.2858H10.5884V13.3975H8.32956C7.70585 13.3975 7.2002 13.8947 7.2002 14.5092C7.2002 15.1225 7.70582 15.6208 8.32956 15.6208H10.5884V17.0104C10.5884 17.778 11.2203 18.4 12.0001 18.4C12.7799 18.4 13.4119 17.7779 13.4119 17.0104V15.6208H15.6707C16.2944 15.6208 16.8001 15.1225 16.8001 14.5092Z" fill="#07C160"/>
</svg>