<svg xmlns="http://www.w3.org/2000/svg" width="24" height="24" viewBox="0 0 24 24" fill="none">
  <path fill-rule="evenodd" clip-rule="evenodd" d="M4 3C1.79086 3 0 4.79086 0 7V7.13794H24V7C24 4.79086 22.2091 3 20 3H4ZM24 10.5665H0V17.6207C0 19.8298 1.79086 21.6207 4 21.6207H20C22.2091 21.6207 24 19.8298 24 17.6207V10.5665ZM5.56508 15.2936C5.20188 14.8623 4.67106 14.5813 4.07506 14.5813C2.97617 14.5813 2.08681 15.5068 2.08681 16.6503C2.08681 17.7938 2.97617 18.7192 4.07506 18.7192C4.67106 18.7192 5.20188 18.4382 5.56508 18.007C5.92827 18.4382 6.45909 18.7192 7.05509 18.7192C8.15398 18.7192 9.04333 17.7938 9.04333 16.6503C9.04333 15.5068 8.15398 14.5813 7.05509 14.5813C6.45909 14.5813 5.92827 14.8623 5.56508 15.2936ZM5.56508 15.2936C5.87239 15.6618 6.0633 16.127 6.0633 16.6503C6.0633 17.1736 5.87239 17.6436 5.56508 18.007C5.25776 17.6387 5.06685 17.1736 5.06685 16.6503C5.06685 16.127 5.25776 15.657 5.56508 15.2936ZM21.9144 16.3094C22.0285 16.4147 22.0285 16.5853 21.9144 16.6906L18.4126 19.9205C18.2286 20.0903 17.9139 19.9701 17.9139 19.73V18.1169H13.2922C13.1308 18.1169 13 17.9963 13 17.8474V15.1526C13 15.0037 13.1308 14.8831 13.2922 14.8831H17.9139V13.27C17.9139 13.0299 18.2286 12.9097 18.4126 13.0795L21.9144 16.3094Z" fill="#07C160"/>
</svg>