<svg xmlns="http://www.w3.org/2000/svg" width="24" height="24" viewBox="0 0 24 24" fill="none">
  <g clip-path="url(#clip0_104_40786)">
    <path fill-rule="evenodd" clip-rule="evenodd" d="M3 1.5C3 0.947715 3.44772 0.5 4 0.5H20C20.5523 0.5 21 0.947715 21 1.5V6.5C21 7.05228 20.5523 7.5 20 7.5H13V10.5H20H20.5H21C21.2761 10.5 21.5 10.7239 21.5 11V16.7273C22.9424 17.1322 24 18.4569 24 20.0287C24 21.9222 22.465 23.4572 20.5714 23.4572C19.0585 23.4572 17.7744 22.4773 17.3194 21.1175C17.2049 20.7754 17.1429 20.4093 17.1429 20.0287C17.1429 19.6481 17.2049 19.2819 17.3194 18.9399C17.6619 17.9164 18.4741 17.108 19.5 16.7708V12.5H13V16.7482C14.0596 17.0708 14.9016 17.8927 15.2521 18.9399C15.3666 19.2819 15.4286 19.6481 15.4286 20.0287C15.4286 20.4093 15.3666 20.7754 15.2521 21.1175C14.797 22.4773 13.5129 23.4572 12 23.4572C10.4871 23.4572 9.20299 22.4773 8.74792 21.1175C8.63345 20.7754 8.57143 20.4093 8.57143 20.0287C8.57143 19.6481 8.63345 19.2819 8.74792 18.9399C9.09836 17.8927 9.9404 17.0708 11 16.7482V12.5H4.5V16.7708C5.52594 17.108 6.33812 17.9164 6.68065 18.9399C6.79513 19.2819 6.85714 19.6481 6.85714 20.0287C6.85714 20.4093 6.79513 20.7754 6.68065 21.1175C6.22558 22.4773 4.94152 23.4572 3.42857 23.4572C1.53502 23.4572 0 21.9222 0 20.0287C0 18.4569 1.05761 17.1322 2.5 16.7273V11C2.5 10.7239 2.72386 10.5 3 10.5H3.49915L3.5 10.5L11 10.5V7.5H4C3.44772 7.5 3 7.05228 3 6.5V1.5ZM3.42857 21.4572C4.21755 21.4572 4.85714 20.8176 4.85714 20.0287C4.85714 19.2397 4.21755 18.6001 3.42857 18.6001C2.63959 18.6001 2 19.2397 2 20.0287C2 20.8176 2.63959 21.4572 3.42857 21.4572ZM12 21.4572C12.789 21.4572 13.4286 20.8176 13.4286 20.0287C13.4286 19.2397 12.789 18.6001 12 18.6001C11.211 18.6001 10.5714 19.2397 10.5714 20.0287C10.5714 20.8176 11.211 21.4572 12 21.4572ZM20.5714 21.4572C21.3604 21.4572 22 20.8176 22 20.0287C22 19.2397 21.3604 18.6001 20.5714 18.6001C19.7824 18.6001 19.1429 19.2397 19.1429 20.0287C19.1429 20.8176 19.7824 21.4572 20.5714 21.4572Z" fill="#07C160"/>
  </g>
  <defs>
    <clipPath id="clip0_104_40786">
      <rect width="24" height="24" fill="white"/>
    </clipPath>
  </defs>
</svg>