
<svg xmlns="http://www.w3.org/2000/svg" width="24" height="24" viewBox="0 0 24 24" fill="none">
  <path fill-rule="evenodd" clip-rule="evenodd" d="M17.3258 2.40039C21.7091 2.40039 23.0902 7.33536 23.8708 14.2201C24.231 17.8756 23.9309 20.922 21.7693 20.861C19.8549 20.861 19.0691 19.7846 18.2355 18.6427C17.7096 17.9222 17.1646 17.1757 16.3051 16.6571C15.4644 16.2306 13.603 16.0479 12.0419 15.9869C10.4807 16.0479 8.61939 16.2306 7.77876 16.6571C6.91923 17.1757 6.37426 17.9222 5.84829 18.6427C5.01474 19.7846 4.22895 20.861 2.31456 20.861C0.0929819 20.861 -0.267318 17.8147 0.152998 14.1592C0.87348 7.33536 2.25455 2.40039 6.63784 2.40039C7.80736 2.40039 8.66072 3.04192 9.5045 3.67625C10.2636 4.24695 11.015 4.81182 11.9819 4.8984C12.9117 4.81262 13.6563 4.25734 14.4144 3.69205C15.272 3.05262 16.1467 2.40039 17.3258 2.40039ZM3.57545 10.4426C3.57545 12.1485 4.95655 13.6108 6.6978 13.6108C8.37906 13.6108 9.82015 12.2094 9.82015 10.4426C9.82015 8.67575 8.4392 7.27441 6.6978 7.27441C4.95655 7.27441 3.57545 8.73664 3.57545 10.4426ZM18.2265 11.052H20.6883V9.8334H18.2265V7.39641H17.0256V9.8334H14.5637V11.052H17.0256V13.55H18.2265V11.052ZM5.43695 11.7221C5.07677 11.3565 4.89664 10.93 4.89664 10.4426C4.89664 9.95525 5.07677 9.46775 5.43695 9.16318C5.79725 8.79759 6.21757 8.61478 6.6979 8.61478C7.17835 8.61478 7.65868 8.85861 7.95885 9.16318C8.31915 9.52877 8.49931 9.95525 8.49931 10.4426C8.49931 10.93 8.25913 11.4175 7.95885 11.7221C7.59867 12.0877 7.17835 12.2705 6.6979 12.2705C6.21757 12.2705 5.73727 12.0268 5.43695 11.7221Z" fill="#07C160"/>
</svg>