
<svg xmlns="http://www.w3.org/2000/svg" width="24" height="24" viewBox="0 0 24 24" fill="none">
  <path fill-rule="evenodd" clip-rule="evenodd" d="M6.70155 3.85526C6.67409 3.83535 6.6529 3.82448 6.63743 3.80824C6.33827 3.4953 6.02127 3.42709 5.73829 3.61562C5.45851 3.80188 5.38923 4.13643 5.56557 4.53311C5.78861 5.035 6.14632 5.42843 6.57985 5.75083C6.63199 5.78967 6.75508 5.80111 6.80206 5.76594C7.29777 5.39553 7.71751 4.95578 7.92215 4.35037C8.04133 3.99761 7.88855 3.69569 7.54367 3.56633C7.18987 3.43373 6.91497 3.55927 6.70155 3.85526ZM18.0451 20.1934C18.0262 20.1634 18.0365 20.1853 18.0515 20.2027C18.3163 20.5059 18.6636 20.5658 18.9753 20.3625C19.2631 20.1749 19.3354 19.88 19.1673 19.4994C18.9387 18.9823 18.5666 18.5811 18.1242 18.2462C18.0724 18.2073 17.9496 18.1955 17.9025 18.2304C17.3976 18.6038 16.9726 19.0503 16.7887 19.6745C16.6617 20.1062 16.9632 20.5132 17.3941 20.4669C17.6042 20.4444 17.8016 20.3003 18.0451 20.1934ZM12.2458 7.9954C12.1561 7.87113 12.0829 7.76296 12.0032 7.65987C11.0787 6.46502 9.91289 5.86258 8.39119 6.19416C7.05698 6.48465 6.08159 7.64024 5.97621 9.01005C5.91403 9.81852 6.11254 10.5766 6.43693 11.2986C7.56761 13.8163 9.33298 15.8165 11.4898 17.4631C12.4228 18.1754 12.1662 18.151 13.1442 17.4361C14.3376 16.5638 15.3536 15.4929 16.286 14.3439C17.1744 13.2491 17.9623 12.0882 18.4431 10.7429C18.7081 10.0011 18.8655 9.24617 18.6242 8.45704C17.9941 6.39483 15.2023 5.44091 13.3949 6.67162C12.9042 7.00589 12.5448 7.45623 12.2458 7.9954ZM4.96102 0H19.7654C19.8008 0.0144042 19.835 0.0358694 19.8716 0.0419417C21.5359 0.320141 22.7229 1.69956 22.7241 3.38415C22.728 9.13073 22.7288 14.8776 22.7238 20.6242C22.7221 22.4772 21.2293 23.9907 19.3999 23.9931C14.706 23.9992 10.0121 24.0073 5.3183 23.9873C3.96082 23.9815 2.95866 23.3005 2.34502 22.0776C2.17774 21.7442 2.11222 21.3582 2 20.9964V2.99947C2.01506 2.95598 2.03624 2.91347 2.04405 2.8687C2.24674 1.69462 2.87711 0.839541 3.93684 0.331015C4.25788 0.176946 4.61851 0.108032 4.96102 0Z" fill="#07C160"/>
</svg>