<svg xmlns="http://www.w3.org/2000/svg" width="24" height="24" viewBox="0 0 24 24" fill="none">
  <path fill-rule="evenodd" clip-rule="evenodd" d="M12.912 17.7692L12 21.4615C12.804 21.4615 13.596 21.4615 14.604 20.6369C15.432 19.96 16.404 18.7046 17.4 17.3508C21 16.5385 24 14.5446 24 12.2308C24 9.96615 21.132 8.02154 17.628 7.16C16.932 5.79385 16.152 4.51385 14.796 3.82462C13.2 3 10.8 3 8.4 3L10.392 7.08615C7.584 7.73846 5.28 9.15385 4.5 10.9015C4.392 10.3108 4.236 9.76923 3.996 9.36308C3.204 7.92308 1.596 7.92308 0 7.92308C1.32 7.92308 1.8 9.85538 1.8 12.2308C1.8 14.6062 1.32 16.5385 0 16.5385C1.596 16.5385 3.204 16.5385 3.996 15.0985C4.236 14.6923 4.392 14.1508 4.5 13.56C5.508 15.8 9 17.5108 12.912 17.7692ZM16.8001 11.6154C16.8001 10.9357 17.3374 10.3847 18.0001 10.3847C18.6628 10.3847 19.2001 10.9357 19.2001 11.6154C19.2001 12.2952 18.6628 12.8462 18.0001 12.8462C17.3374 12.8462 16.8001 12.2952 16.8001 11.6154Z" fill="#07C160"/>
</svg>