<svg xmlns="http://www.w3.org/2000/svg" width="24" height="24" viewBox="0 0 24 24" fill="none">
  <path d="M21.6545 11.338C22.6975 10.7009 24 11.4962 24 12.7671V19.4794C24 20.7525 22.6942 21.5478 21.6513 20.9107L19.7051 19.726V20.4951C19.7051 21.7714 18.7156 22.8176 17.5036 22.8176H2.20145C0.992727 22.8176 0 21.7736 0 20.494V10.9594C0 9.68308 0.989455 8.63581 2.20145 8.63581H17.5069C18.7156 8.63581 19.7073 9.67981 19.7073 10.9594V12.5227L21.6535 11.338H21.6545ZM8.79927 12.0405C8.28436 11.6653 7.63964 12.1344 7.63636 12.8849V18.5653C7.63636 19.3191 8.28436 19.7871 8.79927 19.4129L12.7047 16.5722C13.2196 16.1969 13.2196 15.2565 12.7047 14.8813L8.79927 12.0405ZM7.63636 5.36308C7.63636 5.6496 7.57993 5.93332 7.47028 6.19803C7.36064 6.46274 7.19993 6.70326 6.99732 6.90586C6.79472 7.10846 6.5542 7.26917 6.28949 7.37882C6.02478 7.48846 5.74107 7.5449 5.45455 7.5449C5.16803 7.5449 4.88431 7.48846 4.6196 7.37882C4.35489 7.26917 4.11437 7.10846 3.91177 6.90586C3.70917 6.70326 3.54845 6.46274 3.43881 6.19803C3.32916 5.93332 3.27273 5.6496 3.27273 5.36308C3.27273 4.78443 3.5026 4.22947 3.91177 3.8203C4.32094 3.41113 4.87589 3.18126 5.45455 3.18126C6.0332 3.18126 6.58815 3.41113 6.99732 3.8203C7.4065 4.22947 7.63636 4.78443 7.63636 5.36308ZM14.1818 7.5449C14.6166 7.55291 15.0485 7.47421 15.4525 7.3134C15.8565 7.15259 16.2244 6.91289 16.5347 6.60831C16.845 6.30372 17.0915 5.94036 17.2598 5.53944C17.4281 5.13852 17.5148 4.70808 17.5148 4.27327C17.5149 3.83846 17.4283 3.408 17.2602 3.00702C17.092 2.60605 16.8456 2.2426 16.5354 1.93791C16.2252 1.63323 15.8574 1.3934 15.4535 1.23246C15.0496 1.07151 14.6176 0.99267 14.1829 1.00054C13.3254 1.01605 12.5083 1.36754 11.9073 1.97939C11.3063 2.59124 10.9695 3.41455 10.9694 4.27218C10.9692 5.12982 11.3058 5.95324 11.9065 6.56528C12.5073 7.17733 13.3243 7.5291 14.1818 7.5449Z" fill="#07C160"/>
</svg>