<svg xmlns="http://www.w3.org/2000/svg" width="24" height="24" viewBox="0 0 24 24" fill="none">
  <path fill-rule="evenodd" clip-rule="evenodd" d="M7.40249 17.8026L9.36579 15.0011L8.88785 13.5L8.35579 11.8289L5.26168 10.8293L4.37623 11.7459L3.04441 13.1245L1.93809 12.0624L1.75761 11.8891C1.75659 11.9496 1.75594 12.0102 1.75594 12.0711C1.75594 14.6018 2.63677 16.9225 4.10251 18.7318L4.37084 17.2899L6.2423 17.6064L7.40249 17.8026ZM15.5125 18.5866L13.4567 15.805H11.8737H10.1327L8.1954 18.5105L8.78276 19.6416L9.67674 21.3634L8.52801 21.9927C9.57891 22.3455 10.7039 22.5367 11.8737 22.5367C13.0435 22.5367 14.1686 22.3455 15.2195 21.9927L14.0707 21.3634L14.9647 19.6416L15.5125 18.5866ZM19.0081 10.8293L15.6629 11.9443L15.177 13.4401L14.6343 15.1103L16.6238 17.8061L17.9071 17.5935L19.8382 17.2734L20.1151 18.7318C21.6277 16.9018 22.5368 14.5545 22.5368 11.9948C22.5368 11.9333 22.536 11.872 22.5349 11.8108L22.3488 11.9861L21.207 13.0603L19.8326 11.666L19.0081 10.8293ZM11.4149 8.55851L11.3842 4.93405L10.1599 4.313L8.37382 3.40685L9.05598 1.9407L9.14195 1.75624C7.38565 2.25123 5.81567 3.19962 4.5628 4.46939C3.93146 5.10924 3.38061 5.83093 2.92697 6.61697L3.41811 6.55368L4.95307 6.35584L5.24157 8.29221L5.41782 9.47419L8.72842 10.5367L9.9826 9.6131L11.4149 8.55851ZM12.8783 5.12013L12.9103 8.89265L14.1345 9.79654L15.5332 10.8292L18.6047 9.78897L18.7972 8.49398L19.081 6.58448L20.5906 6.77957L21.0735 6.84199C20.6274 6.06685 20.0858 5.35518 19.4649 4.7242C18.2327 3.47205 16.6885 2.53682 14.9614 2.0487L15.0458 2.2306L15.7168 3.67641L13.9603 4.56998L12.8783 5.12013ZM12.0001 0C15.3138 0 18.3139 1.34308 20.4855 3.51477C22.6571 5.6862 24.0003 8.68625 24.0003 12.0001C24.0003 15.3136 22.6571 18.3137 20.4855 20.4852C18.3139 22.6568 15.3138 24 12.0001 24C8.68643 24 5.68636 22.6568 3.51479 20.4852C1.34308 18.3137 0 15.3136 0 12.0001C0 8.68625 1.34308 5.6862 3.51479 3.51477C5.68636 1.34308 8.68643 0 12.0001 0Z" fill="#07C160"/>
</svg>