
									<svg width="79" height="83" viewBox="0 0 79 83" fill="none"
										xmlns="http://www.w3.org/2000/svg">
										<path
											d="M7.75 10.9688H14.4688V2.53125C14.5729 1.48958 15.3542 0.916667 16.8125 0.8125C18.1667 0.916667 18.8958 1.48958 19 2.53125V3.625H33.8438C35.1979 3.72917 35.9271 4.40625 36.0312 5.65625C35.9271 7.01042 35.1979 7.73958 33.8438 7.84375H19V10.9688H30.0938C32.9062 10.7604 34.1562 11.8542 33.8438 14.25V21.4375C34.0521 23.3125 32.8542 24.1979 30.25 24.0938H7.90625C5.09375 24.4062 3.84375 23.2083 4.15625 20.5V14.25C3.94792 11.9583 5.14583 10.8646 7.75 10.9688ZM29.3125 15.6562C29.3125 15.3438 29.1562 15.1875 28.8438 15.1875H9.15625C8.94792 15.2917 8.79167 15.4479 8.6875 15.6562V19.4062C8.6875 19.6146 8.84375 19.7708 9.15625 19.875H28.8438C29.1562 19.875 29.3125 19.7188 29.3125 19.4062V15.6562ZM32.75 35.0312C32.2292 33.6771 31.1875 31.4896 29.625 28.4688C29.1042 27.1146 29.3646 26.1771 30.4062 25.6562C31.6562 25.2396 32.6979 25.6042 33.5312 26.75C34.5729 28.5208 35.6146 30.7604 36.6562 33.4688C36.9688 34.8229 36.6042 35.7604 35.5625 36.2812C34.3125 36.6979 33.375 36.2812 32.75 35.0312ZM1.8125 33.7812C3.375 31.2812 4.625 29.0417 5.5625 27.0625C6.1875 25.8125 7.17708 25.3438 8.53125 25.6562C9.67708 26.2812 10.0417 27.2708 9.625 28.625C8.47917 31.3333 7.125 33.8333 5.5625 36.125C4.52083 37.1667 3.42708 37.375 2.28125 36.75C1.23958 36.0208 1.08333 35.0312 1.8125 33.7812ZM22.2812 35.0312C21.4479 31.3854 20.9271 29.1458 20.7188 28.3125C20.4062 27.0625 20.875 26.2292 22.125 25.8125C23.4792 25.6042 24.3646 26.125 24.7812 27.375C25.5104 29.5625 26.0312 31.75 26.3438 33.9375C26.5521 35.2917 26.0833 36.1771 24.9375 36.5938C23.4792 36.8021 22.5938 36.2812 22.2812 35.0312ZM12.9062 35.0312C12.9062 33.3646 12.75 31.0729 12.4375 28.1562C12.4375 27.0104 13.1146 26.3854 14.4688 26.2812C15.7188 26.2812 16.4479 26.8542 16.6562 28C17.0729 30.8125 17.2292 33.2083 17.125 35.1875C17.0208 36.3333 16.2917 36.9062 14.9375 36.9062C13.6875 36.8021 13.0104 36.1771 12.9062 35.0312ZM56.9688 4.09375V2.21875C57.0729 0.96875 57.8542 0.291667 59.3125 0.1875C60.875 0.1875 61.7083 0.8125 61.8125 2.0625V4.09375H73.0625C74.4167 4.19792 75.1458 4.92708 75.25 6.28125C75.1458 7.73958 74.4167 8.52083 73.0625 8.625H61.8125V14.875H76.1875C77.2292 14.9792 77.6979 15.7604 77.5938 17.2188C77.4896 18.5729 76.9167 19.3021 75.875 19.4062H61.8125V32.2188H68.8438C69.8854 32.3229 70.3542 31.75 70.25 30.5V22.375C70.3542 21.125 71.1354 20.3958 72.5938 20.1875C74.0521 20.2917 74.8333 20.9688 74.9375 22.2188V33C75.25 35.5 73.9479 36.6458 71.0312 36.4375H46.6562C44.6771 36.6458 43.7396 35.7083 43.8438 33.625V23C43.9479 21.4375 44.7292 20.5521 46.1875 20.3438C47.6458 20.4479 48.4271 21.2812 48.5312 22.8438V30.9688C48.5312 31.9062 48.8958 32.3229 49.625 32.2188H56.9688V19.4062H42.4375C41.2917 19.3021 40.7188 18.5208 40.7188 17.0625C40.8229 15.7083 41.4479 14.9792 42.5938 14.875H56.9688V8.625H45.7188C44.4688 8.52083 43.7917 7.73958 43.6875 6.28125C43.7917 4.92708 44.4688 4.19792 45.7188 4.09375H56.9688ZM4 51.2812C2.75 51.1771 2.07292 50.4479 1.96875 49.0938C2.07292 47.7396 2.75 47.0104 4 46.9062H34.4688C35.7188 47.0104 36.3958 47.7396 36.5 49.0938C36.3958 50.4479 35.7188 51.1771 34.4688 51.2812H29.3125V61.4375H35.7188C36.7604 61.5417 37.3333 62.3229 37.4375 63.7812C37.3333 65.2396 36.7604 66.0208 35.7188 66.125H29.3125V79.875C29.2083 81.3333 28.4792 82.1146 27.125 82.2188C25.6667 82.1146 24.8854 81.3333 24.7812 79.875V66.125H14.7812C14.3646 73.3125 12.0208 78.3125 7.75 81.125C6.1875 82.1667 4.78125 82.2708 3.53125 81.4375C2.48958 80.1875 2.59375 79.0417 3.84375 78C7.80208 74.6667 9.83333 70.7083 9.9375 66.125H2.90625C1.65625 66.0208 0.979167 65.2396 0.875 63.7812C1.08333 62.4271 1.8125 61.6979 3.0625 61.5938H10.25V51.2812H4ZM24.7812 61.5938V51.2812H14.9375V61.5938H24.7812ZM45.5625 50.0312C45.5625 49.8229 45.7188 49.1979 46.0312 48.1562C46.1354 47.6354 46.1875 47.375 46.1875 47.375C46.5 45.9167 47.4375 45.2396 49 45.3438C50.4583 45.5521 51.0833 46.3854 50.875 47.8438C50.7708 48.3646 50.6146 49.0938 50.4062 50.0312H52.75C54.9375 49.9271 55.9271 50.9688 55.7188 53.1562C55.7188 54.5104 55.6667 55.5521 55.5625 56.2812C56.2917 54.8229 57.9583 51.6979 60.5625 46.9062C61.5 45.4479 62.6979 44.875 64.1562 45.1875C65.5104 45.7083 65.9271 46.8021 65.4062 48.4688C65.3021 48.6771 63.6875 51.5417 60.5625 57.0625C63.4792 57.1667 66.8646 56.9583 70.7188 56.4375C69.9896 54.5625 69.2083 52.7396 68.375 50.9688C67.9583 49.7188 68.375 48.7812 69.625 48.1562C70.875 47.6354 71.9167 47.9479 72.75 49.0938C74.8333 53.0521 76.4479 56.75 77.5938 60.1875C78.0104 61.5417 77.5938 62.5312 76.3438 63.1562C74.9896 63.6771 73.9479 63.3125 73.2188 62.0625C72.9062 61.5417 72.5938 60.9167 72.2812 60.1875C67.6979 61.125 63.2708 61.6458 59 61.75C56.8125 61.8542 55.5625 61.3333 55.25 60.1875C55.0417 64.6667 53.9479 68.7812 51.9688 72.5312C53.7396 73.9896 54.8854 75.1875 55.4062 76.125C55.9271 78.1042 55.1979 79.0938 53.2188 79.0938C52.8021 78.9896 52.0208 78.5208 50.875 77.6875C50.3542 77.2708 49.9375 76.9062 49.625 76.5938C46.9167 80.0312 44.8854 81.6979 43.5312 81.5938C41.8646 81.3854 41.0833 80.6042 41.1875 79.25C41.2917 78.7292 41.8646 78 42.9062 77.0625C44.2604 75.8125 45.3542 74.6146 46.1875 73.4688C42.4375 69.9271 40.7188 67.8438 41.0312 67.2188C41.0312 66.4896 41.9167 63.4167 43.6875 58C44.1042 56.5417 44.4167 55.4479 44.625 54.7188H42.75C41.3958 54.6146 40.7188 53.7812 40.7188 52.2188C40.9271 50.8646 41.7083 50.1354 43.0625 50.0312H45.5625ZM48.6875 69.4062C50.5625 65.1354 51.5 60.2396 51.5 54.7188H49.3125C48.6875 57.3229 47.4896 61.2292 45.7188 66.4375C46.9688 67.8958 47.9583 68.8854 48.6875 69.4062ZM56.0312 67.0625C55.9271 64.5625 57.0208 63.3646 59.3125 63.4688H71.9688C74.8854 63.0521 76.1354 64.4062 75.7188 67.5312V77.6875C76.0312 79.9792 74.6771 81.0208 71.6562 80.8125H59.4688C57.0729 81.0208 55.9271 79.9792 56.0312 77.6875V67.0625ZM70.5625 76.9062C71.0833 76.9062 71.3438 76.5938 71.3438 75.9688V68.625C71.3438 68 71.1354 67.6875 70.7188 67.6875H61.3438C60.7188 67.6875 60.4062 68 60.4062 68.625V76.125C60.4062 76.6458 60.7188 76.9062 61.3438 76.9062H70.5625Z"
											fill="url(#paint0_linear_22916_85378)" />
										<path
											d="M7.75 10.9688L7.71003 11.968L7.73001 11.9688H7.75V10.9688ZM14.4688 10.9688V11.9688H15.4688V10.9688H14.4688ZM14.4688 2.53125L13.4737 2.43175L13.4688 2.48137V2.53125H14.4688ZM16.8125 0.8125L16.8892 -0.184555L16.8152 -0.190243L16.7413 -0.184959L16.8125 0.8125ZM19 2.53125H20V2.48137L19.995 2.43175L19 2.53125ZM19 3.625H18V4.625H19V3.625ZM33.8438 3.625L33.9204 2.62795L33.8822 2.625H33.8438V3.625ZM36.0312 5.65625L37.0283 5.73295L37.0345 5.65306L37.0278 5.5732L36.0312 5.65625ZM33.8438 7.84375V8.84375H33.8822L33.9204 8.8408L33.8438 7.84375ZM19 7.84375V6.84375H18V7.84375H19ZM19 10.9688H18V11.9688H19V10.9688ZM30.0938 10.9688V11.9688H30.1307L30.1676 11.966L30.0938 10.9688ZM33.8438 14.25L32.8521 14.1207L32.8438 14.1851V14.25H33.8438ZM33.8438 21.4375H32.8438V21.4929L32.8499 21.5479L33.8438 21.4375ZM30.25 24.0938L30.29 23.0945L30.27 23.0938H30.25V24.0938ZM7.90625 24.0938V23.0938H7.85086L7.79582 23.0999L7.90625 24.0938ZM4.15625 20.5L5.14966 20.6146L5.15625 20.5575V20.5H4.15625ZM4.15625 14.25H5.15625V14.2046L5.15214 14.1595L4.15625 14.25ZM9.15625 15.1875V14.1875H8.92018L8.70904 14.2931L9.15625 15.1875ZM8.6875 15.6562L7.79307 15.209L7.6875 15.4202V15.6562H8.6875ZM9.15625 19.875L8.84002 20.8237L8.99397 20.875H9.15625V19.875ZM32.75 35.0312L31.8167 35.3902L31.834 35.4353L31.8556 35.4785L32.75 35.0312ZM29.625 28.4688L28.6917 28.8277L28.7114 28.8792L28.7368 28.9282L29.625 28.4688ZM30.4062 25.6562L30.09 24.7076L30.0226 24.73L29.959 24.7618L30.4062 25.6562ZM33.5312 26.75L34.3932 26.243L34.3686 26.2011L34.34 26.1618L33.5312 26.75ZM36.6562 33.4688L37.6306 33.2439L37.6148 33.1754L37.5896 33.1098L36.6562 33.4688ZM35.5625 36.2812L35.8787 37.2299L35.9461 37.2075L36.0097 37.1757L35.5625 36.2812ZM1.8125 33.7812L0.964502 33.2513L0.956412 33.2642L0.948721 33.2774L1.8125 33.7812ZM5.5625 27.0625L4.66807 26.6153L4.66332 26.6248L4.65876 26.6344L5.5625 27.0625ZM8.53125 25.6562L9.0101 24.7784L8.88972 24.7127L8.75611 24.6819L8.53125 25.6562ZM9.625 28.625L10.546 29.0146L10.5658 28.9677L10.5808 28.9191L9.625 28.625ZM5.5625 36.125L6.26961 36.8321L6.33591 36.7658L6.38873 36.6883L5.5625 36.125ZM2.28125 36.75L1.70779 37.5692L1.75346 37.6012L1.8024 37.6279L2.28125 36.75ZM22.2812 35.0312L21.3064 35.2541L21.3086 35.264L21.3111 35.2738L22.2812 35.0312ZM20.7188 28.3125L19.7486 28.555L20.7188 28.3125ZM22.125 25.8125L21.9729 24.8241L21.8892 24.837L21.8088 24.8638L22.125 25.8125ZM24.7812 27.375L23.8326 27.6912L24.7812 27.375ZM26.3438 33.9375L25.3537 34.0789L25.3554 34.0896L26.3438 33.9375ZM24.9375 36.5938L25.0789 37.5837L25.1817 37.569L25.2792 37.5335L24.9375 36.5938ZM12.9062 35.0312H11.9062V35.0766L11.9104 35.1218L12.9062 35.0312ZM12.4375 28.1562H11.4375V28.2097L11.4432 28.2628L12.4375 28.1562ZM14.4688 26.2812V25.2812H14.4303L14.3921 25.2842L14.4688 26.2812ZM16.6562 28L17.6455 27.8535L17.6431 27.8372L17.6401 27.8211L16.6562 28ZM17.125 35.1875L18.1209 35.278L18.1226 35.2591L18.1236 35.2401L17.125 35.1875ZM14.9375 36.9062L14.8545 37.9028L14.8959 37.9062H14.9375V36.9062ZM7.75 11.9688H14.4688V9.96875H7.75V11.9688ZM15.4688 10.9688V2.53125H13.4688V10.9688H15.4688ZM15.4638 2.63075C15.4902 2.36659 15.5822 2.23085 15.7242 2.12672C15.9042 1.99473 16.2535 1.85498 16.8837 1.80996L16.7413 -0.184959C15.9132 -0.125813 15.1427 0.0729747 14.5414 0.513907C13.9022 0.982696 13.5515 1.65424 13.4737 2.43175L15.4638 2.63075ZM16.7358 1.80955C17.3024 1.85314 17.6048 1.98693 17.7572 2.10663C17.8793 2.20262 17.9761 2.34234 18.005 2.63075L19.995 2.43175C19.9197 1.67849 19.5998 1.01092 18.9928 0.533994C18.416 0.08078 17.6767 -0.123976 16.8892 -0.184555L16.7358 1.80955ZM18 2.53125V3.625H20V2.53125H18ZM19 4.625H33.8438V2.625H19V4.625ZM33.7671 4.62205C34.3004 4.66308 34.5782 4.80666 34.7258 4.94373C34.8637 5.07175 34.9977 5.29547 35.0347 5.7393L37.0278 5.5732C36.9606 4.76703 36.678 4.02721 36.0867 3.47814C35.5051 2.93813 34.7413 2.69109 33.9204 2.62795L33.7671 4.62205ZM35.0342 5.57955C34.9945 6.09519 34.8476 6.3632 34.6991 6.51164C34.5507 6.66008 34.2827 6.80703 33.7671 6.8467L33.9204 8.8408C34.759 8.7763 35.5326 8.50658 36.1134 7.92586C36.6941 7.34513 36.9638 6.57148 37.0283 5.73295L35.0342 5.57955ZM33.8438 6.84375H19V8.84375H33.8438V6.84375ZM18 7.84375V10.9688H20V7.84375H18ZM19 11.9688H30.0938V9.96875H19V11.9688ZM30.1676 11.966C31.482 11.8687 32.1606 12.1041 32.4821 12.3854C32.7541 12.6233 32.9862 13.0926 32.8521 14.1207L34.8354 14.3793C35.0138 13.0116 34.7772 11.736 33.7991 10.8802C32.8706 10.0678 31.518 9.86051 30.0199 9.97148L30.1676 11.966ZM32.8438 14.25V21.4375H34.8438V14.25H32.8438ZM32.8499 21.5479C32.9268 22.2405 32.7408 22.531 32.5072 22.7036C32.185 22.9417 31.5177 23.1437 30.29 23.0945L30.21 25.093C31.5865 25.148 32.8202 24.9593 33.696 24.312C34.6602 23.5993 34.969 22.5095 34.8376 21.3271L32.8499 21.5479ZM30.25 23.0938H7.90625V25.0938H30.25V23.0938ZM7.79582 23.0999C6.50073 23.2438 5.85768 23.0013 5.55128 22.7077C5.25726 22.4259 5.00837 21.8391 5.14966 20.6146L3.16284 20.3854C2.99163 21.8692 3.21149 23.2355 4.16747 24.1517C5.11107 25.056 6.49927 25.2562 8.01668 25.0876L7.79582 23.0999ZM5.15625 20.5V14.25H3.15625V20.5H5.15625ZM5.15214 14.1595C5.06376 13.1872 5.29064 12.707 5.57271 12.4494C5.88759 12.1619 6.51797 11.9203 7.71003 11.968L7.78997 9.96955C6.37786 9.91306 5.1072 10.1662 4.22417 10.9725C3.30832 11.8087 3.04041 13.0211 3.16036 14.3405L5.15214 14.1595ZM30.3125 15.6562C30.3125 15.3459 30.2342 14.9294 29.9024 14.5976C29.5706 14.2658 29.1541 14.1875 28.8438 14.1875V16.1875C28.8415 16.1875 28.7989 16.1876 28.7326 16.1655C28.6615 16.1418 28.5713 16.0949 28.4882 16.0118C28.4051 15.9287 28.3582 15.8385 28.3345 15.7674C28.3124 15.7011 28.3125 15.6585 28.3125 15.6562H30.3125ZM28.8438 14.1875H9.15625V16.1875H28.8438V14.1875ZM8.70904 14.2931C8.30718 14.494 7.994 14.8072 7.79307 15.209L9.58193 16.1035C9.58554 16.0962 9.58811 16.0924 9.58912 16.091C9.5901 16.0896 9.59034 16.0895 9.58992 16.0899C9.5895 16.0903 9.58963 16.0901 9.591 16.0891C9.59243 16.0881 9.59625 16.0855 9.60346 16.0819L8.70904 14.2931ZM7.6875 15.6562V19.4062H9.6875V15.6562H7.6875ZM7.6875 19.4062C7.6875 20.2788 8.39687 20.676 8.84002 20.8237L9.47248 18.9263C9.39718 18.9012 9.43957 18.9004 9.51179 18.9726C9.55243 19.0132 9.59995 19.0748 9.63594 19.1588C9.67243 19.244 9.6875 19.3299 9.6875 19.4062H7.6875ZM9.15625 20.875H28.8438V18.875H9.15625V20.875ZM28.8438 20.875C29.1541 20.875 29.5706 20.7967 29.9024 20.4649C30.2342 20.1331 30.3125 19.7166 30.3125 19.4062H28.3125C28.3125 19.404 28.3124 19.3614 28.3345 19.2951C28.3582 19.224 28.4051 19.1338 28.4882 19.0507C28.5713 18.9676 28.6615 18.9207 28.7326 18.897C28.7989 18.8749 28.8415 18.875 28.8438 18.875V20.875ZM30.3125 19.4062V15.6562H28.3125V19.4062H30.3125ZM33.6833 34.6723C33.1408 33.2618 32.0763 31.0312 30.5132 28.0093L28.7368 28.9282C30.2987 31.9479 31.3175 34.0924 31.8167 35.3902L33.6833 34.6723ZM30.5583 28.1098C30.339 27.5394 30.3424 27.2004 30.3932 27.0176C30.4329 26.8749 30.5314 26.7117 30.8535 26.5507L29.959 24.7618C29.2395 25.1216 28.6869 25.6876 28.4662 26.4824C28.2565 27.2371 28.3902 28.044 28.6917 28.8277L30.5583 28.1098ZM30.7225 26.6049C31.1795 26.4526 31.5212 26.4653 31.7947 26.561C32.0756 26.6594 32.3916 26.8832 32.7225 27.3382L34.34 26.1618C33.8376 25.471 33.216 24.9396 32.4553 24.6733C31.6871 24.4044 30.883 24.4432 30.09 24.7076L30.7225 26.6049ZM32.6693 27.257C33.6744 28.9657 34.6936 31.1515 35.7229 33.8277L37.5896 33.1098C36.5356 30.3693 35.4714 28.076 34.3932 26.243L32.6693 27.257ZM35.6819 33.6936C35.8097 34.2475 35.7718 34.6024 35.6852 34.8251C35.6069 35.0263 35.4515 35.2187 35.1153 35.3868L36.0097 37.1757C36.7152 36.8229 37.2629 36.2862 37.5492 35.5499C37.8272 34.8351 37.8153 34.0442 37.6306 33.2439L35.6819 33.6936ZM35.2463 35.3326C34.7885 35.4852 34.5097 35.4482 34.328 35.3674C34.1369 35.2825 33.8907 35.0765 33.6444 34.584L31.8556 35.4785C32.2343 36.236 32.7694 36.8633 33.5157 37.1951C34.2716 37.531 35.0865 37.494 35.8787 37.2299L35.2463 35.3326ZM2.6605 34.3112C4.23701 31.7888 5.5076 29.5144 6.46624 27.4906L4.65876 26.6344C3.7424 28.569 2.51299 30.7737 0.964502 33.2513L2.6605 34.3112ZM6.45693 27.5097C6.69742 27.0287 6.95899 26.7921 7.20152 26.6772C7.44337 26.5626 7.78866 26.5112 8.30639 26.6306L8.75611 24.6819C7.91967 24.4888 7.09308 24.5155 6.34535 24.8697C5.59831 25.2236 5.05258 25.8463 4.66807 26.6153L6.45693 27.5097ZM8.0524 26.5341C8.46525 26.7593 8.6457 26.9957 8.72572 27.2129C8.80997 27.4416 8.83508 27.7919 8.66922 28.3309L10.5808 28.9191C10.8316 28.104 10.8827 27.2824 10.6024 26.5215C10.3178 25.7491 9.74309 25.1782 9.0101 24.7784L8.0524 26.5341ZM8.70403 28.2354C7.58242 30.8864 6.25937 33.3278 4.73627 35.5617L6.38873 36.6883C7.99063 34.3389 9.37591 31.7802 10.546 29.0146L8.70403 28.2354ZM4.85539 35.4179C4.43125 35.842 4.06916 36.0239 3.77383 36.0802C3.49225 36.1338 3.16649 36.0938 2.7601 35.8721L1.8024 37.6279C2.54185 38.0312 3.33588 38.1995 4.14805 38.0448C4.94647 37.8928 5.65208 37.4496 6.26961 36.8321L4.85539 35.4179ZM2.85471 35.9308C2.49301 35.6776 2.39566 35.4639 2.37058 35.305C2.34138 35.12 2.37752 34.7973 2.67628 34.2851L0.948721 33.2774C0.518311 34.0152 0.268 34.8123 0.39505 35.6169C0.526214 36.4476 1.02782 37.0933 1.70779 37.5692L2.85471 35.9308ZM23.2561 34.8084C22.4237 31.1668 21.9003 28.9155 21.6889 28.07L19.7486 28.555C19.9539 29.3762 20.4721 31.604 21.3064 35.2541L23.2561 34.8084ZM21.6889 28.07C21.5726 27.6049 21.6367 27.3661 21.7075 27.2403C21.7806 27.1103 21.9622 26.9209 22.4412 26.7612L21.8088 24.8638C21.0378 25.1208 20.36 25.5564 19.9644 26.2597C19.5664 26.9672 19.5524 27.7701 19.7486 28.555L21.6889 28.07ZM22.2771 26.8009C22.8027 26.72 23.1112 26.7991 23.2977 26.9088C23.4787 27.0153 23.6785 27.229 23.8326 27.6912L25.7299 27.0588C25.4673 26.271 25.0161 25.5993 24.3117 25.1849C23.6128 24.7738 22.8015 24.6967 21.9729 24.8241L22.2771 26.8009ZM23.8326 27.6912C24.5436 29.8243 25.0501 31.9533 25.3538 34.0789L27.3337 33.7961C27.0124 31.5467 26.4772 29.3007 25.7299 27.0588L23.8326 27.6912ZM25.3554 34.0896C25.4387 34.6309 25.3673 34.9554 25.2647 35.1493C25.1702 35.3277 24.9888 35.511 24.5958 35.654L25.2792 37.5335C26.032 37.2598 26.6579 36.7921 27.0322 36.0851C27.3983 35.3935 27.4572 34.5982 27.3321 33.7854L25.3554 34.0896ZM24.7961 35.6038C24.1964 35.6895 23.8649 35.6023 23.6867 35.4974C23.5308 35.4057 23.3601 35.2235 23.2514 34.7887L21.3111 35.2738C21.5149 36.089 21.9432 36.7922 22.6727 37.2213C23.3799 37.6373 24.2203 37.7064 25.0789 37.5837L24.7961 35.6038ZM13.9062 35.0312C13.9062 33.3121 13.7457 30.9796 13.4318 28.0497L11.4432 28.2628C11.7543 31.1663 11.9062 33.4171 11.9062 35.0312H13.9062ZM13.4375 28.1562C13.4375 27.7896 13.5381 27.6418 13.6236 27.5629C13.7345 27.4605 13.9903 27.321 14.5454 27.2783L14.3921 25.2842C13.593 25.3457 12.8332 25.5707 12.267 26.0933C11.6754 26.6395 11.4375 27.3771 11.4375 28.1562H13.4375ZM14.4688 27.2812C14.9473 27.2812 15.1995 27.3905 15.3353 27.4973C15.4623 27.597 15.6003 27.7826 15.6724 28.1789L17.6401 27.8211C17.5038 27.0715 17.1731 26.3978 16.5709 25.9246C15.9776 25.4584 15.2402 25.2812 14.4688 25.2812V27.2812ZM15.667 28.1465C16.0778 30.919 16.2259 33.2441 16.1264 35.1349L18.1236 35.2401C18.2324 33.1726 18.0681 30.706 17.6455 27.8535L15.667 28.1465ZM16.1291 35.097C16.0955 35.4663 15.9804 35.6131 15.8822 35.6902C15.7587 35.7872 15.4901 35.9062 14.9375 35.9062V37.9062C15.739 37.9062 16.5121 37.7388 17.1178 37.2629C17.7488 36.7671 18.0503 36.0545 18.1209 35.278L16.1291 35.097ZM15.0205 35.9097C14.5381 35.8695 14.295 35.7396 14.1705 35.6246C14.0561 35.519 13.9376 35.3308 13.9021 34.9407L11.9104 35.1218C11.9791 35.8776 12.2512 36.5747 12.8139 37.0942C13.3664 37.6042 14.0869 37.8388 14.8545 37.9028L15.0205 35.9097ZM56.9688 4.09375V5.09375H57.9688V4.09375H56.9688ZM56.9688 2.21875L55.9722 2.1357L55.9688 2.17716V2.21875H56.9688ZM59.3125 0.1875V-0.8125H59.2768L59.2413 -0.809959L59.3125 0.1875ZM61.8125 2.0625H62.8125V2.02091L62.809 1.97945L61.8125 2.0625ZM61.8125 4.09375H60.8125V5.09375H61.8125V4.09375ZM73.0625 4.09375L73.1392 3.0967L73.1009 3.09375H73.0625V4.09375ZM75.25 6.28125L76.2475 6.3525L76.2527 6.27851L76.2471 6.20455L75.25 6.28125ZM73.0625 8.625V9.625H73.1009L73.1392 9.62205L73.0625 8.625ZM61.8125 8.625V7.625H60.8125V8.625H61.8125ZM61.8125 14.875H60.8125V15.875H61.8125V14.875ZM76.1875 14.875L76.287 13.88L76.2374 13.875H76.1875V14.875ZM77.5938 17.2188L78.5908 17.2954L78.5912 17.29L77.5938 17.2188ZM75.875 19.4062V20.4062H75.9249L75.9745 20.4013L75.875 19.4062ZM61.8125 19.4062V18.4062H60.8125V19.4062H61.8125ZM61.8125 32.2188H60.8125V33.2188H61.8125V32.2188ZM68.8438 32.2188L68.9433 31.2237L68.8936 31.2188H68.8438V32.2188ZM70.25 30.5H69.25V30.5416L69.2535 30.583L70.25 30.5ZM70.25 22.375L69.2535 22.292L69.25 22.3334V22.375H70.25ZM72.5938 20.1875L72.665 19.19L72.5583 19.1824L72.4523 19.1975L72.5938 20.1875ZM74.9375 22.2188H75.9375V22.1772L75.934 22.1357L74.9375 22.2188ZM74.9375 33H73.9375V33.0623L73.9452 33.124L74.9375 33ZM71.0312 36.4375L71.1025 35.44L71.0669 35.4375H71.0312V36.4375ZM46.6562 36.4375V35.4375H46.6038L46.5516 35.443L46.6562 36.4375ZM43.8438 33.625L44.8425 33.6749L44.8438 33.65V33.625H43.8438ZM43.8438 23L42.846 22.9335L42.8438 22.9667V23H43.8438ZM46.1875 20.3438L46.2587 19.3463L46.152 19.3387L46.0461 19.3538L46.1875 20.3438ZM48.5312 22.8438H49.5312V22.8105L49.529 22.7772L48.5312 22.8438ZM49.625 32.2188V31.2188H49.5539L49.4836 31.2288L49.625 32.2188ZM56.9688 32.2188V33.2188H57.9688V32.2188H56.9688ZM56.9688 19.4062H57.9688V18.4062H56.9688V19.4062ZM42.4375 19.4062L42.347 20.4021L42.3921 20.4062H42.4375V19.4062ZM40.7188 17.0625L39.7217 16.9858L39.7188 17.0241V17.0625H40.7188ZM42.5938 14.875V13.875H42.5484L42.5032 13.8791L42.5938 14.875ZM56.9688 14.875V15.875H57.9688V14.875H56.9688ZM56.9688 8.625H57.9688V7.625H56.9688V8.625ZM45.7188 8.625L45.6357 9.62155L45.6772 9.625H45.7188V8.625ZM43.6875 6.28125L42.6904 6.20455L42.6848 6.27851L42.69 6.3525L43.6875 6.28125ZM45.7188 4.09375V3.09375H45.6772L45.6357 3.0972L45.7188 4.09375ZM57.9688 4.09375V2.21875H55.9688V4.09375H57.9688ZM57.9653 2.3018C58.0006 1.87803 58.1351 1.66145 58.2877 1.52913C58.4597 1.38012 58.7834 1.22784 59.3837 1.18496L59.2413 -0.809959C58.3833 -0.748677 57.5872 -0.510329 56.9779 0.0177484C56.3493 0.562504 56.0411 1.30947 55.9722 2.1357L57.9653 2.3018ZM59.3125 1.1875C59.9802 1.1875 60.3331 1.32406 60.5094 1.45625C60.6512 1.56261 60.7823 1.74186 60.816 2.14555L62.809 1.97945C62.7385 1.13314 62.4009 0.374891 61.7094 -0.14375C61.0523 -0.636563 60.2073 -0.8125 59.3125 -0.8125V1.1875ZM60.8125 2.0625V4.09375H62.8125V2.0625H60.8125ZM61.8125 5.09375H73.0625V3.09375H61.8125V5.09375ZM72.9858 5.0908C73.5014 5.13047 73.7695 5.27742 73.9179 5.42586C74.0663 5.5743 74.2133 5.84231 74.2529 6.35795L76.2471 6.20455C76.1825 5.36602 75.9128 4.59237 75.3321 4.01164C74.7514 3.43092 73.9777 3.1612 73.1392 3.0967L72.9858 5.0908ZM74.2525 6.21C74.2108 6.79442 74.0536 7.10754 73.8939 7.27862C73.743 7.44037 73.4832 7.58968 72.9858 7.62795L73.1392 9.62205C73.9959 9.55615 74.7779 9.26275 75.3561 8.64326C75.9256 8.03308 76.185 7.22642 76.2475 6.3525L74.2525 6.21ZM73.0625 7.625H61.8125V9.625H73.0625V7.625ZM60.8125 8.625V14.875H62.8125V8.625H60.8125ZM61.8125 15.875H76.1875V13.875H61.8125V15.875ZM76.088 15.87C76.3479 15.896 76.4168 15.9768 76.4628 16.0536C76.545 16.1905 76.6419 16.5095 76.5963 17.1475L78.5912 17.29C78.6498 16.4696 78.5644 15.6689 78.1778 15.0246C77.7551 14.32 77.0688 13.9581 76.287 13.88L76.088 15.87ZM76.5967 17.1421C76.5531 17.7087 76.4193 18.0111 76.2996 18.1634C76.2036 18.2856 76.0639 18.3824 75.7755 18.4112L75.9745 20.4013C76.7278 20.326 77.3953 20.0061 77.8723 19.3991C78.3255 18.8223 78.5302 18.083 78.5908 17.2954L76.5967 17.1421ZM75.875 18.4062H61.8125V20.4062H75.875V18.4062ZM60.8125 19.4062V32.2188H62.8125V19.4062H60.8125ZM61.8125 33.2188H68.8438V31.2188H61.8125V33.2188ZM68.7442 33.2138C69.4487 33.2842 70.2237 33.1443 70.7505 32.5004C71.2315 31.9125 71.3062 31.1328 71.2465 30.417L69.2535 30.583C69.2742 30.8325 69.2622 31.0041 69.2401 31.1144C69.2186 31.2221 69.193 31.2457 69.2026 31.234C69.2182 31.2149 69.2361 31.2102 69.2212 31.2149C69.1945 31.2231 69.1113 31.2405 68.9433 31.2237L68.7442 33.2138ZM71.25 30.5V22.375H69.25V30.5H71.25ZM71.2465 22.458C71.2818 22.0349 71.4183 21.7879 71.5964 21.6217C71.7905 21.4405 72.1339 21.2633 72.7352 21.1775L72.4523 19.1975C71.5952 19.32 70.8189 19.6115 70.2317 20.1596C69.6286 20.7225 69.3224 21.4651 69.2535 22.292L71.2465 22.458ZM72.5225 21.185C73.1229 21.2278 73.4466 21.3801 73.6185 21.5291C73.7712 21.6615 73.9056 21.878 73.941 22.3018L75.934 22.1357C75.8652 21.3095 75.5569 20.5625 74.9284 20.0177C74.319 19.4897 73.5229 19.2513 72.665 19.19L72.5225 21.185ZM73.9375 22.2188V33H75.9375V22.2188H73.9375ZM73.9452 33.124C74.0803 34.2044 73.8372 34.7174 73.5347 34.9837C73.1854 35.291 72.4665 35.5375 71.1025 35.44L70.96 37.435C72.5127 37.5459 73.9032 37.3235 74.8559 36.4851C75.8555 35.6055 76.1072 34.2956 75.9298 32.876L73.9452 33.124ZM71.0312 35.4375H46.6562V37.4375H71.0312V35.4375ZM46.5516 35.443C45.7083 35.5318 45.3418 35.3494 45.1759 35.1835C44.9971 35.0048 44.7966 34.5937 44.8425 33.6749L42.845 33.5751C42.7868 34.7397 43.0029 35.839 43.7616 36.5977C44.5332 37.3693 45.625 37.5516 46.7609 37.432L46.5516 35.443ZM44.8438 33.625V23H42.8438V33.625H44.8438ZM44.8415 23.0665C44.8837 22.4338 45.0544 22.056 45.2576 21.8257C45.4549 21.6021 45.775 21.4128 46.3289 21.3337L46.0461 19.3538C45.1417 19.483 44.3419 19.8406 43.758 20.5024C43.1799 21.1575 42.908 22.0037 42.846 22.9335L44.8415 23.0665ZM46.1163 21.3412C46.6671 21.3806 46.9633 21.5449 47.1376 21.7308C47.3203 21.9257 47.4911 22.2746 47.5335 22.9103L49.529 22.7772C49.4672 21.8504 49.1953 21.0014 48.5967 20.3629C47.9898 19.7156 47.1662 19.4111 46.2587 19.3463L46.1163 21.3412ZM47.5312 22.8438V30.9688H49.5312V22.8438H47.5312ZM47.5312 30.9688C47.5312 31.525 47.6316 32.1623 48.0521 32.6429C48.5283 33.1871 49.1902 33.291 49.7664 33.2087L49.4836 31.2288C49.4011 31.2406 49.3891 31.2285 49.4212 31.2377C49.4385 31.2426 49.4633 31.2523 49.4907 31.2696C49.5182 31.2869 49.5407 31.307 49.5573 31.3259C49.5897 31.363 49.5814 31.3743 49.5652 31.3142C49.5487 31.2527 49.5312 31.1428 49.5312 30.9688H47.5312ZM49.625 33.2188H56.9688V31.2188H49.625V33.2188ZM57.9688 32.2188V19.4062H55.9688V32.2188H57.9688ZM56.9688 18.4062H42.4375V20.4062H56.9688V18.4062ZM42.528 18.4104C42.182 18.3789 42.0397 18.2666 41.9548 18.1508C41.8433 17.9987 41.7188 17.6807 41.7188 17.0625H39.7188C39.7188 17.9026 39.8806 18.7044 40.342 19.3336C40.8301 19.9991 41.5472 20.3294 42.347 20.4021L42.528 18.4104ZM41.7158 17.1392C41.7581 16.5888 41.8973 16.2996 42.0249 16.1508C42.1352 16.0221 42.3159 15.9044 42.6843 15.8709L42.5032 13.8791C41.7257 13.9498 41.021 14.2488 40.5064 14.8492C40.0089 15.4296 39.7835 16.182 39.7217 16.9858L41.7158 17.1392ZM42.5938 15.875H56.9688V13.875H42.5938V15.875ZM57.9688 14.875V8.625H55.9688V14.875H57.9688ZM56.9688 7.625H45.7188V9.625H56.9688V7.625ZM45.8018 7.62845C45.378 7.59314 45.1615 7.45869 45.0291 7.30601C44.8801 7.13408 44.7278 6.81039 44.685 6.21L42.69 6.3525C42.7513 7.21045 42.9897 8.00655 43.5177 8.61587C44.0625 9.24443 44.8095 9.55269 45.6357 9.62155L45.8018 7.62845ZM44.6846 6.35795C44.7256 5.82463 44.8692 5.54681 45.0062 5.3992C45.1342 5.26134 45.358 5.12728 45.8018 5.0903L45.6357 3.0972C44.8295 3.16439 44.0897 3.447 43.5406 4.0383C43.0006 4.61985 42.7536 5.3837 42.6904 6.20455L44.6846 6.35795ZM45.7188 5.09375H56.9688V3.09375H45.7188V5.09375ZM4 51.2812L3.91695 52.2778L3.95841 52.2812H4V51.2812ZM1.96875 49.0938L0.971696 49.0171L0.965796 49.0938L0.971696 49.1704L1.96875 49.0938ZM4 46.9062V45.9062H3.95841L3.91695 45.9097L4 46.9062ZM34.4688 46.9062L34.5518 45.9097L34.5103 45.9062H34.4688V46.9062ZM36.5 49.0938L37.4971 49.1704L37.503 49.0938L37.4971 49.0171L36.5 49.0938ZM34.4688 51.2812V52.2812H34.5103L34.5518 52.2778L34.4688 51.2812ZM29.3125 51.2812V50.2812H28.3125V51.2812H29.3125ZM29.3125 61.4375H28.3125V62.4375H29.3125V61.4375ZM35.7188 61.4375L35.8183 60.4425L35.7686 60.4375H35.7188V61.4375ZM37.4375 63.7812L38.435 63.8525L38.44 63.7812L38.435 63.71L37.4375 63.7812ZM35.7188 66.125V67.125H35.7686L35.8183 67.12L35.7188 66.125ZM29.3125 66.125V65.125H28.3125V66.125H29.3125ZM29.3125 79.875L30.31 79.9462L30.3125 79.9107V79.875H29.3125ZM27.125 82.2188L27.0538 83.2162L27.1277 83.2215L27.2017 83.2158L27.125 82.2188ZM24.7812 79.875H23.7812V79.9107L23.7838 79.9462L24.7812 79.875ZM24.7812 66.125H25.7812V65.125H24.7812V66.125ZM14.7812 66.125V65.125H13.8375L13.7829 66.0671L14.7812 66.125ZM7.75 81.125L7.2 80.2898L7.1953 80.293L7.75 81.125ZM3.53125 81.4375L2.76303 82.0777L2.85588 82.1891L2.97655 82.2695L3.53125 81.4375ZM3.84375 78L4.48394 78.7682L4.48789 78.7649L3.84375 78ZM9.9375 66.125L10.9372 66.1477L10.9605 65.125H9.9375V66.125ZM2.90625 66.125L2.8232 67.1215L2.86466 67.125H2.90625V66.125ZM0.875 63.7812L-0.113372 63.6292L-0.13047 63.7403L-0.122459 63.8525L0.875 63.7812ZM3.0625 61.5938V60.5938H3.02091L2.97945 60.5972L3.0625 61.5938ZM10.25 61.5938V62.5938H11.25V61.5938H10.25ZM10.25 51.2812H11.25V50.2812H10.25V51.2812ZM24.7812 61.5938V62.5938H25.7812V61.5938H24.7812ZM24.7812 51.2812H25.7812V50.2812H24.7812V51.2812ZM14.9375 51.2812V50.2812H13.9375V51.2812H14.9375ZM14.9375 61.5938H13.9375V62.5938H14.9375V61.5938ZM4.08305 50.2847C3.63922 50.2477 3.4155 50.1137 3.28748 49.9758C3.15041 49.8282 3.00683 49.5504 2.9658 49.0171L0.971696 49.1704C1.03484 49.9913 1.28188 50.7551 1.82189 51.3367C2.37096 51.928 3.11078 52.2106 3.91695 52.2778L4.08305 50.2847ZM2.9658 49.1704C3.00683 48.6371 3.15041 48.3593 3.28748 48.2117C3.4155 48.0738 3.63922 47.9398 4.08305 47.9028L3.91695 45.9097C3.11078 45.9769 2.37096 46.2595 1.82189 46.8508C1.28188 47.4324 1.03484 48.1962 0.971696 49.0171L2.9658 49.1704ZM4 47.9062H34.4688V45.9062H4V47.9062ZM34.3857 47.9028C34.8295 47.9398 35.0533 48.0738 35.1813 48.2117C35.3183 48.3593 35.4619 48.6371 35.5029 49.1704L37.4971 49.0171C37.4339 48.1962 37.1869 47.4324 36.6469 46.8508C36.0978 46.2595 35.358 45.9769 34.5518 45.9097L34.3857 47.9028ZM35.5029 49.0171C35.4619 49.5504 35.3183 49.8282 35.1813 49.9758C35.0533 50.1137 34.8295 50.2477 34.3857 50.2847L34.5518 52.2778C35.358 52.2106 36.0978 51.928 36.6469 51.3367C37.1869 50.7551 37.4339 49.9913 37.4971 49.1704L35.5029 49.0171ZM34.4688 50.2812H29.3125V52.2812H34.4688V50.2812ZM28.3125 51.2812V61.4375H30.3125V51.2812H28.3125ZM29.3125 62.4375H35.7188V60.4375H29.3125V62.4375ZM35.6192 62.4325C35.8834 62.459 36.0192 62.5509 36.1233 62.6929C36.2553 62.8729 36.395 63.2222 36.44 63.8525L38.435 63.71C38.3758 62.882 38.177 62.1115 37.7361 61.5102C37.2673 60.8709 36.5958 60.5202 35.8183 60.4425L35.6192 62.4325ZM36.44 63.71C36.395 64.3403 36.2553 64.6896 36.1233 64.8696C36.0192 65.0116 35.8834 65.1035 35.6192 65.13L35.8183 67.12C36.5958 67.0423 37.2673 66.6916 37.7361 66.0523C38.177 65.451 38.3758 64.6805 38.435 63.8525L36.44 63.71ZM35.7188 65.125H29.3125V67.125H35.7188V65.125ZM28.3125 66.125V79.875H30.3125V66.125H28.3125ZM28.315 79.8038C28.2733 80.3882 28.1161 80.7013 27.9564 80.8724C27.8055 81.0341 27.5457 81.1834 27.0483 81.2217L27.2017 83.2158C28.0584 83.1499 28.8404 82.8565 29.4186 82.237C29.9881 81.6268 30.2475 80.8202 30.31 79.9462L28.315 79.8038ZM27.1962 81.2213C26.6284 81.1807 26.3244 81.0195 26.1524 80.8476C25.9805 80.6756 25.8193 80.3716 25.7787 79.8038L23.7838 79.9462C23.8474 80.8367 24.1289 81.6525 24.7382 82.2618C25.3475 82.8711 26.1633 83.1526 27.0538 83.2162L27.1962 81.2213ZM25.7812 79.875V66.125H23.7812V79.875H25.7812ZM24.7812 65.125H14.7812V67.125H24.7812V65.125ZM13.7829 66.0671C13.3766 73.0761 11.1104 77.7147 7.20001 80.2898L8.29999 81.9602C12.9313 78.9103 15.3526 73.5489 15.7796 66.1829L13.7829 66.0671ZM7.1953 80.293C6.5115 80.7488 5.93313 80.9513 5.44957 80.9871C4.98357 81.0216 4.53863 80.9072 4.08595 80.6055L2.97655 82.2695C3.77387 82.8011 4.65706 83.0513 5.59731 82.9816C6.51999 82.9133 7.426 82.5429 8.3047 81.957L7.1953 80.293ZM4.29947 80.7973C3.87732 80.2907 3.80442 79.9468 3.82402 79.7312C3.84362 79.5155 3.97735 79.1904 4.48393 78.7682L3.20357 77.2318C2.46015 77.8513 1.9168 78.6199 1.83223 79.5501C1.74767 80.4803 2.14351 81.3343 2.76303 82.0777L4.29947 80.7973ZM4.48789 78.7649C8.63431 75.2732 10.8257 71.0567 10.9372 66.1477L8.93776 66.1023C8.84099 70.3599 6.96986 74.0601 3.19961 77.2351L4.48789 78.7649ZM9.9375 65.125H2.90625V67.125H9.9375V65.125ZM2.9893 65.1285C2.56553 65.0931 2.34895 64.9587 2.21663 64.806C2.06762 64.6341 1.91534 64.3104 1.87246 63.71L-0.122459 63.8525C-0.0611765 64.7104 0.177171 65.5065 0.705248 66.1159C1.25 66.7444 1.99697 67.0527 2.8232 67.1215L2.9893 65.1285ZM1.86337 63.9333C1.94574 63.3979 2.1136 63.0975 2.28523 62.9259C2.44844 62.7626 2.70321 62.6272 3.14555 62.5903L2.97945 60.5972C2.17179 60.6645 1.43698 60.9457 0.871018 61.5116C0.313481 62.0692 0.0125961 62.8104 -0.113372 63.6292L1.86337 63.9333ZM3.0625 62.5938H10.25V60.5938H3.0625V62.5938ZM11.25 61.5938V51.2812H9.25V61.5938H11.25ZM10.25 50.2812H4V52.2812H10.25V50.2812ZM25.7812 61.5938V51.2812H23.7812V61.5938H25.7812ZM24.7812 50.2812H14.9375V52.2812H24.7812V50.2812ZM13.9375 51.2812V61.5938H15.9375V51.2812H13.9375ZM14.9375 62.5938H24.7812V60.5938H14.9375V62.5938ZM45.5625 50.0312V51.0312H46.5625V50.0312H45.5625ZM46.0312 48.1562L46.9891 48.4436L47.0026 48.3985L47.0118 48.3524L46.0312 48.1562ZM46.1875 47.375L45.2096 47.1655L45.2069 47.1789L46.1875 47.375ZM49 45.3438L49.1414 44.3538L49.1041 44.3485L49.0665 44.346L49 45.3438ZM50.875 47.8438L51.8556 48.0399L51.861 48.0126L51.8649 47.9852L50.875 47.8438ZM50.4062 50.0312L49.4301 49.8143L49.1596 51.0312H50.4062V50.0312ZM52.75 50.0312V51.0312H52.7738L52.7976 51.0301L52.75 50.0312ZM55.7188 53.1562L54.7233 53.0614L54.7188 53.1087V53.1562H55.7188ZM55.5625 56.2812L54.5726 56.1398L56.4569 56.7285L55.5625 56.2812ZM60.5625 46.9062L59.7213 46.3655L59.7014 46.3964L59.6839 46.4287L60.5625 46.9062ZM64.1562 45.1875L64.5152 44.2542L64.4422 44.2261L64.3658 44.2097L64.1562 45.1875ZM65.4062 48.4688L66.3007 48.916L66.3367 48.8439L66.3607 48.767L65.4062 48.4688ZM60.5625 57.0625L59.6922 56.5699L58.881 58.0031L60.5268 58.0619L60.5625 57.0625ZM70.7188 56.4375L70.8527 57.4285L72.111 57.2585L71.6508 56.0751L70.7188 56.4375ZM68.375 50.9688L67.4263 51.285L67.445 51.3411L67.4702 51.3945L68.375 50.9688ZM69.625 48.1562L69.2404 47.2332L69.2086 47.2464L69.1778 47.2618L69.625 48.1562ZM72.75 49.0938L73.6349 48.628L73.6012 48.564L73.5587 48.5056L72.75 49.0938ZM77.5938 60.1875L78.5495 59.8934L78.5461 59.8823L78.5424 59.8713L77.5938 60.1875ZM76.3438 63.1562L76.7027 64.0896L76.7478 64.0723L76.791 64.0507L76.3438 63.1562ZM73.2188 62.0625L74.0826 61.5586L74.0762 61.548L73.2188 62.0625ZM72.2812 60.1875L73.2004 59.7936L72.8793 59.0445L72.0809 59.2078L72.2812 60.1875ZM59 61.75L58.9756 60.7503L58.964 60.7506L58.9524 60.7511L59 61.75ZM55.25 60.1875L56.2148 59.9244L54.2511 60.141L55.25 60.1875ZM51.9688 72.5312L51.0844 72.0645L50.704 72.7852L51.333 73.3032L51.9688 72.5312ZM55.4062 76.125L56.3733 75.8705L56.3414 75.7491L56.2804 75.6394L55.4062 76.125ZM53.2188 79.0938L52.9762 80.0639L53.0956 80.0938H53.2188V79.0938ZM50.875 77.6875L50.2503 78.4684L50.2682 78.4827L50.2868 78.4962L50.875 77.6875ZM49.625 76.5938L50.3321 75.8866L49.5361 75.0907L48.8395 75.9749L49.625 76.5938ZM43.5312 81.5938L43.4072 82.586L43.4308 82.589L43.4546 82.5908L43.5312 81.5938ZM41.1875 79.25L40.2069 79.0539L40.1951 79.1131L40.1904 79.1733L41.1875 79.25ZM42.9062 77.0625L43.5753 77.8059L43.5845 77.7973L42.9062 77.0625ZM46.1875 73.4688L46.9962 74.0569L47.5135 73.3456L46.8741 72.7417L46.1875 73.4688ZM41.0312 67.2188L41.9257 67.666L42.0312 67.4548V67.2188H41.0312ZM43.6875 58L44.638 58.3107L44.6438 58.2928L44.649 58.2747L43.6875 58ZM44.625 54.7188L45.5865 54.9935L45.9507 53.7188H44.625V54.7188ZM42.75 54.7188L42.6733 55.7158L42.7116 55.7188H42.75V54.7188ZM40.7188 52.2188L39.7304 52.0667L39.7188 52.1423V52.2188H40.7188ZM43.0625 50.0312V49.0312H43.0241L42.9858 49.0342L43.0625 50.0312ZM48.6875 69.4062L48.1063 70.22L49.1082 70.9356L49.6031 69.8082L48.6875 69.4062ZM51.5 54.7188H52.5V53.7188H51.5V54.7188ZM49.3125 54.7188V53.7188H48.5241L48.3401 54.4854L49.3125 54.7188ZM45.7188 66.4375L44.772 66.1156L44.5884 66.6554L44.9595 67.0883L45.7188 66.4375ZM56.0312 67.0625H57.0312V67.0417L57.0304 67.0209L56.0312 67.0625ZM59.3125 63.4688L59.2671 64.4677L59.2898 64.4688H59.3125V63.4688ZM71.9688 63.4688V64.4688H72.0398L72.1102 64.4587L71.9688 63.4688ZM75.7188 67.5312L74.7275 67.3991L74.7188 67.4649V67.5312H75.7188ZM75.7188 77.6875H74.7188V77.7554L74.7279 77.8226L75.7188 77.6875ZM71.6562 80.8125L71.7251 79.8149L71.6907 79.8125H71.6562V80.8125ZM59.4688 80.8125V79.8125H59.4254L59.3821 79.8163L59.4688 80.8125ZM56.0312 77.6875L57.0302 77.7329L57.0312 77.7102V77.6875H56.0312ZM46.5625 50.0312C46.5625 50.0762 46.5574 50.0734 46.5747 49.9812C46.5892 49.9038 46.6134 49.7945 46.6498 49.6488C46.7225 49.358 46.8347 48.9582 46.9891 48.4436L45.0734 47.8689C44.9153 48.396 44.7931 48.8295 44.7095 49.1637C44.6373 49.4528 44.5625 49.7825 44.5625 50.0312H46.5625ZM47.0118 48.3524C47.0601 48.1112 47.1068 47.8773 47.129 47.7664C47.1372 47.7254 47.1566 47.6284 47.1583 47.6199C47.1642 47.5904 47.1614 47.6047 47.1656 47.5833C47.166 47.5815 47.1664 47.5793 47.1667 47.578C47.1669 47.577 47.1674 47.5746 47.1675 47.5742C47.1677 47.5729 47.1678 47.5726 47.1679 47.5719C47.168 47.5716 47.168 47.5714 47.168 47.5713C47.1681 47.5712 47.1681 47.5712 47.1681 47.5712C47.1681 47.5712 47.1681 47.5711 47.1681 47.5711C47.1681 47.5711 47.1681 47.5711 47.1681 47.5711C47.1681 47.5711 47.1681 47.5711 46.1875 47.375C45.2069 47.1789 45.2069 47.1789 45.2069 47.1789C45.2069 47.1789 45.2069 47.1789 45.2069 47.1789C45.2069 47.1789 45.2069 47.1789 45.2069 47.1789C45.2069 47.1789 45.2069 47.1789 45.2069 47.1789C45.2069 47.1789 45.2069 47.179 45.2069 47.179C45.2069 47.179 45.2069 47.179 45.2069 47.179C45.2069 47.179 45.2069 47.1791 45.2069 47.1791C45.2069 47.1791 45.2069 47.1791 45.2069 47.1791C45.2069 47.1791 45.2069 47.1792 45.2069 47.1792C45.2069 47.1792 45.2069 47.1792 45.2068 47.1792C45.2068 47.1793 45.2068 47.1793 45.2068 47.1793C45.2068 47.1794 45.2068 47.1795 45.2068 47.1796C45.2067 47.18 45.2067 47.1801 45.2066 47.1806C45.2066 47.1807 45.2065 47.1808 45.2065 47.1809C45.2065 47.181 45.2065 47.181 45.2065 47.1811C45.2065 47.1811 45.2065 47.1812 45.2065 47.1812C45.2064 47.1814 45.2064 47.1814 45.2064 47.1816C45.2064 47.1816 45.2064 47.1817 45.2063 47.1817C45.2063 47.1818 45.2063 47.1819 45.2063 47.1819C45.2059 47.1837 45.206 47.1834 45.2055 47.1857C45.2054 47.1866 45.2052 47.1872 45.2051 47.1882C45.205 47.1884 45.2048 47.1894 45.2048 47.1896C45.2045 47.1908 45.2047 47.1898 45.2045 47.1911C45.2041 47.1929 45.2042 47.1924 45.2038 47.1943C45.2033 47.197 45.2037 47.1951 45.2031 47.198C45.203 47.1985 45.2016 47.2053 45.2014 47.2063C45.2012 47.2074 45.1998 47.2147 45.1994 47.2163C45.199 47.2182 45.1988 47.2197 45.1983 47.2218C45.198 47.2235 45.1975 47.2259 45.1972 47.2277C45.1943 47.2422 45.1895 47.2661 45.1849 47.2887C45.1803 47.312 45.1821 47.3031 45.177 47.3284C45.1745 47.3411 45.1752 47.3374 45.1726 47.3505C45.172 47.3537 45.1686 47.3706 45.1679 47.3742C45.1635 47.3959 45.1622 47.4023 45.1575 47.4261C45.1507 47.4602 45.1531 47.4479 45.1459 47.4841C45.1296 47.5654 45.1369 47.5288 45.119 47.6183C45.0908 47.7594 45.0854 47.7865 45.0507 47.9601L47.0118 48.3524ZM47.1653 47.5845C47.2852 47.0252 47.4951 46.7397 47.7105 46.5841C47.9328 46.4236 48.3024 46.2995 48.9335 46.3415L49.0665 44.346C48.1351 44.2839 47.2547 44.4462 46.5395 44.9628C45.8174 45.4843 45.4023 46.2664 45.2097 47.1655L47.1653 47.5845ZM48.8586 46.3337C49.4352 46.4161 49.6653 46.5953 49.7625 46.725C49.8597 46.8547 49.9674 47.1258 49.8851 47.7023L51.8649 47.9852C51.9909 47.1034 51.8903 46.2287 51.3625 45.525C50.8347 44.8213 50.0232 44.4798 49.1414 44.3538L48.8586 46.3337ZM49.8944 47.6476C49.7923 48.1581 49.6379 48.8792 49.4301 49.8143L51.3824 50.2482C51.5913 49.3083 51.7493 48.5711 51.8556 48.0399L49.8944 47.6476ZM50.4062 51.0312H52.75V49.0312H50.4062V51.0312ZM52.7976 51.0301C53.754 50.9846 54.1989 51.2032 54.4078 51.4231C54.6176 51.6439 54.8145 52.1029 54.7233 53.0614L56.7142 53.2511C56.8313 52.0221 56.6376 50.8665 55.8578 50.0456C55.0771 49.2239 53.9335 48.9738 52.7024 49.0324L52.7976 51.0301ZM54.7188 53.1562C54.7188 54.4953 54.6666 55.4812 54.5726 56.1398L56.5524 56.4227C56.6667 55.623 56.7188 54.5255 56.7188 53.1562H54.7188ZM56.4569 56.7285C57.177 55.2884 58.8349 52.1791 61.4411 47.3838L59.6839 46.4287C57.0817 51.2167 55.4063 54.3575 54.6681 55.834L56.4569 56.7285ZM61.4037 47.447C61.8021 46.8272 62.2079 46.4703 62.5955 46.2849C62.9706 46.1055 63.4057 46.0494 63.9467 46.1653L64.3658 44.2097C63.4485 44.0131 62.5554 44.0872 61.7326 44.4807C60.9223 44.8682 60.2604 45.5269 59.7213 46.3655L61.4037 47.447ZM63.7973 46.1208C64.2777 46.3056 64.4661 46.5346 64.5499 46.7544C64.6475 47.0106 64.6768 47.4504 64.4518 48.1705L66.3607 48.767C66.6565 47.8205 66.738 46.8801 66.4189 46.0424C66.0859 45.1685 65.389 44.5902 64.5152 44.2542L63.7973 46.1208ZM64.5118 48.0215C64.5137 48.0178 64.5088 48.0275 64.4899 48.0623C64.4733 48.0929 64.4505 48.1345 64.421 48.188C64.3621 48.2947 64.2793 48.4434 64.1722 48.6349C63.9581 49.0176 63.6495 49.5666 63.246 50.2824C62.4392 51.7139 61.2547 53.8096 59.6922 56.5699L61.4328 57.5551C64.5432 52.06 66.1812 49.1549 66.3007 48.916L64.5118 48.0215ZM60.5268 58.0619C63.5152 58.1686 66.9596 57.9546 70.8527 57.4285L70.5848 55.4465C66.7696 55.9621 63.4431 56.1647 60.5982 56.0631L60.5268 58.0619ZM71.6508 56.0751C70.9135 54.1792 70.1232 52.3352 69.2798 50.543L67.4702 51.3945C68.2935 53.144 69.0657 54.9458 69.7867 56.7999L71.6508 56.0751ZM69.3237 50.6525C69.1711 50.1947 69.2081 49.9159 69.2888 49.7343C69.3738 49.5431 69.5797 49.2969 70.0722 49.0507L69.1778 47.2618C68.4203 47.6406 67.7929 48.1756 67.4612 48.922C67.1253 49.6778 67.1622 50.4928 67.4263 51.285L69.3237 50.6525ZM70.0096 49.0793C70.4751 48.8854 70.8068 48.883 71.0564 48.9578C71.3119 49.0345 71.6142 49.2322 71.9413 49.6819L73.5587 48.5056C73.0525 47.8095 72.4173 47.278 71.6311 47.0422C70.839 46.8045 70.0249 46.9063 69.2404 47.2332L70.0096 49.0793ZM71.8651 49.5595C73.9287 53.4805 75.5198 57.128 76.6451 60.5037L78.5424 59.8713C77.376 56.372 75.7379 52.6237 73.6349 48.628L71.8651 49.5595ZM76.638 60.4816C76.7996 61.0068 76.7637 61.3397 76.6721 61.5573C76.5814 61.7728 76.3736 62.0233 75.8965 62.2618L76.791 64.0507C77.5639 63.6642 78.1895 63.1074 78.5154 62.3334C78.8404 61.5614 78.8046 60.7224 78.5495 59.8934L76.638 60.4816ZM75.9848 62.2229C75.4584 62.4254 75.112 62.4118 74.8772 62.3296C74.6429 62.2476 74.3652 62.0431 74.0825 61.5586L72.355 62.5664C72.8015 63.3319 73.4092 63.9347 74.2165 64.2173C75.0234 64.4997 75.875 64.408 76.7027 64.0896L75.9848 62.2229ZM74.0762 61.548C73.7928 61.0756 73.5002 60.493 73.2004 59.7936L71.3621 60.5814C71.6873 61.3403 72.0197 62.0078 72.3613 62.577L74.0762 61.548ZM72.0809 59.2078C67.5501 60.1345 63.182 60.6477 58.9756 60.7503L59.0244 62.7497C63.3596 62.644 67.8458 62.1155 72.4816 61.1672L72.0809 59.2078ZM58.9524 60.7511C57.9258 60.8 57.2359 60.6933 56.8065 60.5144C56.421 60.3538 56.2777 60.1552 56.2148 59.9244L54.2852 60.4506C54.5348 61.3656 55.1727 62.0004 56.0373 62.3606C56.8579 62.7025 57.8867 62.8041 59.0476 62.7489L58.9524 60.7511ZM54.2511 60.141C54.0492 64.482 52.991 68.4519 51.0844 72.0645L52.8531 72.998C54.9048 69.1106 56.0342 64.8513 56.2489 60.234L54.2511 60.141ZM51.333 73.3032C53.0921 74.7518 54.1091 75.8493 54.5321 76.6106L56.2804 75.6394C55.6617 74.5257 54.3871 73.2274 52.6045 71.7593L51.333 73.3032ZM54.4392 76.3795C54.6727 77.267 54.5391 77.6306 54.4449 77.7584C54.3607 77.8727 54.0862 78.0938 53.2188 78.0938V80.0938C54.3304 80.0938 55.4101 79.82 56.0551 78.9448C56.6901 78.083 56.6606 76.9622 56.3733 75.8705L54.4392 76.3795ZM53.4613 78.1236C53.4059 78.1098 53.2136 78.0339 52.8348 77.8066C52.4792 77.5932 52.0238 77.2865 51.4632 76.8788L50.2868 78.4962C50.8721 78.9219 51.3801 79.2661 51.8058 79.5216C52.2083 79.763 52.6149 79.9736 52.9762 80.0639L53.4613 78.1236ZM51.4997 76.9066C50.9948 76.5027 50.609 76.1635 50.3321 75.8866L48.9179 77.3009C49.266 77.649 49.7136 78.039 50.2503 78.4684L51.4997 76.9066ZM48.8395 75.9749C47.5047 77.669 46.3712 78.8814 45.436 79.6488C44.4563 80.4526 43.8751 80.6172 43.6079 80.5967L43.4546 82.5908C44.5416 82.6744 45.653 82.0578 46.7046 81.1949C47.8007 80.2956 49.037 78.956 50.4105 77.2126L48.8395 75.9749ZM43.6553 80.6015C42.9336 80.5113 42.5726 80.3147 42.4024 80.1445C42.2647 80.0068 42.1493 79.7854 42.1846 79.3267L40.1904 79.1733C40.1216 80.0688 40.3446 80.9151 40.9882 81.5587C41.5992 82.1697 42.4622 82.4679 43.4072 82.586L43.6553 80.6015ZM42.1681 79.4461C42.1744 79.4147 42.2299 79.2507 42.4816 78.9303C42.7196 78.6274 43.0778 78.2535 43.5752 77.8058L42.2373 76.3192C41.693 76.809 41.2439 77.2684 40.909 77.6947C40.5878 78.1034 40.3048 78.5644 40.2069 79.0539L42.1681 79.4461ZM43.5845 77.7973C44.9734 76.5153 46.1148 75.2688 46.9962 74.0569L45.3788 72.8806C44.5935 73.9603 43.5475 75.1097 42.228 76.3277L43.5845 77.7973ZM46.8741 72.7417C45.0074 70.9787 43.6764 69.6065 42.8573 68.6136C42.4438 68.1124 42.1929 67.7461 42.0652 67.5001C42.0011 67.3766 41.9896 67.3239 41.9904 67.3279C41.9904 67.3281 42.0211 67.475 41.9257 67.666L40.1368 66.7715C39.9632 67.1187 39.9793 67.4674 40.0282 67.7151C40.0778 67.9665 40.1786 68.2067 40.2902 68.4218C40.5141 68.8529 40.8687 69.3459 41.3146 69.8864C42.2142 70.9769 43.6176 72.4171 45.5009 74.1958L46.8741 72.7417ZM42.0312 67.2188C42.0312 67.2204 42.0313 67.2036 42.0358 67.1622C42.0401 67.1226 42.0474 67.0696 42.0589 67.0014C42.0819 66.8644 42.1186 66.685 42.1712 66.4592C42.2763 66.0079 42.437 65.4047 42.6562 64.6441C43.0941 63.1244 43.7539 61.015 44.638 58.3107L42.737 57.6893C41.8503 60.4016 41.182 62.537 40.7344 64.0903C40.5109 64.8661 40.3396 65.5064 40.2233 66.0056C40.1149 66.4712 40.0312 66.9059 40.0312 67.2188H42.0312ZM44.649 58.2747C44.656 58.2504 44.6518 58.2649 44.6588 58.2406C44.6657 58.2165 44.6616 58.2307 44.6685 58.2066C44.6891 58.1343 44.6672 58.2112 44.6878 58.1391C44.6946 58.1152 44.7002 58.0958 44.7069 58.072C44.7077 58.0693 44.7085 58.0665 44.7093 58.0637C44.7101 58.0609 44.7109 58.0582 44.7117 58.0554C44.7172 58.0361 44.711 58.058 44.7164 58.0387C44.7173 58.0357 44.7251 58.0085 44.7259 58.0056C44.7327 57.982 44.7381 57.963 44.7448 57.9396C44.7514 57.9163 44.7569 57.8973 44.7635 57.8742C44.7808 57.8134 44.7554 57.9024 44.7728 57.8417C44.7736 57.8388 44.7812 57.8122 44.782 57.8093C44.7886 57.7863 44.7939 57.7678 44.8004 57.7449C44.8263 57.6542 44.8473 57.5807 44.8724 57.4929C44.8826 57.4571 44.871 57.4977 44.8812 57.462C44.8828 57.4564 44.8885 57.4366 44.89 57.4312C44.8943 57.4162 44.8901 57.4308 44.8944 57.4158C44.8951 57.4133 44.8959 57.4107 44.8966 57.4082C44.8973 57.4056 44.8981 57.4031 44.8988 57.4005C44.9019 57.3897 44.9044 57.3809 44.9075 57.37C44.9152 57.343 44.9172 57.3363 44.9248 57.3094C44.9279 57.2987 44.9304 57.29 44.9334 57.2793C44.9341 57.2768 44.9349 57.2743 44.9356 57.2718C44.9363 57.2693 44.937 57.2668 44.9377 57.2643C44.9384 57.2618 44.9391 57.2593 44.9399 57.2568C44.9406 57.2543 44.9413 57.2518 44.942 57.2493C44.9427 57.2468 44.9434 57.2443 44.9441 57.2419C44.9448 57.2394 44.9455 57.2369 44.9463 57.2344C44.947 57.2319 44.9477 57.2294 44.9484 57.2269C44.9491 57.2245 44.9498 57.222 44.9505 57.2195C44.9535 57.2089 44.956 57.2003 44.959 57.1898C44.9665 57.1635 44.9684 57.1568 44.9759 57.1308C44.9789 57.1203 45.0063 57.0241 45.0091 57.0143C45.015 56.9939 45.0074 57.0204 45.0132 56.9999C45.0139 56.9975 45.0146 56.9951 45.0153 56.9928C45.016 56.9904 45.0167 56.988 45.0174 56.9856C45.0195 56.9779 45.0193 56.9789 45.0214 56.9712C45.0273 56.9509 45.0197 56.9773 45.0255 56.9569C45.0277 56.9493 45.0315 56.936 45.0337 56.9284C45.0373 56.9158 45.0382 56.9126 45.0418 56.9001C45.0439 56.8925 45.0437 56.8935 45.0458 56.8859C45.0465 56.8836 45.0472 56.8812 45.0478 56.8789C45.0485 56.8765 45.0492 56.8742 45.0499 56.8718C45.052 56.8643 45.0557 56.8512 45.0579 56.8437C45.0621 56.8288 45.0616 56.8306 45.0659 56.8157C45.0705 56.7996 45.0653 56.8179 45.0699 56.8018C45.0759 56.7808 45.0678 56.8089 45.0738 56.7879C45.0745 56.7856 45.0751 56.7833 45.0758 56.781C45.0765 56.7787 45.0771 56.7763 45.0778 56.774C45.0796 56.7679 45.08 56.7663 45.0817 56.7602C45.0859 56.7455 45.0854 56.7473 45.0896 56.7326C45.1008 56.6935 45.0941 56.7168 45.1053 56.6779C45.1245 56.6106 45.1016 56.6908 45.1208 56.6237C45.1221 56.6189 45.1271 56.6015 45.1284 56.5968C45.1291 56.5945 45.1297 56.5923 45.1304 56.5901C45.131 56.5878 45.1316 56.5856 45.1323 56.5834C45.1329 56.5811 45.1335 56.5789 45.1342 56.5767C45.1348 56.5745 45.1354 56.5722 45.1361 56.57C45.1578 56.4941 45.175 56.4338 45.1959 56.3607C45.1972 56.356 45.2092 56.3142 45.2105 56.3097C45.2201 56.2758 45.208 56.3181 45.2177 56.2844C45.2228 56.2665 45.2198 56.277 45.2249 56.2592C45.2338 56.228 45.2303 56.2403 45.2392 56.2093C45.2405 56.2047 45.252 56.1642 45.2533 56.1599C45.262 56.1293 45.2516 56.1659 45.2603 56.1354C45.2612 56.1321 45.2628 56.1264 45.2638 56.1232C45.2643 56.1211 45.2649 56.1191 45.2655 56.1171C45.2661 56.115 45.2667 56.113 45.2672 56.111C45.2759 56.0808 45.2725 56.0927 45.281 56.0627C45.2835 56.054 45.2923 56.0233 45.2947 56.0149C45.2977 56.0043 45.2985 56.0017 45.3015 55.9912C45.3027 55.987 45.3036 55.9835 45.3048 55.9794C45.3054 55.9774 45.306 55.9754 45.3065 55.9735C45.3071 55.9715 45.3076 55.9696 45.3082 55.9676C45.3166 55.9384 45.3133 55.9499 45.3216 55.9209C45.3239 55.9125 45.3324 55.8828 45.3348 55.8747C45.3353 55.8728 45.3358 55.8708 45.3364 55.8689C45.3369 55.867 45.3375 55.8651 45.338 55.8632C45.3383 55.8622 45.341 55.8528 45.3413 55.8518C45.3482 55.8275 45.3409 55.8532 45.3478 55.829C45.3547 55.8048 45.3538 55.8079 45.3607 55.7839C45.3653 55.7676 45.3816 55.7108 45.386 55.6952C45.3927 55.6719 45.3918 55.6749 45.3985 55.6517C45.4018 55.6401 45.4075 55.6201 45.4107 55.6087C45.4541 55.457 45.4634 55.4243 45.5035 55.284C45.5094 55.2633 45.5195 55.2281 45.5252 55.2082C45.5337 55.1783 45.5273 55.2008 45.5358 55.171C45.5423 55.1483 45.5398 55.1571 45.5462 55.1345C45.5555 55.1022 45.5577 55.0945 45.5667 55.0629C45.5738 55.0379 45.5796 55.0178 45.5865 54.9935L43.6635 54.444C43.4588 55.1604 43.139 56.2797 42.726 57.7253L44.649 58.2747ZM44.625 53.7188H42.75V55.7188H44.625V53.7188ZM42.8267 53.7217C42.3463 53.6847 42.125 53.5355 42.0027 53.385C41.8621 53.2121 41.7188 52.8719 41.7188 52.2188H39.7188C39.7188 53.1281 39.9139 53.9859 40.4504 54.6462C41.0052 55.329 41.7996 55.6486 42.6733 55.7158L42.8267 53.7217ZM41.7071 52.3708C41.7869 51.8522 41.9582 51.5601 42.1433 51.3873C42.3275 51.2154 42.626 51.0678 43.1392 51.0283L42.9858 49.0342C42.1449 49.0989 41.3757 49.3679 40.7786 49.9252C40.1825 50.4816 39.8589 51.2311 39.7304 52.0667L41.7071 52.3708ZM43.0625 51.0312H45.5625V49.0312H43.0625V51.0312ZM49.6031 69.8082C51.543 65.3896 52.5 60.3529 52.5 54.7188H50.5C50.5 60.1262 49.582 64.8812 47.7719 69.0043L49.6031 69.8082ZM51.5 53.7188H49.3125V55.7188H51.5V53.7188ZM48.3401 54.4854C47.7264 57.0426 46.5409 60.9128 44.772 66.1156L46.6655 66.7594C48.4382 61.5456 49.6486 57.6033 50.2849 54.9521L48.3401 54.4854ZM44.9595 67.0883C46.2164 68.5547 47.2719 69.624 48.1063 70.22L49.2687 68.5925C48.6448 68.1468 47.7211 67.237 46.478 65.7867L44.9595 67.0883ZM57.0304 67.0209C56.9835 65.8949 57.2191 65.2841 57.5119 64.9633C57.7859 64.6632 58.2899 64.4233 59.2671 64.4677L59.3579 62.4698C58.0435 62.41 56.8547 62.717 56.035 63.6148C55.234 64.492 54.9749 65.7301 55.0321 67.1041L57.0304 67.0209ZM59.3125 64.4688H71.9688V62.4688H59.3125V64.4688ZM72.1102 64.4587C73.4426 64.2683 74.0656 64.5324 74.3589 64.8502C74.6761 65.1937 74.9234 65.9297 74.7275 67.3991L76.71 67.6634C76.9307 66.0078 76.7614 64.5042 75.8286 63.4936C74.8719 62.4572 73.4115 62.2525 71.8273 62.4788L72.1102 64.4587ZM74.7188 67.5312V77.6875H76.7188V67.5312H74.7188ZM74.7279 77.8226C74.8552 78.7557 74.6227 79.1681 74.3278 79.3949C73.9464 79.6882 73.162 79.914 71.7251 79.8149L71.5874 81.8101C73.1714 81.9194 74.5744 81.7285 75.5472 80.9801C76.6065 80.1653 76.8948 78.9109 76.7096 77.5524L74.7279 77.8226ZM71.6562 79.8125H59.4688V81.8125H71.6562V79.8125ZM59.3821 79.8163C58.3105 79.9094 57.7612 79.6985 57.4852 79.4476C57.2218 79.2082 56.985 78.728 57.0302 77.7329L55.0323 77.6421C54.9733 78.9387 55.2573 80.1252 56.1398 80.9274C57.0096 81.7182 58.2312 81.9239 59.5554 81.8087L59.3821 79.8163ZM57.0312 77.6875V67.0625H55.0312V77.6875H57.0312ZM70.5625 77.9062C71.0299 77.9062 71.5456 77.7573 71.9167 77.3121C72.2586 76.9017 72.3438 76.3955 72.3438 75.9688H70.3438C70.3438 76.0588 70.334 76.1019 70.3314 76.1113C70.3295 76.1182 70.3385 76.0817 70.3802 76.0317C70.4251 75.9778 70.4819 75.9396 70.5329 75.9192C70.5778 75.9012 70.5948 75.9062 70.5625 75.9062V77.9062ZM72.3438 75.9688V68.625H70.3438V75.9688H72.3438ZM72.3438 68.625C72.3438 68.233 72.2841 67.7641 72.0195 67.3672C71.7072 66.8987 71.2184 66.6875 70.7188 66.6875V68.6875C70.6973 68.6875 70.63 68.683 70.545 68.6405C70.4558 68.5959 70.3924 68.532 70.3555 68.4766C70.3229 68.4278 70.3221 68.403 70.3285 68.4318C70.3348 68.4601 70.3438 68.5212 70.3438 68.625H72.3438ZM70.7188 66.6875H61.3438V68.6875H70.7188V66.6875ZM61.3438 66.6875C60.8771 66.6875 60.3434 66.8048 59.9335 67.2148C59.5236 67.6247 59.4062 68.1584 59.4062 68.625H61.4062C61.4062 68.5491 61.4161 68.5234 61.4135 68.5311C61.4119 68.5359 61.4068 68.5494 61.3956 68.5682C61.3841 68.5873 61.3682 68.6085 61.3477 68.629C61.3272 68.6495 61.3061 68.6654 61.287 68.6768C61.2682 68.6881 61.2547 68.6932 61.2498 68.6948C61.2421 68.6973 61.2678 68.6875 61.3438 68.6875V66.6875ZM59.4062 68.625V76.125H61.4062V68.625H59.4062ZM59.4062 76.125C59.4062 76.5924 59.5552 77.1081 60.0004 77.4792C60.4108 77.8211 60.917 77.9062 61.3438 77.9062V75.9062C61.2537 75.9062 61.2106 75.8965 61.2012 75.8939C61.1943 75.892 61.2308 75.901 61.2808 75.9427C61.3347 75.9876 61.3729 76.0444 61.3933 76.0954C61.4113 76.1403 61.4062 76.1573 61.4062 76.125H59.4062ZM61.3438 77.9062H70.5625V75.9062H61.3438V77.9062Z"
											fill="url(#paint1_linear_22916_85378)" />
										<defs>
											<linearGradient id="paint0_linear_22916_85378" x1="39" y1="-3" x2="39" y2="87"
												gradientUnits="userSpaceOnUse">
												<stop offset="0.0001" stop-color="#886EFE" />
												<stop offset="1" stop-color="#FE007A" />
											</linearGradient>
											<linearGradient id="paint1_linear_22916_85378" x1="39" y1="-3" x2="39" y2="87"
												gradientUnits="userSpaceOnUse">
												<stop stop-color="white" stop-opacity="0" />
												<stop offset="0.526042" stop-color="white" />
												<stop offset="1" stop-color="white" stop-opacity="0" />
											</linearGradient>
										</defs>
									</svg>