<svg xmlns="http://www.w3.org/2000/svg" width="22" height="23" viewBox="0 0 22 23" fill="none">
  <g clip-path="url(#clip0_104_17487)">
    <path fill-rule="evenodd" clip-rule="evenodd" d="M3 3.98828C3 2.33143 4.34315 0.988281 6 0.988281H15.5833C17.2402 0.988281 18.5833 2.33143 18.5833 3.98828V19.9883C18.5833 21.6451 17.2402 22.9883 15.5833 22.9883H6C4.34314 22.9883 3 21.6451 3 19.9883V3.98828ZM4.83322 4.82251C4.83322 3.71794 5.72865 2.82251 6.83322 2.82251H14.7499C15.8545 2.82251 16.7499 3.71794 16.7499 4.82251V16.4058C16.7499 17.5104 15.8545 18.4058 14.7499 18.4058H6.83322C5.72865 18.4058 4.83322 17.5104 4.83322 16.4058V4.82251ZM9.41667 21.6133C8.91041 21.6133 8.5 21.2029 8.5 20.6966C8.5 20.1904 8.91041 19.7799 9.41667 19.7799H12.1667C12.6729 19.7799 13.0833 20.1904 13.0833 20.6966C13.0833 21.2029 12.6729 21.6133 12.1667 21.6133H9.41667Z" fill="#07C160"/>
  </g>
  <defs>
    <clipPath id="clip0_104_17487">
      <rect width="22" height="22" fill="white" transform="translate(0 0.988281)"/>
    </clipPath>
  </defs>
</svg>