<svg xmlns="http://www.w3.org/2000/svg" width="22" height="24" viewBox="0 0 22 24" fill="none">
  <path fill-rule="evenodd" clip-rule="evenodd" d="M1.5 19.9402C1.5 16.4743 4.42113 13.6454 8.04269 13.5671C8.0939 13.566 8.14526 13.5655 8.19675 13.5655H11.4789H14.603H14.7611C14.8126 13.5655 14.864 13.566 14.9152 13.5671C15.8199 13.5867 16.681 13.7779 17.4636 14.1079C18.1826 14.4109 18.8354 14.8311 19.3952 15.3428C18.8011 15.0931 18.1485 14.9551 17.4636 14.9551C16.5902 14.9551 15.7692 15.1795 15.0552 15.5739C13.5168 16.4236 12.475 18.062 12.475 19.9437C12.475 20.2843 12.5091 20.617 12.5741 20.9384C12.7237 21.6774 13.0365 22.3572 13.4734 22.9384H11.1478H4.6497C2.91494 22.9384 1.5 21.5946 1.5 19.9402ZM8.19675 15.5655H12.0161C11.052 16.7635 10.475 18.2862 10.475 19.9437C10.475 20.2812 10.499 20.6133 10.5454 20.9384H4.6497C3.92411 20.9384 3.5 20.397 3.5 19.9402C3.5 17.6216 5.51487 15.5655 8.19675 15.5655ZM11.4789 12.3231C10.3978 12.3231 9.38298 12.0472 8.50802 11.5655C6.72666 10.5847 5.52519 8.7509 5.52519 6.6557C5.52519 3.53139 8.19679 0.988281 11.4789 0.988281C14.7611 0.988281 17.4327 3.53139 17.4327 6.6557C17.4327 8.7509 16.2312 10.5847 14.4498 11.5655C13.5749 12.0472 12.56 12.3231 11.4789 12.3231ZM15.4327 6.6557C15.4327 8.58369 13.7505 10.3231 11.4789 10.3231C9.20732 10.3231 7.52519 8.58369 7.52519 6.6557C7.52519 4.72771 9.20732 2.98828 11.4789 2.98828C13.7506 2.98828 15.4327 4.72771 15.4327 6.6557ZM19.0606 17.911C18.8879 17.911 18.7498 17.7729 18.703 17.6067C18.5442 17.0427 18.0259 16.6292 17.4111 16.6292C16.7963 16.6292 16.2781 17.0427 16.1193 17.6067C16.0725 17.7729 15.9344 17.911 15.7617 17.911C15.5797 17.911 15.4311 17.7594 15.4667 17.5809C15.6479 16.6727 16.4496 15.9883 17.4111 15.9883C18.3727 15.9883 19.1743 16.6727 19.3556 17.5809C19.3912 17.7594 19.2426 17.911 19.0606 17.911ZM15.7818 18.5382C15.0739 18.5382 14.5 19.1121 14.5 19.82V21.7564C14.5 22.4644 15.0739 23.0383 15.7818 23.0383H19.2183C19.9262 23.0383 20.5001 22.4644 20.5001 21.7564V19.82C20.5001 19.1121 19.9262 18.5382 19.2183 18.5382H15.7818ZM18.1001 20.3393C18.1001 20.5614 17.9794 20.7553 17.8001 20.859V21.5391C17.8001 21.7048 17.6658 21.8391 17.5001 21.8391C17.3344 21.8391 17.2001 21.7048 17.2001 21.5391V20.859C17.0207 20.7553 16.9001 20.5614 16.9001 20.3393C16.9001 20.0079 17.1687 19.7393 17.5001 19.7393C17.8315 19.7393 18.1001 20.0079 18.1001 20.3393Z" fill="#07C160"/>
</svg>