<svg xmlns="http://www.w3.org/2000/svg" width="22" height="23" viewBox="0 0 22 23" fill="none">
  <path fill-rule="evenodd" clip-rule="evenodd" d="M14.1155 6.03855C14.2616 6.55737 14.6924 6.98828 15.2314 6.98828C15.7994 6.98828 16.2632 6.51516 16.152 5.95817C15.5864 3.12399 13.0848 0.988281 10.0843 0.988281C7.08382 0.988281 4.58216 3.12399 4.01657 5.95816C3.90542 6.51516 4.36919 6.98828 4.93717 6.98828C5.47616 6.98828 5.907 6.55737 6.05307 6.03855C6.5486 4.27848 8.16578 2.98828 10.0843 2.98828C12.0028 2.98828 13.62 4.27848 14.1155 6.03855ZM15.7236 10.9458H5C3.89543 10.9458 3 11.8412 3 12.9458V18.9885C3 20.0931 3.89543 20.9885 5 20.9885H11.2341C11.7864 20.9885 12.2342 21.4362 12.2342 21.9885C12.2342 22.5408 11.7864 22.9885 11.2341 22.9885L5 22.9885C2.79086 22.9885 1 21.1977 1 18.9885V12.9458C1 10.7367 2.79086 8.94581 5 8.94581H15.7236C17.9328 8.94581 19.7236 10.7367 19.7236 12.9458C19.7236 13.3219 19.4188 13.6267 19.0427 13.6267H18.4045C18.0285 13.6267 17.7236 13.3219 17.7236 12.9458C17.7236 11.8412 16.8282 10.9458 15.7236 10.9458ZM12.2342 14.5648C12.2342 15.2578 11.8577 15.8628 11.2981 16.1866V18.3089C11.2981 18.826 10.879 19.2451 10.3619 19.2451C9.84487 19.2451 9.42573 18.826 9.42573 18.3089V16.1867C8.86604 15.8629 8.48948 15.2578 8.48948 14.5648C8.48948 13.5307 9.32777 12.6924 10.3618 12.6924C11.3959 12.6924 12.2342 13.5307 12.2342 14.5648ZM17.3832 22.9872C19.7099 22.9872 21.596 21.101 21.596 18.7744C21.596 16.4477 19.7099 14.5615 17.3832 14.5615C15.0565 14.5615 13.1704 16.4477 13.1704 18.7744C13.1704 21.101 15.0565 22.9872 17.3832 22.9872ZM18.9936 19.5191V18.9298H18.2195L19.3492 16.4334H18.2649L17.4801 18.4273L16.6889 16.4334H15.6045L16.737 18.9298H15.8695V19.5191H16.9434V19.941H15.8695V20.5268H16.9434V21.51H17.9859V20.5268H18.9936V19.941H17.9859V19.5191H18.9936Z" fill="#07C160"/>
</svg>