<svg xmlns="http://www.w3.org/2000/svg" width="22" height="23" viewBox="0 0 22 23" fill="none">
  <path fill-rule="evenodd" clip-rule="evenodd" d="M16.9452 9.59655C16.579 9.59004 16.22 9.69768 15.9178 9.90454C15.8087 9.49103 15.5678 9.12436 15.2316 8.86016C14.8953 8.59595 14.482 8.44861 14.0545 8.44049C13.6706 8.44049 13.2955 8.54719 12.9688 8.74848C12.8837 8.46344 12.7342 8.20179 12.5318 7.98375C12.3294 7.76571 12.0796 7.59712 11.8017 7.49101C11.5238 7.38491 11.2252 7.34413 10.929 7.37182C10.6328 7.39951 10.347 7.49494 10.0935 7.65072V3.0672C10.1037 2.80205 10.061 2.53753 9.96805 2.289C9.87509 2.04047 9.73368 1.81289 9.55203 1.61947C9.37038 1.42605 9.15211 1.27065 8.9099 1.16229C8.66769 1.05394 8.40636 0.99479 8.1411 0.988281C7.59748 0.996972 7.07941 1.22054 6.70015 1.6101C6.32089 1.99967 6.11129 2.52354 6.11717 3.0672V13.6081L4.86982 12.3508C4.48442 11.9834 3.97236 11.7784 3.43988 11.7784C2.90739 11.7784 2.39534 11.9834 2.00993 12.3508C1.58686 12.7436 1.33327 13.2857 1.30289 13.8622C1.2725 14.4387 1.4677 15.0044 1.84714 15.4395L7.52512 21.2957C7.63841 21.4101 7.76711 21.5091 7.9068 21.5894C9.2417 22.6459 10.9388 23.1347 12.6311 22.95C13.3562 22.95 13.998 22.899 14.5662 22.8021C13.4855 21.8849 12.7998 20.5167 12.7998 18.9883C12.7998 16.2269 15.0383 13.9883 17.7998 13.9883C18.1765 13.9883 18.5435 14.03 18.8965 14.1089V11.6777C18.9106 11.4117 18.8707 11.1455 18.7793 10.8953C18.6879 10.6452 18.5467 10.416 18.3644 10.2218C18.1821 10.0276 17.9624 9.87226 17.7185 9.76518C17.4746 9.6581 17.2115 9.60149 16.9452 9.59875V9.59655ZM19.3604 16.911C19.1877 16.911 19.0496 16.7729 19.0028 16.6067C18.844 16.0427 18.3258 15.6292 17.7109 15.6292C17.0961 15.6292 16.5779 16.0427 16.4191 16.6067C16.3723 16.7729 16.2342 16.911 16.0615 16.911C15.8795 16.911 15.7309 16.7594 15.7665 16.5809C15.9477 15.6727 16.7494 14.9883 17.7109 14.9883C18.6725 14.9883 19.4741 15.6727 19.6554 16.5809C19.691 16.7594 19.5424 16.911 19.3604 16.911ZM16.0816 17.5382C15.3737 17.5382 14.7998 18.1121 14.7998 18.82V20.7564C14.7998 21.4644 15.3737 22.0383 16.0816 22.0383H19.5181C20.226 22.0383 20.7999 21.4644 20.7999 20.7564V18.82C20.7999 18.1121 20.226 17.5382 19.5181 17.5382H16.0816ZM18.3999 19.3393C18.3999 19.5614 18.2793 19.7553 18.0999 19.859V20.5391C18.0999 20.7048 17.9656 20.8391 17.7999 20.8391C17.6342 20.8391 17.4999 20.7048 17.4999 20.5391V19.859C17.3205 19.7553 17.1999 19.5614 17.1999 19.3393C17.1999 19.0079 17.4685 18.7393 17.7999 18.7393C18.1313 18.7393 18.3999 19.0079 18.3999 19.3393Z" fill="#07C160"/>
</svg>