<svg xmlns="http://www.w3.org/2000/svg" width="22" height="23" viewBox="0 0 22 23" fill="none">
  <path fill-rule="evenodd" clip-rule="evenodd" d="M6.5 0.988281C4.84315 0.988281 3.5 2.33143 3.5 3.98828V19.9883C3.5 21.6451 4.84314 22.9883 6.5 22.9883H16.0833C17.7402 22.9883 19.0833 21.6451 19.0833 19.9883V3.98828C19.0833 2.33143 17.7402 0.988281 16.0833 0.988281H6.5ZM7.33325 2.82227C6.22868 2.82227 5.33325 3.71769 5.33325 4.82226V16.4056C5.33325 17.5102 6.22868 18.4056 7.33325 18.4056H15.2499C16.3545 18.4056 17.2499 17.5102 17.2499 16.4056V4.82227C17.2499 3.7177 16.3545 2.82227 15.2499 2.82227H7.33325ZM9 20.6966C9 21.2029 9.41041 21.6133 9.91667 21.6133H12.6667C13.1729 21.6133 13.5833 21.2029 13.5833 20.6966C13.5833 20.1904 13.1729 19.7799 12.6667 19.7799H9.91667C9.41041 19.7799 9 20.1904 9 20.6966ZM13.0606 8.91103C12.8879 8.91103 12.7498 8.77294 12.703 8.60668C12.5442 8.04265 12.0259 7.6292 11.4111 7.6292C10.7963 7.6292 10.2781 8.04265 10.1193 8.60668C10.0725 8.77294 9.93442 8.91103 9.7617 8.91103C9.57968 8.91103 9.43106 8.75941 9.46668 8.58092C9.64793 7.67269 10.4496 6.98828 11.4111 6.98828C12.3727 6.98828 13.1743 7.67269 13.3556 8.58092C13.3912 8.75941 13.2426 8.91103 13.0606 8.91103ZM9.78183 9.53818C9.0739 9.53818 8.5 10.1121 8.5 10.82V12.7564C8.5 13.4644 9.0739 14.0383 9.78183 14.0383H13.2183C13.9262 14.0383 14.5001 13.4644 14.5001 12.7564V10.82C14.5001 10.1121 13.9262 9.53818 13.2183 9.53818H9.78183ZM12.1001 11.3393C12.1001 11.5614 11.9794 11.7553 11.8001 11.859V12.5391C11.8001 12.7048 11.6658 12.8391 11.5001 12.8391C11.3344 12.8391 11.2001 12.7048 11.2001 12.5391V11.859C11.0207 11.7553 10.9001 11.5614 10.9001 11.3393C10.9001 11.0079 11.1687 10.7393 11.5001 10.7393C11.8315 10.7393 12.1001 11.0079 12.1001 11.3393Z" fill="#07C160"/>
</svg>