<svg xmlns="http://www.w3.org/2000/svg" width="22" height="18" viewBox="0 0 22 18" fill="none">
  <path fill-rule="evenodd" clip-rule="evenodd" d="M0.0136913 4.40495C0.183075 2.35177 1.90311 0.738281 4 0.738281H17.2667C19.3636 0.738281 21.0836 2.35177 21.253 4.40495H0.0136913ZM0 7.33828H21.2667V10.7838C20.4718 10.1211 19.4491 9.72233 18.3333 9.72233C15.802 9.72233 13.75 11.7744 13.75 14.3057C13.75 15.4211 14.1485 16.4435 14.8109 17.2383H4C1.79086 17.2383 0 15.4474 0 13.2383V7.33828Z" fill="#07C160"/>
  <path d="M21.8065 14.9348L21.2588 14.5193C21.2645 14.4616 21.2703 14.3981 21.2703 14.3289C21.2703 14.2597 21.2645 14.1962 21.2588 14.1385L21.8065 13.723C21.9565 13.6076 21.9968 13.4057 21.8988 13.2326L21.2876 12.1997C21.2184 12.0786 21.0858 12.0036 20.9474 12.0036C20.9013 12.0036 20.8609 12.0093 20.8148 12.0266L20.1632 12.2805C20.0537 12.2055 19.9383 12.142 19.823 12.0901L19.725 11.4266C19.6962 11.2361 19.5347 11.0977 19.3387 11.0977H18.1048C17.9087 11.0977 17.7473 11.2361 17.7184 11.4208L17.6262 12.0901C17.5109 12.142 17.4013 12.2055 17.286 12.2805L16.6344 12.0266C16.5883 12.0093 16.5422 12.0036 16.496 12.0036C16.3577 12.0036 16.225 12.0728 16.1616 12.194L15.5446 13.2326C15.4466 13.3942 15.487 13.6076 15.6369 13.723L16.1847 14.1385C16.1789 14.2077 16.1731 14.2712 16.1731 14.3289C16.1731 14.3866 16.1731 14.4501 16.1847 14.5193L15.6369 14.9348C15.487 15.0502 15.4466 15.2521 15.5446 15.4252L16.1558 16.4581C16.225 16.5792 16.3577 16.6543 16.496 16.6543C16.5422 16.6543 16.5825 16.6485 16.6287 16.6312L17.2802 16.3773C17.3898 16.4523 17.5051 16.5158 17.6204 16.5677L17.7184 17.2313C17.7415 17.4159 17.9087 17.5602 18.1048 17.5602H19.3387C19.5347 17.5602 19.6962 17.4217 19.725 17.237L19.823 16.5677C19.9383 16.5158 20.0479 16.4523 20.1632 16.3773L20.8148 16.6312C20.8609 16.6485 20.907 16.6543 20.9532 16.6543C21.0916 16.6543 21.2242 16.585 21.2876 16.4638L21.9046 15.4195C21.9968 15.2521 21.9565 15.0502 21.8065 14.9348ZM20.1056 14.3289C20.1056 15.0906 19.4828 15.7137 18.7217 15.7137C17.9606 15.7137 17.3379 15.0906 17.3379 14.3289C17.3379 13.5673 17.9606 12.9441 18.7217 12.9441C19.4828 12.9441 20.1056 13.5673 20.1056 14.3289Z" fill="#07C160"/>
  <path d="M3.61141 11.0059C4.13954 11.0059 4.60991 11.2549 4.93174 11.637C4.65942 11.959 4.49025 12.3755 4.49025 12.8392C4.49025 13.3029 4.65942 13.7151 4.93174 14.0414C4.60991 14.4235 4.13954 14.6725 3.61141 14.6725C2.63768 14.6725 1.84961 13.8525 1.84961 12.8392C1.84961 11.8259 2.63768 11.0059 3.61141 11.0059ZM6.25206 11.0059C7.2258 11.0059 8.01386 11.8259 8.01386 12.8392C8.01386 13.8525 7.2258 14.6725 6.25206 14.6725C5.72393 14.6725 5.25356 14.4235 4.93174 14.0414C5.20405 13.7194 5.37322 13.3029 5.37322 12.8392C5.37322 12.3755 5.20405 11.9633 4.93174 11.637C5.25356 11.2549 5.72393 11.0059 6.25206 11.0059Z" fill="white"/>
</svg>