
<svg width="80" height="102" viewBox="0 0 80 102" fill="none" xmlns="http://www.w3.org/2000/svg">
<rect x="16" y="10" width="48" height="48" rx="24" fill="white" fill-opacity="0.7"/>
<path fill-rule="evenodd" clip-rule="evenodd" d="M40 22.5C39.1716 22.5 38.5 23.1716 38.5 24V32.5H30C29.1716 32.5 28.5 33.1716 28.5 34C28.5 34.8284 29.1716 35.5 30 35.5H38.5V44C38.5 44.8284 39.1716 45.5 40 45.5C40.8284 45.5 41.5 44.8284 41.5 44V35.5H50C50.8284 35.5 51.5 34.8284 51.5 34C51.5 33.1716 50.8284 32.5 50 32.5H41.5V24C41.5 23.1716 40.8284 22.5 40 22.5Z" fill="#07C160"/>
<rect x="16" y="63" width="48" height="29" rx="14.5" fill="white" fill-opacity="0.7"/>
<path d="M37.018 73.452C36.2247 72.9573 35.408 72.4673 34.568 71.982L35.1 71.1C35.8373 71.52 36.6493 72.0007 37.536 72.542L37.018 73.452ZM38.6 83.938C36.7147 83.3687 35.1793 82.664 33.994 81.824C33.406 82.216 32.7293 82.58 31.964 82.916C31.1987 83.252 30.284 83.6067 29.22 83.98L28.744 82.958C30.5733 82.3607 32.0247 81.7447 33.098 81.11C32.2487 80.3633 31.53 79.4113 30.942 78.254C30.5407 79.1687 30.0507 80.046 29.472 80.886C28.8933 81.7167 28.184 82.58 27.344 83.476L26.742 82.398C27.778 81.3527 28.6273 80.2327 29.29 79.038C29.962 77.8433 30.4893 76.4807 30.872 74.95H27.554V74.04L28.212 71.38L29.304 71.632L28.744 73.956H31.096C31.264 73.0973 31.404 72.164 31.516 71.156L32.608 71.254C32.5053 72.1593 32.37 73.06 32.202 73.956H38.992V74.95H31.992C31.852 75.5847 31.6933 76.168 31.516 76.7H37.55V77.708C37.1767 78.4453 36.78 79.0893 36.36 79.64C35.94 80.1907 35.4687 80.6853 34.946 81.124C35.9913 81.796 37.3587 82.3607 39.048 82.818L38.6 83.938ZM31.838 77.708C32.398 78.8187 33.1307 79.7427 34.036 80.48C35.0347 79.724 35.8047 78.8 36.346 77.708H31.838ZM45.726 73.984C45.306 74.8893 44.8207 75.7527 44.27 76.574H47.014V74.796H48.05V76.574H52.082V81.124C52.082 81.544 52.0307 81.866 51.928 82.09C51.8253 82.314 51.6573 82.4727 51.424 82.566C51.2 82.65 50.878 82.692 50.458 82.692H49.072L48.862 81.684H50.136C50.5093 81.684 50.7567 81.6233 50.878 81.502C50.9993 81.3713 51.06 81.1427 51.06 80.816V77.638H48.05V83.938H47.014V77.638H43.962V82.832H42.954V78.268C42.5247 78.772 41.96 79.3647 41.26 80.046L40.798 78.94C41.6287 78.184 42.3473 77.4093 42.954 76.616C43.5607 75.8227 44.102 74.9453 44.578 73.984H41.19V72.934H45.054C45.3247 72.318 45.5767 71.66 45.81 70.96L46.804 71.198C46.608 71.7767 46.398 72.3553 46.174 72.934H53.076V73.984H45.726Z" fill="#07C160"/>
</svg>
