<svg xmlns="http://www.w3.org/2000/svg" width="34" height="35" viewBox="0 0 34 35" fill="none">
  <path fill-rule="evenodd" clip-rule="evenodd" d="M8.21212 2.28424C8.21212 1.1462 9.13469 0.223633 10.2727 0.223633C11.4108 0.223633 12.3333 1.1462 12.3333 2.28424V5.37515C12.3333 6.51319 11.4108 7.43575 10.2727 7.43575C9.13469 7.43575 8.21212 6.51319 8.21212 5.37515V2.28424ZM21.6061 2.28424V2.2843V5.37521C21.6061 7.08227 22.9899 8.46612 24.697 8.46612C26.404 8.46612 27.7879 7.08227 27.7879 5.37521V2.2843V2.28424H29.9697C32.1788 2.28424 33.9697 4.0751 33.9697 6.28424V30.2236C33.9697 32.4328 32.1788 34.2236 29.9697 34.2236H5C2.79086 34.2236 1 32.4328 1 30.2236V6.28424C1 4.0751 2.79086 2.28424 5 2.28424H7.18182V2.2843V5.37521C7.18182 7.08227 8.56566 8.46612 10.2727 8.46612C11.9798 8.46612 13.3636 7.08227 13.3636 5.37521V2.2843V2.28424H21.6061ZM5.06061 10.5267C3.95604 10.5267 3.06061 11.4222 3.06061 12.5267V30.1631C3.06061 31.2677 3.95603 32.1631 5.0606 32.1631H29.9091C31.0137 32.1631 31.9091 31.2677 31.9091 30.1631V12.5267C31.9091 11.4222 31.0137 10.5267 29.9091 10.5267H5.06061ZM24.697 0.223633C23.5589 0.223633 22.6364 1.1462 22.6364 2.28424V5.37515C22.6364 6.51319 23.5589 7.43575 24.697 7.43575C25.835 7.43575 26.7576 6.51319 26.7576 5.37515V2.28424C26.7576 1.1462 25.835 0.223633 24.697 0.223633ZM7.18182 24.4358C7.18182 23.5822 7.87374 22.8903 8.72727 22.8903H19.0303C19.8838 22.8903 20.5758 23.5822 20.5758 24.4358C20.5758 25.2893 19.8838 25.9812 19.0303 25.9812H8.72727C7.87374 25.9812 7.18182 25.2893 7.18182 24.4358ZM8.72727 16.7085C7.87374 16.7085 7.18182 17.4004 7.18182 18.2539C7.18182 19.1075 7.87374 19.7994 8.72727 19.7994H23.1515C24.005 19.7994 24.697 19.1075 24.697 18.2539C24.697 17.4004 24.005 16.7085 23.1515 16.7085H8.72727Z" fill="url(#paint0_linear_22857_67747)"/>
  <defs>
    <linearGradient id="paint0_linear_22857_67747" x1="17.4848" y1="0.223633" x2="17.4848" y2="34.2236" gradientUnits="userSpaceOnUse">
      <stop stop-color="#FF4646"/>
      <stop offset="1" stop-color="#ED2424"/>
    </linearGradient>
  </defs>
</svg>