<svg xmlns="http://www.w3.org/2000/svg" width="34" height="35" viewBox="0 0 34 35" fill="none">
  <g clip-path="url(#clip0_22857_67733)">
    <path fill-rule="evenodd" clip-rule="evenodd" d="M0 17.0898C0 7.7 7.61016 0.0898438 17 0.0898438C26.3898 0.0898438 34 7.7 34 17.0898C34 26.4797 26.3898 34.0898 17 34.0898C7.61016 34.0898 0 26.4797 0 17.0898ZM20.9014 20.9879L27.5187 27.6086C28.8834 26.2406 29.9592 24.6502 30.7029 22.8771C30.9719 22.243 31.1943 21.5955 31.3703 20.9381L22.3225 18.5143C22.5715 17.5779 22.5715 16.5918 22.3225 15.6588L31.3703 13.235C31.1943 12.5775 30.9719 11.9301 30.7029 11.2959C29.9559 9.52617 28.8834 7.93574 27.5154 6.56777L20.898 13.1885C20.1875 12.4779 19.3309 12.0031 18.4277 11.7607L20.8516 2.71621C19.6031 2.38418 18.3148 2.21484 17 2.21484C15.6852 2.21484 14.3969 2.38418 13.1484 2.71621L15.5689 11.7607C14.6658 12.0031 13.8092 12.4812 13.0986 13.1885L6.48125 6.57109C5.1166 7.93574 4.04414 9.52949 3.29375 11.2992C3.0248 11.9334 2.80234 12.5809 2.62637 13.2383L11.6709 15.6621C11.4219 16.5951 11.4219 17.5812 11.6709 18.5176L2.62637 20.9414C2.80234 21.5988 3.0248 22.2463 3.29375 22.8805C4.04082 24.6502 5.11328 26.2406 6.48125 27.6086L13.1053 20.9879C13.8158 21.6984 14.6725 22.1766 15.5756 22.4156L13.1518 31.4635C14.4002 31.7955 15.6885 31.9648 17.0033 31.9648C18.3182 31.9648 19.6064 31.7988 20.8549 31.4635L18.4311 22.4156C19.3342 22.1732 20.1908 21.6951 20.9014 20.9879ZM16.9996 8.13867L17.896 12.5082C18.7759 12.6809 19.616 13.1059 20.3 13.7865C22.1228 15.6094 22.1228 18.5645 20.3 20.3873C18.4771 22.2102 15.522 22.2102 13.6992 20.3873C11.8763 18.5645 11.8763 15.6094 13.6992 13.7865C14.3964 13.0893 15.2664 12.6576 16.1695 12.4949L16.9996 8.13867Z" fill="url(#paint0_linear_22857_67733)"/>
  </g>
  <defs>
    <linearGradient id="paint0_linear_22857_67733" x1="17" y1="0.0898437" x2="17" y2="34.0898" gradientUnits="userSpaceOnUse">
      <stop stop-color="#6CEF1C"/>
      <stop offset="1" stop-color="#17C71E"/>
    </linearGradient>
    <clipPath id="clip0_22857_67733">
      <rect width="34" height="34" fill="white" transform="translate(0 0.0898438)"/>
    </clipPath>
  </defs>
</svg>