<svg width="34" height="35" viewBox="0 0 34 35" fill="none" xmlns="http://www.w3.org/2000/svg">
<path fill-rule="evenodd" clip-rule="evenodd" d="M2.6152 5.20216H31.3845L34 13.0595C34 15.4819 32.0971 17.4454 29.7497 17.4454C27.4023 17.4454 25.4999 15.4818 25.4999 13.0595C25.4999 15.4819 23.5968 17.4454 21.25 17.4454C18.9026 17.4454 16.9999 15.4818 16.9999 13.0595C16.9999 15.4819 15.0967 17.4454 12.7497 17.4454C10.4023 17.4454 8.49978 15.4818 8.49978 13.0595C8.49978 15.4819 6.59737 17.4454 4.24996 17.4454C1.90256 17.4454 0 15.4818 0 13.0595L2.6152 5.20216ZM28.5074 3.82826H5.49231C4.62603 3.82826 3.9231 3.2357 3.9231 2.50386C3.9231 1.77216 4.62588 1.17871 5.49231 1.17871H28.5074C29.3738 1.17871 30.0766 1.77201 30.0766 2.50386C30.0766 3.2357 29.374 3.82826 28.5074 3.82826ZM21.25 19.3858C22.8454 19.3858 24.3467 18.7735 25.4996 17.6576C26.6527 18.7737 28.154 19.386 29.7497 19.3858C29.8588 19.3858 29.9679 19.3828 30.0768 19.3768V20.7097C29.1481 20.2546 28.1039 19.999 27 19.999C23.134 19.999 20 23.133 20 26.999C20 29.6754 21.502 32.0009 23.709 33.1787H6.5383C5.33131 33.1787 3.9231 32.1413 3.9231 30.5296V19.3768C4.03151 19.3827 4.14037 19.3858 4.24996 19.3858C5.84569 19.3858 7.34699 18.7735 8.49978 17.6576C9.65271 18.7735 11.154 19.3858 12.7497 19.3858C14.3453 19.3858 15.8466 18.7735 16.9997 17.6576C18.1529 18.7735 19.6539 19.3858 21.25 19.3858Z" fill="url(#paint0_linear_2731_145466)"/>
<circle cx="27" cy="26.999" r="6" fill="url(#paint1_linear_2731_145466)"/>
<path d="M23.6175 29.352L23.73 29.0515C24.3958 30.2181 25.6117 30.999 27.0017 30.999C29.1066 30.999 30.8129 29.2082 30.8129 26.999C30.7482 26.8477 30.6361 26.772 30.4763 26.772C30.3164 26.772 30.2046 26.8477 30.1403 26.999C30.1403 28.8183 28.735 30.2931 27.0017 30.2931C25.6631 30.2931 24.5205 29.4138 24.0691 28.1755C23.9902 28.0449 23.8691 27.9797 23.7052 27.98C23.542 27.9781 23.4261 28.0435 23.358 28.1755L23.0153 29.1524C23.0014 29.1922 22.9969 29.2349 23.0021 29.2769C23.0074 29.3189 23.0222 29.3589 23.0455 29.3936C23.0687 29.4284 23.0996 29.4567 23.1356 29.4763C23.1715 29.496 23.2115 29.5062 23.252 29.5063C23.4128 29.5251 23.5345 29.4738 23.6175 29.352ZM30.646 25.8226L30.9815 24.8727C30.9982 24.8253 31.0037 24.7745 30.9975 24.7244C30.9914 24.6744 30.9737 24.6266 30.9461 24.5852C30.9184 24.5438 30.8816 24.51 30.8387 24.4866C30.7959 24.4633 30.7483 24.4511 30.6999 24.451C30.5838 24.451 30.4803 24.516 30.389 24.6461L30.2747 24.9487C29.6091 23.7809 28.3928 22.999 27.0017 22.999C24.8968 22.999 23.1905 24.7898 23.1905 26.999C23.2139 27.1931 23.3235 27.2903 23.5192 27.2903C23.7149 27.2903 23.8294 27.1931 23.863 26.999C23.863 25.1797 25.2683 23.7049 27.0017 23.7049C28.34 23.7049 29.4829 24.5842 29.9343 25.8226C29.978 25.9873 30.0914 26.0696 30.2747 26.0696C30.4582 26.0696 30.5818 25.9873 30.646 25.8226ZM26.2094 25.8308H25.9966C25.8667 25.8308 25.7747 25.8635 25.7206 25.9287C25.6665 25.9941 25.6394 26.0906 25.6394 26.2186V26.979C25.6394 27.0595 25.6462 27.1273 25.6593 27.1823C25.6726 27.2376 25.6942 27.2821 25.7242 27.316C25.7544 27.3498 25.7952 27.3738 25.8469 27.3875C25.8987 27.4014 25.9641 27.4082 26.0435 27.4082H26.2563C26.2376 27.5162 26.2073 27.6216 26.1661 27.7226C26.1278 27.8143 26.0766 27.8953 26.0128 27.9654C25.945 28.039 25.8672 28.1017 25.7819 28.1517C25.6918 28.2058 25.5842 28.2541 25.4591 28.2967C25.3581 28.3294 25.2956 28.3746 25.2715 28.4322C25.2476 28.4901 25.2487 28.5564 25.2751 28.6317C25.2992 28.7047 25.336 28.748 25.3851 28.7616C25.4345 28.7755 25.5096 28.7649 25.6106 28.7296C25.9375 28.6193 26.1927 28.4611 26.3754 28.2553C26.558 28.0496 26.6712 27.7673 26.7144 27.4082H27.086V28.1047C27.086 28.2778 27.1264 28.4103 27.2069 28.5018C27.2876 28.5936 27.3962 28.6506 27.5333 28.6731C27.5766 28.6807 27.6278 28.6863 27.6866 28.6901C27.7457 28.6938 27.8061 28.6957 27.8688 28.6957C27.9315 28.6957 27.9933 28.6946 28.0546 28.692C28.1159 28.6896 28.1707 28.687 28.2187 28.6844C28.3292 28.6769 28.4185 28.6626 28.4857 28.6411C28.5531 28.62 28.6047 28.5809 28.6408 28.5244C28.6769 28.468 28.6992 28.3877 28.7075 28.2835C28.7161 28.1795 28.7154 28.0421 28.7057 27.8713C28.6962 27.7258 28.6241 27.6529 28.4893 27.6529C28.4149 27.6529 28.3601 27.6743 28.3251 27.7169C28.2904 27.7597 28.2753 27.82 28.28 27.8976C28.2897 28.0233 28.2873 28.1084 28.2728 28.1536C28.2584 28.1988 28.2165 28.2251 28.1466 28.2327C28.1177 28.2353 28.0816 28.2378 28.0384 28.2402C27.9951 28.2428 27.9504 28.244 27.9049 28.244C27.8593 28.244 27.8147 28.2435 27.7714 28.2421C27.7352 28.2415 27.699 28.2383 27.6632 28.2327C27.6176 28.2251 27.5827 28.2089 27.5586 28.1837C27.5347 28.1588 27.5225 28.1186 27.5225 28.0633V27.4084H27.8652C28.0095 27.4084 28.1137 27.3771 28.1772 27.3143C28.241 27.2517 28.2728 27.14 28.2728 26.9793V26.2564C28.2728 26.0908 28.239 25.9786 28.1718 25.9195C28.1046 25.8607 28.0023 25.831 27.8652 25.831H27.7786C27.8124 25.7809 27.844 25.7301 27.8742 25.6786C27.9044 25.6273 27.9351 25.5727 27.9662 25.5148C28.0167 25.4195 28.0316 25.3435 28.0113 25.287C27.991 25.2306 27.9495 25.1849 27.8868 25.1496C27.817 25.1146 27.7565 25.1077 27.7047 25.1289C27.6528 25.1503 27.6068 25.2087 27.5658 25.304C27.4986 25.4696 27.3962 25.6454 27.2592 25.831H26.7036C26.6982 25.8094 26.6904 25.7885 26.6802 25.7689L26.6423 25.6955C26.6032 25.6205 26.5585 25.5487 26.5088 25.4809C26.4517 25.4041 26.3928 25.3288 26.3321 25.255C26.2166 25.1195 26.1048 25.1096 25.9966 25.2249C25.959 25.2607 25.9353 25.3095 25.9298 25.3623C25.924 25.4164 25.9474 25.4748 26.0002 25.5374C26.0315 25.5727 26.0647 25.616 26.0994 25.6673C26.1343 25.7188 26.1711 25.7731 26.2094 25.8308ZM27.8399 26.3315V26.8924C27.8399 26.9353 27.8255 26.9564 27.7967 26.9564H26.1084C26.0845 26.9564 26.0723 26.9353 26.0723 26.8924V26.3315C26.0714 26.3174 26.0733 26.3034 26.0777 26.2901C26.0814 26.2826 26.0917 26.2788 26.1084 26.2788H27.7967C27.8136 26.2788 27.8251 26.2821 27.8309 26.2882C27.837 26.2946 27.8399 26.3089 27.8399 26.3315Z" fill="white"/>
<defs>
<linearGradient id="paint0_linear_2731_145466" x1="17" y1="1.17871" x2="17" y2="33.1787" gradientUnits="userSpaceOnUse">
<stop stop-color="#FFC123"/>
<stop offset="1" stop-color="#F26819"/>
</linearGradient>
<linearGradient id="paint1_linear_2731_145466" x1="27" y1="20.999" x2="27" y2="32.999" gradientUnits="userSpaceOnUse">
<stop stop-color="#F9931E"/>
<stop offset="1" stop-color="#F3691A"/>
</linearGradient>
</defs>
</svg>
