<svg xmlns="http://www.w3.org/2000/svg" width="36" height="35" viewBox="0 0 36 35" fill="none">
  <g clip-path="url(#clip0_22857_67737)">
    <path fill-rule="evenodd" clip-rule="evenodd" d="M13.7106 2.27187C13.7075 1.09648 12.7554 0.14937 11.58 0.15246C10.4047 0.15555 9.45755 1.10765 9.46064 2.28304L9.46623 4.40803L6.27874 4.41641C4.51898 4.42104 3.095 5.85252 3.09963 7.61228L3.10801 10.7998L32.8579 10.7216L32.8495 7.53407C32.8449 5.77431 31.4134 4.35034 29.6537 4.35496L26.4662 4.36334L26.4606 2.23835C26.4575 1.06296 25.5054 0.115852 24.33 0.118942C23.1546 0.122032 22.2075 1.07413 22.2106 2.24952L22.2162 4.37451L13.7162 4.39686L13.7106 2.27187ZM32.8635 12.8466L3.1136 12.9248L3.16108 30.9872C3.1657 32.747 4.59719 34.1709 6.35695 34.1663L29.7319 34.1049C31.4916 34.1002 32.9156 32.6688 32.911 30.909L32.8635 12.8466ZM11.8302 17.1108C12.2204 17.1098 12.5376 17.4253 12.5386 17.8154L12.5497 22.0544C12.5508 22.4446 12.2353 22.7617 11.8451 22.7627L7.60615 22.7739C7.21597 22.7749 6.89883 22.4594 6.8978 22.0693L6.88666 17.8303C6.88563 17.4401 7.20111 17.123 7.59129 17.122L11.8302 17.1108ZM11.8496 24.6477C12.2397 24.6466 12.5569 24.9621 12.5579 25.3523L12.569 29.5912C12.5701 29.9814 12.2546 30.2986 11.8644 30.2996L7.62547 30.3107C7.23528 30.3118 6.91815 29.9963 6.91712 29.6061L6.90598 25.3672C6.90495 24.977 7.22043 24.6598 7.61061 24.6588L11.8496 24.6477ZM16.0692 17.0999C15.679 17.1009 15.3636 17.418 15.3646 17.8082L15.3757 22.0472C15.3767 22.4374 15.6939 22.7528 16.0841 22.7518L20.323 22.7407C20.7132 22.7396 21.0287 22.4225 21.0277 22.0323L21.0165 17.7934C21.0155 17.4032 20.6983 17.0877 20.3082 17.0887L16.0692 17.0999ZM20.3275 24.6256C20.7177 24.6246 21.0348 24.94 21.0358 25.3302L21.047 29.5692C21.048 29.9594 20.7325 30.2765 20.3423 30.2775L16.1034 30.2887C15.7132 30.2897 15.3961 29.9742 15.395 29.584L15.3839 25.3451C15.3829 24.9549 15.6983 24.6378 16.0885 24.6367L20.3275 24.6256ZM24.5471 17.0778C24.157 17.0788 23.8415 17.396 23.8425 17.7861L23.8536 22.0251C23.8547 22.4153 24.1718 22.7308 24.562 22.7297L28.8009 22.7186C29.1911 22.7176 29.5066 22.4004 29.5056 22.0102L29.4944 17.7713C29.4934 17.3811 29.1763 17.0656 28.7861 17.0667L24.5471 17.0778ZM28.8054 24.6035C29.1956 24.6025 29.5127 24.918 29.5137 25.3081L29.5249 29.5471C29.5259 29.9373 29.2104 30.2544 28.8203 30.2554L24.5813 30.2666C24.1911 30.2676 23.874 29.9521 23.873 29.5619L23.8618 25.323C23.8608 24.9328 24.1763 24.6157 24.5665 24.6147L28.8054 24.6035Z" fill="url(#paint0_linear_22857_67737)"/>
  </g>
  <defs>
    <linearGradient id="paint0_linear_22857_67737" x1="17.955" y1="0.135701" x2="18.0444" y2="34.1356" gradientUnits="userSpaceOnUse">
      <stop stop-color="#07C160"/>
      <stop offset="1" stop-color="#03A651"/>
    </linearGradient>
    <clipPath id="clip0_22857_67737">
      <rect width="34" height="34" fill="white" transform="translate(0.955078 0.179688) rotate(-0.15062)"/>
    </clipPath>
  </defs>
</svg>