<svg xmlns="http://www.w3.org/2000/svg" width="36" height="35" viewBox="0 0 36 35" fill="none">
  <path d="M18.0327 31.8367L3.64213 17.5193C2.80089 16.6824 2.1327 15.688 1.67573 14.5928C1.21876 13.4976 0.981954 12.3231 0.978834 11.1364C0.975715 9.94969 1.20634 8.77397 1.65755 7.67639C2.10876 6.57882 2.7717 5.58088 3.60854 4.73957C4.44531 3.89819 5.43959 3.2299 6.5346 2.77286C7.62962 2.31582 8.80392 2.07898 9.99046 2.07586C11.177 2.07274 12.3525 2.3034 13.4499 2.75468C14.5473 3.20596 15.5451 3.86901 16.3863 4.70598L17.9661 6.27837L19.5377 4.69769C20.3744 3.85632 21.3687 3.18803 22.4637 2.73099C23.5587 2.27394 24.733 2.0371 25.9196 2.03398C27.1061 2.03086 28.2817 2.26153 29.3791 2.71281C30.4765 3.16408 31.4742 3.82714 32.3154 4.6641C33.1567 5.50101 33.8249 6.49544 34.2818 7.59063C34.7388 8.68582 34.9756 9.86031 34.9787 11.047C34.9818 12.2338 34.7512 13.4095 34.3 14.507C33.8488 15.6046 33.1858 16.6026 32.349 17.4439L18.0327 31.8367Z" fill="url(#paint0_linear_22857_67717)"/>
  <defs>
    <linearGradient id="paint0_linear_22857_67717" x1="17.955" y1="2.05492" x2="18.0333" y2="31.8367" gradientUnits="userSpaceOnUse">
      <stop stop-color="#FF55B1"/>
      <stop offset="1" stop-color="#FF5592"/>
    </linearGradient>
  </defs>
</svg>