<svg width="35" height="35" viewBox="0 0 35 35" fill="none" xmlns="http://www.w3.org/2000/svg">
<ellipse cx="17.4565" cy="17.0453" rx="16.9116" ry="16.9555" fill="url(#paint0_linear_22857_67720)"/>
<path d="M11.8203 12.4492C11.5078 12.1888 11.2214 11.9023 10.9609 11.5898C10.5443 11.1211 10.1016 10.6523 9.63281 10.1836C9.11198 9.66276 9.11198 9.11589 9.63281 8.54297C10.1536 8.1263 10.7526 8.15234 11.4297 8.62109C11.5859 8.82943 11.8984 9.16797 12.3672 9.63672C12.7839 10.1055 13.0964 10.418 13.3047 10.5742C14.0339 11.4596 14.2161 12.0846 13.8516 12.4492H16.1172V8.77734C16.1172 8.04818 16.5339 7.65755 17.3672 7.60547C18.1484 7.65755 18.5651 8.04818 18.6172 8.77734V12.4492H20.8047C20.8047 12.0846 20.9089 11.7721 21.1172 11.5117C22.1068 10.4701 22.9922 9.48047 23.7734 8.54297C24.1901 8.07422 24.7109 7.99609 25.3359 8.30859C25.8568 8.67318 26.013 9.16797 25.8047 9.79297C25.1276 10.8346 24.3724 11.7201 23.5391 12.4492H24.2422C25.1797 12.4492 25.6484 13.1523 25.6484 14.5586V24.0898C25.5443 26.069 23.7995 26.668 20.4141 25.8867C19.5286 25.5742 19.138 25.0273 19.2422 24.2461C19.4505 23.6211 19.9974 23.4128 20.8828 23.6211C22.7057 24.0898 23.513 23.8555 23.3047 22.918V21.5117H11.5859V25.1836C11.5339 25.9648 11.1172 26.3555 10.3359 26.3555C9.60677 26.1992 9.24219 25.7305 9.24219 24.9492V14.4805C9.24219 13.1263 9.8151 12.4492 10.9609 12.4492H11.8203ZM11.8984 14.6367C11.6901 14.6367 11.5859 14.7669 11.5859 15.0273V15.8867H23.3047V15.0273C23.2526 14.819 23.1224 14.6888 22.9141 14.6367H11.8984ZM23.3047 18.0742H11.5859V19.3242H23.3047V18.0742Z" fill="white"/>
<defs>
<linearGradient id="paint0_linear_22857_67720" x1="17.4565" y1="0.0898437" x2="17.4565" y2="34.0008" gradientUnits="userSpaceOnUse">
<stop stop-color="#6DD3FF"/>
<stop offset="1" stop-color="#376EFF"/>
</linearGradient>
</defs>
</svg>
