<svg xmlns="http://www.w3.org/2000/svg" width="35" height="35" viewBox="0 0 35 35" fill="none">
  <path fill-rule="evenodd" clip-rule="evenodd" d="M29.5 5.13477H5.5C3.84315 5.13477 2.5 6.47791 2.5 8.13477V11.1348H7.6138C7.88836 9.96957 8.62919 9.13477 9.5 9.13477C10.3708 9.13477 11.1116 9.96957 11.3862 11.1348H18.6138C18.8884 9.96957 19.6292 9.13477 20.5 9.13477C21.3708 9.13477 22.1116 9.96957 22.3862 11.1348H24.6138C24.8884 9.96957 25.6292 9.13477 26.5 9.13477C27.3708 9.13477 28.1116 9.96957 28.3862 11.1348H32.5V8.13477C32.5 6.47791 31.1569 5.13477 29.5 5.13477ZM22.3862 13.1348H24.6138C24.8884 14.3 25.6292 15.1348 26.5 15.1348C27.3708 15.1348 28.1116 14.3 28.3862 13.1348H32.5V20.1348H27.3862C27.1116 18.9696 26.3708 18.1348 25.5 18.1348C24.6292 18.1348 23.8884 18.9696 23.6138 20.1348H21.3862C21.1116 18.9696 20.3708 18.1348 19.5 18.1348C18.6292 18.1348 17.8884 18.9696 17.6138 20.1348H15.3862C15.1116 18.9696 14.3708 18.1348 13.5 18.1348C12.6292 18.1348 11.8884 18.9696 11.6138 20.1348H2.5V13.1348H7.6138C7.88836 14.3 8.62919 15.1348 9.5 15.1348C10.3708 15.1348 11.1116 14.3 11.3862 13.1348H18.6138C18.8884 14.3 19.6292 15.1348 20.5 15.1348C21.3708 15.1348 22.1116 14.3 22.3862 13.1348ZM23.6138 22.1348H21.3862C21.1116 23.3 20.3708 24.1348 19.5 24.1348C18.6292 24.1348 17.8884 23.3 17.6138 22.1348H15.3862C15.1116 23.3 14.3708 24.1348 13.5 24.1348C12.6292 24.1348 11.8884 23.3 11.6138 22.1348H2.5V26.1348C2.5 27.7916 3.84315 29.1348 5.5 29.1348H29.5C31.1569 29.1348 32.5 27.7916 32.5 26.1348V22.1348H27.3862C27.1116 23.3 26.3708 24.1348 25.5 24.1348C24.6292 24.1348 23.8884 23.3 23.6138 22.1348ZM0.5 11.1348V13.1348V20.1348V22.1348V26.1348C0.5 28.8962 2.73858 31.1348 5.5 31.1348H29.5C32.2614 31.1348 34.5 28.8962 34.5 26.1348V22.1348V20.1348V13.1348V11.1348V8.13477C34.5 5.37334 32.2614 3.13477 29.5 3.13477H5.5C2.73858 3.13477 0.5 5.37334 0.5 8.13477V11.1348Z" fill="url(#paint0_linear_22857_67740)"/>
  <defs>
    <linearGradient id="paint0_linear_22857_67740" x1="17.5" y1="3.13477" x2="17.5" y2="31.1348" gradientUnits="userSpaceOnUse">
      <stop stop-color="#42BBFF"/>
      <stop offset="1" stop-color="#1762F2"/>
    </linearGradient>
  </defs>
</svg>