<svg xmlns="http://www.w3.org/2000/svg" width="34" height="35" viewBox="0 0 34 35" fill="none">
  <g clip-path="url(#clip0_22857_67743)">
    <path fill-rule="evenodd" clip-rule="evenodd" d="M7.41602 0.134766C4.10231 0.134766 1.41602 2.82106 1.41602 6.13477V28.1348C1.41602 31.4485 4.1023 34.1348 7.41601 34.1348H16.5862C14.2333 32.0581 12.7493 29.0197 12.7493 25.6348C12.7493 19.3755 17.8235 14.3014 24.0827 14.3014C27.4676 14.3014 30.506 15.7854 32.5827 18.1383V6.13477C32.5827 2.82106 29.8964 0.134766 26.5827 0.134766H7.41602ZM24.0827 34.1348C28.7771 34.1348 32.5827 30.3292 32.5827 25.6348C32.5827 20.9403 28.7771 17.1348 24.0827 17.1348C19.3883 17.1348 15.5827 20.9403 15.5827 25.6348C15.5827 30.3292 19.3883 34.1348 24.0827 34.1348ZM20.7718 26.4523C21.9119 27.5925 23.7605 27.5925 24.9006 26.4523C26.0407 25.3122 26.0407 23.4637 24.9006 22.3235C23.7605 21.1834 21.9119 21.1834 20.7718 22.3235C19.6316 23.4637 19.6316 25.3122 20.7718 26.4523ZM19.7111 27.513C21.437 29.2389 24.2353 29.2389 25.9613 27.513C27.6872 25.7871 27.6872 22.9888 25.9613 21.2629C24.2353 19.5369 21.437 19.5369 19.7111 21.2629C17.9852 22.9888 17.9852 25.7871 19.7111 27.513ZM26.512 28.5249C26.9269 28.11 27.5996 28.11 28.0146 28.5249L28.5953 29.1057C29.0103 29.5206 29.0103 30.1934 28.5953 30.6083C28.1804 31.0232 27.5077 31.0232 27.0927 30.6083L26.512 30.0275C26.097 29.6126 26.097 28.9398 26.512 28.5249ZM4.99935 4.13477C4.44706 4.13477 3.99935 4.58248 3.99935 5.13477C3.99935 5.68705 4.44706 6.13477 4.99935 6.13477H12.9993C13.5516 6.13477 13.9993 5.68705 13.9993 5.13477C13.9993 4.58248 13.5516 4.13477 12.9993 4.13477H4.99935ZM4.99935 8.13477C4.44706 8.13477 3.99935 8.58248 3.99935 9.13477C3.99935 9.68705 4.44706 10.1348 4.99935 10.1348H8.99935C9.55163 10.1348 9.99935 9.68705 9.99935 9.13477C9.99935 8.58248 9.55163 8.13477 8.99935 8.13477H4.99935ZM3.99935 13.1348C3.99935 12.5825 4.44706 12.1348 4.99935 12.1348H7.99935C8.55163 12.1348 8.99935 12.5825 8.99935 13.1348C8.99935 13.6871 8.55163 14.1348 7.99935 14.1348H4.99935C4.44706 14.1348 3.99935 13.6871 3.99935 13.1348Z" fill="url(#paint0_linear_22857_67743)"/>
  </g>
  <defs>
    <linearGradient id="paint0_linear_22857_67743" x1="16.9993" y1="0.134766" x2="16.9993" y2="34.1348" gradientUnits="userSpaceOnUse">
      <stop stop-color="#07C160"/>
      <stop offset="0.0001" stop-color="#BA4BEF"/>
      <stop offset="1" stop-color="#A717EB"/>
    </linearGradient>
    <clipPath id="clip0_22857_67743">
      <rect width="34" height="34" fill="white" transform="translate(0 0.134766)"/>
    </clipPath>
  </defs>
</svg>