<svg width="34" height="35" viewBox="0 0 34 35" fill="none" xmlns="http://www.w3.org/2000/svg">
<path fill-rule="evenodd" clip-rule="evenodd" d="M27.2683 2.50029H25.852V2.02232C25.852 1.40778 25.4979 0.178711 24.0108 0.178711C22.5236 0.178711 22.0279 1.40778 22.0279 2.02232V2.50029H9.42276V2.02232C9.42276 1.40778 9.06869 0.178711 7.58156 0.178711C6.09443 0.178711 5.59872 1.40778 5.59872 2.02232V2.50029H4.11159C2.12876 2.50029 0.5 4.07077 0.5 5.98265V27.6918C0.5 29.6037 2.12876 31.1742 4.11159 31.1742H18.9715C18.8453 30.9476 18.7304 30.7149 18.6273 30.4768C18.2074 29.5075 17.9913 28.4686 17.9914 27.4194C17.9913 26.3702 18.2074 25.3313 18.6273 24.362C19.0472 23.3927 19.6627 22.5119 20.4387 21.77C21.2146 21.0281 22.1358 20.4396 23.1497 20.0381C24.1636 19.6365 25.2502 19.4299 26.3476 19.4299C27.445 19.4299 28.5317 19.6365 29.5456 20.0381C30.0116 20.2226 30.4581 20.4467 30.8799 20.707V5.98265C30.8799 4.07077 29.2511 2.50029 27.2683 2.50029ZM4.96138 16.0839H7.93564C8.78543 16.0839 9.42277 16.6985 9.42277 17.5179C9.42277 18.3372 8.78543 18.9518 7.93564 18.9518H4.96138C4.1116 18.9518 3.47426 18.3372 3.47426 17.5179C3.47426 16.7668 4.1116 16.0839 4.96138 16.0839ZM4.96138 22.5707H7.93564C8.78543 22.5707 9.42277 23.1852 9.42277 24.0046C9.42277 24.824 8.78543 25.4385 7.93564 25.4385H4.96138C4.1116 25.4385 3.47426 24.824 3.47426 24.0046C3.47426 23.1852 4.1116 22.5707 4.96138 22.5707ZM13.8133 16.0839H16.7876C17.6374 16.0839 18.2747 16.6985 18.2747 17.5179C18.2747 18.3372 17.6374 18.9518 16.7876 18.9518H13.8133C12.9635 18.9518 12.3262 18.3372 12.3262 17.5179C12.3262 16.7668 13.0344 16.0839 13.8133 16.0839ZM13.8133 22.5707H16.7876C17.6374 22.5707 18.2747 23.1852 18.2747 24.0046C18.2747 24.824 17.6374 25.4385 16.7876 25.4385H13.8133C12.9635 25.4385 12.3262 24.824 12.3262 24.0046C12.3262 23.1852 13.0344 22.5707 13.8133 22.5707ZM23.5151 16.0839H26.4893C27.3391 16.0839 27.9765 16.6985 27.9765 17.5179C27.9765 18.3372 27.3391 18.9518 26.4893 18.9518H23.5151C22.6653 18.9518 22.0279 18.3372 22.0279 17.5179C21.9571 16.7668 22.6653 16.0839 23.5151 16.0839ZM5.31546 8.91437H25.2855C26.3477 8.91437 27.1267 9.73375 27.1267 10.6897C27.1267 11.7139 26.2769 12.465 25.2855 12.465H5.31546C4.25323 12.465 3.47426 11.6456 3.47426 10.6897C3.47426 9.73375 4.32404 8.91437 5.31546 8.91437Z" fill="url(#paint0_linear_2731_145463)"/>
<path fill-rule="evenodd" clip-rule="evenodd" d="M19.8077 30.0057C19.45 29.1855 19.266 28.3065 19.2661 27.4188C19.266 26.5311 19.45 25.6521 19.8077 24.832C20.1653 24.0118 20.6895 23.2666 21.3504 22.6389C22.0113 22.0112 22.7959 21.5132 23.6594 21.1735C24.5229 20.8338 25.4484 20.6589 26.383 20.6589C27.3177 20.6589 28.2432 20.8338 29.1067 21.1735C29.9702 21.5132 30.7548 22.0112 31.4157 22.6389C32.0765 23.2666 32.6008 24.0118 32.9584 24.832C33.316 25.6521 33.5001 26.5311 33.5 27.4188C33.5001 28.3065 33.316 29.1855 32.9584 30.0057C32.6008 30.8258 32.0765 31.571 31.4157 32.1988C30.7548 32.8265 29.9702 33.3244 29.1067 33.6641C28.2432 34.0039 27.3177 34.1787 26.383 34.1787C25.4484 34.1787 24.5229 34.0039 23.6594 33.6641C22.7959 33.3244 22.0113 32.8265 21.3504 32.1988C20.6895 31.571 20.1653 30.8258 19.8077 30.0057ZM29.7505 27.5106C27.9785 28.6501 25.4968 30.8821 24.7865 32.1303L24.7832 32.1297C23.5733 30.6949 21.7393 29.2297 20.5407 28.8187L23.3739 27.494L24.6211 29.815C24.6211 29.815 26.3228 27.4166 28.4583 25.4708L29.1997 24.8298C29.8402 24.3083 30.5046 23.8508 31.1631 23.5268C31.1408 23.8486 31.0856 24.1582 31.0309 24.4643C30.895 25.226 30.7629 25.9661 31.1525 26.8204C30.9611 26.8612 30.7213 26.9591 30.4468 27.1016L29.7505 27.5106Z" fill="url(#paint1_linear_2731_145463)"/>
<defs>
<linearGradient id="paint0_linear_2731_145463" x1="17" y1="0.178711" x2="17" y2="34.1787" gradientUnits="userSpaceOnUse">
<stop stop-color="#3889FF"/>
<stop offset="0.0001" stop-color="#6BEF1D"/>
<stop offset="1" stop-color="#1AC81F"/>
</linearGradient>
<linearGradient id="paint1_linear_2731_145463" x1="17" y1="0.178711" x2="17" y2="34.1787" gradientUnits="userSpaceOnUse">
<stop stop-color="#3889FF"/>
<stop offset="0.0001" stop-color="#6BEF1D"/>
<stop offset="1" stop-color="#1AC81F"/>
</linearGradient>
</defs>
</svg>
