<svg width="34" height="35" viewBox="0 0 34 35" fill="none" xmlns="http://www.w3.org/2000/svg">
<circle cx="17" cy="18" r="17" fill="url(#paint0_linear_22857_67776)"/>
<circle cx="17.0012" cy="18.0002" r="11.1067" fill="#F4F4F4"/>
<path fill-rule="evenodd" clip-rule="evenodd" d="M32.6141 24.7361C32.111 24.6294 31.5892 24.5732 31.0542 24.5732C26.9231 24.5732 23.5742 27.9222 23.5742 32.0532C23.5742 32.5882 23.6304 33.11 23.7371 33.6131C27.7097 31.8968 30.8978 28.7087 32.6141 24.7361Z" fill="#C0C0C0"/>
<path fill-rule="evenodd" clip-rule="evenodd" d="M10.2637 33.6131C10.3704 33.11 10.4266 32.5882 10.4266 32.0532C10.4266 27.9222 7.07766 24.5732 2.94656 24.5732C2.41164 24.5732 1.88984 24.6294 1.38672 24.7361C3.103 28.7087 6.29108 31.8968 10.2637 33.6131Z" fill="#C0C0C0"/>
<path fill-rule="evenodd" clip-rule="evenodd" d="M10.4266 3.94655C10.4266 8.07764 7.07766 11.4265 2.94656 11.4265C2.41164 11.4265 1.88984 11.3704 1.38672 11.2637C3.103 7.29106 6.29108 4.10299 10.2637 2.38672C10.3704 2.88983 10.4266 3.41164 10.4266 3.94655Z" fill="#D2D2D2"/>
<path fill-rule="evenodd" clip-rule="evenodd" d="M23.7371 2.38672C23.6304 2.88983 23.5742 3.41164 23.5742 3.94655C23.5742 8.07764 26.9231 11.4265 31.0542 11.4265C31.5892 11.4265 32.111 11.3704 32.6141 11.2637C30.8978 7.29106 27.7097 4.10299 23.7371 2.38672Z" fill="#D2D2D2"/>
<g filter="url(#filter0_f_22857_67776)">
<path d="M21.7608 4.40023C21.879 4.92429 16.5958 4.90011 14.2076 5.43863C11.8195 5.97714 8.7324 6.96432 8.61422 6.44025C8.49605 5.91619 11.0586 3.90045 13.4467 3.36193C17.0008 2.56052 21.6426 3.87616 21.7608 4.40023Z" fill="#C0C0C0"/>
</g>
<g filter="url(#filter1_f_22857_67776)">
<path d="M19.0413 3.71953C19.195 4.4012 16.6688 5.22115 14.2806 5.75967C11.8924 6.29818 10.1279 5.98796 9.97421 5.30629C9.8205 4.62462 10.9865 3.57807 13.3746 3.03956C15.7628 2.50104 18.8876 3.03786 19.0413 3.71953Z" fill="white"/>
</g>
<g filter="url(#filter2_f_22857_67776)">
<path d="M11.8819 5.08054C12.166 5.25206 9.44792 7.27372 8.45358 8.41504C7.45924 9.55635 6.29802 11.1522 6.01397 10.9807C5.72993 10.8091 6.18369 8.98923 7.17803 7.84791C8.65781 6.1494 11.5979 4.90903 11.8819 5.08054Z" fill="#C0C0C0"/>
</g>
<g filter="url(#filter3_f_22857_67776)">
<path d="M10.1954 5.84504C10.5648 6.06813 8.92702 7.33863 7.93268 8.47995C6.93833 9.62126 6.59441 10.2118 6.22495 9.98873C5.85548 9.76564 6.25803 8.94105 7.25237 7.79973C8.24671 6.65842 9.8259 5.62195 10.1954 5.84504Z" fill="white"/>
</g>
<mask id="mask0_22857_67776" style="mask-type:alpha" maskUnits="userSpaceOnUse" x="0" y="1" width="34" height="34">
<circle cx="17" cy="18" r="17" fill="url(#paint1_linear_22857_67776)"/>
</mask>
<g mask="url(#mask0_22857_67776)">
<g filter="url(#filter4_f_22857_67776)">
<circle cx="17" cy="18" r="15.5" stroke="white" stroke-width="3"/>
</g>
</g>
<path d="M16.345 19.145C16.03 16.79 19.225 16.265 19.225 14.81C19.225 13.895 18.505 13.385 17.32 13.385C16.405 13.385 15.655 13.805 14.92 14.57L13.69 13.445C14.65 12.335 15.97 11.6 17.575 11.6C19.75 11.6 21.34 12.62 21.34 14.615C21.34 16.805 18.055 17.075 18.295 19.145H16.345ZM17.335 23.15C16.555 23.15 16 22.595 16 21.815C16 21.035 16.57 20.495 17.335 20.495C18.085 20.495 18.655 21.035 18.655 21.815C18.655 22.595 18.085 23.15 17.335 23.15Z" fill="black"/>
<defs>
<filter id="filter0_f_22857_67776" x="6.34271" y="0.842708" width="17.6857" height="8.01283" filterUnits="userSpaceOnUse" color-interpolation-filters="sRGB">
<feFlood flood-opacity="0" result="BackgroundImageFix"/>
<feBlend mode="normal" in="SourceGraphic" in2="BackgroundImageFix" result="shape"/>
<feGaussianBlur stdDeviation="1.13333" result="effect1_foregroundBlur_22857_67776"/>
</filter>
<filter id="filter1_f_22857_67776" x="8.1476" y="1.006" width="12.7126" height="6.84053" filterUnits="userSpaceOnUse" color-interpolation-filters="sRGB">
<feFlood flood-opacity="0" result="BackgroundImageFix"/>
<feBlend mode="normal" in="SourceGraphic" in2="BackgroundImageFix" result="shape"/>
<feGaussianBlur stdDeviation="0.906667" result="effect1_foregroundBlur_22857_67776"/>
</filter>
<filter id="filter2_f_22857_67776" x="4.11635" y="3.25112" width="9.59932" height="9.55538" filterUnits="userSpaceOnUse" color-interpolation-filters="sRGB">
<feFlood flood-opacity="0" result="BackgroundImageFix"/>
<feBlend mode="normal" in="SourceGraphic" in2="BackgroundImageFix" result="shape"/>
<feGaussianBlur stdDeviation="0.906667" result="effect1_foregroundBlur_22857_67776"/>
</filter>
<filter id="filter3_f_22857_67776" x="4.72984" y="4.45445" width="6.88016" height="6.9407" filterUnits="userSpaceOnUse" color-interpolation-filters="sRGB">
<feFlood flood-opacity="0" result="BackgroundImageFix"/>
<feBlend mode="normal" in="SourceGraphic" in2="BackgroundImageFix" result="shape"/>
<feGaussianBlur stdDeviation="0.68" result="effect1_foregroundBlur_22857_67776"/>
</filter>
<filter id="filter4_f_22857_67776" x="-8" y="-7" width="50" height="50" filterUnits="userSpaceOnUse" color-interpolation-filters="sRGB">
<feFlood flood-opacity="0" result="BackgroundImageFix"/>
<feBlend mode="normal" in="SourceGraphic" in2="BackgroundImageFix" result="shape"/>
<feGaussianBlur stdDeviation="4" result="effect1_foregroundBlur_22857_67776"/>
</filter>
<linearGradient id="paint0_linear_22857_67776" x1="17" y1="1" x2="17" y2="35" gradientUnits="userSpaceOnUse">
<stop stop-color="#CDCDCD"/>
<stop offset="1" stop-color="#9D9D9D"/>
</linearGradient>
<linearGradient id="paint1_linear_22857_67776" x1="17" y1="1" x2="17" y2="35" gradientUnits="userSpaceOnUse">
<stop offset="0.652073" stop-color="white" stop-opacity="0"/>
<stop offset="1" stop-color="white"/>
</linearGradient>
</defs>
</svg>
