<svg width="34" height="35" viewBox="0 0 34 35" fill="none" xmlns="http://www.w3.org/2000/svg">
<path d="M25.332 34.0898H9.06326C6.71111 34.0256 4.48355 33.032 2.86384 31.328C0.919444 29.3709 -0.111275 27.0775 0.00954153 23.3862C0.296482 16.1283 6.03906 11.4169 9.07459 9.49757C8.33459 8.64747 7.3756 7.87294 7.06979 6.1652C6.83948 4.97884 7.14907 3.75093 7.91928 2.81772C9.10102 1.34044 11.0114 0.9664 13.0162 2.05452C14.0092 0.81905 15.5081 0.0974148 17.0938 0.0898584C18.7022 0.0860802 20.2275 0.811494 21.2394 2.06208C22.0416 1.52719 23.0141 1.3102 23.9674 1.45337C24.9207 1.59654 25.7867 2.08962 26.3967 2.83661C26.774 3.29566 27.0457 3.83218 27.1925 4.40808C27.3393 4.98399 27.3576 5.58517 27.2462 6.16898C27.0499 7.48757 26.2344 8.22431 25.113 9.50134C28.1637 11.466 33.6835 16.2416 33.9818 23.3824C34.1366 27.0548 33.3097 29.3747 31.3389 31.3318C29.7909 33.0206 27.6238 34.0181 25.332 34.0898Z" fill="url(#paint0_linear_22857_67727)"/>
<path d="M15.7031 15.0039C15.5703 14.7383 15.4375 14.4727 15.3047 14.207C15.0833 13.8086 15.194 13.4544 15.6367 13.1445C16.1237 12.8789 16.5664 12.9453 16.9648 13.3438C17.4076 13.9193 17.7396 14.4727 17.9609 15.0039H23.2734C23.849 15.0482 24.1589 15.3802 24.2031 16C24.1589 16.6198 23.849 16.9297 23.2734 16.9297H16.6328C16.5443 17.151 16.4557 17.306 16.3672 17.3945C15.6589 18.1471 14.5521 19.1432 13.0469 20.3828C12.8698 20.5156 12.7812 20.6263 12.7812 20.7148C12.8255 20.7591 12.9583 20.7812 13.1797 20.7812H16.6328C16.6771 20.6484 17.7174 19.8294 19.7539 18.3242C20.2409 17.9701 20.7057 17.9922 21.1484 18.3906C21.5469 18.8333 21.569 19.276 21.2148 19.7188C20.8607 20.0729 19.9753 20.8034 18.5586 21.9102C16.5664 23.4596 14.8841 24.832 13.5117 26.0273C13.3789 26.1159 13.3125 26.1823 13.3125 26.2266C13.3125 26.2708 13.401 26.293 13.5781 26.293C14.1536 26.293 15.2604 26.2487 16.8984 26.1602C18.2708 26.0716 19.3776 25.9831 20.2188 25.8945C20.0859 25.6732 19.8867 25.2969 19.6211 24.7656C19.3555 24.2344 19.1784 23.8359 19.0898 23.5703C18.8242 23.0391 18.9792 22.6185 19.5547 22.3086C20.0417 22.1315 20.4844 22.3086 20.8828 22.8398C21.5911 24.168 22.2773 25.5846 22.9414 27.0898C23.0742 27.3112 23.1849 27.4883 23.2734 27.6211C23.4062 28.1081 23.1849 28.4844 22.6094 28.75C22.0339 28.9271 21.6354 28.7943 21.4141 28.3516C21.3255 28.3073 21.1484 27.9974 20.8828 27.4219C17.3854 27.776 14.043 27.9753 10.8555 28.0195C10.2357 27.9753 9.83724 27.7539 9.66016 27.3555C9.52734 27.0456 9.66016 26.6914 10.0586 26.293C10.8555 25.5846 11.9622 24.6549 13.3789 23.5039C13.9102 23.0612 14.2865 22.7513 14.5078 22.5742H11.3867C10.5898 22.5742 10.0807 22.3971 9.85938 22.043C9.59375 21.6003 9.70443 21.1133 10.1914 20.582C10.7669 19.9622 11.9622 18.8555 13.7773 17.2617C13.9544 17.1289 14.0872 17.0182 14.1758 16.9297H9.32812C8.79688 16.9297 8.50911 16.6198 8.46484 16C8.50911 15.3802 8.79688 15.0482 9.32812 15.0039H15.7031Z" fill="white"/>
<defs>
<linearGradient id="paint0_linear_22857_67727" x1="17" y1="0.0898437" x2="17" y2="34.0898" gradientUnits="userSpaceOnUse">
<stop stop-color="#07C160"/>
<stop offset="0.0001" stop-color="#BA4BEF"/>
<stop offset="1" stop-color="#A717EB"/>
</linearGradient>
</defs>
</svg>
