<svg xmlns="http://www.w3.org/2000/svg" width="35" height="35" viewBox="0 0 35 35" fill="none">
  <path d="M29.1047 20.9614C30.3959 18.8513 31.0404 16.386 31.0404 13.9249C31.0404 12.0488 30.6873 10.2302 29.9258 8.53273C29.2056 6.91182 28.2151 5.42508 26.9968 4.13602C25.7603 2.85314 24.2602 1.85381 22.6 1.207C20.9332 0.483709 19.1376 0.1039 17.3206 0.0902712C15.4448 0.0752886 13.5868 0.454287 11.8667 1.20274C10.2267 1.90469 8.75688 2.90442 7.46998 4.13176C6.22338 5.36599 5.24568 6.84485 4.5984 8.4753C3.87357 10.181 3.5 12.0153 3.5 13.8686C3.5 15.7219 3.87357 17.5561 4.5984 19.2618C5.30247 20.9018 6.30008 22.3716 7.52741 23.6585C8.76365 24.9422 10.2637 25.9423 11.9241 26.5897C12.2772 26.7641 12.6261 26.8832 13.0366 27.0577L11.2179 32.4498H8.11449C7.76352 32.335 7.35086 32.5668 7.236 32.9178C7.236 32.9774 7.17857 33.0944 7.236 33.1518C7.236 33.6793 7.5891 34.0898 8.11662 34.0898H26.4097C26.8776 34.0898 27.2882 33.6793 27.3456 33.2092L27.1733 32.6243C27.0563 32.5073 26.8776 32.3882 26.7053 32.3882H23.536L21.6599 26.9343C22.6097 26.5961 23.5315 26.1835 24.4166 25.7006C26.3459 24.6306 27.9327 22.8949 29.1068 20.9614H29.1047ZM17.1419 4.13602C17.7843 4.13602 18.3161 4.66354 18.3161 5.30592C18.3032 5.6084 18.174 5.89422 17.9554 6.10369C17.7368 6.31317 17.4457 6.43012 17.143 6.43012C16.8402 6.43012 16.5492 6.31317 16.3306 6.10369C16.112 5.89422 15.9828 5.6084 15.9699 5.30592C15.9699 4.66354 16.4995 4.13602 17.1419 4.13602ZM12.9196 32.6285L14.7383 27.5277C16.44 27.8213 18.1969 27.7638 19.8391 27.4107L21.5408 32.6285H12.9217H12.9196ZM17.2632 19.7893C15.9598 19.7821 14.7118 19.2613 13.79 18.3398C12.8681 17.4184 12.3467 16.1706 12.3389 14.8672C12.3462 13.5635 12.8673 12.3152 13.7892 11.3933C14.7111 10.4714 15.9594 9.95026 17.2632 9.943C18.5665 9.95082 19.8143 10.4722 20.7357 11.394C21.6572 12.3159 22.178 13.5639 22.1853 14.8672C22.1853 17.6197 19.9561 19.8489 17.2632 19.7893Z" fill="url(#paint0_linear_22857_67730)"/>
  <defs>
    <linearGradient id="paint0_linear_22857_67730" x1="17.2702" y1="0.0898437" x2="17.2702" y2="34.0898" gradientUnits="userSpaceOnUse">
      <stop stop-color="#FFC122"/>
      <stop offset="1" stop-color="#F16618"/>
    </linearGradient>
  </defs>
</svg>