<svg width="36" height="36" viewBox="0 0 36 36" fill="none" xmlns="http://www.w3.org/2000/svg">
<path fill-rule="evenodd" clip-rule="evenodd" d="M11.3067 3.79899L23.8413 0.582684C24.8479 0.324416 25.8741 0.931553 26.1334 1.93876L32.2647 25.751C32.5241 26.7582 31.9184 27.784 30.9118 28.0423L18.3772 31.2586C17.3707 31.5169 16.3445 30.9097 16.0852 29.9025L9.95383 6.09033C9.69449 5.08313 10.3002 4.05725 11.3067 3.79899ZM24.9912 5.18439L29.4172 22.3736C29.5555 22.9108 29.2324 23.4579 28.6956 23.5956L18.1704 26.2964C17.6335 26.4341 17.0862 26.1103 16.9479 25.5731L12.5219 8.3839C12.3836 7.84672 12.7066 7.29959 13.2435 7.16185L23.7687 4.46114C24.3055 4.3234 24.8528 4.64721 24.9912 5.18439ZM15.967 5.02427L20.3572 3.89645C20.5744 3.84065 20.7052 3.6192 20.6493 3.40183C20.5934 3.18445 20.372 3.05347 20.1548 3.10926L15.7646 4.23709C15.5474 4.29289 15.4166 4.51434 15.4725 4.73171C15.5284 4.94909 15.7498 5.08007 15.967 5.02427ZM25.496 26.9603C25.7029 27.7638 25.22 28.5821 24.4175 28.7881C23.6149 28.994 22.7966 28.5096 22.5897 27.7061C22.3828 26.9025 22.8657 26.0842 23.6683 25.8783C24.4708 25.6723 25.2891 26.1568 25.496 26.9603Z" fill="url(#paint0_linear_22857_67723)"/>
<path d="M11.9924 13.5509L11.9923 13.5508L11.9922 13.5508L11.9921 13.5507L11.4406 13.1695L11.6085 13.8187L15.4136 28.5326L15.3632 28.6191C15.2976 28.7315 15.2025 28.8938 15.0848 29.0931C14.8493 29.4916 14.5233 30.0379 14.1614 30.6288C13.4343 31.8158 12.5721 33.1661 12.0052 33.8695C11.4481 34.5609 11.0023 34.784 10.65 34.8181C10.2917 34.8528 9.96215 34.7006 9.61178 34.4805C9.44856 34.3779 9.00939 34.0352 8.41294 33.55C7.82338 33.0705 7.09557 32.4645 6.36521 31.848C4.89982 30.6111 3.43903 29.3439 3.05733 28.9651C2.6907 28.6013 2.49643 28.2425 2.44732 27.9354C2.39998 27.6394 2.48346 27.3757 2.71185 27.1608C3.29073 26.6161 5.79892 24.3118 7.52597 22.9136C8.43184 22.1801 8.87476 21.401 8.98774 20.5894C9.09951 19.7866 8.8829 18.9887 8.54419 18.2242C8.21911 17.4905 7.95839 16.7416 7.78651 16.0747C7.61328 15.4026 7.5353 14.8328 7.56177 14.4502C7.58861 14.0621 7.79939 13.1283 8.18486 12.1139C8.57053 11.0989 9.11432 10.0487 9.78323 9.40094C10.4624 8.74322 11.0883 8.4508 11.7186 8.41087C12.3559 8.37051 13.0382 8.58536 13.8339 9.025C14.6412 9.47099 15.9069 10.2557 16.9754 10.9321C17.5087 11.2697 17.9911 11.5792 18.3403 11.8043C18.5148 11.9169 18.6561 12.0083 18.7536 12.0716L18.8023 12.1032C18.8048 12.1582 18.8058 12.2318 18.8014 12.3189C18.7909 12.5243 18.7505 12.7995 18.6328 13.0839C18.4045 13.6353 17.8687 14.2656 16.5592 14.4563C15.2135 14.6522 14.0681 14.4237 13.2584 14.1459C12.8538 14.007 12.534 13.8561 12.3168 13.7408C12.2082 13.6832 12.1254 13.6345 12.0706 13.6009C12.0432 13.584 12.0228 13.5709 12.0096 13.5624L11.9954 13.553L11.9925 13.551L11.9924 13.5509Z" fill="url(#paint1_linear_22857_67723)" stroke="white" stroke-width="0.5" stroke-miterlimit="10"/>
<path fill-rule="evenodd" clip-rule="evenodd" d="M22.6633 7.25484L27.5406 6.003C28.6517 5.71781 29.7846 6.38796 30.0711 7.49981C30.3575 8.61166 29.689 9.74419 28.5779 10.0294L23.7006 11.2812C22.5895 11.5664 21.4565 10.8963 21.1701 9.78441C20.8837 8.67256 21.5522 7.54003 22.6633 7.25484ZM22.5372 12.7097L28.849 11.0894C29.9603 10.8042 31.0933 11.4744 31.3798 12.5864C31.6662 13.6985 30.9976 14.8312 29.8863 15.1165L23.5745 16.7367C22.4632 17.022 21.3302 16.3517 21.0437 15.2397C20.7572 14.1277 21.4259 12.9949 22.5372 12.7097ZM30.1589 16.1779L25.0449 17.4905C23.9338 17.7757 23.2652 18.9082 23.5516 20.0201C23.8381 21.132 24.971 21.8022 26.0822 21.517L31.1962 20.2043C32.3073 19.9191 32.9759 18.7866 32.6895 17.6747C32.403 16.5628 31.27 15.8926 30.1589 16.1779ZM26.9842 22.3242L31.1066 21.2662C32.2176 20.981 33.3505 21.6511 33.6369 22.7629C33.9234 23.8746 33.2549 25.007 32.1439 25.2922L28.0215 26.3502C26.9104 26.6354 25.7776 25.9653 25.4911 24.8535C25.2047 23.7418 25.8732 22.6093 26.9842 22.3242Z" fill="url(#paint2_linear_22857_67723)"/>
<path d="M27.5406 6.003L27.6031 6.24516L27.5406 6.003ZM22.6633 7.25484L22.6007 7.01268L22.6007 7.01268L22.6633 7.25484ZM30.0711 7.49981L29.829 7.56176L30.0711 7.49981ZM28.5779 10.0294L28.5153 9.78722L28.5779 10.0294ZM23.7006 11.2812L23.7632 11.5234L23.7006 11.2812ZM21.1701 9.78441L20.928 9.84636L20.928 9.84636L21.1701 9.78441ZM28.849 11.0894L28.9116 11.3316L28.849 11.0894ZM22.5372 12.7097L22.4746 12.4675L22.5372 12.7097ZM31.3798 12.5864L31.6219 12.5245L31.6219 12.5245L31.3798 12.5864ZM29.8863 15.1165L29.9489 15.3586L29.8863 15.1165ZM23.5745 16.7367L23.5119 16.4945L23.5745 16.7367ZM21.0437 15.2397L20.8016 15.3016L20.8016 15.3016L21.0437 15.2397ZM25.0449 17.4905L24.9823 17.2483L25.0449 17.4905ZM30.1589 16.1779L30.2215 16.42L30.1589 16.1779ZM23.5516 20.0201L23.3095 20.0821L23.5516 20.0201ZM26.0822 21.517L26.0196 21.2748L26.0822 21.517ZM31.1962 20.2043L31.1336 19.9622L31.1962 20.2043ZM31.1066 21.2662L31.1692 21.5083L31.1066 21.2662ZM26.9842 22.3242L27.0468 22.5664L26.9842 22.3242ZM33.6369 22.7629L33.879 22.7009L33.6369 22.7629ZM32.1439 25.2922L32.0813 25.05L32.1439 25.2922ZM28.0215 26.3502L28.084 26.5924L28.0215 26.3502ZM25.4911 24.8535L25.2491 24.9155L25.4911 24.8535ZM27.478 5.76085L22.6007 7.01268L22.7259 7.497L27.6031 6.24516L27.478 5.76085ZM30.3132 7.43786C29.9922 6.19217 28.7229 5.44133 27.478 5.76085L27.6031 6.24516C28.5805 5.9943 29.577 6.58374 29.829 7.56176L30.3132 7.43786ZM28.6404 10.2715C29.8852 9.95205 30.634 8.68341 30.3132 7.43786L29.829 7.56176C30.081 8.53992 29.4928 9.53632 28.5153 9.78722L28.6404 10.2715ZM23.7632 11.5234L28.6404 10.2715L28.5153 9.78722L23.638 11.0391L23.7632 11.5234ZM20.928 9.84636C21.2489 11.092 22.5183 11.8429 23.7632 11.5234L23.638 11.0391C22.6607 11.2899 21.6642 10.7005 21.4122 9.72246L20.928 9.84636ZM22.6007 7.01268C21.356 7.33217 20.6071 8.60081 20.928 9.84636L21.4122 9.72246C21.1602 8.7443 21.7484 7.7479 22.7259 7.497L22.6007 7.01268ZM28.7864 10.8473L22.4746 12.4675L22.5998 12.9518L28.9116 11.3316L28.7864 10.8473ZM31.6219 12.5245C31.301 11.2786 30.0314 10.5277 28.7864 10.8473L28.9116 11.3316C29.8891 11.0807 30.8857 11.6702 31.1377 12.6484L31.6219 12.5245ZM29.9489 15.3586C31.1938 15.0391 31.9428 13.7702 31.6219 12.5245L31.1377 12.6484C31.3897 13.6267 30.8014 14.6233 29.8237 14.8743L29.9489 15.3586ZM23.6371 16.9788L29.9489 15.3586L29.8237 14.8743L23.5119 16.4945L23.6371 16.9788ZM20.8016 15.3016C21.1225 16.5475 22.3921 17.2984 23.6371 16.9788L23.5119 16.4945C22.5344 16.7455 21.5378 16.1559 21.2858 15.1778L20.8016 15.3016ZM22.4746 12.4675C21.2297 12.7871 20.4807 14.0559 20.8016 15.3016L21.2858 15.1778C21.0338 14.1994 21.6221 13.2028 22.5998 12.9518L22.4746 12.4675ZM25.1075 17.7326L30.2215 16.42L30.0963 15.9357L24.9823 17.2483L25.1075 17.7326ZM23.7937 19.9582C23.5417 18.98 24.1299 17.9835 25.1075 17.7326L24.9823 17.2483C23.7376 17.5678 22.9887 18.8365 23.3095 20.0821L23.7937 19.9582ZM26.0196 21.2748C25.0422 21.5257 24.0457 20.9362 23.7937 19.9582L23.3095 20.0821C23.6305 21.3278 24.8999 22.0787 26.1448 21.7591L26.0196 21.2748ZM31.1336 19.9622L26.0196 21.2748L26.1448 21.7591L31.2588 20.4465L31.1336 19.9622ZM32.4474 17.7366C32.6994 18.7148 32.1112 19.7113 31.1336 19.9622L31.2588 20.4465C32.5035 20.127 33.2524 18.8583 32.9315 17.6127L32.4474 17.7366ZM30.2215 16.42C31.1989 16.1691 32.1954 16.7586 32.4474 17.7366L32.9315 17.6127C32.6106 16.367 31.3412 15.6162 30.0963 15.9357L30.2215 16.42ZM31.0441 21.024L26.9216 22.082L27.0468 22.5664L31.1692 21.5083L31.0441 21.024ZM33.879 22.7009C33.5581 21.4553 32.2888 20.7045 31.0441 21.024L31.1692 21.5083C32.1465 21.2575 33.1429 21.8469 33.3949 22.8248L33.879 22.7009ZM32.2064 25.5343C33.4511 25.2149 34.1999 23.9464 33.879 22.7009L33.3949 22.8248C33.6468 23.8029 33.0587 24.7992 32.0813 25.05L32.2064 25.5343ZM28.084 26.5924L32.2064 25.5343L32.0813 25.05L27.9589 26.108L28.084 26.5924ZM25.2491 24.9155C25.57 26.161 26.8393 26.9118 28.084 26.5924L27.9589 26.108C26.9816 26.3589 25.9852 25.7695 25.7332 24.7916L25.2491 24.9155ZM26.9216 22.082C25.677 22.4015 24.9282 23.67 25.2491 24.9155L25.7332 24.7916C25.4812 23.8135 26.0694 22.8172 27.0468 22.5664L26.9216 22.082Z" fill="white"/>
<defs>
<linearGradient id="paint0_linear_22857_67723" x1="17.5721" y1="2.19048" x2="24.6164" y2="29.6585" gradientUnits="userSpaceOnUse">
<stop stop-color="#FFC122"/>
<stop offset="1" stop-color="#F16618"/>
</linearGradient>
<linearGradient id="paint1_linear_22857_67723" x1="10.5292" y1="8.16378" x2="10.6848" y2="35.0722" gradientUnits="userSpaceOnUse">
<stop stop-color="#FFC122"/>
<stop offset="1" stop-color="#F16618"/>
</linearGradient>
<linearGradient id="paint2_linear_22857_67723" x1="27.3303" y1="5.93655" x2="27.3082" y2="26.4157" gradientUnits="userSpaceOnUse">
<stop stop-color="#FFC122"/>
<stop offset="1" stop-color="#F16618"/>
</linearGradient>
</defs>
</svg>
