<svg width="34" height="34" viewBox="0 0 34 34" fill="none" xmlns="http://www.w3.org/2000/svg">
<rect width="34" height="34" rx="12" fill="url(#paint0_linear_19983_48317)"/>
<g clip-path="url(#clip0_19983_48317)">
<path fill-rule="evenodd" clip-rule="evenodd" d="M10 5C7.79086 5 6 6.79086 6 9V25C6 27.2091 7.79086 29 10 29H16.7084C15.0475 27.5341 14 25.3894 14 23C14 18.5817 17.5817 15 22 15C24.3894 15 26.5341 16.0475 28 17.7084V9C28 6.79086 26.2091 5 24 5H10ZM22 29C25.3137 29 28 26.3137 28 23C28 19.6863 25.3137 17 22 17C18.6863 17 16 19.6863 16 23C16 26.3137 18.6863 29 22 29ZM19.9748 23.2652C20.6074 23.8977 21.6329 23.8977 22.2654 23.2652C22.8979 22.6326 22.8979 21.6071 22.2654 20.9746C21.6329 20.3421 20.6074 20.3421 19.9748 20.9746C19.3423 21.6071 19.3423 22.6326 19.9748 23.2652ZM18.9142 24.3258C20.1325 25.5441 22.1077 25.5441 23.3261 24.3258C24.5444 23.1075 24.5444 21.1322 23.3261 19.9139C22.1077 18.6956 20.1325 18.6956 18.9142 19.9139C17.6959 21.1322 17.6959 23.1075 18.9142 24.3258ZM23.7148 25.0401C24.0077 24.7472 24.4826 24.7472 24.7754 25.0401L25.1854 25.4501C25.4783 25.743 25.4783 26.2178 25.1854 26.5107C24.8925 26.8036 24.4176 26.8036 24.1248 26.5107L23.7148 26.1008C23.4219 25.8079 23.4219 25.333 23.7148 25.0401ZM10 9C9.44772 9 9 9.44772 9 10C9 10.5523 9.44772 11 10 11H18C18.5523 11 19 10.5523 19 10C19 9.44772 18.5523 9 18 9H10ZM10 13C9.44772 13 9 13.4477 9 14C9 14.5523 9.44772 15 10 15H14C14.5523 15 15 14.5523 15 14C15 13.4477 14.5523 13 14 13H10ZM9 18C9 17.4477 9.44772 17 10 17H13C13.5523 17 14 17.4477 14 18C14 18.5523 13.5523 19 13 19H10C9.44772 19 9 18.5523 9 18Z" fill="white"/>
</g>
<defs>
<linearGradient id="paint0_linear_19983_48317" x1="17" y1="0" x2="17" y2="34" gradientUnits="userSpaceOnUse">
<stop stop-color="#42BBFF"/>
<stop offset="1" stop-color="#1762F2"/>
</linearGradient>
<clipPath id="clip0_19983_48317">
<rect width="24" height="24" fill="white" transform="translate(5 5)"/>
</clipPath>
</defs>
</svg>
