<svg width="34" height="34" viewBox="0 0 34 34" fill="none" xmlns="http://www.w3.org/2000/svg">
<rect width="34" height="34" rx="12" fill="url(#paint0_linear_1611_20335)"/>
<g clip-path="url(#clip0_1611_20335)">
<path fill-rule="evenodd" clip-rule="evenodd" d="M18.5 16C21.5376 16 24 13.3137 24 10C24 9.65929 23.974 9.32521 23.924 9H27.0121C27.846 9 28.5331 9.50035 28.8403 10.1876C28.8447 10.1946 28.849 10.2016 28.8532 10.2087C28.9557 10.3822 29.0045 10.5673 28.9997 10.7638C29.0308 11.026 29.01 11.3006 28.9278 11.5747L27.1278 17.5747C26.874 18.4207 26.0954 19 25.2121 19H12.43L12.6632 20.4992H24.9486C25.7271 20.4992 26.1163 20.8317 26.1163 21.4967C26.1163 21.821 26.0393 22.1008 25.8852 22.336C25.7311 22.5711 25.427 22.6887 24.9729 22.6887H23.8052H21.5671H18.7451H15.8987H13.539H12.2253C11.9009 22.6887 11.6293 22.6157 11.4103 22.4698C11.1914 22.3238 11.0089 22.1332 10.8629 21.8981C10.717 21.6629 10.5994 21.4075 10.5102 21.1317C10.421 20.856 10.3521 20.5965 10.3034 20.3533C10.2872 20.2559 10.2426 20.0208 10.1696 19.6478C10.0966 19.2747 10.0074 18.8085 9.902 18.2489L9.54925 16.3757C9.41951 15.6864 9.28976 14.9931 9.16001 14.2957C8.85186 12.6576 8.50317 10.8331 8.11393 8.822H6.28936C6.04608 8.822 5.84336 8.76118 5.68117 8.63954C5.51899 8.5179 5.38519 8.37194 5.27977 8.20164C5.17435 8.03135 5.10136 7.84889 5.06082 7.65427C5.02027 7.45965 5 7.28125 5 7.11907C5 6.7947 5.10947 6.5271 5.32842 6.31626C5.54737 6.10542 5.84336 6 6.21638 6H6.72726H7.23813H7.84632H8.67346C8.99783 6 9.25732 6.04865 9.45194 6.14597C9.64656 6.24328 9.80064 6.36491 9.91417 6.51088C10.0277 6.65684 10.1088 6.81092 10.1574 6.9731C10.2061 7.13529 10.2466 7.27314 10.2791 7.38667C10.3115 7.51642 10.344 7.69887 10.3764 7.93404C10.4088 8.16921 10.4413 8.40843 10.4737 8.6517C10.4926 8.76534 10.5116 8.88144 10.5305 9H13.076C13.026 9.32521 13 9.65929 13 10C13 13.3137 15.4624 16 18.5 16ZM13.0524 23.3455C13.3606 23.3455 13.6525 23.4023 13.9282 23.5158C14.2039 23.6294 14.4431 23.7875 14.6459 23.9902C14.8486 24.193 15.0108 24.4322 15.1324 24.7079C15.2541 24.9836 15.3149 25.2755 15.3149 25.5837C15.3149 25.8918 15.2541 26.1838 15.1324 26.4595C15.0108 26.7352 14.8486 26.9744 14.6459 27.1771C14.4431 27.3799 14.2039 27.5421 13.9282 27.6637C13.6525 27.7853 13.3606 27.8461 13.0524 27.8461C12.7281 27.8461 12.428 27.7853 12.1523 27.6637C11.8766 27.5421 11.6374 27.3799 11.4346 27.1771C11.2319 26.9744 11.0697 26.7352 10.9481 26.4595C10.8264 26.1838 10.7656 25.8918 10.7656 25.5837C10.7656 25.2755 10.8264 24.9836 10.9481 24.7079C11.0697 24.4322 11.2319 24.193 11.4346 23.9902C11.6374 23.7875 11.8766 23.6294 12.1523 23.5158C12.428 23.4023 12.7281 23.3455 13.0524 23.3455ZM23.1727 23.3942C23.4808 23.3942 23.7768 23.451 24.0606 23.5645C24.3445 23.678 24.5877 23.8362 24.7905 24.0389C24.9932 24.2416 25.1554 24.4808 25.277 24.7565C25.3987 25.0323 25.4595 25.3242 25.4595 25.6323C25.4595 25.9405 25.3987 26.2324 25.277 26.5081C25.1554 26.7838 24.9932 27.0231 24.7905 27.2258C24.5877 27.4285 24.3445 27.5907 24.0606 27.7123C23.7768 27.834 23.4808 27.8948 23.1727 27.8948C22.8645 27.8948 22.5726 27.834 22.2969 27.7123C22.0212 27.5907 21.782 27.4285 21.5792 27.2258C21.3765 27.0231 21.2143 26.7838 21.0927 26.5081C20.971 26.2324 20.9102 25.9405 20.9102 25.6323C20.9102 25.3242 20.971 25.0323 21.0927 24.7565C21.2143 24.4808 21.3765 24.2416 21.5792 24.0389C21.782 23.8362 22.0212 23.678 22.2969 23.5645C22.5726 23.451 22.8645 23.3942 23.1727 23.3942Z" fill="white"/>
<path d="M15.6552 12.0206C15.6552 11.6196 15.7846 11.28 16.0434 11.0018C16.3086 10.7237 16.6514 10.5199 17.0719 10.3905C16.7096 10.2547 16.425 10.0509 16.218 9.77924C16.0175 9.50109 15.9172 9.19059 15.9172 8.84776C15.9172 8.24618 16.1663 7.78044 16.6643 7.45054C17.1624 7.12064 17.8222 6.95569 18.6437 6.95569C19.1806 6.95569 19.6464 7.03655 20.041 7.19826C20.442 7.35998 20.746 7.58315 20.953 7.86777C21.1665 8.15238 21.2732 8.47905 21.2732 8.84776C21.2732 9.19706 21.1633 9.50432 20.9433 9.76953C20.7299 10.0347 20.4549 10.2417 20.1186 10.3905C20.5132 10.5134 20.8463 10.7204 21.118 11.0115C21.3961 11.2961 21.5352 11.6325 21.5352 12.0206C21.5352 12.4475 21.4155 12.8195 21.1762 13.1364C20.9369 13.4534 20.5973 13.696 20.1574 13.8642C19.724 14.0323 19.2194 14.1164 18.6437 14.1164C18.0357 14.1164 17.5053 14.0323 17.0525 13.8642C16.6061 13.696 16.2601 13.4534 16.0143 13.1364C15.7749 12.8195 15.6552 12.4475 15.6552 12.0206ZM17.6152 8.95449C17.6152 9.23264 17.709 9.4461 17.8966 9.59488C18.0842 9.74366 18.3171 9.81805 18.5952 9.81805C18.8798 9.81805 19.1159 9.74366 19.3035 9.59488C19.4911 9.4461 19.5849 9.23264 19.5849 8.95449C19.5849 8.67634 19.4879 8.46611 19.2938 8.3238C19.1062 8.17502 18.8734 8.10063 18.5952 8.10063C18.3235 8.10063 18.0907 8.17826 17.8966 8.3335C17.709 8.48228 17.6152 8.68928 17.6152 8.95449ZM17.3533 11.9624C17.3533 12.2664 17.4632 12.5122 17.6832 12.6998C17.9031 12.8809 18.2071 12.9715 18.5952 12.9715C18.9898 12.9715 19.2971 12.8809 19.517 12.6998C19.7369 12.5122 19.8469 12.2664 19.8469 11.9624C19.8469 11.6584 19.7369 11.4158 19.517 11.2347C19.2971 11.0536 18.9898 10.963 18.5952 10.963C18.2071 10.963 17.9031 11.0536 17.6832 11.2347C17.4632 11.4158 17.3533 11.6584 17.3533 11.9624Z" fill="white"/>
</g>
<defs>
<linearGradient id="paint0_linear_1611_20335" x1="17" y1="0" x2="17" y2="34" gradientUnits="userSpaceOnUse">
<stop stop-color="#FF3257"/>
<stop offset="1" stop-color="#ED163C"/>
</linearGradient>
<clipPath id="clip0_1611_20335">
<rect width="24" height="24" fill="white" transform="translate(5 5)"/>
</clipPath>
</defs>
</svg>
