<svg width="34" height="34" viewBox="0 0 34 34" fill="none" xmlns="http://www.w3.org/2000/svg">
<rect width="34" height="34" rx="12" fill="url(#paint0_linear_19983_48332)"/>
<g clip-path="url(#clip0_19983_48332)">
<path fill-rule="evenodd" clip-rule="evenodd" d="M15 5H19C20.0609 5 21.0783 5.42143 21.8284 6.17157C22.5786 6.92172 23 7.93913 23 9H25C26.0609 9 27.0783 9.42143 27.8284 10.1716C28.5786 10.9217 29 11.9391 29 13V17H20.85C20.6501 16.1285 20.1604 15.3507 19.4611 14.7936C18.7618 14.2365 17.8941 13.9332 17 13.9332C16.1059 13.9332 15.2382 14.2365 14.5389 14.7936C13.8396 15.3507 13.3499 16.1285 13.15 17H5V13C5 11.9391 5.42143 10.9217 6.17157 10.1716C6.92172 9.42143 7.93913 9 9 9H11C11 7.93913 11.4214 6.92172 12.1716 6.17157C12.9217 5.42143 13.9391 5 15 5ZM12.8787 6.87868C12.3161 7.44129 12 8.20435 12 9H22C22 8.20435 21.6839 7.44129 21.1213 6.87868C20.5587 6.31607 19.7956 6 19 6H15C14.2044 6 13.4413 6.31607 12.8787 6.87868ZM29 19H20.85C20.6501 19.8715 20.1604 20.6493 19.4611 21.2064C18.7618 21.7635 17.8941 22.0668 17 22.0668C16.1059 22.0668 15.2382 21.7635 14.5389 21.2064C13.8396 20.6493 13.3499 19.8715 13.15 19H5V25C5 26.0609 5.42143 27.0783 6.17157 27.8284C6.92172 28.5786 7.93913 29 9 29H25C26.0609 29 27.0783 28.5786 27.8284 27.8284C28.5786 27.0783 29 26.0609 29 25V19ZM15.5858 19.4142C15.2107 19.0391 15 18.5304 15 18C15 17.4696 15.2107 16.9609 15.5858 16.5858C15.9609 16.2107 16.4696 16 17 16C17.5304 16 18.0391 16.2107 18.4142 16.5858C18.7893 16.9609 19 17.4696 19 18C19 18.5304 18.7893 19.0391 18.4142 19.4142C18.0391 19.7893 17.5304 20 17 20C16.4696 20 15.9609 19.7893 15.5858 19.4142Z" fill="white"/>
<path fill-rule="evenodd" clip-rule="evenodd" d="M21.4531 9H12.4531V8C12.4531 7.17157 13.1247 6.5 13.9531 6.5H19.9531C20.7816 6.5 21.4531 7.17157 21.4531 8V9ZM22.9531 9V8C22.9531 6.34315 21.61 5 19.9531 5H13.9531C12.2963 5 10.9531 6.34315 10.9531 8V9H8.95312C6.74399 9 4.95312 10.7909 4.95312 13V17H13.0791C13.5232 15.2748 15.0893 14 16.9531 14C18.817 14 20.3831 15.2748 20.8271 17H28.9531V13C28.9531 10.7909 27.1623 9 24.9531 9H22.9531ZM4.95312 19H13.0791C13.5232 20.7252 15.0893 22 16.9531 22C18.817 22 20.3831 20.7252 20.8271 19H28.9531V25C28.9531 27.2091 27.1623 29 24.9531 29H8.95313C6.74399 29 4.95312 27.2091 4.95312 25V19Z" fill="white"/>
</g>
<defs>
<linearGradient id="paint0_linear_19983_48332" x1="17" y1="0" x2="17" y2="34" gradientUnits="userSpaceOnUse">
<stop stop-color="#07C160"/>
<stop offset="1" stop-color="#03A651"/>
</linearGradient>
<clipPath id="clip0_19983_48332">
<rect width="24" height="24" fill="white" transform="translate(5 5)"/>
</clipPath>
</defs>
</svg>
