
<svg width="48" height="48" viewBox="0 0 48 48" fill="none" xmlns="http://www.w3.org/2000/svg">
<rect width="48" height="48" rx="16.9412" fill="url(#paint0_linear_20544_160208)"/>
<path d="M25.7122 8.06842L38.4065 17.1797C39.0205 17.6204 39.5208 18.201 39.8659 18.8734C40.211 19.5458 40.3911 20.2908 40.3912 21.0466V35.7394C40.3912 38.3686 38.2598 40.5 35.6306 40.5H29.1389V33.5755C29.1389 30.7075 26.8136 28.3822 23.9456 28.3822C21.0776 28.3822 18.7523 30.7075 18.7523 33.5755V40.5H12.2606C9.63144 40.5 7.5 38.3686 7.5 35.7394V21.047C7.50003 20.2911 7.68006 19.5461 8.02519 18.8736C8.37032 18.2011 8.87063 17.6205 9.48472 17.1797L22.179 8.06842C22.6939 7.6988 23.3118 7.5 23.9456 7.5C24.5794 7.5 25.1973 7.6988 25.7122 8.06842Z" fill="white"/>
<defs>
<linearGradient id="paint0_linear_20544_160208" x1="24" y1="0" x2="24" y2="48" gradientUnits="userSpaceOnUse">
<stop stop-color="#BA4BEF"/>
<stop offset="0.9999" stop-color="#A717EB"/>
</linearGradient>
</defs>
</svg>
