
<svg width="34" height="34" viewBox="0 0 34 34" fill="none" xmlns="http://www.w3.org/2000/svg">
<rect width="34" height="34" rx="12" fill="url(#paint0_linear_19983_48309)"/>
<g clip-path="url(#clip0_19983_48309)">
<path fill-rule="evenodd" clip-rule="evenodd" d="M28.9531 8C28.9531 9.65685 27.61 11 25.9531 11C24.2963 11 22.9531 9.65685 22.9531 8C22.9531 6.34315 24.2963 5 25.9531 5C27.61 5 28.9531 6.34315 28.9531 8ZM17 22V23.6667C17 24.7712 17.8954 25.6667 19 25.6667H20.5294L23.3529 28V25.6667H27C28.1046 25.6667 29 24.7712 29 23.6667V19C29 17.8954 28.1046 17 27 17H23V19C23 20.6569 21.6569 22 20 22H17ZM5 12C5 10.3431 6.34315 9 8 9H19C20.6569 9 22 10.3431 22 12V18C22 19.6569 20.6569 21 19 21H14L10 25V21H8C6.34315 21 5 19.6569 5 18V12ZM9 12C8.44772 12 8 12.4477 8 13C8 13.5523 8.44772 14 9 14H15C15.5523 14 16 13.5523 16 13C16 12.4477 15.5523 12 15 12H9ZM9 16C8.44772 16 8 16.4477 8 17C8 17.5523 8.44772 18 9 18H18C18.5523 18 19 17.5523 19 17C19 16.4477 18.5523 16 18 16H9Z" fill="white"/>
</g>
<defs>
<linearGradient id="paint0_linear_19983_48309" x1="17" y1="0" x2="17" y2="34" gradientUnits="userSpaceOnUse">
<stop stop-color="#FFC122"/>
<stop offset="1" stop-color="#F16618"/>
</linearGradient>
<clipPath id="clip0_19983_48309">
<rect width="24" height="24" fill="white" transform="translate(5 5)"/>
</clipPath>
</defs>
</svg>
