
<svg width="34" height="34" viewBox="0 0 34 34" fill="none" xmlns="http://www.w3.org/2000/svg">
<rect width="34" height="34" rx="12" fill="url(#paint0_linear_19983_48305)"/>
<path d="M25.0455 13.4186C25.9145 12.8877 27 13.5504 27 14.6095V20.2031C27 21.264 25.9118 21.9267 25.0427 21.3958L23.4209 20.4086V21.0495C23.4209 22.1131 22.5964 22.9849 21.5864 22.9849H8.83455C7.82727 22.9849 7 22.1149 7 21.0486V13.1031C7 12.0395 7.82455 11.1667 8.83455 11.1667H21.5891C22.5964 11.1667 23.4227 12.0367 23.4227 13.1031V14.4058L25.0445 13.4186H25.0455ZM14.3327 14.004C13.9036 13.6913 13.3664 14.0822 13.3636 14.7077V19.4413C13.3636 20.0695 13.9036 20.4595 14.3327 20.1477L17.5873 17.7804C18.0164 17.4677 18.0164 16.684 17.5873 16.3713L14.3327 14.004Z" fill="white"/>
<defs>
<linearGradient id="paint0_linear_19983_48305" x1="17" y1="0" x2="17" y2="34" gradientUnits="userSpaceOnUse">
<stop stop-color="#FF4AAC"/>
<stop offset="0.9999" stop-color="#F2169A"/>
<stop offset="1" stop-color="white" stop-opacity="0"/>
</linearGradient>
</defs>
</svg>
