
<svg width="34" height="34" viewBox="0 0 34 34" fill="none" xmlns="http://www.w3.org/2000/svg">
<rect width="34" height="34" rx="12" fill="url(#paint0_linear_19983_48325)"/>
<g clip-path="url(#clip0_19983_48325)">
<path fill-rule="evenodd" clip-rule="evenodd" d="M16.9982 6.5H16.9984C19.5752 6.50004 22.0619 7.44746 23.9855 9.16194C25.4007 10.4234 26.4384 12.0352 27.0056 13.8185C26.6886 13.7965 26.3708 13.7856 26.0526 13.7857C23.9846 13.7838 21.9433 14.2518 20.0826 15.1543C18.706 15.822 17.4549 16.7147 16.3793 17.7921C15.8067 17.3541 15.1828 16.9839 14.52 16.6906C13.3491 16.1725 12.0827 15.9054 10.8023 15.9067C9.57829 15.9054 8.36642 16.1492 7.23821 16.6239C6.98527 16.7303 6.73768 16.8479 6.49613 16.9761C6.49925 15.6052 6.77081 14.248 7.29556 12.9813C7.82337 11.7073 8.59697 10.5497 9.57221 9.57465C10.5474 8.59961 11.7052 7.82622 12.9794 7.29867C14.2535 6.77112 15.6191 6.49973 16.9982 6.5ZM24.9836 8.04218C26.775 9.63891 28.0371 11.727 28.6255 14.0284C28.7591 14.5511 28.858 15.0848 28.9204 15.6262C28.4095 15.5029 27.8915 15.4128 27.3699 15.3564C26.9326 15.3091 26.4928 15.2855 26.0523 15.2857C24.2112 15.2839 22.3937 15.7004 20.7372 16.5039C19.5343 17.0874 18.4391 17.8638 17.4936 18.7994C17.137 19.1521 16.8018 19.5275 16.4901 19.9237C16.173 19.5739 15.8251 19.2551 15.4513 18.9707C15.8249 19.255 16.1725 19.5736 16.4895 19.9233C14.7933 22.0685 13.8724 24.7243 13.8767 27.4591C13.8767 27.8445 13.8956 28.2264 13.9311 28.6023C11.8227 28.0435 9.90612 26.9213 8.38695 25.3561C6.86779 23.7909 5.8033 21.8417 5.30762 19.7176C5.61362 19.404 5.94516 19.1181 6.29831 18.8624C5.94449 19.1185 5.61234 19.405 5.30585 19.7192C5.17051 19.1343 5.07923 18.5405 5.03258 17.9428C5.00811 17.6294 4.99593 17.3149 4.9961 17C4.9961 15.4239 5.30657 13.8633 5.90977 12.4073C6.51298 10.9512 7.3971 9.62822 8.51165 8.51388C9.62621 7.39955 10.9494 6.51568 12.4055 5.91277C13.8617 5.30985 15.4224 4.99969 16.9985 5C19.9433 5.00005 22.7852 6.08279 24.9836 8.04218ZM28.9201 15.6266C27.9809 15.3999 27.0181 15.2856 26.0519 15.2861C24.2109 15.2843 22.3934 15.7009 20.7369 16.5043C19.0804 17.3078 17.6281 18.4772 16.4898 19.9242C14.7936 22.0693 13.8727 24.7252 13.877 27.4599C13.877 27.8453 13.8959 28.2272 13.9314 28.6032C14.9322 28.8675 15.963 29.001 16.9982 29.0004C17.1424 29.0004 17.2854 29.0004 17.4285 28.9921C20.5341 28.8801 23.4751 27.5676 25.6325 25.331C27.79 23.0944 28.9957 20.108 28.9958 17.0004C28.9963 16.5414 28.9711 16.0828 28.9201 15.6266ZM16.877 12.0205C16.877 13.1251 15.9815 14.0205 14.877 14.0205C13.7724 14.0205 12.877 13.1251 12.877 12.0205C12.877 10.9159 13.7724 10.0205 14.877 10.0205C15.9815 10.0205 16.877 10.9159 16.877 12.0205Z" fill="white"/>
</g>
<defs>
<linearGradient id="paint0_linear_19983_48325" x1="17" y1="0" x2="17" y2="34" gradientUnits="userSpaceOnUse">
<stop offset="0.0001" stop-color="#42DC1B"/>
<stop offset="0.9999" stop-color="#1EC825"/>
</linearGradient>
<clipPath id="clip0_19983_48325">
<rect width="24" height="24" fill="white" transform="translate(5 5)"/>
</clipPath>
</defs>
</svg>
