<svg width="48" height="48" viewBox="0 0 48 48" fill="none" xmlns="http://www.w3.org/2000/svg">
<rect width="48" height="48" rx="16.9412" fill="url(#paint0_linear_19983_48154)"/>
<g clip-path="url(#clip0_19983_48154)">
<path fill-rule="evenodd" clip-rule="evenodd" d="M39.1893 26.1836L40.2604 26.3497C40.9198 26.4522 41.1758 27.2685 40.6892 27.7296L37.9806 30.2954C37.597 30.6596 36.9781 30.56 36.7215 30.1007L34.917 26.8393C34.5922 26.2532 35.08 25.5501 35.7434 25.6533L36.9108 25.832C37.6701 20.7184 35.38 15.5786 30.948 12.7913C26.2194 9.82102 20.1219 10.1629 15.7679 13.6447C15.2677 14.042 14.5397 13.9562 14.1457 13.4607C13.7478 12.9646 13.8295 12.2358 14.3297 11.8386C19.4547 7.74804 26.6297 7.34755 32.1795 10.8344C37.3964 14.1114 40.0894 20.1669 39.1893 26.1836ZM32.2284 34.211C32.7246 33.813 33.4533 33.8948 33.8506 34.395C34.2525 34.8919 34.1667 35.6199 33.6706 36.0178C30.1511 38.8323 25.6551 39.9005 21.3837 39.1607C19.4476 38.8235 17.556 38.1123 15.8248 37.0227C10.6079 33.7457 7.91488 27.6902 8.81499 21.6735L7.74384 21.5074C7.08044 21.4042 6.82444 20.5879 7.31113 20.1268L10.0197 17.561C10.4033 17.1968 11.0222 17.2964 11.2788 17.7557L13.0833 21.0171C13.4081 21.6032 12.9203 22.3064 12.2569 22.2031L11.0894 22.0244C10.3302 27.138 12.6196 32.2818 17.0523 35.0651C21.7729 38.034 27.8744 37.6928 32.2284 34.211Z" fill="white"/>
<path fill-rule="evenodd" clip-rule="evenodd" d="M21.1465 16.2354C21.1465 16.2354 20.14 19.5354 18.3497 21.074C18.3497 21.074 20.0864 22.0847 20.0699 22.0558C20.5649 21.5567 21.0145 21.0452 21.394 20.5502C21.7529 20.3911 22.0985 20.2453 22.4338 20.1038L22.549 20.0551C22.0829 20.8925 21.3486 22.1424 20.602 22.9344L21.6498 23.8584C21.6498 23.8584 22.3675 23.1654 23.1472 22.3322H24.034V23.8708H20.5649V25.1042H24.034V28.0536L23.902 28.0495C23.5184 28.0289 22.9244 27.967 22.6893 27.5957C22.4853 27.2658 22.5409 26.7395 22.5896 26.2786C22.6079 26.1057 22.6252 25.942 22.6274 25.8013H20.2307L20.1441 25.8508C20.1441 25.8508 19.2655 29.8109 22.6728 29.7243C25.8614 29.8109 27.693 28.825 28.5716 28.1485L28.9222 29.4603L30.8899 28.6311L29.5575 25.3517L27.9611 25.8508L28.254 26.9729C27.8497 27.2822 27.3795 27.5132 26.8721 27.6824V25.1042H30.2505V23.8708H26.8721V22.3322H30.267V21.1029H24.232C24.6652 20.5708 25.0076 20.0758 25.0983 19.7705L24.0423 19.4818C28.5592 17.8482 31.0755 18.1288 31.0549 20.8059V27.835C31.0549 27.835 31.3189 30.2482 28.5716 30.079L27.0825 29.7573L26.736 31.1804C26.736 31.1804 33.1504 33.0326 33.6784 28.0619C34.2023 23.0912 33.5505 19.919 33.5505 19.919C33.5505 19.919 32.9607 15.3361 22.9987 18.1741C23.4277 17.4275 23.6298 16.9449 23.6298 16.9449L21.1465 16.2354ZM14.1172 29.4562L16.8108 31.1474C17.4975 29.648 17.9151 28.774 18.1917 28.1951C18.6661 27.2021 18.7259 27.0771 19.0177 26.152C19.5004 24.6629 19.6035 23.5202 18.7867 22.6911C17.739 21.631 17.6235 21.532 16.0683 20.3687L14.9463 22.1053L17.0171 23.3965C17.0171 23.3965 18.3949 24.106 17.7349 25.4384C17.1244 26.7006 14.1172 29.4562 14.1172 29.4562ZM15.7716 18.1201C15.7716 17.2333 16.5595 16.5155 17.5454 16.5155C18.523 16.5155 19.3191 17.2333 19.3191 18.1201C19.3191 19.0029 18.523 19.7165 17.5454 19.7165C16.5595 19.7165 15.7716 19.0029 15.7716 18.1201Z" fill="white"/>
</g>
<defs>
<linearGradient id="paint0_linear_19983_48154" x1="24" y1="0" x2="24" y2="48" gradientUnits="userSpaceOnUse">
<stop stop-color="#07C160"/>
<stop offset="1" stop-color="#03A651"/>
</linearGradient>
<clipPath id="clip0_19983_48154">
<rect width="33.8824" height="33.8824" fill="white" transform="translate(7.05859 7.05884)"/>
</clipPath>
</defs>
</svg>
