
<svg width="34" height="34" viewBox="0 0 34 34" fill="none" xmlns="http://www.w3.org/2000/svg">
<rect width="34" height="34" rx="12" fill="url(#paint0_linear_19983_48321)"/>
<g clip-path="url(#clip0_19983_48321)">
<path fill-rule="evenodd" clip-rule="evenodd" d="M10.4985 6.19983L11.7139 9.48442L14.9985 10.6998L11.7139 11.9152L10.4985 15.1998L9.28305 11.9152L5.99846 10.6998L9.28305 9.48442L10.4985 6.19983ZM23.4985 6.19983L24.7139 9.48442L27.9985 10.6998L24.7139 11.9152L23.4985 15.1998L22.283 11.9152L18.9985 10.6998L22.283 9.48442L23.4985 6.19983ZM17.252 11.2936C16.6545 11.2936 16.0703 11.4707 15.5735 11.8027C15.0767 12.1347 14.6895 12.6065 14.4608 13.1585C14.2322 13.7105 14.1724 14.318 14.2889 14.904C14.4055 15.4901 14.6932 16.0284 15.1157 16.4509C15.5382 16.8734 16.0765 17.1611 16.6626 17.2777C17.2486 17.3943 17.8561 17.3344 18.4081 17.1058C18.9601 16.8771 19.4319 16.4899 19.7639 15.9931C20.0959 15.4963 20.2731 14.9122 20.2731 14.3147C20.2731 13.5134 19.9548 12.745 19.3882 12.1784C18.8216 11.6119 18.0532 11.2936 17.252 11.2936ZM18.1918 14.3147C18.0126 14.3147 17.8374 14.2615 17.6883 14.1619C17.5393 14.0623 17.4231 13.9208 17.3545 13.7552C17.2859 13.5895 17.268 13.4073 17.3029 13.2315C17.3379 13.0557 17.4242 12.8942 17.551 12.7675C17.6777 12.6407 17.8392 12.5544 18.015 12.5194C18.1908 12.4844 18.3731 12.5024 18.5387 12.571C18.7043 12.6396 18.8458 12.7557 18.9454 12.9048C19.045 13.0538 19.0982 13.2291 19.0982 13.4083C19.0982 13.6479 19.0033 13.8777 18.8344 14.0475C18.6655 14.2173 18.4362 14.3134 18.1966 14.3147H18.1918ZM6.22455 16.7245C7.57067 15.8163 9.33957 16.2211 10.7811 17.0139L10.7871 17.0172C10.874 17.0656 10.9614 17.1148 11.0496 17.1645L11.0499 17.1648L11.05 17.1648C11.7115 17.5378 12.4143 17.9339 13.2637 18.1258C14.4491 18.3901 15.6581 18.5337 16.8723 18.5544C18.1156 18.537 19.354 18.3933 20.5683 18.1256C21.4004 17.9365 22.0877 17.5517 22.7485 17.1818C22.8495 17.1252 22.9499 17.069 23.0501 17.0139C24.4939 16.2198 26.2602 15.8183 27.6074 16.7225C29.1306 17.7447 29.0662 19.6219 28.4757 21.1074L28.4713 21.1183L28.4713 21.1183C27.2746 24.0614 24.3746 26.1175 21.1995 27.0065L21.1793 27.0121L21.159 27.0172C19.7643 27.3661 18.3331 27.5477 16.8955 27.5583L16.8822 27.5584L16.8689 27.5583C15.4558 27.5437 14.0495 27.3609 12.6796 27.0137L12.6613 27.0091L12.6432 27.004C9.46993 26.1143 6.56802 24.0747 5.38206 21.114C4.78237 19.6345 4.70032 17.7529 6.22455 16.7245ZM7.9762 19.2088C7.97359 19.3406 8.00318 19.5951 8.1631 19.9889L8.16608 19.9962L8.16606 19.9962C8.89745 21.8247 10.8544 23.3821 13.435 24.1103C14.5639 24.3948 15.7225 24.5452 16.8866 24.5583C18.0747 24.5485 19.2575 24.3987 20.4106 24.112C22.9775 23.388 24.9447 21.8199 25.69 19.9939C25.8484 19.5936 25.8731 19.3381 25.8677 19.2096C25.824 19.2063 25.7625 19.206 25.6797 19.2148C25.4171 19.2425 25.0167 19.3561 24.4958 19.6426C24.4245 19.6818 24.344 19.7274 24.255 19.7778C23.6119 20.1421 22.5225 20.7591 21.2269 21.0524L21.219 21.0542L21.219 21.0542C19.7966 21.3681 18.3458 21.5357 16.8892 21.5544L16.8677 21.5547L16.8462 21.5544C15.4204 21.5317 14.0006 21.3639 12.6089 21.0534L12.6055 21.0527C11.2906 20.7562 10.1932 20.1307 9.55147 19.7649C9.47114 19.7192 9.39796 19.6774 9.33238 19.641C8.81281 19.3556 8.4135 19.2424 8.15201 19.2148C8.07619 19.2068 8.01852 19.2063 7.9762 19.2088Z" fill="white"/>
</g>
<defs>
<linearGradient id="paint0_linear_19983_48321" x1="17" y1="0" x2="17" y2="34" gradientUnits="userSpaceOnUse">
<stop stop-color="#FF3257"/>
<stop offset="1" stop-color="#ED163C"/>
</linearGradient>
<clipPath id="clip0_19983_48321">
<rect width="24" height="24" fill="white" transform="translate(5 5)"/>
</clipPath>
</defs>
</svg>
