
<svg width="34" height="34" viewBox="0 0 34 34" fill="none" xmlns="http://www.w3.org/2000/svg">
<rect width="34" height="34" rx="12" fill="url(#paint0_linear_19983_48313)"/>
<g clip-path="url(#clip0_19983_48313)">
<path d="M28.9029 24.1237C28.9833 24.6061 28.8828 25.0402 28.6014 25.4261C28.32 25.812 27.9382 26.0451 27.4558 26.1255L24.5617 26.5837C24.0954 26.6641 23.6653 26.5636 23.2714 26.2823C22.8774 26.0009 22.6403 25.619 22.5599 25.1367L20.0999 9.5565C20.0677 9.31532 20.0798 9.0862 20.136 8.86914C20.1923 8.65208 20.2848 8.45109 20.4134 8.26619C20.542 8.08129 20.7068 7.92854 20.9078 7.80795C21.1088 7.68736 21.3299 7.60295 21.571 7.55471L24.4411 7.09647C24.9234 7.01608 25.3576 7.12059 25.7434 7.41C26.1293 7.69942 26.3625 8.08531 26.4429 8.56766L28.9029 24.1237ZM16.7716 7C17.2539 7 17.6639 7.16883 18.0016 7.50648C18.3392 7.84413 18.5081 8.25413 18.5081 8.73649V24.8473C18.5081 25.3296 18.3392 25.7396 18.0016 26.0773C17.6639 26.4149 17.2539 26.5837 16.7716 26.5837H14.2633C13.781 26.5837 13.371 26.4149 13.0333 26.0773C12.6957 25.7396 12.5268 25.3296 12.5268 24.8473V8.73649C12.5268 8.25413 12.6555 7.84413 12.9127 7.50648C13.17 7.16883 13.5478 7 14.0463 7H16.7716ZM16.7716 19.1554C16.9324 19.1554 17.069 19.0791 17.1816 18.9263C17.2941 18.7736 17.3504 18.5927 17.3504 18.3837C17.3504 18.1586 17.2941 17.9736 17.1816 17.8289C17.069 17.6842 16.9324 17.6119 16.7716 17.6119H14.2633C14.1025 17.6119 13.9659 17.6842 13.8533 17.8289C13.7408 17.9736 13.6845 18.1586 13.6845 18.3837C13.6845 18.5927 13.7408 18.7736 13.8533 18.9263C13.9659 19.0791 14.1025 19.1554 14.2633 19.1554H16.7716ZM16.7716 16.0925C16.9324 16.0925 17.069 16.0161 17.1816 15.8633C17.2941 15.7106 17.3504 15.5217 17.3504 15.2966C17.3504 15.0715 17.2941 14.8866 17.1816 14.7418C17.069 14.5971 16.9324 14.5248 16.7716 14.5248H14.2633C14.1025 14.5248 13.9659 14.5971 13.8533 14.7418C13.7408 14.8866 13.6845 15.0715 13.6845 15.2966C13.6845 15.5217 13.7408 15.7106 13.8533 15.8633C13.9659 16.0161 14.1025 16.0925 14.2633 16.0925H16.7716ZM9.19856 7C9.68092 7 10.0949 7.16883 10.4406 7.50648C10.7863 7.84413 10.9592 8.25413 10.9592 8.73649V24.8473C10.9592 25.3296 10.7863 25.7396 10.4406 26.0773C10.0949 26.4149 9.68092 26.5837 9.19856 26.5837H6.69029C6.20794 26.5837 5.79391 26.4149 5.44822 26.0773C5.10253 25.7396 4.92969 25.3296 4.92969 24.8473V8.73649C4.92969 8.25413 5.10253 7.84413 5.44822 7.50648C5.79391 7.16883 6.20794 7 6.69029 7H9.19856ZM6.78677 13.0295C6.6099 13.0295 6.46519 13.1018 6.35264 13.2465C6.24009 13.3912 6.18382 13.5762 6.18382 13.8013C6.18382 14.0103 6.24009 14.1912 6.35264 14.3439C6.46519 14.4967 6.6099 14.573 6.78677 14.573H9.10209C9.27895 14.573 9.41964 14.4967 9.52415 14.3439C9.62866 14.1912 9.68092 14.0103 9.68092 13.8013C9.68092 13.5762 9.62866 13.3912 9.52415 13.2465C9.41964 13.1018 9.27895 13.0295 9.10209 13.0295H6.78677ZM9.19856 20.6025C9.37542 20.6025 9.51611 20.5301 9.62062 20.3854C9.72513 20.2407 9.77739 20.0639 9.77739 19.8548C9.77739 19.6297 9.72513 19.4489 9.62062 19.3122C9.51611 19.1755 9.37542 19.1072 9.19856 19.1072H6.78677C6.6099 19.1072 6.46519 19.1755 6.35264 19.3122C6.24009 19.4489 6.18382 19.6297 6.18382 19.8548C6.18382 20.0639 6.24009 20.2407 6.35264 20.3854C6.46519 20.5301 6.6099 20.6025 6.78677 20.6025H9.19856ZM9.19856 17.636C9.37542 17.636 9.51611 17.5636 9.62062 17.4189C9.72513 17.2742 9.77739 17.0893 9.77739 16.8642C9.77739 16.6391 9.72513 16.4542 9.62062 16.3095C9.51611 16.1648 9.37542 16.0925 9.19856 16.0925H6.78677C6.6099 16.0925 6.46519 16.1648 6.35264 16.3095C6.24009 16.4542 6.18382 16.6391 6.18382 16.8642C6.18382 17.0893 6.24009 17.2742 6.35264 17.4189C6.46519 17.5636 6.6099 17.636 6.78677 17.636H9.19856Z" fill="white"/>
</g>
<defs>
<linearGradient id="paint0_linear_19983_48313" x1="17" y1="0" x2="17" y2="34" gradientUnits="userSpaceOnUse">
<stop stop-color="#BA4BEF"/>
<stop offset="0.9999" stop-color="#A717EB"/>
</linearGradient>
<clipPath id="clip0_19983_48313">
<rect width="24.0469" height="24" fill="white" transform="translate(4.97656 5)"/>
</clipPath>
</defs>
</svg>
