<svg width="34" height="34" viewBox="0 0 34 34" fill="none" xmlns="http://www.w3.org/2000/svg">
<rect width="34" height="34" rx="12" fill="url(#paint0_linear_19983_48329)"/>
<path fill-rule="evenodd" clip-rule="evenodd" d="M19.0332 14.9684V5.06055C20.3344 5.06039 21.6228 5.31655 22.825 5.81442C24.0271 6.31228 25.1194 7.04208 26.0395 7.96214C26.9595 8.88221 27.6894 9.9745 28.1872 11.1767C28.6851 12.3788 28.9412 13.6673 28.9411 14.9684H19.0332ZM8.55947 8.55751C10.7985 6.31844 13.8354 5.06055 17.0019 5.06055V16.9999H28.9413C28.9413 20.1665 27.6834 23.2033 25.4443 25.4424C23.2053 27.6814 20.1684 28.9393 17.0019 28.9393C13.8354 28.9393 10.7985 27.6814 8.55947 25.4424C6.3204 23.2033 5.0625 20.1665 5.0625 16.9999C5.0625 13.8334 6.3204 10.7966 8.55947 8.55751Z" fill="white"/>
<defs>
<linearGradient id="paint0_linear_19983_48329" x1="17" y1="0" x2="17" y2="34" gradientUnits="userSpaceOnUse">
<stop stop-color="#FFC122"/>
<stop offset="1" stop-color="#F16618"/>
</linearGradient>
</defs>
</svg>
