<svg xmlns="http://www.w3.org/2000/svg" width="24" height="24" viewBox="0 0 24 24" fill="none">
  <g clip-path="url(#clip0_104_19019)">
    <path fill-rule="evenodd" clip-rule="evenodd" d="M5.26661 6.23786C8.90459 5.94174 16.5613 4.76574 18.0842 2.43067C19.9878 -0.488177 23.2873 0.780885 23.7315 5.03225C24.0897 8.46072 24.0893 12.3114 23.7315 15.7362C23.2873 19.9875 19.9878 21.2566 18.0842 18.3378C16.5613 16.0027 8.90459 14.8267 5.26661 14.5306V6.23786ZM8.56616 22.716C8.30015 22.3909 7.81386 21.6941 7.27402 20.9205C6.65492 20.0333 5.9654 19.0452 5.45696 18.4012C4.88588 17.6431 4.50516 16.7514 5.45696 16.7514C6.40875 16.7514 7.93163 17.3225 9.51796 18.8454C11.1043 20.3683 12.3099 22.716 11.8023 23.0967C11.2946 23.4775 9.13724 23.414 8.56616 22.716ZM3.68028 6.28167C1.64772 6.28167 0 7.92939 0 9.96195V10.5965C0 12.629 1.64772 14.2768 3.68028 14.2768V6.28167Z" fill="#07C160"/>
  </g>
  <defs>
    <clipPath id="clip0_104_19019">
      <rect width="24" height="24" fill="white"/>
    </clipPath>
  </defs>
</svg>