<svg xmlns="http://www.w3.org/2000/svg" width="24" height="24" viewBox="0 0 24 24" fill="none">
  <g clip-path="url(#clip0_104_18965)">
    <path d="M23.98 5.19003C23.915 5.72756 23.6774 6.24495 23.27 6.65496L13.7675 16.1575C12.795 17.13 11.205 17.13 10.2325 16.1575L0.729966 6.65496C0.319957 6.24495 0.0824777 5.72495 0.0200414 5.19003C0.00747364 5.29255 0 5.39504 0 5.50004V18.5C0 19.875 1.12493 21.0001 2.50007 21.0001H21.5001C22.8749 21.0001 24 19.875 24 18.5V5.50004C24 5.39504 23.9925 5.29255 23.98 5.19003ZM13.7675 14.3375L23.73 4.37497C23.3174 3.56002 22.47 3 21.5001 3H2.50007C1.53011 3 0.682443 3.56002 0.270088 4.37497L10.2325 14.3375C11.2049 15.3101 12.795 15.3101 13.7675 14.3375Z" fill="#07C160"/>
  </g>
  <defs>
    <clipPath id="clip0_104_18965">
      <rect width="24" height="24" fill="white"/>
    </clipPath>
  </defs>
</svg>