<svg xmlns="http://www.w3.org/2000/svg" width="35" height="35" viewBox="0 0 35 35" fill="none">
  <circle cx="17.2852" cy="17.5" r="17" fill="url(#paint0_linear_20093_10892)"/>
  <circle cx="17.2864" cy="17.5" r="11.1067" fill="#F5EDF0"/>
  <path fill-rule="evenodd" clip-rule="evenodd" d="M32.8992 24.2362C32.3961 24.1295 31.8743 24.0734 31.3394 24.0734C27.2083 24.0734 23.8594 27.4223 23.8594 31.5534C23.8594 32.0883 23.9155 32.6101 24.0223 33.1132C27.9949 31.3969 31.183 28.2089 32.8992 24.2362Z" fill="#EB3979"/>
  <path fill-rule="evenodd" clip-rule="evenodd" d="M10.5489 33.1132C10.6556 32.6101 10.7117 32.0883 10.7117 31.5534C10.7117 27.4223 7.36282 24.0734 3.23171 24.0734C2.6968 24.0734 2.17499 24.1295 1.67188 24.2362C3.38815 28.2089 6.57623 31.3969 10.5489 33.1132Z" fill="#EB3979"/>
  <path fill-rule="evenodd" clip-rule="evenodd" d="M10.7117 3.44667C10.7117 7.57776 7.36282 10.9267 3.23171 10.9267C2.6968 10.9267 2.17499 10.8705 1.67188 10.7638C3.38815 6.79118 6.57623 3.60311 10.5489 1.88684C10.6556 2.38996 10.7117 2.91176 10.7117 3.44667Z" fill="#F04B86"/>
  <path fill-rule="evenodd" clip-rule="evenodd" d="M24.0223 1.88684C23.9155 2.38996 23.8594 2.91176 23.8594 3.44667C23.8594 7.57776 27.2083 10.9267 31.3394 10.9267C31.8743 10.9267 32.3961 10.8705 32.8992 10.7638C31.183 6.79118 27.9949 3.60311 24.0223 1.88684Z" fill="#F04B86"/>
  <g filter="url(#filter0_f_20093_10892)">
    <path d="M22.0459 3.89998C22.1641 4.42405 16.8809 4.39987 14.4928 4.93838C12.1046 5.4769 9.01755 6.46407 8.89938 5.94001C8.78121 5.41594 11.3437 3.4002 13.7319 2.86169C17.2859 2.06027 21.9278 3.37592 22.0459 3.89998Z" fill="#FFB0CC"/>
  </g>
  <g filter="url(#filter1_f_20093_10892)">
    <path d="M19.3265 3.22002C19.4802 3.90169 16.9539 4.72164 14.5658 5.26015C12.1776 5.79867 10.4131 5.48845 10.2594 4.80678C10.1057 4.12511 11.2716 3.07856 13.6598 2.54004C16.048 2.00153 19.1727 2.53835 19.3265 3.22002Z" fill="white"/>
  </g>
  <g filter="url(#filter2_f_20093_10892)">
    <path d="M12.1671 4.58054C12.4511 4.75206 9.73308 6.77372 8.73873 7.91504C7.74439 9.05635 6.58317 10.6522 6.29913 10.4807C6.01508 10.3091 6.46885 8.48923 7.46319 7.34791C8.94297 5.6494 11.883 4.40903 12.1671 4.58054Z" fill="#FFB0CC"/>
  </g>
  <g filter="url(#filter3_f_20093_10892)">
    <path d="M10.4805 5.34528C10.85 5.56838 9.21217 6.83888 8.21783 7.98019C7.22349 9.12151 6.87957 9.71207 6.5101 9.48898C6.14063 9.26588 6.54318 8.44129 7.53753 7.29998C8.53187 6.15866 10.1111 5.12219 10.4805 5.34528Z" fill="white"/>
  </g>
  <defs>
    <filter id="filter0_f_20093_10892" x="6.62786" y="0.342464" width="17.6857" height="8.01295" filterUnits="userSpaceOnUse" color-interpolation-filters="sRGB">
      <feFlood flood-opacity="0" result="BackgroundImageFix"/>
      <feBlend mode="normal" in="SourceGraphic" in2="BackgroundImageFix" result="shape"/>
      <feGaussianBlur stdDeviation="1.13333" result="effect1_foregroundBlur_20093_10892"/>
    </filter>
    <filter id="filter1_f_20093_10892" x="8.43276" y="0.506735" width="12.7126" height="6.84078" filterUnits="userSpaceOnUse" color-interpolation-filters="sRGB">
      <feFlood flood-opacity="0" result="BackgroundImageFix"/>
      <feBlend mode="normal" in="SourceGraphic" in2="BackgroundImageFix" result="shape"/>
      <feGaussianBlur stdDeviation="0.906667" result="effect1_foregroundBlur_20093_10892"/>
    </filter>
    <filter id="filter2_f_20093_10892" x="4.40151" y="2.75136" width="9.59932" height="9.55538" filterUnits="userSpaceOnUse" color-interpolation-filters="sRGB">
      <feFlood flood-opacity="0" result="BackgroundImageFix"/>
      <feBlend mode="normal" in="SourceGraphic" in2="BackgroundImageFix" result="shape"/>
      <feGaussianBlur stdDeviation="0.906667" result="effect1_foregroundBlur_20093_10892"/>
    </filter>
    <filter id="filter3_f_20093_10892" x="5.015" y="3.95482" width="6.88016" height="6.9407" filterUnits="userSpaceOnUse" color-interpolation-filters="sRGB">
      <feFlood flood-opacity="0" result="BackgroundImageFix"/>
      <feBlend mode="normal" in="SourceGraphic" in2="BackgroundImageFix" result="shape"/>
      <feGaussianBlur stdDeviation="0.68" result="effect1_foregroundBlur_20093_10892"/>
    </filter>
    <linearGradient id="paint0_linear_20093_10892" x1="17.2852" y1="0.5" x2="17.2852" y2="34.5" gradientUnits="userSpaceOnUse">
      <stop stop-color="#F84081"/>
      <stop offset="0.494792" stop-color="#E22669"/>
      <stop offset="1" stop-color="#D5185B"/>
    </linearGradient>
  </defs>
</svg>