<svg width="16" height="16" viewBox="0 0 16 16" fill="none" xmlns="http://www.w3.org/2000/svg">
<path fill-rule="evenodd" clip-rule="evenodd" d="M1.0649 13.7928C0.674377 14.1834 0.674376 14.8165 1.0649 15.2071C1.45543 15.5976 2.08859 15.5976 2.47911 15.2071L7.85795 9.82822L13.3788 15.3491C13.7694 15.7396 14.4025 15.7396 14.793 15.3491C15.1836 14.9586 15.1836 14.3254 14.793 13.9349L9.27216 8.414L15.207 2.47913C15.5976 2.0886 15.5976 1.45544 15.207 1.06491C14.8165 0.67439 14.1833 0.67439 13.7928 1.06491L7.85795 6.99979L2.06513 1.20697C1.6746 0.816443 1.04144 0.816443 0.650912 1.20697C0.260388 1.59749 0.260388 2.23066 0.650912 2.62118L6.44373 8.414L1.0649 13.7928Z" fill="#07C160"/>
</svg>
