<svg width="260" height="310" viewBox="0 0 260 310" fill="none" xmlns="http://www.w3.org/2000/svg">
<rect width="260" height="310" rx="12" fill="white"/>
<rect x="10" y="48" width="240" height="252" rx="10" fill="url(#paint0_linear_6922_296022)"/>
<path d="M216.188 0H33C36.3694 1.15284 39.3861 3.14499 41.7627 5.78666C45.5276 9.87031 48.4421 14.6558 50.3379 19.8666C50.9041 21.2452 51.3632 22.6649 51.7113 24.1133L52.2874 26.5066C53.203 30.3545 55.3988 33.7814 58.5182 36.2309C61.6377 38.6804 65.4976 40.0086 69.4712 39.9999H190.034C194.008 40.0098 197.868 38.682 200.988 36.2323C204.108 33.7826 206.303 30.3551 207.218 26.5066L207.801 24.1133C208.138 22.6658 208.586 21.2461 209.141 19.8666C211.054 14.6509 213.99 9.86507 217.776 5.78666C220.136 3.15071 223.134 1.15879 226.485 0L216.188 0Z" fill="#07C160"/>
<path d="M72.9766 12.4766H80.5391V9.89844C80.5391 9.26823 80.9974 8.92448 81.9141 8.86719C82.8307 8.92448 83.3177 9.26823 83.375 9.89844V12.4766H91.1953C91.8255 12.5339 92.1693 13.0208 92.2266 13.9375C92.1693 14.8542 91.8255 15.3125 91.1953 15.3125H83.7188C86.125 20.2969 88.6745 23.9349 91.3672 26.2266C92.3984 27.0859 92.5417 27.9453 91.7969 28.8047C91.1094 29.263 90.3073 29.1198 89.3906 28.375C86.6406 25.9688 84.2917 22.7891 82.3438 18.8359C80.9115 22.6745 78.362 25.9974 74.6953 28.8047C73.5495 29.5495 72.7188 29.5781 72.2031 28.8906C71.5156 27.974 71.6875 27.2578 72.7188 26.7422C76.7865 23.763 79.3359 19.9531 80.3672 15.3125H72.9766C72.2891 15.3125 71.9167 14.8542 71.8594 13.9375C71.9167 13.0208 72.2891 12.5339 72.9766 12.4766ZM83.1172 28.8047C82.487 27.9453 81.6562 26.8568 80.625 25.5391C80.1094 24.8516 80.1953 24.25 80.8828 23.7344C81.4557 23.276 82.0573 23.362 82.6875 23.9922C83.7188 25.0807 84.6068 26.1693 85.3516 27.2578C85.8099 28.1172 85.6667 28.776 84.9219 29.2344C84.1771 29.5781 83.5755 29.4349 83.1172 28.8047ZM102.711 10.9297V9.89844C102.711 9.21094 103.141 8.83854 104 8.78125C104.802 8.83854 105.232 9.21094 105.289 9.89844V10.9297H112.164C112.852 10.987 113.224 11.4167 113.281 12.2188C113.224 13.0208 112.852 13.4219 112.164 13.4219H105.289V14.8828H113.195C113.883 14.9401 114.255 15.3698 114.312 16.1719C114.255 16.974 113.883 17.375 113.195 17.375H109.758C109.529 18.0625 109.357 18.6927 109.242 19.2656H112.25C112.995 19.3229 113.424 19.7526 113.539 20.5547C113.424 21.3568 112.995 21.7578 112.25 21.7578H105.375V23.3047H112.938C113.682 23.362 114.083 23.7917 114.141 24.5938C114.083 25.3958 113.682 25.7969 112.938 25.7969H105.375V28.1172C105.318 28.9193 104.859 29.349 104 29.4062C103.198 29.349 102.797 28.8906 102.797 28.0312V25.7969H95.3203C94.5182 25.7969 94.0885 25.3958 94.0312 24.5938C94.0885 23.7917 94.5182 23.362 95.3203 23.3047H102.797V21.7578H96.0938C95.349 21.7578 94.9479 21.3568 94.8906 20.5547C94.9479 19.7526 95.349 19.3229 96.0938 19.2656H99.1875C98.9583 18.8646 98.7292 18.2344 98.5 17.375H95.0625C94.2604 17.375 93.8307 16.974 93.7734 16.1719C93.8307 15.3698 94.2604 14.9401 95.0625 14.8828H102.711V13.4219H96.0938C95.2917 13.4219 94.862 13.0208 94.8047 12.2188C94.862 11.4167 95.2917 10.987 96.0938 10.9297H102.711ZM106.578 19.2656C106.635 18.75 106.779 18.1198 107.008 17.375H101.25C101.365 18.0625 101.565 18.6927 101.852 19.2656H106.578ZM124.195 12.2188C123.451 12.2188 123.049 11.8464 122.992 11.1016C123.049 10.3568 123.451 9.95573 124.195 9.89844H133.391C134.021 9.95573 134.365 10.3568 134.422 11.1016C134.422 11.8464 134.107 12.2188 133.477 12.2188H124.195ZM122.648 17.4609C121.904 17.4609 121.474 17.0885 121.359 16.3438C121.417 15.5417 121.818 15.112 122.562 15.0547H134.766C135.396 15.112 135.74 15.513 135.797 16.2578C135.74 17.0599 135.396 17.4609 134.766 17.4609H128.234C127.891 18.0339 127.604 18.5495 127.375 19.0078C126.745 20.1536 126.315 20.9271 126.086 21.3281C125.914 21.6146 125.857 21.8151 125.914 21.9297C125.971 22.0443 126.172 22.0729 126.516 22.0156C128.406 22.0156 130.068 21.9583 131.5 21.8438C131.385 21.6719 131.214 21.4427 130.984 21.1562C130.698 20.7552 130.555 20.3828 130.555 20.0391C131.013 18.7786 131.815 18.6068 132.961 19.5234C133.935 20.7266 134.708 21.9297 135.281 23.1328C135.682 24.3932 135.339 25.0521 134.25 25.1094C133.792 25.1094 133.419 24.8802 133.133 24.4219C133.018 24.25 132.932 24.1068 132.875 23.9922C131.557 24.1641 129.953 24.3073 128.062 24.4219C126.229 24.4792 124.997 24.4792 124.367 24.4219C122.362 24.25 121.961 23.1901 123.164 21.2422C123.393 20.8984 123.737 20.2682 124.195 19.3516C124.539 18.7786 124.911 18.1484 125.312 17.4609H122.648ZM119.555 13.5938C119.154 13.3073 118.38 12.7344 117.234 11.875C116.604 11.474 116.461 10.9583 116.805 10.3281C117.206 9.8125 117.807 9.66927 118.609 9.89844C120.271 10.6432 121.216 11.5026 121.445 12.4766C121.216 13.737 120.586 14.1094 119.555 13.5938ZM117.234 16.1719H119.125C120.214 16.1719 120.758 16.8307 120.758 18.1484V23.6484C120.93 25.2526 122.734 26.1406 126.172 26.3125C129.151 26.3125 132.159 26.3125 135.195 26.3125C135.883 26.3698 136.227 26.7135 136.227 27.3438C136.169 28.0885 135.797 28.4896 135.109 28.5469C132.188 28.5469 129.237 28.5469 126.258 28.5469C123.68 28.5469 121.703 28.0312 120.328 27C119.984 26.7708 119.755 26.6562 119.641 26.6562C119.469 26.6562 119.039 27 118.352 27.6875C118.18 27.9167 118.094 28.0599 118.094 28.1172C117.349 28.6328 116.69 28.6901 116.117 28.2891C115.659 27.6589 115.716 27.1146 116.289 26.6562C116.346 26.599 116.432 26.513 116.547 26.3984C117.635 25.0807 118.237 24.3932 118.352 24.3359V19.1797C118.294 18.8359 118.094 18.6354 117.75 18.5781H117.148C116.461 18.5781 116.117 18.1771 116.117 17.375C116.174 16.6302 116.547 16.2292 117.234 16.1719ZM139.836 12.6484C139.148 12.6484 138.805 12.2474 138.805 11.4453C138.805 10.6432 139.148 10.2135 139.836 10.1562H156.164C157.482 10.3854 157.768 11.1589 157.023 12.4766C155.419 13.8516 153.328 15.3984 150.75 17.1172C150.292 17.4609 150.206 17.8047 150.492 18.1484C151.695 20.2682 152.383 22.2448 152.555 24.0781C152.784 27.9167 150.836 29.6354 146.711 29.2344C145.508 29.1771 144.276 28.9766 143.016 28.6328C142.042 28.2891 141.612 27.7448 141.727 27C142.013 26.2552 142.643 25.9688 143.617 26.1406C144.763 26.4844 146.023 26.6849 147.398 26.7422C149.003 26.9141 149.776 26.0833 149.719 24.25C149.776 22.5312 149.003 20.5547 147.398 18.3203C146.539 17.4036 146.596 16.6589 147.57 16.0859C147.685 16.0286 147.885 15.8854 148.172 15.6562C150.292 14.3385 151.724 13.3932 152.469 12.8203C152.469 12.8203 152.44 12.763 152.383 12.6484H139.836ZM171.547 28.8047C168.854 28.9193 167.622 28.1745 167.852 26.5703V11.7891C167.68 10.4141 168.424 9.78385 170.086 9.89844H177.219C178.708 9.84115 179.424 10.4714 179.367 11.7891V18.8359C179.367 20.2109 178.737 20.8411 177.477 20.7266H170.344V25.7109C170.286 26.3411 170.688 26.6276 171.547 26.5703H175.758C177.133 26.7995 177.763 25.9688 177.648 24.0781C177.648 23.2188 178.021 22.7604 178.766 22.7031C179.51 22.7604 179.94 23.2188 180.055 24.0781C180.055 26.026 179.74 27.2865 179.109 27.8594C178.536 28.5469 177.391 28.862 175.672 28.8047H171.547ZM160.547 12.3906C160.49 11.1875 161.034 10.6146 162.18 10.6719H164.844C166.276 10.5573 166.906 11.1302 166.734 12.3906V23.8203C166.734 25.0234 166.161 25.5964 165.016 25.5391H162.438C161.12 25.5964 160.49 25.0521 160.547 23.9062V12.3906ZM170.344 12.5625V18.2344H172.406V12.3047H170.602C170.43 12.3047 170.344 12.3906 170.344 12.5625ZM176.531 18.2344C176.76 18.2917 176.875 18.1198 176.875 17.7188V12.7344C176.875 12.5052 176.76 12.362 176.531 12.3047H174.898V18.2344H176.531ZM164.07 23.2188C164.299 23.276 164.414 23.0755 164.414 22.6172V13.5938C164.414 13.25 164.242 13.0781 163.898 13.0781H163.383C162.982 13.0781 162.81 13.25 162.867 13.5938V22.7031C162.867 23.0469 163.01 23.2188 163.297 23.2188H164.07ZM185.211 21.6719L185.039 13.25V12.9062C185.039 11.875 185.555 11.3307 186.586 11.2734C187.56 11.3307 188.076 11.875 188.133 12.9062V13.25L187.961 21.5859C187.789 22.4453 187.302 22.9036 186.5 22.9609C185.641 22.9609 185.211 22.5312 185.211 21.6719ZM186.5 23.9062C187.531 23.9635 188.104 24.5365 188.219 25.625C188.104 26.6562 187.531 27.2005 186.5 27.2578C185.411 27.2005 184.839 26.6562 184.781 25.625C184.839 24.5365 185.411 23.9635 186.5 23.9062Z" fill="white"/>
<path fill-rule="evenodd" clip-rule="evenodd" d="M223.5 104C222.672 104 222 104.672 222 105.5C222 106.328 222.672 107 223.5 107H235.5C236.328 107 237 106.328 237 105.5C237 104.672 236.328 104 235.5 104H223.5ZM213 112C212.448 112 212 112.448 212 113C212 113.552 212.448 114 213 114H223C223.552 114 224 113.552 224 113C224 112.448 223.552 112 223 112H213Z" fill="url(#paint1_linear_6922_296022)"/>
<path fill-rule="evenodd" clip-rule="evenodd" d="M36.5 104C37.3284 104 38 104.672 38 105.5C38 106.328 37.3284 107 36.5 107H24.5C23.6716 107 23 106.328 23 105.5C23 104.672 23.6716 104 24.5 104H36.5ZM47 112C47.5523 112 48 112.448 48 113C48 113.552 47.5523 114 47 114H37C36.4477 114 36 113.552 36 113C36 112.448 36.4477 112 37 112H47Z" fill="url(#paint2_linear_6922_296022)"/>
<defs>
<linearGradient id="paint0_linear_6922_296022" x1="130" y1="48" x2="130" y2="300" gradientUnits="userSpaceOnUse">
<stop stop-color="#F9FFFC"/>
<stop offset="1" stop-color="#D7FFEA"/>
</linearGradient>
<linearGradient id="paint1_linear_6922_296022" x1="224.5" y1="116.5" x2="237" y2="102" gradientUnits="userSpaceOnUse">
<stop stop-color="#39E089"/>
<stop offset="1" stop-color="#07C160"/>
</linearGradient>
<linearGradient id="paint2_linear_6922_296022" x1="35.5" y1="116.5" x2="23" y2="102" gradientUnits="userSpaceOnUse">
<stop stop-color="#39E089"/>
<stop offset="1" stop-color="#07C160"/>
</linearGradient>
</defs>
</svg>
